<?xml version="1.0" encoding="UTF-8"?>
<svg xmlns="http://www.w3.org/2000/svg" xmlns:xlink="http://www.w3.org/1999/xlink" width="504pt" height="720pt" viewBox="0 0 504 720">
<defs>
<g>
<g id="glyph-0-0">
<path d="M 3.21875 -12.390625 C 3.3125 -12.109375 3.425781 -11.742188 3.5625 -11.296875 C 3.707031 -10.859375 3.859375 -10.382812 4.015625 -9.875 C 4.179688 -9.375 4.34375 -8.863281 4.5 -8.34375 C 4.664062 -7.820312 4.820312 -7.34375 4.96875 -6.90625 C 5.125 -7.394531 5.285156 -7.90625 5.453125 -8.4375 C 5.628906 -8.96875 5.796875 -9.472656 5.953125 -9.953125 C 6.117188 -10.441406 6.269531 -10.898438 6.40625 -11.328125 C 6.539062 -11.753906 6.660156 -12.109375 6.765625 -12.390625 L 8.8125 -12.390625 C 8.90625 -11.304688 8.992188 -10.25 9.078125 -9.21875 C 9.160156 -8.195312 9.234375 -7.179688 9.296875 -6.171875 C 9.359375 -5.160156 9.40625 -4.144531 9.4375 -3.125 C 9.476562 -2.101562 9.515625 -1.0625 9.546875 0 L 7.28125 0 L 7.40625 -9.625 L 5.890625 -4.390625 L 4.078125 -4.390625 L 2.625 -9.625 L 2.71875 0 L 0.453125 0 C 0.492188 -1.007812 0.535156 -2.0625 0.578125 -3.15625 C 0.628906 -4.25 0.679688 -5.335938 0.734375 -6.421875 C 0.796875 -7.503906 0.863281 -8.550781 0.9375 -9.5625 C 1.007812 -10.582031 1.09375 -11.523438 1.1875 -12.390625 Z M 3.21875 -12.390625 "/>
</g>
<g id="glyph-0-1">
<path d="M 7.109375 0 C 6.546875 -1.375 5.929688 -2.742188 5.265625 -4.109375 C 4.609375 -5.484375 3.898438 -6.851562 3.140625 -8.21875 L 3.140625 0 L 0.921875 0 L 0.921875 -12.390625 L 2.90625 -12.390625 C 3.28125 -11.804688 3.648438 -11.171875 4.015625 -10.484375 C 4.390625 -9.796875 4.753906 -9.109375 5.109375 -8.421875 C 5.460938 -7.742188 5.789062 -7.082031 6.09375 -6.4375 C 6.394531 -5.800781 6.648438 -5.242188 6.859375 -4.765625 L 6.859375 -12.390625 L 9.09375 -12.390625 L 9.09375 0 Z M 7.109375 0 "/>
</g>
<g id="glyph-1-0">
<path d="M 8.09375 0 L 7.34375 -3.25 L 2.578125 -3.25 L 1.859375 0 L 0.1875 0 C 0.40625 -0.882812 0.65625 -1.835938 0.9375 -2.859375 C 1.21875 -3.890625 1.519531 -4.941406 1.84375 -6.015625 C 2.175781 -7.097656 2.519531 -8.179688 2.875 -9.265625 C 3.238281 -10.359375 3.617188 -11.398438 4.015625 -12.390625 L 6.0625 -12.390625 C 6.445312 -11.398438 6.816406 -10.359375 7.171875 -9.265625 C 7.523438 -8.179688 7.859375 -7.097656 8.171875 -6.015625 C 8.484375 -4.941406 8.78125 -3.890625 9.0625 -2.859375 C 9.34375 -1.835938 9.597656 -0.882812 9.828125 0 Z M 4.984375 -10.953125 C 4.679688 -10.109375 4.347656 -9.128906 3.984375 -8.015625 C 3.617188 -6.910156 3.28125 -5.773438 2.96875 -4.609375 L 6.96875 -4.609375 C 6.65625 -5.804688 6.320312 -6.960938 5.96875 -8.078125 C 5.613281 -9.191406 5.285156 -10.148438 4.984375 -10.953125 Z M 4.984375 -10.953125 "/>
</g>
<g id="glyph-1-1">
<path d="M 9.203125 -0.515625 C 8.734375 -0.253906 8.234375 -0.0585938 7.703125 0.0625 C 7.179688 0.195312 6.625 0.265625 6.03125 0.265625 C 5.289062 0.265625 4.609375 0.132812 3.984375 -0.125 C 3.367188 -0.382812 2.832031 -0.78125 2.375 -1.3125 C 1.925781 -1.84375 1.570312 -2.515625 1.3125 -3.328125 C 1.050781 -4.140625 0.921875 -5.097656 0.921875 -6.203125 C 0.921875 -7.253906 1.054688 -8.179688 1.328125 -8.984375 C 1.597656 -9.785156 1.96875 -10.457031 2.4375 -11 C 2.90625 -11.550781 3.453125 -11.96875 4.078125 -12.25 C 4.710938 -12.53125 5.378906 -12.671875 6.078125 -12.671875 C 6.578125 -12.671875 7.082031 -12.601562 7.59375 -12.46875 C 8.101562 -12.332031 8.609375 -12.113281 9.109375 -11.8125 L 8.625 -10.453125 C 7.75 -10.953125 6.921875 -11.203125 6.140625 -11.203125 C 5.597656 -11.203125 5.109375 -11.085938 4.671875 -10.859375 C 4.234375 -10.628906 3.863281 -10.289062 3.5625 -9.84375 C 3.257812 -9.40625 3.023438 -8.878906 2.859375 -8.265625 C 2.691406 -7.648438 2.609375 -6.960938 2.609375 -6.203125 C 2.609375 -5.347656 2.695312 -4.609375 2.875 -3.984375 C 3.050781 -3.359375 3.300781 -2.835938 3.625 -2.421875 C 3.945312 -2.003906 4.328125 -1.695312 4.765625 -1.5 C 5.210938 -1.300781 5.695312 -1.203125 6.21875 -1.203125 C 6.613281 -1.203125 7.023438 -1.25 7.453125 -1.34375 C 7.878906 -1.445312 8.316406 -1.625 8.765625 -1.875 Z M 9.203125 -0.515625 "/>
</g>
<g id="glyph-1-2">
<path d="M 9.234375 -12.390625 L 9.234375 -10.984375 L 5.828125 -10.984375 L 5.828125 0 L 4.1875 0 L 4.1875 -10.984375 L 0.78125 -10.984375 L 0.78125 -12.390625 Z M 9.234375 -12.390625 "/>
</g>
<g id="glyph-1-3">
<path d="M 7.46875 -6.109375 L 9.109375 -6.109375 L 9.109375 -0.296875 C 8.859375 -0.203125 8.453125 -0.0859375 7.890625 0.046875 C 7.328125 0.191406 6.664062 0.265625 5.90625 0.265625 C 5.15625 0.265625 4.472656 0.121094 3.859375 -0.15625 C 3.242188 -0.445312 2.71875 -0.863281 2.28125 -1.40625 C 1.851562 -1.957031 1.519531 -2.632812 1.28125 -3.4375 C 1.039062 -4.25 0.921875 -5.171875 0.921875 -6.203125 C 0.921875 -7.242188 1.050781 -8.164062 1.3125 -8.96875 C 1.582031 -9.769531 1.945312 -10.441406 2.40625 -10.984375 C 2.875 -11.535156 3.410156 -11.953125 4.015625 -12.234375 C 4.628906 -12.523438 5.289062 -12.671875 6 -12.671875 C 6.457031 -12.671875 6.859375 -12.632812 7.203125 -12.5625 C 7.546875 -12.5 7.84375 -12.421875 8.09375 -12.328125 C 8.34375 -12.234375 8.546875 -12.132812 8.703125 -12.03125 C 8.867188 -11.9375 8.988281 -11.863281 9.0625 -11.8125 L 8.53125 -10.421875 C 8.21875 -10.660156 7.851562 -10.859375 7.4375 -11.015625 C 7.019531 -11.171875 6.578125 -11.25 6.109375 -11.25 C 5.597656 -11.25 5.125 -11.128906 4.6875 -10.890625 C 4.257812 -10.648438 3.890625 -10.304688 3.578125 -9.859375 C 3.273438 -9.421875 3.035156 -8.890625 2.859375 -8.265625 C 2.691406 -7.648438 2.609375 -6.960938 2.609375 -6.203125 C 2.609375 -5.453125 2.679688 -4.769531 2.828125 -4.15625 C 2.984375 -3.550781 3.207031 -3.023438 3.5 -2.578125 C 3.789062 -2.140625 4.15625 -1.796875 4.59375 -1.546875 C 5.03125 -1.304688 5.523438 -1.1875 6.078125 -1.1875 C 6.472656 -1.1875 6.773438 -1.210938 6.984375 -1.265625 C 7.203125 -1.316406 7.363281 -1.367188 7.46875 -1.421875 Z M 7.46875 -6.109375 "/>
</g>
<g id="glyph-1-4">
<path d="M 9.40625 -12.390625 C 8.75 -11.410156 8.03125 -10.441406 7.25 -9.484375 C 6.46875 -8.523438 5.625 -7.566406 4.71875 -6.609375 C 5.144531 -6.242188 5.597656 -5.820312 6.078125 -5.34375 C 6.566406 -4.863281 7.039062 -4.335938 7.5 -3.765625 C 7.957031 -3.203125 8.390625 -2.597656 8.796875 -1.953125 C 9.203125 -1.316406 9.546875 -0.664062 9.828125 0 L 7.96875 0 C 7.632812 -0.613281 7.273438 -1.210938 6.890625 -1.796875 C 6.503906 -2.390625 6.09375 -2.9375 5.65625 -3.4375 C 5.21875 -3.945312 4.769531 -4.410156 4.3125 -4.828125 C 3.851562 -5.253906 3.390625 -5.617188 2.921875 -5.921875 L 2.921875 0 L 1.28125 0 L 1.28125 -12.390625 L 2.921875 -12.390625 L 2.921875 -6.859375 C 3.785156 -7.753906 4.613281 -8.6875 5.40625 -9.65625 C 6.207031 -10.632812 6.90625 -11.546875 7.5 -12.390625 Z M 9.40625 -12.390625 "/>
</g>
<g id="glyph-1-5">
<path d="M 0.828125 -9.03125 C 1.617188 -9.332031 2.367188 -9.484375 3.078125 -9.484375 C 3.460938 -9.484375 3.828125 -9.425781 4.171875 -9.3125 C 4.515625 -9.195312 4.804688 -9.019531 5.046875 -8.78125 C 5.617188 -9.25 6.234375 -9.484375 6.890625 -9.484375 C 7.203125 -9.484375 7.5 -9.421875 7.78125 -9.296875 C 8.070312 -9.179688 8.328125 -9.003906 8.546875 -8.765625 C 8.773438 -8.523438 8.953125 -8.222656 9.078125 -7.859375 C 9.210938 -7.503906 9.28125 -7.085938 9.28125 -6.609375 L 9.28125 0 L 7.78125 0 L 7.78125 -6.640625 C 7.78125 -7.117188 7.671875 -7.484375 7.453125 -7.734375 C 7.242188 -7.992188 6.984375 -8.125 6.671875 -8.125 C 6.503906 -8.125 6.332031 -8.082031 6.15625 -8 C 5.988281 -7.925781 5.832031 -7.800781 5.6875 -7.625 C 5.757812 -7.320312 5.796875 -6.984375 5.796875 -6.609375 L 5.796875 -3.578125 L 4.296875 -3.578125 L 4.296875 -6.625 C 4.296875 -7.09375 4.222656 -7.457031 4.078125 -7.71875 C 3.929688 -7.988281 3.644531 -8.125 3.21875 -8.125 C 2.957031 -8.125 2.660156 -8.066406 2.328125 -7.953125 L 2.328125 0 L 0.828125 0 Z M 0.828125 -9.03125 "/>
</g>
<g id="glyph-1-6">
<path d="M 5.1875 -9.5 C 6.4375 -9.5 7.398438 -9.109375 8.078125 -8.328125 C 8.765625 -7.554688 9.109375 -6.375 9.109375 -4.78125 L 9.109375 -4.203125 L 2.46875 -4.203125 C 2.53125 -3.242188 2.84375 -2.515625 3.40625 -2.015625 C 3.976562 -1.515625 4.773438 -1.265625 5.796875 -1.265625 C 6.390625 -1.265625 6.890625 -1.3125 7.296875 -1.40625 C 7.710938 -1.5 8.03125 -1.597656 8.25 -1.703125 L 8.46875 -0.296875 C 8.269531 -0.191406 7.910156 -0.0820312 7.390625 0.03125 C 6.867188 0.15625 6.28125 0.21875 5.625 0.21875 C 4.820312 0.21875 4.117188 0.0976562 3.515625 -0.140625 C 2.910156 -0.390625 2.40625 -0.726562 2 -1.15625 C 1.601562 -1.582031 1.300781 -2.09375 1.09375 -2.6875 C 0.894531 -3.28125 0.796875 -3.925781 0.796875 -4.625 C 0.796875 -5.445312 0.921875 -6.164062 1.171875 -6.78125 C 1.429688 -7.394531 1.765625 -7.898438 2.171875 -8.296875 C 2.585938 -8.703125 3.054688 -9.003906 3.578125 -9.203125 C 4.097656 -9.398438 4.632812 -9.5 5.1875 -9.5 Z M 7.421875 -5.546875 C 7.421875 -6.328125 7.210938 -6.945312 6.796875 -7.40625 C 6.390625 -7.875 5.84375 -8.109375 5.15625 -8.109375 C 4.769531 -8.109375 4.421875 -8.035156 4.109375 -7.890625 C 3.796875 -7.742188 3.523438 -7.550781 3.296875 -7.3125 C 3.078125 -7.070312 2.898438 -6.796875 2.765625 -6.484375 C 2.628906 -6.179688 2.539062 -5.867188 2.5 -5.546875 Z M 7.421875 -5.546875 "/>
</g>
<g id="glyph-1-7">
<path d="M 2.140625 0 L 2.140625 -8.78125 C 3.503906 -9.25 4.878906 -9.484375 6.265625 -9.484375 C 6.691406 -9.484375 7.097656 -9.46875 7.484375 -9.4375 C 7.867188 -9.40625 8.296875 -9.335938 8.765625 -9.234375 L 8.46875 -7.765625 C 8.039062 -7.890625 7.660156 -7.96875 7.328125 -8 C 7.003906 -8.03125 6.648438 -8.046875 6.265625 -8.046875 C 5.453125 -8.046875 4.625 -7.929688 3.78125 -7.703125 L 3.78125 0 Z M 2.140625 0 "/>
</g>
<g id="glyph-1-8">
<path d="M 1.5 -9.828125 C 2.175781 -10.097656 2.832031 -10.4375 3.46875 -10.84375 C 4.113281 -11.25 4.710938 -11.765625 5.265625 -12.390625 L 6.421875 -12.390625 L 6.421875 -1.40625 L 8.765625 -1.40625 L 8.765625 0 L 2.109375 0 L 2.109375 -1.40625 L 4.78125 -1.40625 L 4.78125 -10.09375 C 4.632812 -9.957031 4.457031 -9.816406 4.25 -9.671875 C 4.039062 -9.535156 3.8125 -9.398438 3.5625 -9.265625 C 3.320312 -9.128906 3.066406 -9 2.796875 -8.875 C 2.535156 -8.757812 2.273438 -8.664062 2.015625 -8.59375 Z M 1.5 -9.828125 "/>
</g>
<g id="glyph-1-9">
<path d="M 6.484375 -1.28125 C 6.484375 -0.882812 6.347656 -0.53125 6.078125 -0.21875 C 5.816406 0.0820312 5.46875 0.234375 5.03125 0.234375 C 4.570312 0.234375 4.207031 0.0820312 3.9375 -0.21875 C 3.675781 -0.53125 3.546875 -0.882812 3.546875 -1.28125 C 3.546875 -1.695312 3.675781 -2.054688 3.9375 -2.359375 C 4.207031 -2.671875 4.570312 -2.828125 5.03125 -2.828125 C 5.46875 -2.828125 5.816406 -2.671875 6.078125 -2.359375 C 6.347656 -2.054688 6.484375 -1.695312 6.484375 -1.28125 Z M 6.484375 -7.75 C 6.484375 -7.351562 6.347656 -7 6.078125 -6.6875 C 5.816406 -6.382812 5.46875 -6.234375 5.03125 -6.234375 C 4.570312 -6.234375 4.207031 -6.382812 3.9375 -6.6875 C 3.675781 -7 3.546875 -7.351562 3.546875 -7.75 C 3.546875 -8.164062 3.675781 -8.523438 3.9375 -8.828125 C 4.207031 -9.140625 4.570312 -9.296875 5.03125 -9.296875 C 5.46875 -9.296875 5.816406 -9.140625 6.078125 -8.828125 C 6.347656 -8.523438 6.484375 -8.164062 6.484375 -7.75 Z M 6.484375 -7.75 "/>
</g>
<g id="glyph-1-10">
<path d="M 5.828125 -10.984375 L 5.828125 -1.40625 L 8.21875 -1.40625 L 8.21875 0 L 1.78125 0 L 1.78125 -1.40625 L 4.1875 -1.40625 L 4.1875 -10.984375 L 1.78125 -10.984375 L 1.78125 -12.390625 L 8.21875 -12.390625 L 8.21875 -10.984375 Z M 5.828125 -10.984375 "/>
</g>
<g id="glyph-1-11">
<path d="M 1.421875 -9.03125 C 2.023438 -9.175781 2.625 -9.285156 3.21875 -9.359375 C 3.8125 -9.441406 4.367188 -9.484375 4.890625 -9.484375 C 6.128906 -9.484375 7.0625 -9.160156 7.6875 -8.515625 C 8.320312 -7.878906 8.640625 -6.851562 8.640625 -5.4375 L 8.640625 0 L 7 0 L 7 -5.140625 C 7 -5.742188 6.945312 -6.234375 6.84375 -6.609375 C 6.738281 -6.984375 6.585938 -7.269531 6.390625 -7.46875 C 6.203125 -7.675781 5.96875 -7.820312 5.6875 -7.90625 C 5.414062 -7.988281 5.117188 -8.03125 4.796875 -8.03125 C 4.535156 -8.03125 4.253906 -8.007812 3.953125 -7.96875 C 3.648438 -7.9375 3.359375 -7.894531 3.078125 -7.84375 L 3.078125 0 L 1.421875 0 Z M 1.421875 -9.03125 "/>
</g>
<g id="glyph-1-12">
<path d="M 4.859375 -9.28125 L 8.78125 -9.28125 L 8.78125 -7.90625 L 4.859375 -7.90625 L 4.859375 -3.578125 C 4.859375 -3.109375 4.890625 -2.726562 4.953125 -2.4375 C 5.023438 -2.144531 5.140625 -1.910156 5.296875 -1.734375 C 5.453125 -1.554688 5.648438 -1.429688 5.890625 -1.359375 C 6.128906 -1.296875 6.421875 -1.265625 6.765625 -1.265625 C 7.242188 -1.265625 7.628906 -1.300781 7.921875 -1.375 C 8.210938 -1.457031 8.492188 -1.566406 8.765625 -1.703125 L 9 -0.296875 C 8.820312 -0.222656 8.523438 -0.117188 8.109375 0.015625 C 7.703125 0.148438 7.203125 0.21875 6.609375 0.21875 C 5.910156 0.21875 5.34375 0.140625 4.90625 -0.015625 C 4.46875 -0.179688 4.125 -0.421875 3.875 -0.734375 C 3.625 -1.054688 3.453125 -1.453125 3.359375 -1.921875 C 3.265625 -2.398438 3.21875 -2.953125 3.21875 -3.578125 L 3.21875 -7.90625 L 1.265625 -7.90625 L 1.265625 -9.28125 L 3.21875 -9.28125 L 3.21875 -11.890625 L 4.859375 -12.171875 Z M 4.859375 -9.28125 "/>
</g>
<g id="glyph-1-13">
<path d="M 6.765625 0.21875 C 6.179688 0.21875 5.691406 0.140625 5.296875 -0.015625 C 4.910156 -0.179688 4.601562 -0.421875 4.375 -0.734375 C 4.15625 -1.054688 4 -1.453125 3.90625 -1.921875 C 3.8125 -2.398438 3.765625 -2.953125 3.765625 -3.578125 L 3.765625 -12.375 L 1.078125 -12.375 L 1.078125 -13.765625 L 5.40625 -13.765625 L 5.40625 -3.578125 C 5.40625 -3.109375 5.429688 -2.726562 5.484375 -2.4375 C 5.546875 -2.144531 5.640625 -1.910156 5.765625 -1.734375 C 5.898438 -1.554688 6.0625 -1.429688 6.25 -1.359375 C 6.4375 -1.296875 6.65625 -1.265625 6.90625 -1.265625 C 7.289062 -1.265625 7.648438 -1.3125 7.984375 -1.40625 C 8.316406 -1.5 8.578125 -1.597656 8.765625 -1.703125 L 9 -0.296875 C 8.925781 -0.253906 8.816406 -0.203125 8.671875 -0.140625 C 8.523438 -0.0859375 8.347656 -0.0351562 8.140625 0.015625 C 7.941406 0.0664062 7.722656 0.113281 7.484375 0.15625 C 7.253906 0.195312 7.015625 0.21875 6.765625 0.21875 Z M 6.765625 0.21875 "/>
</g>
<g id="glyph-1-14">
<path d="M 5.109375 -1.1875 C 5.515625 -1.1875 5.878906 -1.195312 6.203125 -1.21875 C 6.535156 -1.25 6.8125 -1.285156 7.03125 -1.328125 L 7.03125 -4.078125 C 6.8125 -4.148438 6.550781 -4.203125 6.25 -4.234375 C 5.945312 -4.273438 5.628906 -4.296875 5.296875 -4.296875 C 4.992188 -4.296875 4.695312 -4.269531 4.40625 -4.21875 C 4.113281 -4.175781 3.851562 -4.09375 3.625 -3.96875 C 3.394531 -3.851562 3.207031 -3.695312 3.0625 -3.5 C 2.914062 -3.3125 2.84375 -3.070312 2.84375 -2.78125 C 2.84375 -2.175781 3.046875 -1.757812 3.453125 -1.53125 C 3.859375 -1.300781 4.410156 -1.1875 5.109375 -1.1875 Z M 4.9375 -9.5 C 5.632812 -9.5 6.21875 -9.410156 6.6875 -9.234375 C 7.164062 -9.066406 7.550781 -8.828125 7.84375 -8.515625 C 8.132812 -8.210938 8.335938 -7.84375 8.453125 -7.40625 C 8.578125 -6.96875 8.640625 -6.488281 8.640625 -5.96875 L 8.640625 -0.15625 C 8.253906 -0.09375 7.742188 -0.0117188 7.109375 0.078125 C 6.484375 0.171875 5.832031 0.21875 5.15625 0.21875 C 4.65625 0.21875 4.164062 0.171875 3.6875 0.078125 C 3.207031 -0.00390625 2.78125 -0.15625 2.40625 -0.375 C 2.03125 -0.59375 1.726562 -0.894531 1.5 -1.28125 C 1.269531 -1.664062 1.15625 -2.160156 1.15625 -2.765625 C 1.15625 -3.296875 1.269531 -3.742188 1.5 -4.109375 C 1.738281 -4.472656 2.039062 -4.769531 2.40625 -5 C 2.78125 -5.226562 3.203125 -5.390625 3.671875 -5.484375 C 4.148438 -5.585938 4.628906 -5.640625 5.109375 -5.640625 C 5.753906 -5.640625 6.394531 -5.566406 7.03125 -5.421875 L 7.03125 -5.890625 C 7.03125 -6.171875 7 -6.4375 6.9375 -6.6875 C 6.875 -6.945312 6.757812 -7.179688 6.59375 -7.390625 C 6.425781 -7.609375 6.195312 -7.78125 5.90625 -7.90625 C 5.625 -8.039062 5.253906 -8.109375 4.796875 -8.109375 C 4.222656 -8.109375 3.722656 -8.066406 3.296875 -7.984375 C 2.867188 -7.898438 2.546875 -7.820312 2.328125 -7.75 L 2.125 -9.109375 C 2.351562 -9.210938 2.726562 -9.300781 3.25 -9.375 C 3.78125 -9.457031 4.34375 -9.5 4.9375 -9.5 Z M 4.9375 -9.5 "/>
</g>
<g id="glyph-1-15">
<path d="M 9.40625 -9.28125 C 9.164062 -8.414062 8.890625 -7.566406 8.578125 -6.734375 C 8.273438 -5.898438 7.960938 -5.085938 7.640625 -4.296875 C 7.328125 -3.503906 7.003906 -2.742188 6.671875 -2.015625 C 6.335938 -1.296875 6.015625 -0.625 5.703125 0 L 4.203125 0 C 3.578125 -1.25 2.941406 -2.675781 2.296875 -4.28125 C 1.660156 -5.882812 1.09375 -7.550781 0.59375 -9.28125 L 2.40625 -9.28125 C 2.5625 -8.695312 2.742188 -8.078125 2.953125 -7.421875 C 3.160156 -6.765625 3.375 -6.109375 3.59375 -5.453125 C 3.820312 -4.804688 4.050781 -4.175781 4.28125 -3.5625 C 4.519531 -2.957031 4.753906 -2.414062 4.984375 -1.9375 C 5.210938 -2.414062 5.445312 -2.957031 5.6875 -3.5625 C 5.9375 -4.175781 6.179688 -4.804688 6.421875 -5.453125 C 6.660156 -6.109375 6.890625 -6.765625 7.109375 -7.421875 C 7.335938 -8.078125 7.53125 -8.695312 7.6875 -9.28125 Z M 9.40625 -9.28125 "/>
</g>
<g id="glyph-1-16">
<path d="M 6.921875 -7.328125 C 6.734375 -7.503906 6.457031 -7.664062 6.09375 -7.8125 C 5.738281 -7.96875 5.367188 -8.046875 4.984375 -8.046875 C 4.546875 -8.046875 4.164062 -7.957031 3.84375 -7.78125 C 3.53125 -7.613281 3.273438 -7.378906 3.078125 -7.078125 C 2.878906 -6.773438 2.734375 -6.410156 2.640625 -5.984375 C 2.546875 -5.566406 2.5 -5.117188 2.5 -4.640625 C 2.5 -3.554688 2.75 -2.722656 3.25 -2.140625 C 3.757812 -1.554688 4.425781 -1.265625 5.25 -1.265625 C 5.65625 -1.265625 6 -1.28125 6.28125 -1.3125 C 6.570312 -1.351562 6.785156 -1.394531 6.921875 -1.4375 Z M 6.921875 -13.59375 L 8.59375 -13.875 L 8.59375 -0.265625 C 8.226562 -0.148438 7.765625 -0.0390625 7.203125 0.0625 C 6.640625 0.164062 5.988281 0.21875 5.25 0.21875 C 4.582031 0.21875 3.972656 0.105469 3.421875 -0.109375 C 2.878906 -0.335938 2.410156 -0.660156 2.015625 -1.078125 C 1.628906 -1.503906 1.328125 -2.015625 1.109375 -2.609375 C 0.898438 -3.210938 0.796875 -3.890625 0.796875 -4.640625 C 0.796875 -5.359375 0.882812 -6.015625 1.0625 -6.609375 C 1.25 -7.203125 1.515625 -7.710938 1.859375 -8.140625 C 2.203125 -8.566406 2.617188 -8.898438 3.109375 -9.140625 C 3.597656 -9.378906 4.15625 -9.5 4.78125 -9.5 C 5.28125 -9.5 5.710938 -9.4375 6.078125 -9.3125 C 6.453125 -9.195312 6.734375 -9.078125 6.921875 -8.953125 Z M 6.921875 -13.59375 "/>
</g>
<g id="glyph-1-17">
<path d="M 4.25 -1.203125 C 5.300781 -1.203125 6.050781 -1.410156 6.5 -1.828125 C 6.945312 -2.253906 7.171875 -2.816406 7.171875 -3.515625 C 7.171875 -3.972656 7.078125 -4.351562 6.890625 -4.65625 C 6.703125 -4.96875 6.453125 -5.21875 6.140625 -5.40625 C 5.835938 -5.59375 5.484375 -5.722656 5.078125 -5.796875 C 4.679688 -5.878906 4.265625 -5.921875 3.828125 -5.921875 L 3.40625 -5.921875 L 3.40625 -7.265625 L 3.984375 -7.265625 C 4.273438 -7.265625 4.578125 -7.296875 4.890625 -7.359375 C 5.203125 -7.421875 5.488281 -7.523438 5.75 -7.671875 C 6.007812 -7.828125 6.21875 -8.035156 6.375 -8.296875 C 6.539062 -8.566406 6.625 -8.910156 6.625 -9.328125 C 6.625 -10.003906 6.410156 -10.484375 5.984375 -10.765625 C 5.566406 -11.054688 5.082031 -11.203125 4.53125 -11.203125 C 3.945312 -11.203125 3.457031 -11.117188 3.0625 -10.953125 C 2.664062 -10.785156 2.332031 -10.617188 2.0625 -10.453125 L 1.421875 -11.703125 C 1.703125 -11.910156 2.125 -12.125 2.6875 -12.34375 C 3.257812 -12.5625 3.890625 -12.671875 4.578125 -12.671875 C 5.234375 -12.671875 5.796875 -12.585938 6.265625 -12.421875 C 6.734375 -12.265625 7.113281 -12.039062 7.40625 -11.75 C 7.707031 -11.457031 7.929688 -11.113281 8.078125 -10.71875 C 8.234375 -10.320312 8.3125 -9.890625 8.3125 -9.421875 C 8.3125 -8.773438 8.140625 -8.222656 7.796875 -7.765625 C 7.453125 -7.304688 7.015625 -6.957031 6.484375 -6.71875 C 7.128906 -6.53125 7.679688 -6.164062 8.140625 -5.625 C 8.609375 -5.09375 8.84375 -4.378906 8.84375 -3.484375 C 8.84375 -2.953125 8.753906 -2.453125 8.578125 -1.984375 C 8.398438 -1.523438 8.125 -1.128906 7.75 -0.796875 C 7.382812 -0.460938 6.910156 -0.203125 6.328125 -0.015625 C 5.753906 0.171875 5.066406 0.265625 4.265625 0.265625 C 3.953125 0.265625 3.632812 0.238281 3.3125 0.1875 C 2.988281 0.144531 2.6875 0.0859375 2.40625 0.015625 C 2.125 -0.0546875 1.875 -0.128906 1.65625 -0.203125 C 1.4375 -0.273438 1.28125 -0.332031 1.1875 -0.375 L 1.5 -1.796875 C 1.71875 -1.691406 2.054688 -1.566406 2.515625 -1.421875 C 2.984375 -1.273438 3.5625 -1.203125 4.25 -1.203125 Z M 4.25 -1.203125 "/>
</g>
<g id="glyph-1-18">
<path d="M 8.40625 -9.234375 C 8.40625 -8.804688 8.320312 -8.390625 8.15625 -7.984375 C 7.988281 -7.585938 7.765625 -7.191406 7.484375 -6.796875 C 7.210938 -6.410156 6.90625 -6.03125 6.5625 -5.65625 C 6.21875 -5.289062 5.863281 -4.925781 5.5 -4.5625 C 5.300781 -4.363281 5.066406 -4.125 4.796875 -3.84375 C 4.535156 -3.5625 4.285156 -3.273438 4.046875 -2.984375 C 3.804688 -2.691406 3.601562 -2.40625 3.4375 -2.125 C 3.28125 -1.84375 3.203125 -1.601562 3.203125 -1.40625 L 8.90625 -1.40625 L 8.90625 0 L 1.40625 0 C 1.382812 -0.0625 1.375 -0.128906 1.375 -0.203125 C 1.375 -0.273438 1.375 -0.347656 1.375 -0.421875 C 1.375 -0.984375 1.46875 -1.503906 1.65625 -1.984375 C 1.84375 -2.460938 2.082031 -2.914062 2.375 -3.34375 C 2.675781 -3.769531 3.007812 -4.171875 3.375 -4.546875 C 3.738281 -4.929688 4.101562 -5.304688 4.46875 -5.671875 C 4.757812 -5.960938 5.039062 -6.25 5.3125 -6.53125 C 5.582031 -6.8125 5.820312 -7.085938 6.03125 -7.359375 C 6.238281 -7.640625 6.40625 -7.929688 6.53125 -8.234375 C 6.65625 -8.535156 6.71875 -8.847656 6.71875 -9.171875 C 6.71875 -9.523438 6.660156 -9.828125 6.546875 -10.078125 C 6.441406 -10.335938 6.289062 -10.550781 6.09375 -10.71875 C 5.894531 -10.882812 5.671875 -11.003906 5.421875 -11.078125 C 5.171875 -11.160156 4.898438 -11.203125 4.609375 -11.203125 C 4.253906 -11.203125 3.929688 -11.15625 3.640625 -11.0625 C 3.359375 -10.96875 3.109375 -10.851562 2.890625 -10.71875 C 2.671875 -10.59375 2.476562 -10.460938 2.3125 -10.328125 C 2.15625 -10.203125 2.039062 -10.101562 1.96875 -10.03125 L 1.140625 -11.1875 C 1.242188 -11.3125 1.398438 -11.457031 1.609375 -11.625 C 1.828125 -11.800781 2.085938 -11.960938 2.390625 -12.109375 C 2.691406 -12.265625 3.03125 -12.394531 3.40625 -12.5 C 3.78125 -12.613281 4.179688 -12.671875 4.609375 -12.671875 C 5.898438 -12.671875 6.851562 -12.375 7.46875 -11.78125 C 8.09375 -11.1875 8.40625 -10.335938 8.40625 -9.234375 Z M 8.40625 -9.234375 "/>
</g>
</g>
<clipPath id="clip-0">
<path clip-rule="nonzero" d="M 0 0 L 503.972656 0 L 503.972656 719.972656 L 0 719.972656 Z M 0 0 "/>
</clipPath>
</defs>
<g clip-path="url(#clip-0)">
<path fill-rule="evenodd" fill="rgb(100%, 100%, 100%)" fill-opacity="1" d="M 0 0 L 503.972656 0 L 503.972656 719.972656 L 0 719.972656 Z M 0 0 "/>
</g>
<g fill="rgb(0%, 0%, 0%)" fill-opacity="1">
<use xlink:href="#glyph-0-0" x="210.189" y="47.197"/>
</g>
<g fill="rgb(100%, 0%, 0%)" fill-opacity="1">
<use xlink:href="#glyph-1-0" x="220.309" y="47.197"/>
</g>
<g fill="rgb(100%, 0%, 0%)" fill-opacity="1">
<use xlink:href="#glyph-1-0" x="230.395552" y="47.197"/>
</g>
<g fill="rgb(16.470337%, 37.646484%, 59.999084%)" fill-opacity="1">
<use xlink:href="#glyph-1-1" x="240.491" y="47.197"/>
</g>
<g fill="rgb(100%, 0%, 0%)" fill-opacity="1">
<use xlink:href="#glyph-1-0" x="250.611" y="47.197"/>
</g>
<g fill="rgb(16.470337%, 37.646484%, 59.999084%)" fill-opacity="1">
<use xlink:href="#glyph-1-1" x="260.702" y="47.197"/>
</g>
<g fill="rgb(100%, 74.900818%, 0%)" fill-opacity="1">
<use xlink:href="#glyph-1-2" x="270.794" y="47.197"/>
</g>
<g fill="rgb(100%, 0%, 0%)" fill-opacity="1">
<use xlink:href="#glyph-1-0" x="280.913" y="47.197"/>
</g>
<g fill="rgb(100%, 0%, 0%)" fill-opacity="1">
<use xlink:href="#glyph-1-0" x="290.999552" y="47.197"/>
</g>
<g fill="rgb(0%, 0%, 0%)" fill-opacity="1">
<use xlink:href="#glyph-0-0" x="210.189" y="67.209"/>
</g>
<g fill="rgb(100%, 0%, 0%)" fill-opacity="1">
<use xlink:href="#glyph-1-0" x="220.309" y="67.209"/>
</g>
<g fill="rgb(100%, 0%, 0%)" fill-opacity="1">
<use xlink:href="#glyph-1-0" x="230.395552" y="67.209"/>
</g>
<g fill="rgb(16.470337%, 37.646484%, 59.999084%)" fill-opacity="1">
<use xlink:href="#glyph-1-1" x="240.491" y="67.209"/>
</g>
<g fill="rgb(0%, 66.273499%, 19.999695%)" fill-opacity="1">
<use xlink:href="#glyph-1-3" x="250.611" y="67.209"/>
</g>
<g fill="rgb(16.470337%, 37.646484%, 59.999084%)" fill-opacity="1">
<use xlink:href="#glyph-1-1" x="260.702" y="67.209"/>
</g>
<g fill="rgb(100%, 0%, 0%)" fill-opacity="1">
<use xlink:href="#glyph-1-0" x="270.794" y="67.209"/>
</g>
<g fill="rgb(16.470337%, 37.646484%, 59.999084%)" fill-opacity="1">
<use xlink:href="#glyph-1-1" x="280.913" y="67.209"/>
</g>
<g fill="rgb(0%, 0%, 0%)" fill-opacity="1">
<use xlink:href="#glyph-0-0" x="210.189" y="87.307"/>
</g>
<g fill="rgb(100%, 0%, 0%)" fill-opacity="1">
<use xlink:href="#glyph-1-0" x="220.309" y="87.307"/>
</g>
<g fill="rgb(16.470337%, 37.646484%, 59.999084%)" fill-opacity="1">
<use xlink:href="#glyph-1-1" x="230.4" y="87.307"/>
</g>
<g fill="rgb(100%, 0%, 0%)" fill-opacity="1">
<use xlink:href="#glyph-1-0" x="240.491" y="87.307"/>
</g>
<g fill="rgb(100%, 74.900818%, 0%)" fill-opacity="1">
<use xlink:href="#glyph-1-2" x="250.611" y="87.307"/>
</g>
<g fill="rgb(16.470337%, 37.646484%, 59.999084%)" fill-opacity="1">
<use xlink:href="#glyph-1-1" x="260.702" y="87.307"/>
</g>
<g fill="rgb(100%, 74.900818%, 0%)" fill-opacity="1">
<use xlink:href="#glyph-1-2" x="270.794" y="87.307"/>
</g>
<g fill="rgb(0%, 66.273499%, 19.999695%)" fill-opacity="1">
<use xlink:href="#glyph-1-3" x="280.913" y="87.307"/>
</g>
<g fill="rgb(16.470337%, 37.646484%, 59.999084%)" fill-opacity="1">
<use xlink:href="#glyph-1-1" x="291.005" y="87.307"/>
</g>
<g fill="rgb(0%, 0%, 0%)" fill-opacity="1">
<use xlink:href="#glyph-0-0" x="210.189" y="107.291"/>
</g>
<g fill="rgb(100%, 0%, 0%)" fill-opacity="1">
<use xlink:href="#glyph-1-0" x="220.309" y="107.291"/>
</g>
<g fill="rgb(16.470337%, 37.646484%, 59.999084%)" fill-opacity="1">
<use xlink:href="#glyph-1-1" x="230.4" y="107.291"/>
</g>
<g fill="rgb(0%, 66.273499%, 19.999695%)" fill-opacity="1">
<use xlink:href="#glyph-1-3" x="240.491" y="107.291"/>
</g>
<g fill="rgb(100%, 74.900818%, 0%)" fill-opacity="1">
<use xlink:href="#glyph-1-2" x="250.611" y="107.291"/>
</g>
<g fill="rgb(16.470337%, 37.646484%, 59.999084%)" fill-opacity="1">
<use xlink:href="#glyph-1-1" x="260.702" y="107.291"/>
</g>
<g fill="rgb(16.470337%, 37.646484%, 59.999084%)" fill-opacity="1">
<use xlink:href="#glyph-1-1" x="270.788552" y="107.291"/>
</g>
<g fill="rgb(0%, 66.273499%, 19.999695%)" fill-opacity="1">
<use xlink:href="#glyph-1-3" x="280.913" y="107.291"/>
</g>
<g fill="rgb(0%, 0%, 0%)" fill-opacity="1">
<use xlink:href="#glyph-0-0" x="210.189" y="127.389"/>
</g>
<g fill="rgb(100%, 0%, 0%)" fill-opacity="1">
<use xlink:href="#glyph-1-0" x="220.309" y="127.389"/>
</g>
<g fill="rgb(0%, 66.273499%, 19.999695%)" fill-opacity="1">
<use xlink:href="#glyph-1-3" x="230.4" y="127.389"/>
</g>
<g fill="rgb(16.470337%, 37.646484%, 59.999084%)" fill-opacity="1">
<use xlink:href="#glyph-1-1" x="240.491" y="127.389"/>
</g>
<g fill="rgb(100%, 0%, 0%)" fill-opacity="1">
<use xlink:href="#glyph-1-0" x="250.611" y="127.389"/>
</g>
<g fill="rgb(0%, 66.273499%, 19.999695%)" fill-opacity="1">
<use xlink:href="#glyph-1-3" x="260.702" y="127.389"/>
</g>
<g fill="rgb(100%, 74.900818%, 0%)" fill-opacity="1">
<use xlink:href="#glyph-1-2" x="270.794" y="127.389"/>
</g>
<g fill="rgb(100%, 74.900818%, 0%)" fill-opacity="1">
<use xlink:href="#glyph-1-2" x="280.880552" y="127.389"/>
</g>
<g fill="rgb(0%, 66.273499%, 19.999695%)" fill-opacity="1">
<use xlink:href="#glyph-1-3" x="290.891" y="127.389"/>
</g>
<g fill="rgb(0%, 0%, 0%)" fill-opacity="1">
<use xlink:href="#glyph-0-0" x="210.189" y="147.402"/>
</g>
<g fill="rgb(100%, 0%, 0%)" fill-opacity="1">
<use xlink:href="#glyph-1-0" x="220.309" y="147.402"/>
</g>
<g fill="rgb(0%, 66.273499%, 19.999695%)" fill-opacity="1">
<use xlink:href="#glyph-1-3" x="230.4" y="147.402"/>
</g>
<g fill="rgb(16.470337%, 37.646484%, 59.999084%)" fill-opacity="1">
<use xlink:href="#glyph-1-1" x="240.491" y="147.402"/>
</g>
<g fill="rgb(0%, 66.273499%, 19.999695%)" fill-opacity="1">
<use xlink:href="#glyph-1-3" x="250.611" y="147.402"/>
</g>
<g fill="rgb(16.470337%, 37.646484%, 59.999084%)" fill-opacity="1">
<use xlink:href="#glyph-1-1" x="260.702" y="147.402"/>
</g>
<g fill="rgb(0%, 66.273499%, 19.999695%)" fill-opacity="1">
<use xlink:href="#glyph-1-3" x="270.794" y="147.402"/>
</g>
<g fill="rgb(0%, 0%, 0%)" fill-opacity="1">
<use xlink:href="#glyph-0-0" x="210.189" y="167.414"/>
</g>
<g fill="rgb(100%, 0%, 0%)" fill-opacity="1">
<use xlink:href="#glyph-1-0" x="220.309" y="167.414"/>
</g>
<g fill="rgb(100%, 74.900818%, 0%)" fill-opacity="1">
<use xlink:href="#glyph-1-2" x="230.4" y="167.414"/>
</g>
<g fill="rgb(100%, 0%, 0%)" fill-opacity="1">
<use xlink:href="#glyph-1-0" x="240.491" y="167.414"/>
</g>
<g fill="rgb(100%, 74.900818%, 0%)" fill-opacity="1">
<use xlink:href="#glyph-1-2" x="250.611" y="167.414"/>
</g>
<g fill="rgb(16.470337%, 37.646484%, 59.999084%)" fill-opacity="1">
<use xlink:href="#glyph-1-1" x="260.702" y="167.414"/>
</g>
<g fill="rgb(0%, 66.273499%, 19.999695%)" fill-opacity="1">
<use xlink:href="#glyph-1-3" x="270.794" y="167.414"/>
</g>
<g fill="rgb(0%, 0%, 0%)" fill-opacity="1">
<use xlink:href="#glyph-0-0" x="210.189" y="187.512"/>
</g>
<g fill="rgb(100%, 0%, 0%)" fill-opacity="1">
<use xlink:href="#glyph-1-0" x="220.309" y="187.512"/>
</g>
<g fill="rgb(100%, 74.900818%, 0%)" fill-opacity="1">
<use xlink:href="#glyph-1-2" x="230.4" y="187.512"/>
<use xlink:href="#glyph-1-2" x="240.4065" y="187.512"/>
</g>
<g fill="rgb(100%, 74.900818%, 0%)" fill-opacity="1">
<use xlink:href="#glyph-1-2" x="250.493052" y="187.512"/>
</g>
<g fill="rgb(16.470337%, 37.646484%, 59.999084%)" fill-opacity="1">
<use xlink:href="#glyph-1-1" x="260.702" y="187.512"/>
</g>
<g fill="rgb(0%, 66.273499%, 19.999695%)" fill-opacity="1">
<use xlink:href="#glyph-1-3" x="270.794" y="187.512"/>
</g>
<g fill="rgb(100%, 74.900818%, 0%)" fill-opacity="1">
<use xlink:href="#glyph-1-2" x="280.913" y="187.512"/>
</g>
<g fill="rgb(100%, 74.900818%, 0%)" fill-opacity="1">
<use xlink:href="#glyph-1-2" x="290.999552" y="187.512"/>
</g>
<g fill="rgb(0%, 0%, 0%)" fill-opacity="1">
<use xlink:href="#glyph-0-0" x="210.189" y="207.496"/>
</g>
<g fill="rgb(16.470337%, 37.646484%, 59.999084%)" fill-opacity="1">
<use xlink:href="#glyph-1-1" x="220.309" y="207.496"/>
</g>
<g fill="rgb(100%, 0%, 0%)" fill-opacity="1">
<use xlink:href="#glyph-1-0" x="230.4" y="207.496"/>
</g>
<g fill="rgb(16.470337%, 37.646484%, 59.999084%)" fill-opacity="1">
<use xlink:href="#glyph-1-1" x="240.491" y="207.496"/>
</g>
<g fill="rgb(100%, 0%, 0%)" fill-opacity="1">
<use xlink:href="#glyph-1-0" x="250.611" y="207.496"/>
</g>
<g fill="rgb(100%, 0%, 0%)" fill-opacity="1">
<use xlink:href="#glyph-1-0" x="260.697552" y="207.496"/>
</g>
<g fill="rgb(16.470337%, 37.646484%, 59.999084%)" fill-opacity="1">
<use xlink:href="#glyph-1-1" x="270.794" y="207.496"/>
</g>
<g fill="rgb(100%, 0%, 0%)" fill-opacity="1">
<use xlink:href="#glyph-1-0" x="280.913" y="207.496"/>
</g>
<g fill="rgb(0%, 0%, 0%)" fill-opacity="1">
<use xlink:href="#glyph-0-0" x="210.189" y="227.594"/>
</g>
<g fill="rgb(16.470337%, 37.646484%, 59.999084%)" fill-opacity="1">
<use xlink:href="#glyph-1-1" x="220.309" y="227.594"/>
</g>
<g fill="rgb(100%, 0%, 0%)" fill-opacity="1">
<use xlink:href="#glyph-1-0" x="230.4" y="227.594"/>
</g>
<g fill="rgb(16.470337%, 37.646484%, 59.999084%)" fill-opacity="1">
<use xlink:href="#glyph-1-1" x="240.491" y="227.594"/>
</g>
<g fill="rgb(0%, 66.273499%, 19.999695%)" fill-opacity="1">
<use xlink:href="#glyph-1-3" x="250.611" y="227.594"/>
</g>
<g fill="rgb(0%, 66.273499%, 19.999695%)" fill-opacity="1">
<use xlink:href="#glyph-1-3" x="260.697552" y="227.594"/>
</g>
<g fill="rgb(16.470337%, 37.646484%, 59.999084%)" fill-opacity="1">
<use xlink:href="#glyph-1-1" x="270.794" y="227.594"/>
</g>
<g fill="rgb(0%, 0%, 0%)" fill-opacity="1">
<use xlink:href="#glyph-0-0" x="210.189" y="247.606"/>
</g>
<g fill="rgb(16.470337%, 37.646484%, 59.999084%)" fill-opacity="1">
<use xlink:href="#glyph-1-1" x="220.309" y="247.606"/>
</g>
<g fill="rgb(16.470337%, 37.646484%, 59.999084%)" fill-opacity="1">
<use xlink:href="#glyph-1-1" x="230.395552" y="247.606"/>
<use xlink:href="#glyph-1-1" x="240.402052" y="247.606"/>
</g>
<g fill="rgb(100%, 0%, 0%)" fill-opacity="1">
<use xlink:href="#glyph-1-0" x="250.611" y="247.606"/>
<use xlink:href="#glyph-1-0" x="260.6175" y="247.606"/>
</g>
<g fill="rgb(100%, 0%, 0%)" fill-opacity="1">
<use xlink:href="#glyph-1-0" x="270.704052" y="247.606"/>
</g>
<g fill="rgb(100%, 74.900818%, 0%)" fill-opacity="1">
<use xlink:href="#glyph-1-2" x="280.8" y="247.606"/>
</g>
<g fill="rgb(100%, 0%, 0%)" fill-opacity="1">
<use xlink:href="#glyph-1-0" x="290.891" y="247.606"/>
</g>
<g fill="rgb(0%, 0%, 0%)" fill-opacity="1">
<use xlink:href="#glyph-0-0" x="210.189" y="267.591"/>
</g>
<g fill="rgb(16.470337%, 37.646484%, 59.999084%)" fill-opacity="1">
<use xlink:href="#glyph-1-1" x="220.309" y="267.591"/>
</g>
<g fill="rgb(16.470337%, 37.646484%, 59.999084%)" fill-opacity="1">
<use xlink:href="#glyph-1-1" x="230.395552" y="267.591"/>
<use xlink:href="#glyph-1-1" x="240.402052" y="267.591"/>
</g>
<g fill="rgb(0%, 66.273499%, 19.999695%)" fill-opacity="1">
<use xlink:href="#glyph-1-3" x="250.611" y="267.591"/>
<use xlink:href="#glyph-1-3" x="260.6175" y="267.591"/>
</g>
<g fill="rgb(0%, 66.273499%, 19.999695%)" fill-opacity="1">
<use xlink:href="#glyph-1-3" x="270.704052" y="267.591"/>
</g>
<g fill="rgb(0%, 66.273499%, 19.999695%)" fill-opacity="1">
<use xlink:href="#glyph-1-3" x="280.790604" y="267.591"/>
</g>
<g fill="rgb(0%, 0%, 0%)" fill-opacity="1">
<use xlink:href="#glyph-0-0" x="210.189" y="287.688"/>
</g>
<g fill="rgb(16.470337%, 37.646484%, 59.999084%)" fill-opacity="1">
<use xlink:href="#glyph-1-1" x="220.309" y="287.688"/>
</g>
<g fill="rgb(0%, 66.273499%, 19.999695%)" fill-opacity="1">
<use xlink:href="#glyph-1-3" x="230.4" y="287.688"/>
</g>
<g fill="rgb(16.470337%, 37.646484%, 59.999084%)" fill-opacity="1">
<use xlink:href="#glyph-1-1" x="240.491" y="287.688"/>
</g>
<g fill="rgb(100%, 74.900818%, 0%)" fill-opacity="1">
<use xlink:href="#glyph-1-2" x="250.611" y="287.688"/>
</g>
<g fill="rgb(100%, 0%, 0%)" fill-opacity="1">
<use xlink:href="#glyph-1-0" x="260.702" y="287.688"/>
</g>
<g fill="rgb(100%, 74.900818%, 0%)" fill-opacity="1">
<use xlink:href="#glyph-1-2" x="270.794" y="287.688"/>
</g>
<g fill="rgb(100%, 74.900818%, 0%)" fill-opacity="1">
<use xlink:href="#glyph-1-2" x="280.880552" y="287.688"/>
</g>
<g fill="rgb(16.470337%, 37.646484%, 59.999084%)" fill-opacity="1">
<use xlink:href="#glyph-1-1" x="290.891" y="287.688"/>
</g>
<g fill="rgb(0%, 0%, 0%)" fill-opacity="1">
<use xlink:href="#glyph-0-0" x="210.189" y="307.701"/>
</g>
<g fill="rgb(16.470337%, 37.646484%, 59.999084%)" fill-opacity="1">
<use xlink:href="#glyph-1-1" x="220.309" y="307.701"/>
</g>
<g fill="rgb(0%, 66.273499%, 19.999695%)" fill-opacity="1">
<use xlink:href="#glyph-1-3" x="230.4" y="307.701"/>
<use xlink:href="#glyph-1-3" x="240.4065" y="307.701"/>
</g>
<g fill="rgb(0%, 66.273499%, 19.999695%)" fill-opacity="1">
<use xlink:href="#glyph-1-3" x="250.493052" y="307.701"/>
</g>
<g fill="rgb(0%, 66.273499%, 19.999695%)" fill-opacity="1">
<use xlink:href="#glyph-1-3" x="260.579604" y="307.701"/>
</g>
<g fill="rgb(16.470337%, 37.646484%, 59.999084%)" fill-opacity="1">
<use xlink:href="#glyph-1-1" x="270.709" y="307.701"/>
</g>
<g fill="rgb(100%, 0%, 0%)" fill-opacity="1">
<use xlink:href="#glyph-1-0" x="280.8" y="307.701"/>
</g>
<g fill="rgb(0%, 0%, 0%)" fill-opacity="1">
<use xlink:href="#glyph-0-0" x="210.189" y="327.798"/>
</g>
<g fill="rgb(16.470337%, 37.646484%, 59.999084%)" fill-opacity="1">
<use xlink:href="#glyph-1-1" x="220.309" y="327.798"/>
</g>
<g fill="rgb(100%, 74.900818%, 0%)" fill-opacity="1">
<use xlink:href="#glyph-1-2" x="230.4" y="327.798"/>
</g>
<g fill="rgb(16.470337%, 37.646484%, 59.999084%)" fill-opacity="1">
<use xlink:href="#glyph-1-1" x="240.491" y="327.798"/>
</g>
<g fill="rgb(100%, 74.900818%, 0%)" fill-opacity="1">
<use xlink:href="#glyph-1-2" x="250.611" y="327.798"/>
</g>
<g fill="rgb(100%, 0%, 0%)" fill-opacity="1">
<use xlink:href="#glyph-1-0" x="260.702" y="327.798"/>
</g>
<g fill="rgb(16.470337%, 37.646484%, 59.999084%)" fill-opacity="1">
<use xlink:href="#glyph-1-1" x="270.794" y="327.798"/>
</g>
<g fill="rgb(100%, 74.900818%, 0%)" fill-opacity="1">
<use xlink:href="#glyph-1-2" x="280.913" y="327.798"/>
</g>
<g fill="rgb(0%, 0%, 0%)" fill-opacity="1">
<use xlink:href="#glyph-0-0" x="210.189" y="347.811"/>
</g>
<g fill="rgb(16.470337%, 37.646484%, 59.999084%)" fill-opacity="1">
<use xlink:href="#glyph-1-1" x="220.309" y="347.811"/>
</g>
<g fill="rgb(100%, 74.900818%, 0%)" fill-opacity="1">
<use xlink:href="#glyph-1-2" x="230.4" y="347.811"/>
<use xlink:href="#glyph-1-2" x="240.4065" y="347.811"/>
</g>
<g fill="rgb(0%, 66.273499%, 19.999695%)" fill-opacity="1">
<use xlink:href="#glyph-1-3" x="250.611" y="347.811"/>
<use xlink:href="#glyph-1-3" x="260.6175" y="347.811"/>
</g>
<g fill="rgb(100%, 0%, 0%)" fill-opacity="1">
<use xlink:href="#glyph-1-0" x="270.709" y="347.811"/>
</g>
<g fill="rgb(100%, 74.900818%, 0%)" fill-opacity="1">
<use xlink:href="#glyph-1-2" x="280.8" y="347.811"/>
</g>
<g fill="rgb(16.470337%, 37.646484%, 59.999084%)" fill-opacity="1">
<use xlink:href="#glyph-1-1" x="290.891" y="347.811"/>
</g>
<g fill="rgb(0%, 0%, 0%)" fill-opacity="1">
<use xlink:href="#glyph-0-0" x="210.189" y="367.909"/>
</g>
<g fill="rgb(0%, 66.273499%, 19.999695%)" fill-opacity="1">
<use xlink:href="#glyph-1-3" x="220.309" y="367.909"/>
</g>
<g fill="rgb(100%, 0%, 0%)" fill-opacity="1">
<use xlink:href="#glyph-1-0" x="230.4" y="367.909"/>
</g>
<g fill="rgb(16.470337%, 37.646484%, 59.999084%)" fill-opacity="1">
<use xlink:href="#glyph-1-1" x="240.491" y="367.909"/>
</g>
<g fill="rgb(100%, 0%, 0%)" fill-opacity="1">
<use xlink:href="#glyph-1-0" x="250.611" y="367.909"/>
</g>
<g fill="rgb(16.470337%, 37.646484%, 59.999084%)" fill-opacity="1">
<use xlink:href="#glyph-1-1" x="260.702" y="367.909"/>
</g>
<g fill="rgb(100%, 74.900818%, 0%)" fill-opacity="1">
<use xlink:href="#glyph-1-2" x="270.794" y="367.909"/>
</g>
<g fill="rgb(0%, 66.273499%, 19.999695%)" fill-opacity="1">
<use xlink:href="#glyph-1-3" x="280.913" y="367.909"/>
</g>
<g fill="rgb(0%, 0%, 0%)" fill-opacity="1">
<use xlink:href="#glyph-0-0" x="210.189" y="387.893"/>
</g>
<g fill="rgb(0%, 66.273499%, 19.999695%)" fill-opacity="1">
<use xlink:href="#glyph-1-3" x="220.309" y="387.893"/>
</g>
<g fill="rgb(100%, 0%, 0%)" fill-opacity="1">
<use xlink:href="#glyph-1-0" x="230.4" y="387.893"/>
</g>
<g fill="rgb(16.470337%, 37.646484%, 59.999084%)" fill-opacity="1">
<use xlink:href="#glyph-1-1" x="240.491" y="387.893"/>
</g>
<g fill="rgb(0%, 66.273499%, 19.999695%)" fill-opacity="1">
<use xlink:href="#glyph-1-3" x="250.611" y="387.893"/>
</g>
<g fill="rgb(16.470337%, 37.646484%, 59.999084%)" fill-opacity="1">
<use xlink:href="#glyph-1-1" x="260.702" y="387.893"/>
</g>
<g fill="rgb(100%, 74.900818%, 0%)" fill-opacity="1">
<use xlink:href="#glyph-1-2" x="270.794" y="387.893"/>
</g>
<g fill="rgb(0%, 66.273499%, 19.999695%)" fill-opacity="1">
<use xlink:href="#glyph-1-3" x="280.913" y="387.893"/>
</g>
<g fill="rgb(0%, 66.273499%, 19.999695%)" fill-opacity="1">
<use xlink:href="#glyph-1-3" x="290.999552" y="387.893"/>
</g>
<g fill="rgb(0%, 0%, 0%)" fill-opacity="1">
<use xlink:href="#glyph-0-0" x="210.189" y="407.906"/>
</g>
<g fill="rgb(0%, 66.273499%, 19.999695%)" fill-opacity="1">
<use xlink:href="#glyph-1-3" x="220.309" y="407.906"/>
</g>
<g fill="rgb(16.470337%, 37.646484%, 59.999084%)" fill-opacity="1">
<use xlink:href="#glyph-1-1" x="230.4" y="407.906"/>
</g>
<g fill="rgb(100%, 0%, 0%)" fill-opacity="1">
<use xlink:href="#glyph-1-0" x="240.491" y="407.906"/>
</g>
<g fill="rgb(100%, 74.900818%, 0%)" fill-opacity="1">
<use xlink:href="#glyph-1-2" x="250.611" y="407.906"/>
</g>
<g fill="rgb(16.470337%, 37.646484%, 59.999084%)" fill-opacity="1">
<use xlink:href="#glyph-1-1" x="260.702" y="407.906"/>
</g>
<g fill="rgb(100%, 0%, 0%)" fill-opacity="1">
<use xlink:href="#glyph-1-0" x="270.794" y="407.906"/>
</g>
<g fill="rgb(16.470337%, 37.646484%, 59.999084%)" fill-opacity="1">
<use xlink:href="#glyph-1-1" x="280.913" y="407.906"/>
</g>
<g fill="rgb(100%, 74.900818%, 0%)" fill-opacity="1">
<use xlink:href="#glyph-1-2" x="291.005" y="407.906"/>
</g>
<g fill="rgb(0%, 0%, 0%)" fill-opacity="1">
<use xlink:href="#glyph-0-0" x="210.189" y="428.003"/>
</g>
<g fill="rgb(0%, 66.273499%, 19.999695%)" fill-opacity="1">
<use xlink:href="#glyph-1-3" x="220.309" y="428.003"/>
</g>
<g fill="rgb(16.470337%, 37.646484%, 59.999084%)" fill-opacity="1">
<use xlink:href="#glyph-1-1" x="230.4" y="428.003"/>
</g>
<g fill="rgb(0%, 66.273499%, 19.999695%)" fill-opacity="1">
<use xlink:href="#glyph-1-3" x="240.491" y="428.003"/>
</g>
<g fill="rgb(0%, 66.273499%, 19.999695%)" fill-opacity="1">
<use xlink:href="#glyph-1-3" x="250.577552" y="428.003"/>
</g>
<g fill="rgb(16.470337%, 37.646484%, 59.999084%)" fill-opacity="1">
<use xlink:href="#glyph-1-1" x="260.702" y="428.003"/>
</g>
<g fill="rgb(0%, 66.273499%, 19.999695%)" fill-opacity="1">
<use xlink:href="#glyph-1-3" x="270.794" y="428.003"/>
</g>
<g fill="rgb(100%, 0%, 0%)" fill-opacity="1">
<use xlink:href="#glyph-1-0" x="280.913" y="428.003"/>
</g>
<g fill="rgb(100%, 0%, 0%)" fill-opacity="1">
<use xlink:href="#glyph-1-0" x="290.999552" y="428.003"/>
</g>
<g fill="rgb(0%, 0%, 0%)" fill-opacity="1">
<use xlink:href="#glyph-0-0" x="210.189" y="447.987"/>
</g>
<g fill="rgb(0%, 66.273499%, 19.999695%)" fill-opacity="1">
<use xlink:href="#glyph-1-3" x="220.309" y="447.987"/>
</g>
<g fill="rgb(0%, 66.273499%, 19.999695%)" fill-opacity="1">
<use xlink:href="#glyph-1-3" x="230.395552" y="447.987"/>
</g>
<g fill="rgb(16.470337%, 37.646484%, 59.999084%)" fill-opacity="1">
<use xlink:href="#glyph-1-1" x="240.491" y="447.987"/>
</g>
<g fill="rgb(100%, 0%, 0%)" fill-opacity="1">
<use xlink:href="#glyph-1-0" x="250.611" y="447.987"/>
</g>
<g fill="rgb(16.470337%, 37.646484%, 59.999084%)" fill-opacity="1">
<use xlink:href="#glyph-1-1" x="260.702" y="447.987"/>
</g>
<g fill="rgb(16.470337%, 37.646484%, 59.999084%)" fill-opacity="1">
<use xlink:href="#glyph-1-1" x="270.788552" y="447.987"/>
</g>
<g fill="rgb(16.470337%, 37.646484%, 59.999084%)" fill-opacity="1">
<use xlink:href="#glyph-1-1" x="280.875104" y="447.987"/>
</g>
<g fill="rgb(0%, 0%, 0%)" fill-opacity="1">
<use xlink:href="#glyph-0-0" x="210.189" y="468.113"/>
</g>
<g fill="rgb(0%, 66.273499%, 19.999695%)" fill-opacity="1">
<use xlink:href="#glyph-1-3" x="220.309" y="468.113"/>
</g>
<g fill="rgb(0%, 66.273499%, 19.999695%)" fill-opacity="1">
<use xlink:href="#glyph-1-3" x="230.395552" y="468.113"/>
</g>
<g fill="rgb(16.470337%, 37.646484%, 59.999084%)" fill-opacity="1">
<use xlink:href="#glyph-1-1" x="240.491" y="468.113"/>
</g>
<g fill="rgb(0%, 66.273499%, 19.999695%)" fill-opacity="1">
<use xlink:href="#glyph-1-3" x="250.611" y="468.113"/>
</g>
<g fill="rgb(16.470337%, 37.646484%, 59.999084%)" fill-opacity="1">
<use xlink:href="#glyph-1-1" x="260.702" y="468.113"/>
</g>
<g fill="rgb(100%, 74.900818%, 0%)" fill-opacity="1">
<use xlink:href="#glyph-1-2" x="270.794" y="468.113"/>
</g>
<g fill="rgb(100%, 74.900818%, 0%)" fill-opacity="1">
<use xlink:href="#glyph-1-2" x="280.880552" y="468.113"/>
</g>
<g fill="rgb(0%, 0%, 0%)" fill-opacity="1">
<use xlink:href="#glyph-0-0" x="210.189" y="488.098"/>
</g>
<g fill="rgb(0%, 66.273499%, 19.999695%)" fill-opacity="1">
<use xlink:href="#glyph-1-3" x="220.309" y="488.098"/>
</g>
<g fill="rgb(100%, 74.900818%, 0%)" fill-opacity="1">
<use xlink:href="#glyph-1-2" x="230.4" y="488.098"/>
</g>
<g fill="rgb(100%, 0%, 0%)" fill-opacity="1">
<use xlink:href="#glyph-1-0" x="240.491" y="488.098"/>
</g>
<g fill="rgb(100%, 74.900818%, 0%)" fill-opacity="1">
<use xlink:href="#glyph-1-2" x="250.611" y="488.098"/>
</g>
<g fill="rgb(16.470337%, 37.646484%, 59.999084%)" fill-opacity="1">
<use xlink:href="#glyph-1-1" x="260.702" y="488.098"/>
</g>
<g fill="rgb(16.470337%, 37.646484%, 59.999084%)" fill-opacity="1">
<use xlink:href="#glyph-1-1" x="270.788552" y="488.098"/>
</g>
<g fill="rgb(0%, 66.273499%, 19.999695%)" fill-opacity="1">
<use xlink:href="#glyph-1-3" x="280.913" y="488.098"/>
</g>
<g fill="rgb(16.470337%, 37.646484%, 59.999084%)" fill-opacity="1">
<use xlink:href="#glyph-1-1" x="290.891" y="488.098"/>
</g>
<g fill="rgb(0%, 0%, 0%)" fill-opacity="1">
<use xlink:href="#glyph-0-0" x="210.189" y="508.11"/>
</g>
<g fill="rgb(0%, 66.273499%, 19.999695%)" fill-opacity="1">
<use xlink:href="#glyph-1-3" x="220.309" y="508.11"/>
</g>
<g fill="rgb(100%, 74.900818%, 0%)" fill-opacity="1">
<use xlink:href="#glyph-1-2" x="230.4" y="508.11"/>
<use xlink:href="#glyph-1-2" x="240.4065" y="508.11"/>
</g>
<g fill="rgb(100%, 74.900818%, 0%)" fill-opacity="1">
<use xlink:href="#glyph-1-2" x="250.493052" y="508.11"/>
</g>
<g fill="rgb(16.470337%, 37.646484%, 59.999084%)" fill-opacity="1">
<use xlink:href="#glyph-1-1" x="260.702" y="508.11"/>
</g>
<g fill="rgb(0%, 66.273499%, 19.999695%)" fill-opacity="1">
<use xlink:href="#glyph-1-3" x="270.794" y="508.11"/>
</g>
<g fill="rgb(100%, 0%, 0%)" fill-opacity="1">
<use xlink:href="#glyph-1-0" x="280.913" y="508.11"/>
</g>
<g fill="rgb(0%, 0%, 0%)" fill-opacity="1">
<use xlink:href="#glyph-0-0" x="210.189" y="528.208"/>
</g>
<g fill="rgb(100%, 74.900818%, 0%)" fill-opacity="1">
<use xlink:href="#glyph-1-2" x="220.309" y="528.208"/>
</g>
<g fill="rgb(100%, 0%, 0%)" fill-opacity="1">
<use xlink:href="#glyph-1-0" x="230.4" y="528.208"/>
</g>
<g fill="rgb(16.470337%, 37.646484%, 59.999084%)" fill-opacity="1">
<use xlink:href="#glyph-1-1" x="240.491" y="528.208"/>
</g>
<g fill="rgb(100%, 0%, 0%)" fill-opacity="1">
<use xlink:href="#glyph-1-0" x="250.611" y="528.208"/>
</g>
<g fill="rgb(100%, 0%, 0%)" fill-opacity="1">
<use xlink:href="#glyph-1-0" x="260.697552" y="528.208"/>
<use xlink:href="#glyph-1-0" x="270.704052" y="528.208"/>
</g>
<g fill="rgb(16.470337%, 37.646484%, 59.999084%)" fill-opacity="1">
<use xlink:href="#glyph-1-1" x="280.913" y="528.208"/>
</g>
<g fill="rgb(100%, 74.900818%, 0%)" fill-opacity="1">
<use xlink:href="#glyph-1-2" x="290.891" y="528.208"/>
</g>
<g fill="rgb(0%, 0%, 0%)" fill-opacity="1">
<use xlink:href="#glyph-0-0" x="210.189" y="548.192"/>
</g>
<g fill="rgb(100%, 74.900818%, 0%)" fill-opacity="1">
<use xlink:href="#glyph-1-2" x="220.309" y="548.192"/>
</g>
<g fill="rgb(100%, 0%, 0%)" fill-opacity="1">
<use xlink:href="#glyph-1-0" x="230.4" y="548.192"/>
</g>
<g fill="rgb(0%, 66.273499%, 19.999695%)" fill-opacity="1">
<use xlink:href="#glyph-1-3" x="240.491" y="548.192"/>
</g>
<g fill="rgb(0%, 66.273499%, 19.999695%)" fill-opacity="1">
<use xlink:href="#glyph-1-3" x="250.577552" y="548.192"/>
<use xlink:href="#glyph-1-3" x="260.584052" y="548.192"/>
</g>
<g fill="rgb(100%, 74.900818%, 0%)" fill-opacity="1">
<use xlink:href="#glyph-1-2" x="270.794" y="548.192"/>
</g>
<g fill="rgb(0%, 66.273499%, 19.999695%)" fill-opacity="1">
<use xlink:href="#glyph-1-3" x="280.913" y="548.192"/>
</g>
<g fill="rgb(0%, 0%, 0%)" fill-opacity="1">
<use xlink:href="#glyph-0-0" x="210.189" y="568.29"/>
</g>
<g fill="rgb(100%, 74.900818%, 0%)" fill-opacity="1">
<use xlink:href="#glyph-1-2" x="220.309" y="568.29"/>
</g>
<g fill="rgb(16.470337%, 37.646484%, 59.999084%)" fill-opacity="1">
<use xlink:href="#glyph-1-1" x="230.4" y="568.29"/>
<use xlink:href="#glyph-1-1" x="240.4065" y="568.29"/>
</g>
<g fill="rgb(100%, 0%, 0%)" fill-opacity="1">
<use xlink:href="#glyph-1-0" x="250.611" y="568.29"/>
<use xlink:href="#glyph-1-0" x="260.6175" y="568.29"/>
</g>
<g fill="rgb(16.470337%, 37.646484%, 59.999084%)" fill-opacity="1">
<use xlink:href="#glyph-1-1" x="270.709" y="568.29"/>
</g>
<g fill="rgb(0%, 66.273499%, 19.999695%)" fill-opacity="1">
<use xlink:href="#glyph-1-3" x="280.8" y="568.29"/>
</g>
<g fill="rgb(0%, 0%, 0%)" fill-opacity="1">
<use xlink:href="#glyph-0-0" x="210.189" y="588.302"/>
</g>
<g fill="rgb(100%, 74.900818%, 0%)" fill-opacity="1">
<use xlink:href="#glyph-1-2" x="220.309" y="588.302"/>
</g>
<g fill="rgb(16.470337%, 37.646484%, 59.999084%)" fill-opacity="1">
<use xlink:href="#glyph-1-1" x="230.4" y="588.302"/>
</g>
<g fill="rgb(0%, 66.273499%, 19.999695%)" fill-opacity="1">
<use xlink:href="#glyph-1-3" x="240.491" y="588.302"/>
</g>
<g fill="rgb(0%, 66.273499%, 19.999695%)" fill-opacity="1">
<use xlink:href="#glyph-1-3" x="250.577552" y="588.302"/>
<use xlink:href="#glyph-1-3" x="260.584052" y="588.302"/>
</g>
<g fill="rgb(0%, 66.273499%, 19.999695%)" fill-opacity="1">
<use xlink:href="#glyph-1-3" x="270.670604" y="588.302"/>
</g>
<g fill="rgb(100%, 0%, 0%)" fill-opacity="1">
<use xlink:href="#glyph-1-0" x="280.8" y="588.302"/>
</g>
<g fill="rgb(100%, 74.900818%, 0%)" fill-opacity="1">
<use xlink:href="#glyph-1-2" x="290.891" y="588.302"/>
</g>
<g fill="rgb(0%, 0%, 0%)" fill-opacity="1">
<use xlink:href="#glyph-0-0" x="210.189" y="608.287"/>
</g>
<g fill="rgb(100%, 74.900818%, 0%)" fill-opacity="1">
<use xlink:href="#glyph-1-2" x="220.309" y="608.287"/>
</g>
<g fill="rgb(0%, 66.273499%, 19.999695%)" fill-opacity="1">
<use xlink:href="#glyph-1-3" x="230.4" y="608.287"/>
</g>
<g fill="rgb(16.470337%, 37.646484%, 59.999084%)" fill-opacity="1">
<use xlink:href="#glyph-1-1" x="240.491" y="608.287"/>
</g>
<g fill="rgb(100%, 74.900818%, 0%)" fill-opacity="1">
<use xlink:href="#glyph-1-2" x="250.611" y="608.287"/>
</g>
<g fill="rgb(100%, 0%, 0%)" fill-opacity="1">
<use xlink:href="#glyph-1-0" x="260.702" y="608.287"/>
</g>
<g fill="rgb(100%, 0%, 0%)" fill-opacity="1">
<use xlink:href="#glyph-1-0" x="270.788552" y="608.287"/>
</g>
<g fill="rgb(16.470337%, 37.646484%, 59.999084%)" fill-opacity="1">
<use xlink:href="#glyph-1-1" x="280.913" y="608.287"/>
</g>
<g fill="rgb(100%, 74.900818%, 0%)" fill-opacity="1">
<use xlink:href="#glyph-1-2" x="290.891" y="608.287"/>
</g>
<g fill="rgb(0%, 0%, 0%)" fill-opacity="1">
<use xlink:href="#glyph-0-0" x="210.189" y="628.413"/>
</g>
<g fill="rgb(100%, 74.900818%, 0%)" fill-opacity="1">
<use xlink:href="#glyph-1-2" x="220.309" y="628.413"/>
</g>
<g fill="rgb(0%, 66.273499%, 19.999695%)" fill-opacity="1">
<use xlink:href="#glyph-1-3" x="230.4" y="628.413"/>
<use xlink:href="#glyph-1-3" x="240.4065" y="628.413"/>
</g>
<g fill="rgb(0%, 66.273499%, 19.999695%)" fill-opacity="1">
<use xlink:href="#glyph-1-3" x="250.493052" y="628.413"/>
</g>
<g fill="rgb(16.470337%, 37.646484%, 59.999084%)" fill-opacity="1">
<use xlink:href="#glyph-1-1" x="260.702" y="628.413"/>
</g>
<g fill="rgb(100%, 74.900818%, 0%)" fill-opacity="1">
<use xlink:href="#glyph-1-2" x="270.794" y="628.413"/>
</g>
<g fill="rgb(100%, 0%, 0%)" fill-opacity="1">
<use xlink:href="#glyph-1-0" x="280.913" y="628.413"/>
</g>
<g fill="rgb(0%, 0%, 0%)" fill-opacity="1">
<use xlink:href="#glyph-0-0" x="210.189" y="648.397"/>
</g>
<g fill="rgb(100%, 74.900818%, 0%)" fill-opacity="1">
<use xlink:href="#glyph-1-2" x="220.309" y="648.397"/>
</g>
<g fill="rgb(100%, 74.900818%, 0%)" fill-opacity="1">
<use xlink:href="#glyph-1-2" x="230.395552" y="648.397"/>
</g>
<g fill="rgb(16.470337%, 37.646484%, 59.999084%)" fill-opacity="1">
<use xlink:href="#glyph-1-1" x="240.491" y="648.397"/>
</g>
<g fill="rgb(100%, 74.900818%, 0%)" fill-opacity="1">
<use xlink:href="#glyph-1-2" x="250.611" y="648.397"/>
</g>
<g fill="rgb(100%, 0%, 0%)" fill-opacity="1">
<use xlink:href="#glyph-1-0" x="260.702" y="648.397"/>
</g>
<g fill="rgb(16.470337%, 37.646484%, 59.999084%)" fill-opacity="1">
<use xlink:href="#glyph-1-1" x="270.794" y="648.397"/>
</g>
<g fill="rgb(0%, 66.273499%, 19.999695%)" fill-opacity="1">
<use xlink:href="#glyph-1-3" x="280.913" y="648.397"/>
</g>
<g fill="rgb(100%, 0%, 0%)" fill-opacity="1">
<use xlink:href="#glyph-1-0" x="290.891" y="648.397"/>
</g>
<g fill="rgb(0%, 0%, 0%)" fill-opacity="1">
<use xlink:href="#glyph-0-0" x="210.189" y="668.494"/>
</g>
<g fill="rgb(100%, 74.900818%, 0%)" fill-opacity="1">
<use xlink:href="#glyph-1-2" x="220.309" y="668.494"/>
</g>
<g fill="rgb(100%, 74.900818%, 0%)" fill-opacity="1">
<use xlink:href="#glyph-1-2" x="230.395552" y="668.494"/>
<use xlink:href="#glyph-1-2" x="240.402052" y="668.494"/>
</g>
<g fill="rgb(0%, 66.273499%, 19.999695%)" fill-opacity="1">
<use xlink:href="#glyph-1-3" x="250.611" y="668.494"/>
<use xlink:href="#glyph-1-3" x="260.6175" y="668.494"/>
</g>
<g fill="rgb(100%, 74.900818%, 0%)" fill-opacity="1">
<use xlink:href="#glyph-1-2" x="270.709" y="668.494"/>
</g>
<g fill="rgb(16.470337%, 37.646484%, 59.999084%)" fill-opacity="1">
<use xlink:href="#glyph-1-1" x="280.8" y="668.494"/>
</g>
<g fill="rgb(0%, 0%, 0%)" fill-opacity="1">
<use xlink:href="#glyph-1-4" x="8.306" y="25.2"/>
</g>
<g fill="rgb(0%, 0%, 0%)" fill-opacity="1">
<use xlink:href="#glyph-1-5" x="18.392552" y="25.2"/>
<use xlink:href="#glyph-1-6" x="28.399052" y="25.2"/>
</g>
<g fill="rgb(0%, 0%, 0%)" fill-opacity="1">
<use xlink:href="#glyph-1-7" x="38.485604" y="25.2"/>
</g>
<g fill="rgb(0%, 0%, 0%)" fill-opacity="1">
<use xlink:href="#glyph-1-8" x="48.572156" y="25.2"/>
</g>
<g fill="rgb(0%, 0%, 0%)" fill-opacity="1">
<use xlink:href="#glyph-1-9" x="58.658708" y="25.2"/>
</g>
<g fill="rgb(100%, 74.900818%, 0%)" fill-opacity="1">
<use xlink:href="#glyph-1-2" x="8.306" y="45.298"/>
</g>
<g fill="rgb(16.470337%, 37.646484%, 59.999084%)" fill-opacity="1">
<use xlink:href="#glyph-1-1" x="18.397" y="45.298"/>
</g>
<g fill="rgb(0%, 0%, 0%)" fill-opacity="1">
<use xlink:href="#glyph-0-0" x="28.488" y="45.298"/>
</g>
<g fill="rgb(100%, 0%, 0%)" fill-opacity="1">
<use xlink:href="#glyph-1-0" x="38.608" y="45.298"/>
</g>
<g fill="rgb(0%, 66.273499%, 19.999695%)" fill-opacity="1">
<use xlink:href="#glyph-1-3" x="48.699" y="45.298"/>
</g>
<g fill="rgb(0%, 0%, 0%)" fill-opacity="1">
<use xlink:href="#glyph-1-10" x="8.306" y="85.408"/>
</g>
<g fill="rgb(0%, 0%, 0%)" fill-opacity="1">
<use xlink:href="#glyph-1-11" x="18.392552" y="85.408"/>
</g>
<g fill="rgb(0%, 0%, 0%)" fill-opacity="1">
<use xlink:href="#glyph-1-12" x="28.488" y="85.408"/>
</g>
<g fill="rgb(0%, 0%, 0%)" fill-opacity="1">
<use xlink:href="#glyph-1-6" x="38.608" y="85.408"/>
<use xlink:href="#glyph-1-7" x="48.6145" y="85.408"/>
</g>
<g fill="rgb(0%, 0%, 0%)" fill-opacity="1">
<use xlink:href="#glyph-1-13" x="58.701052" y="85.408"/>
</g>
<g fill="rgb(0%, 0%, 0%)" fill-opacity="1">
<use xlink:href="#glyph-1-6" x="68.787604" y="85.408"/>
</g>
<g fill="rgb(0%, 0%, 0%)" fill-opacity="1">
<use xlink:href="#glyph-1-14" x="78.874156" y="85.408"/>
</g>
<g fill="rgb(0%, 0%, 0%)" fill-opacity="1">
<use xlink:href="#glyph-1-15" x="88.960708" y="85.408"/>
<use xlink:href="#glyph-1-6" x="98.967208" y="85.408"/>
</g>
<g fill="rgb(0%, 0%, 0%)" fill-opacity="1">
<use xlink:href="#glyph-1-16" x="109.05376" y="85.408"/>
</g>
<g fill="rgb(0%, 0%, 0%)" fill-opacity="1">
<use xlink:href="#glyph-1-8" x="119.140312" y="85.408"/>
</g>
<g fill="rgb(0%, 0%, 0%)" fill-opacity="1">
<use xlink:href="#glyph-1-9" x="129.226864" y="85.408"/>
</g>
<g fill="rgb(0%, 0%, 0%)" fill-opacity="1">
<use xlink:href="#glyph-0-0" x="8.306" y="105.392"/>
</g>
<g fill="rgb(100%, 0%, 0%)" fill-opacity="1">
<use xlink:href="#glyph-1-0" x="18.397" y="105.392"/>
</g>
<g fill="rgb(16.470337%, 37.646484%, 59.999084%)" fill-opacity="1">
<use xlink:href="#glyph-1-1" x="28.488" y="105.392"/>
</g>
<g fill="rgb(0%, 66.273499%, 19.999695%)" fill-opacity="1">
<use xlink:href="#glyph-1-3" x="38.608" y="105.392"/>
</g>
<g fill="rgb(100%, 74.900818%, 0%)" fill-opacity="1">
<use xlink:href="#glyph-1-2" x="48.699" y="105.392"/>
</g>
<g fill="rgb(0%, 0%, 0%)" fill-opacity="1">
<use xlink:href="#glyph-1-4" x="371.31" y="289.814"/>
</g>
<g fill="rgb(0%, 0%, 0%)" fill-opacity="1">
<use xlink:href="#glyph-1-5" x="381.396552" y="289.814"/>
<use xlink:href="#glyph-1-6" x="391.403052" y="289.814"/>
</g>
<g fill="rgb(0%, 0%, 0%)" fill-opacity="1">
<use xlink:href="#glyph-1-7" x="401.489604" y="289.814"/>
</g>
<g fill="rgb(0%, 0%, 0%)" fill-opacity="1">
<use xlink:href="#glyph-1-17" x="411.576156" y="289.814"/>
</g>
<g fill="rgb(0%, 0%, 0%)" fill-opacity="1">
<use xlink:href="#glyph-1-9" x="421.662708" y="289.814"/>
</g>
<g fill="rgb(100%, 0%, 0%)" fill-opacity="1">
<use xlink:href="#glyph-1-1" x="371.31" y="309.798"/>
</g>
<g fill="rgb(100%, 0%, 0%)" fill-opacity="1">
<use xlink:href="#glyph-1-0" x="381.396552" y="309.798"/>
</g>
<g fill="rgb(0%, 66.273499%, 19.999695%)" fill-opacity="1">
<use xlink:href="#glyph-1-3" x="391.408" y="309.798"/>
</g>
<g fill="rgb(100%, 74.900818%, 0%)" fill-opacity="1">
<use xlink:href="#glyph-1-2" x="401.499" y="309.798"/>
</g>
<g fill="rgb(0%, 0%, 0%)" fill-opacity="1">
<use xlink:href="#glyph-0-0" x="411.591" y="309.798"/>
</g>
<g fill="rgb(0%, 0%, 0%)" fill-opacity="1">
<use xlink:href="#glyph-1-10" x="371.31" y="329.896"/>
</g>
<g fill="rgb(0%, 0%, 0%)" fill-opacity="1">
<use xlink:href="#glyph-1-11" x="381.396552" y="329.896"/>
<use xlink:href="#glyph-1-12" x="391.403052" y="329.896"/>
</g>
<g fill="rgb(0%, 0%, 0%)" fill-opacity="1">
<use xlink:href="#glyph-1-6" x="401.489604" y="329.896"/>
</g>
<g fill="rgb(0%, 0%, 0%)" fill-opacity="1">
<use xlink:href="#glyph-1-7" x="411.576156" y="329.896"/>
</g>
<g fill="rgb(0%, 0%, 0%)" fill-opacity="1">
<use xlink:href="#glyph-1-13" x="421.662708" y="329.896"/>
</g>
<g fill="rgb(0%, 0%, 0%)" fill-opacity="1">
<use xlink:href="#glyph-1-6" x="431.74926" y="329.896"/>
<use xlink:href="#glyph-1-14" x="441.75576" y="329.896"/>
</g>
<g fill="rgb(0%, 0%, 0%)" fill-opacity="1">
<use xlink:href="#glyph-1-15" x="451.842312" y="329.896"/>
</g>
<g fill="rgb(0%, 0%, 0%)" fill-opacity="1">
<use xlink:href="#glyph-1-6" x="461.928864" y="329.896"/>
</g>
<g fill="rgb(0%, 0%, 0%)" fill-opacity="1">
<use xlink:href="#glyph-1-16" x="472.015416" y="329.896"/>
</g>
<g fill="rgb(0%, 0%, 0%)" fill-opacity="1">
<use xlink:href="#glyph-1-17" x="482.101968" y="329.896"/>
<use xlink:href="#glyph-1-9" x="492.108468" y="329.896"/>
</g>
<g fill="rgb(0%, 0%, 0%)" fill-opacity="1">
<use xlink:href="#glyph-0-0" x="371.31" y="349.909"/>
</g>
<g fill="rgb(0%, 0%, 0%)" fill-opacity="1">
<use xlink:href="#glyph-0-1" x="381.288" y="349.909"/>
</g>
<g fill="rgb(100%, 74.900818%, 0%)" fill-opacity="1">
<use xlink:href="#glyph-1-2" x="391.408" y="349.909"/>
</g>
<g fill="rgb(0%, 0%, 0%)" fill-opacity="1">
<use xlink:href="#glyph-0-1" x="401.499" y="349.909"/>
</g>
<g fill="rgb(0%, 66.273499%, 19.999695%)" fill-opacity="1">
<use xlink:href="#glyph-1-3" x="411.591" y="349.909"/>
</g>
<g fill="rgb(0%, 0%, 0%)" fill-opacity="1">
<use xlink:href="#glyph-0-1" x="421.71" y="349.909"/>
</g>
<g fill="rgb(100%, 0%, 0%)" fill-opacity="1">
<use xlink:href="#glyph-1-0" x="431.802" y="349.909"/>
</g>
<g fill="rgb(0%, 0%, 0%)" fill-opacity="1">
<use xlink:href="#glyph-0-1" x="441.893" y="349.909"/>
</g>
<g fill="rgb(16.470337%, 37.646484%, 59.999084%)" fill-opacity="1">
<use xlink:href="#glyph-1-1" x="452.013" y="349.909"/>
</g>
<path fill-rule="evenodd" fill="rgb(100%, 25.097656%, 0%)" fill-opacity="1" stroke-width="0.12" stroke-linecap="butt" stroke-linejoin="round" stroke="rgb(0%, 0%, 0%)" stroke-opacity="1" stroke-miterlimit="10" d="M 339.988281 533.933594 L 330.972656 533.933594 L 330.972656 567.808594 L 348.972656 567.808594 L 348.972656 533.933594 Z M 339.988281 533.933594 " transform="matrix(1, 0, 0, -1, 0, 720)"/>
<path fill-rule="evenodd" fill="rgb(100%, 25.097656%, 0%)" fill-opacity="1" stroke-width="0.12" stroke-linecap="butt" stroke-linejoin="round" stroke="rgb(0%, 0%, 0%)" stroke-opacity="1" stroke-miterlimit="10" d="M 339.988281 369.523438 L 330.972656 369.523438 L 330.972656 403.398438 L 348.972656 403.398438 L 348.972656 369.523438 Z M 339.988281 369.523438 " transform="matrix(1, 0, 0, -1, 0, 720)"/>
<path fill-rule="evenodd" fill="rgb(100%, 25.097656%, 0%)" fill-opacity="1" stroke-width="0.12" stroke-linecap="butt" stroke-linejoin="round" stroke="rgb(0%, 0%, 0%)" stroke-opacity="1" stroke-miterlimit="10" d="M 339.988281 216.453125 L 330.972656 216.453125 L 330.972656 250.328125 L 348.972656 250.328125 L 348.972656 216.453125 Z M 339.988281 216.453125 " transform="matrix(1, 0, 0, -1, 0, 720)"/>
<path fill-rule="evenodd" fill="rgb(100%, 25.097656%, 0%)" fill-opacity="1" stroke-width="0.12" stroke-linecap="butt" stroke-linejoin="round" stroke="rgb(0%, 0%, 0%)" stroke-opacity="1" stroke-miterlimit="10" d="M 339.648438 54.027344 L 330.632812 54.027344 L 330.632812 87.902344 L 348.632812 87.902344 L 348.632812 54.027344 Z M 339.648438 54.027344 " transform="matrix(1, 0, 0, -1, 0, 720)"/>
<path fill-rule="evenodd" fill="rgb(100%, 25.097656%, 0%)" fill-opacity="1" stroke-width="0.12" stroke-linecap="butt" stroke-linejoin="round" stroke="rgb(0%, 0%, 0%)" stroke-opacity="1" stroke-miterlimit="10" d="M 359.828125 369.496094 L 350.816406 369.496094 L 350.816406 387.015625 L 368.816406 387.015625 L 368.816406 369.496094 Z M 359.828125 369.496094 " transform="matrix(1, 0, 0, -1, 0, 720)"/>
<g fill="rgb(0%, 0%, 0%)" fill-opacity="1">
<use xlink:href="#glyph-1-4" x="3.288" y="566.589"/>
</g>
<g fill="rgb(0%, 0%, 0%)" fill-opacity="1">
<use xlink:href="#glyph-1-5" x="13.374552" y="566.589"/>
<use xlink:href="#glyph-1-6" x="23.381052" y="566.589"/>
</g>
<g fill="rgb(0%, 0%, 0%)" fill-opacity="1">
<use xlink:href="#glyph-1-7" x="33.467604" y="566.589"/>
</g>
<g fill="rgb(0%, 0%, 0%)" fill-opacity="1">
<use xlink:href="#glyph-1-18" x="43.554156" y="566.589"/>
</g>
<g fill="rgb(0%, 0%, 0%)" fill-opacity="1">
<use xlink:href="#glyph-1-9" x="53.640708" y="566.589"/>
</g>
<g fill="rgb(0%, 0%, 0%)" fill-opacity="1">
<use xlink:href="#glyph-0-0" x="3.288" y="586.687"/>
</g>
<g fill="rgb(100%, 74.900818%, 0%)" fill-opacity="1">
<use xlink:href="#glyph-1-2" x="13.408" y="586.687"/>
</g>
<g fill="rgb(0%, 66.273499%, 19.999695%)" fill-opacity="1">
<use xlink:href="#glyph-1-3" x="23.499" y="586.687"/>
</g>
<g fill="rgb(16.470337%, 37.646484%, 59.999084%)" fill-opacity="1">
<use xlink:href="#glyph-1-1" x="33.591" y="586.687"/>
</g>
<g fill="rgb(100%, 0%, 0%)" fill-opacity="1">
<use xlink:href="#glyph-1-0" x="43.71" y="586.687"/>
</g>
<g fill="rgb(0%, 0%, 0%)" fill-opacity="1">
<use xlink:href="#glyph-1-10" x="3.288" y="606.699"/>
</g>
<g fill="rgb(0%, 0%, 0%)" fill-opacity="1">
<use xlink:href="#glyph-1-11" x="13.374552" y="606.699"/>
<use xlink:href="#glyph-1-12" x="23.381052" y="606.699"/>
</g>
<g fill="rgb(0%, 0%, 0%)" fill-opacity="1">
<use xlink:href="#glyph-1-6" x="33.467604" y="606.699"/>
</g>
<g fill="rgb(0%, 0%, 0%)" fill-opacity="1">
<use xlink:href="#glyph-1-7" x="43.554156" y="606.699"/>
</g>
<g fill="rgb(0%, 0%, 0%)" fill-opacity="1">
<use xlink:href="#glyph-1-13" x="53.640708" y="606.699"/>
</g>
<g fill="rgb(0%, 0%, 0%)" fill-opacity="1">
<use xlink:href="#glyph-1-6" x="63.72726" y="606.699"/>
<use xlink:href="#glyph-1-14" x="73.73376" y="606.699"/>
</g>
<g fill="rgb(0%, 0%, 0%)" fill-opacity="1">
<use xlink:href="#glyph-1-15" x="83.820312" y="606.699"/>
</g>
<g fill="rgb(0%, 0%, 0%)" fill-opacity="1">
<use xlink:href="#glyph-1-6" x="93.906864" y="606.699"/>
</g>
<g fill="rgb(0%, 0%, 0%)" fill-opacity="1">
<use xlink:href="#glyph-1-16" x="103.993416" y="606.699"/>
</g>
<g fill="rgb(0%, 0%, 0%)" fill-opacity="1">
<use xlink:href="#glyph-1-18" x="114.079968" y="606.699"/>
</g>
<g fill="rgb(0%, 0%, 0%)" fill-opacity="1">
<use xlink:href="#glyph-0-0" x="3.288" y="626.797"/>
</g>
<g fill="rgb(100%, 74.900818%, 0%)" fill-opacity="1">
<use xlink:href="#glyph-1-2" x="13.408" y="626.797"/>
</g>
<g fill="rgb(0%, 0%, 0%)" fill-opacity="1">
<use xlink:href="#glyph-0-1" x="23.499" y="626.797"/>
</g>
<g fill="rgb(0%, 66.273499%, 19.999695%)" fill-opacity="1">
<use xlink:href="#glyph-1-3" x="33.591" y="626.797"/>
</g>
<g fill="rgb(0%, 0%, 0%)" fill-opacity="1">
<use xlink:href="#glyph-0-1" x="43.71" y="626.797"/>
</g>
<g fill="rgb(0%, 0%, 0%)" fill-opacity="1">
<use xlink:href="#glyph-1-1" x="53.688" y="626.797"/>
</g>
<g fill="rgb(0%, 0%, 0%)" fill-opacity="1">
<use xlink:href="#glyph-0-1" x="63.808" y="626.797"/>
</g>
<g fill="rgb(100%, 0%, 0%)" fill-opacity="1">
<use xlink:href="#glyph-1-0" x="73.899" y="626.797"/>
</g>
<path fill-rule="evenodd" fill="rgb(50.587463%, 83.135986%, 10.195923%)" fill-opacity="1" stroke-width="0.12" stroke-linecap="butt" stroke-linejoin="round" stroke="rgb(0%, 0%, 0%)" stroke-opacity="1" stroke-miterlimit="10" d="M 175.578125 90.027344 L 166.5625 90.027344 L 166.5625 108.027344 L 184.5625 108.027344 L 184.5625 90.027344 Z M 175.578125 90.027344 " transform="matrix(1, 0, 0, -1, 0, 720)"/>
<path fill-rule="evenodd" fill="rgb(50.587463%, 83.135986%, 10.195923%)" fill-opacity="1" stroke-width="0.12" stroke-linecap="butt" stroke-linejoin="round" stroke="rgb(0%, 0%, 0%)" stroke-opacity="1" stroke-miterlimit="10" d="M 155.734375 51.195312 L 146.722656 51.195312 L 146.722656 202.140625 L 164.722656 202.140625 L 164.722656 51.195312 Z M 155.734375 51.195312 " transform="matrix(1, 0, 0, -1, 0, 720)"/>
<path fill-rule="evenodd" fill="rgb(50.587463%, 83.135986%, 10.195923%)" fill-opacity="1" stroke-width="0.12" stroke-linecap="butt" stroke-linejoin="round" stroke="rgb(0%, 0%, 0%)" stroke-opacity="1" stroke-miterlimit="10" d="M 175.578125 126.878906 L 166.5625 126.878906 L 166.5625 144.878906 L 184.5625 144.878906 L 184.5625 126.878906 Z M 175.578125 126.878906 " transform="matrix(1, 0, 0, -1, 0, 720)"/>
<path fill-rule="evenodd" fill="rgb(50.587463%, 83.135986%, 10.195923%)" fill-opacity="1" stroke-width="0.12" stroke-linecap="butt" stroke-linejoin="round" stroke="rgb(0%, 0%, 0%)" stroke-opacity="1" stroke-miterlimit="10" d="M 175.578125 166.5625 L 166.5625 166.5625 L 166.5625 184.5625 L 184.5625 184.5625 L 184.5625 166.5625 Z M 175.578125 166.5625 " transform="matrix(1, 0, 0, -1, 0, 720)"/>
<path fill-rule="evenodd" fill="rgb(50.587463%, 83.135986%, 10.195923%)" fill-opacity="1" stroke-width="0.12" stroke-linecap="butt" stroke-linejoin="round" stroke="rgb(0%, 0%, 0%)" stroke-opacity="1" stroke-miterlimit="10" d="M 195.421875 90.027344 L 186.40625 90.027344 L 186.40625 108.027344 L 204.40625 108.027344 L 204.40625 90.027344 Z M 195.421875 90.027344 " transform="matrix(1, 0, 0, -1, 0, 720)"/>
<path fill-rule="evenodd" fill="rgb(100%, 25.097656%, 0%)" fill-opacity="1" stroke-width="0.12" stroke-linecap="butt" stroke-linejoin="round" stroke="rgb(0%, 0%, 0%)" stroke-opacity="1" stroke-miterlimit="10" d="M 320.144531 54.027344 L 311.132812 54.027344 L 311.132812 684.027344 L 329.132812 684.027344 L 329.132812 54.027344 Z M 320.144531 54.027344 " transform="matrix(1, 0, 0, -1, 0, 720)"/>
<path fill-rule="evenodd" fill="rgb(16.470337%, 37.646484%, 59.999084%)" fill-opacity="1" stroke-width="0.12" stroke-linecap="butt" stroke-linejoin="round" stroke="rgb(0%, 0%, 0%)" stroke-opacity="1" stroke-miterlimit="10" d="M 150.066406 535.917969 L 141.050781 535.917969 L 141.050781 686.863281 L 159.050781 686.863281 L 159.050781 535.917969 Z M 150.066406 535.917969 " transform="matrix(1, 0, 0, -1, 0, 720)"/>
<path fill-rule="evenodd" fill="rgb(16.470337%, 37.646484%, 59.999084%)" fill-opacity="1" stroke-width="0.12" stroke-linecap="butt" stroke-linejoin="round" stroke="rgb(0%, 0%, 0%)" stroke-opacity="1" stroke-miterlimit="10" d="M 169.910156 612 L 160.894531 612 L 160.894531 648 L 178.894531 648 L 178.894531 612 Z M 169.910156 612 " transform="matrix(1, 0, 0, -1, 0, 720)"/>
<path fill-rule="evenodd" fill="rgb(16.470337%, 37.646484%, 59.999084%)" fill-opacity="1" stroke-width="0.12" stroke-linecap="butt" stroke-linejoin="round" stroke="rgb(0%, 0%, 0%)" stroke-opacity="1" stroke-miterlimit="10" d="M 189.75 612.027344 L 180.738281 612.027344 L 180.738281 630.027344 L 198.738281 630.027344 L 198.738281 612.027344 Z M 189.75 612.027344 " transform="matrix(1, 0, 0, -1, 0, 720)"/>
</svg>
