<?xml version="1.0" encoding="UTF-8"?>
<svg xmlns="http://www.w3.org/2000/svg" xmlns:xlink="http://www.w3.org/1999/xlink" width="430.977856pt" height="357.45855pt" viewBox="0 0 430.977856 357.45855">
<defs>
<g>
<g id="glyph-0-0">
<path d="M 1.734375 -1.160156 L 3.984375 -1.160156 L 3.984375 -8.933594 L 1.539062 -8.441406 L 1.539062 -9.703125 L 3.96875 -10.191406 L 5.355469 -10.191406 L 5.355469 -1.160156 L 7.605469 -1.160156 L 7.605469 0 L 1.734375 0 Z M 1.734375 -1.160156 "/>
</g>
<g id="glyph-0-1">
<path d="M 4.445312 -9.28125 C 3.730469 -9.28125 3.199219 -8.933594 2.835938 -8.234375 C 2.472656 -7.535156 2.304688 -6.484375 2.304688 -5.089844 C 2.304688 -3.691406 2.472656 -2.640625 2.835938 -1.941406 C 3.199219 -1.242188 3.730469 -0.894531 4.445312 -0.894531 C 5.15625 -0.894531 5.6875 -1.242188 6.054688 -1.941406 C 6.402344 -2.640625 6.585938 -3.691406 6.585938 -5.089844 C 6.585938 -6.484375 6.402344 -7.535156 6.054688 -8.234375 C 5.6875 -8.933594 5.15625 -9.28125 4.445312 -9.28125 Z M 4.445312 -10.371094 C 5.578125 -10.371094 6.445312 -9.910156 7.058594 -9.015625 C 7.660156 -8.109375 7.96875 -6.792969 7.96875 -5.089844 C 7.96875 -3.367188 7.660156 -2.054688 7.058594 -1.160156 C 6.445312 -0.265625 5.578125 0.183594 4.429688 0.183594 C 3.285156 0.183594 2.417969 -0.265625 1.816406 -1.160156 C 1.214844 -2.054688 0.921875 -3.367188 0.921875 -5.089844 C 0.921875 -6.792969 1.214844 -8.109375 1.816406 -9.015625 C 2.417969 -9.910156 3.300781 -10.371094 4.445312 -10.371094 Z M 4.445312 -10.371094 "/>
</g>
<g id="glyph-0-2">
<path d="M 2.558594 -9.8125 L 2.558594 -7.644531 L 5.144531 -7.644531 L 5.144531 -6.667969 L 2.558594 -6.667969 L 2.558594 -2.515625 C 2.558594 -1.886719 2.640625 -1.480469 2.808594 -1.3125 C 2.976562 -1.132812 3.328125 -1.046875 3.859375 -1.046875 L 5.144531 -1.046875 L 5.144531 0 L 3.859375 0 C 2.878906 0 2.207031 -0.183594 1.84375 -0.546875 C 1.480469 -0.910156 1.300781 -1.566406 1.300781 -2.515625 L 1.300781 -6.667969 L 0.378906 -6.667969 L 0.378906 -7.644531 L 1.300781 -7.644531 L 1.300781 -9.8125 Z M 2.558594 -9.8125 "/>
</g>
<g id="glyph-0-3">
<path d="M 4.277344 -6.765625 C 3.605469 -6.765625 3.074219 -6.5 2.683594 -5.96875 C 2.292969 -5.4375 2.097656 -4.726562 2.097656 -3.816406 C 2.097656 -2.894531 2.277344 -2.179688 2.671875 -1.648438 C 3.0625 -1.117188 3.59375 -0.867188 4.277344 -0.867188 C 4.949219 -0.867188 5.480469 -1.117188 5.871094 -1.648438 C 6.261719 -2.179688 6.457031 -2.894531 6.457031 -3.816406 C 6.457031 -4.710938 6.261719 -5.4375 5.871094 -5.96875 C 5.480469 -6.5 4.949219 -6.765625 4.277344 -6.765625 Z M 4.277344 -7.828125 C 5.367188 -7.828125 6.21875 -7.464844 6.851562 -6.765625 C 7.464844 -6.054688 7.785156 -5.074219 7.785156 -3.816406 C 7.785156 -2.558594 7.464844 -1.578125 6.851562 -0.878906 C 6.21875 -0.167969 5.367188 0.183594 4.277344 0.183594 C 3.171875 0.183594 2.304688 -0.167969 1.691406 -0.878906 C 1.078125 -1.578125 0.769531 -2.558594 0.769531 -3.816406 C 0.769531 -5.074219 1.078125 -6.054688 1.691406 -6.765625 C 2.304688 -7.464844 3.171875 -7.828125 4.277344 -7.828125 Z M 4.277344 -7.828125 "/>
</g>
<g id="glyph-0-4">
<path d="M 4.792969 -3.84375 C 3.773438 -3.84375 3.074219 -3.71875 2.683594 -3.496094 C 2.292969 -3.257812 2.097656 -2.867188 2.097656 -2.304688 C 2.097656 -1.859375 2.238281 -1.496094 2.53125 -1.242188 C 2.824219 -0.980469 3.230469 -0.851562 3.730469 -0.851562 C 4.429688 -0.851562 4.992188 -1.089844 5.410156 -1.59375 C 5.828125 -2.082031 6.039062 -2.738281 6.039062 -3.566406 L 6.039062 -3.84375 Z M 7.296875 -4.363281 L 7.296875 0 L 6.039062 0 L 6.039062 -1.160156 C 5.746094 -0.683594 5.382812 -0.347656 4.960938 -0.140625 C 4.542969 0.0703125 4.011719 0.183594 3.398438 0.183594 C 2.613281 0.183594 1.984375 -0.0273438 1.523438 -0.460938 C 1.0625 -0.894531 0.839844 -1.480469 0.839844 -2.222656 C 0.839844 -3.074219 1.117188 -3.71875 1.707031 -4.164062 C 2.277344 -4.597656 3.132812 -4.824219 4.277344 -4.824219 L 6.039062 -4.824219 L 6.039062 -4.949219 C 6.039062 -5.523438 5.84375 -5.96875 5.464844 -6.289062 C 5.089844 -6.597656 4.558594 -6.765625 3.871094 -6.765625 C 3.425781 -6.765625 3.003906 -6.710938 2.585938 -6.597656 C 2.167969 -6.484375 1.773438 -6.332031 1.398438 -6.136719 L 1.398438 -7.296875 C 1.84375 -7.464844 2.292969 -7.605469 2.726562 -7.6875 C 3.160156 -7.773438 3.578125 -7.828125 3.996094 -7.828125 C 5.101562 -7.828125 5.925781 -7.535156 6.472656 -6.960938 C 7.015625 -6.386719 7.296875 -5.523438 7.296875 -4.363281 Z M 7.296875 -4.363281 "/>
</g>
<g id="glyph-0-5">
<path d="M 1.3125 -10.625 L 2.570312 -10.625 L 2.570312 0 L 1.3125 0 Z M 1.3125 -10.625 "/>
</g>
<g id="glyph-0-6">
</g>
<g id="glyph-0-7">
<path d="M 7.144531 -6.152344 L 5.15625 -6.152344 L 4.585938 -3.871094 L 6.585938 -3.871094 Z M 6.121094 -10.035156 L 5.410156 -7.199219 L 7.410156 -7.199219 L 8.121094 -10.035156 L 9.210938 -10.035156 L 8.511719 -7.199219 L 10.636719 -7.199219 L 10.636719 -6.152344 L 8.246094 -6.152344 L 7.6875 -3.871094 L 9.855469 -3.871094 L 9.855469 -2.824219 L 7.421875 -2.824219 L 6.710938 0 L 5.621094 0 L 6.320312 -2.824219 L 4.320312 -2.824219 L 3.621094 0 L 2.515625 0 L 3.230469 -2.824219 L 1.078125 -2.824219 L 1.078125 -3.871094 L 3.480469 -3.871094 L 4.054688 -6.152344 L 1.859375 -6.152344 L 1.859375 -7.199219 L 4.320312 -7.199219 L 5.019531 -10.035156 Z M 6.121094 -10.035156 "/>
</g>
<g id="glyph-0-8">
<path d="M 0.683594 -4.390625 L 4.363281 -4.390625 L 4.363281 -3.269531 L 0.683594 -3.269531 Z M 0.683594 -4.390625 "/>
</g>
<g id="glyph-0-9">
<path d="M 7.269531 -6.179688 C 7.578125 -6.738281 7.953125 -7.144531 8.386719 -7.421875 C 8.820312 -7.6875 9.335938 -7.828125 9.9375 -7.828125 C 10.722656 -7.828125 11.335938 -7.546875 11.769531 -6.988281 C 12.203125 -6.429688 12.425781 -5.632812 12.425781 -4.613281 L 12.425781 0 L 11.167969 0 L 11.167969 -4.570312 C 11.167969 -5.296875 11.027344 -5.84375 10.777344 -6.207031 C 10.511719 -6.554688 10.121094 -6.738281 9.589844 -6.738281 C 8.933594 -6.738281 8.414062 -6.515625 8.039062 -6.082031 C 7.660156 -5.648438 7.480469 -5.058594 7.480469 -4.320312 L 7.480469 0 L 6.21875 0 L 6.21875 -4.570312 C 6.21875 -5.296875 6.082031 -5.84375 5.828125 -6.207031 C 5.5625 -6.554688 5.15625 -6.738281 4.628906 -6.738281 C 3.984375 -6.738281 3.464844 -6.515625 3.089844 -6.082031 C 2.710938 -5.648438 2.53125 -5.058594 2.53125 -4.320312 L 2.53125 0 L 1.273438 0 L 1.273438 -7.644531 L 2.53125 -7.644531 L 2.53125 -6.457031 C 2.808594 -6.917969 3.160156 -7.269531 3.566406 -7.492188 C 3.957031 -7.714844 4.429688 -7.828125 4.992188 -7.828125 C 5.550781 -7.828125 6.011719 -7.6875 6.402344 -7.410156 C 6.792969 -7.128906 7.074219 -6.710938 7.269531 -6.179688 Z M 7.269531 -6.179688 "/>
</g>
<g id="glyph-0-10">
<path d="M 7.855469 -4.136719 L 7.855469 -3.523438 L 2.082031 -3.523438 C 2.140625 -2.65625 2.390625 -1.984375 2.867188 -1.539062 C 3.328125 -1.089844 3.96875 -0.867188 4.808594 -0.867188 C 5.285156 -0.867188 5.757812 -0.921875 6.207031 -1.035156 C 6.652344 -1.144531 7.113281 -1.328125 7.5625 -1.578125 L 7.5625 -0.390625 C 7.113281 -0.195312 6.652344 -0.0429688 6.179688 0.0429688 C 5.703125 0.125 5.214844 0.183594 4.738281 0.183594 C 3.507812 0.183594 2.542969 -0.167969 1.832031 -0.867188 C 1.117188 -1.566406 0.769531 -2.53125 0.769531 -3.746094 C 0.769531 -4.992188 1.105469 -5.984375 1.773438 -6.722656 C 2.445312 -7.449219 3.367188 -7.828125 4.515625 -7.828125 C 5.550781 -7.828125 6.359375 -7.492188 6.960938 -6.835938 C 7.546875 -6.164062 7.855469 -5.269531 7.855469 -4.136719 Z M 6.597656 -4.5 C 6.585938 -5.1875 6.386719 -5.730469 6.023438 -6.152344 C 5.648438 -6.554688 5.144531 -6.765625 4.527344 -6.765625 C 3.832031 -6.765625 3.269531 -6.554688 2.851562 -6.164062 C 2.433594 -5.773438 2.179688 -5.214844 2.125 -4.5 Z M 6.597656 -4.5 "/>
</g>
<g id="glyph-0-11">
<path d="M 5.746094 -6.472656 C 5.605469 -6.554688 5.453125 -6.613281 5.285156 -6.652344 C 5.117188 -6.683594 4.933594 -6.710938 4.738281 -6.710938 C 4.027344 -6.710938 3.480469 -6.472656 3.101562 -6.011719 C 2.710938 -5.550781 2.53125 -4.894531 2.53125 -4.027344 L 2.53125 0 L 1.273438 0 L 1.273438 -7.644531 L 2.53125 -7.644531 L 2.53125 -6.457031 C 2.78125 -6.917969 3.132812 -7.269531 3.550781 -7.492188 C 3.96875 -7.714844 4.488281 -7.828125 5.101562 -7.828125 C 5.1875 -7.828125 5.285156 -7.8125 5.394531 -7.8125 C 5.492188 -7.800781 5.605469 -7.785156 5.746094 -7.757812 Z M 5.746094 -6.472656 "/>
</g>
<g id="glyph-0-12">
<path d="M 6.191406 -7.421875 L 6.191406 -6.234375 C 5.828125 -6.402344 5.464844 -6.542969 5.089844 -6.640625 C 4.695312 -6.722656 4.304688 -6.78125 3.898438 -6.78125 C 3.269531 -6.78125 2.796875 -6.683594 2.488281 -6.484375 C 2.179688 -6.289062 2.027344 -6.011719 2.027344 -5.632812 C 2.027344 -5.339844 2.140625 -5.117188 2.363281 -4.949219 C 2.585938 -4.78125 3.035156 -4.613281 3.703125 -4.472656 L 4.136719 -4.375 C 5.03125 -4.179688 5.660156 -3.898438 6.039062 -3.566406 C 6.402344 -3.214844 6.597656 -2.726562 6.597656 -2.109375 C 6.597656 -1.398438 6.320312 -0.839844 5.757812 -0.433594 C 5.199219 -0.015625 4.417969 0.183594 3.4375 0.183594 C 3.019531 0.183594 2.601562 0.140625 2.152344 0.0703125 C 1.707031 0 1.242188 -0.113281 0.753906 -0.28125 L 0.753906 -1.578125 C 1.214844 -1.328125 1.675781 -1.144531 2.125 -1.035156 C 2.570312 -0.910156 3.019531 -0.851562 3.464844 -0.851562 C 4.054688 -0.851562 4.515625 -0.949219 4.835938 -1.144531 C 5.144531 -1.34375 5.3125 -1.636719 5.3125 -2.011719 C 5.3125 -2.347656 5.1875 -2.613281 4.960938 -2.796875 C 4.738281 -2.976562 4.234375 -3.160156 3.453125 -3.328125 L 3.019531 -3.425781 C 2.238281 -3.59375 1.664062 -3.84375 1.328125 -4.179688 C 0.980469 -4.515625 0.8125 -4.976562 0.8125 -5.578125 C 0.8125 -6.289062 1.0625 -6.851562 1.566406 -7.242188 C 2.070312 -7.632812 2.796875 -7.828125 3.746094 -7.828125 C 4.207031 -7.828125 4.640625 -7.785156 5.058594 -7.714844 C 5.464844 -7.644531 5.84375 -7.546875 6.191406 -7.421875 Z M 6.191406 -7.421875 "/>
</g>
<g id="glyph-0-13">
<path d="M 1.144531 -10.191406 L 7.703125 -10.191406 L 7.703125 -9.601562 L 3.996094 0 L 2.558594 0 L 6.039062 -9.03125 L 1.144531 -9.03125 Z M 1.144531 -10.191406 "/>
</g>
<g id="glyph-0-14">
<path d="M 1.496094 -1.734375 L 2.9375 -1.734375 L 2.9375 0 L 1.496094 0 Z M 1.496094 -1.734375 "/>
</g>
<g id="glyph-0-15">
<path d="M 4.445312 -4.835938 C 3.789062 -4.835938 3.269531 -4.65625 2.894531 -4.304688 C 2.515625 -3.957031 2.335938 -3.480469 2.335938 -2.867188 C 2.335938 -2.25 2.515625 -1.761719 2.894531 -1.410156 C 3.269531 -1.0625 3.789062 -0.894531 4.445312 -0.894531 C 5.089844 -0.894531 5.605469 -1.0625 5.984375 -1.425781 C 6.359375 -1.773438 6.554688 -2.25 6.554688 -2.867188 C 6.554688 -3.480469 6.359375 -3.957031 5.996094 -4.304688 C 5.621094 -4.65625 5.101562 -4.835938 4.445312 -4.835938 Z M 3.0625 -5.421875 C 2.472656 -5.5625 2.011719 -5.84375 1.675781 -6.25 C 1.34375 -6.652344 1.1875 -7.144531 1.1875 -7.730469 C 1.1875 -8.542969 1.46875 -9.183594 2.054688 -9.660156 C 2.628906 -10.132812 3.425781 -10.371094 4.445312 -10.371094 C 5.453125 -10.371094 6.25 -10.132812 6.835938 -9.660156 C 7.410156 -9.183594 7.703125 -8.542969 7.703125 -7.730469 C 7.703125 -7.144531 7.535156 -6.652344 7.199219 -6.25 C 6.863281 -5.84375 6.417969 -5.5625 5.828125 -5.421875 C 6.484375 -5.269531 7.003906 -4.960938 7.378906 -4.515625 C 7.746094 -4.066406 7.941406 -3.507812 7.941406 -2.867188 C 7.941406 -1.875 7.632812 -1.117188 7.03125 -0.601562 C 6.417969 -0.0703125 5.550781 0.183594 4.429688 0.183594 C 3.3125 0.183594 2.445312 -0.0703125 1.84375 -0.601562 C 1.242188 -1.117188 0.949219 -1.875 0.949219 -2.867188 C 0.949219 -3.507812 1.132812 -4.066406 1.507812 -4.515625 C 1.875 -4.960938 2.390625 -5.269531 3.0625 -5.421875 Z M 2.558594 -7.605469 C 2.558594 -7.074219 2.710938 -6.652344 3.046875 -6.359375 C 3.382812 -6.066406 3.84375 -5.925781 4.445312 -5.925781 C 5.03125 -5.925781 5.492188 -6.066406 5.828125 -6.359375 C 6.164062 -6.652344 6.332031 -7.074219 6.332031 -7.605469 C 6.332031 -8.136719 6.164062 -8.542969 5.828125 -8.835938 C 5.492188 -9.128906 5.03125 -9.28125 4.445312 -9.28125 C 3.84375 -9.28125 3.382812 -9.128906 3.046875 -8.835938 C 2.710938 -8.542969 2.558594 -8.136719 2.558594 -7.605469 Z M 2.558594 -7.605469 "/>
</g>
<g id="glyph-0-16">
<path d="M 5.675781 -5.492188 C 6.332031 -5.355469 6.851562 -5.058594 7.214844 -4.613281 C 7.578125 -4.164062 7.773438 -3.605469 7.773438 -2.964844 C 7.773438 -1.957031 7.421875 -1.175781 6.738281 -0.628906 C 6.039062 -0.0820312 5.058594 0.183594 3.789062 0.183594 C 3.355469 0.183594 2.90625 0.140625 2.460938 0.0546875 C 2.011719 -0.015625 1.539062 -0.140625 1.0625 -0.308594 L 1.0625 -1.636719 C 1.441406 -1.410156 1.859375 -1.242188 2.320312 -1.132812 C 2.769531 -1.019531 3.242188 -0.964844 3.746094 -0.964844 C 4.613281 -0.964844 5.269531 -1.132812 5.71875 -1.46875 C 6.164062 -1.804688 6.402344 -2.304688 6.402344 -2.964844 C 6.402344 -3.550781 6.191406 -4.027344 5.773438 -4.363281 C 5.355469 -4.695312 4.765625 -4.878906 4.011719 -4.878906 L 2.824219 -4.878906 L 2.824219 -6.011719 L 4.066406 -6.011719 C 4.738281 -6.011719 5.257812 -6.136719 5.621094 -6.417969 C 5.984375 -6.683594 6.164062 -7.074219 6.164062 -7.589844 C 6.164062 -8.109375 5.96875 -8.511719 5.605469 -8.792969 C 5.226562 -9.070312 4.695312 -9.210938 4.011719 -9.210938 C 3.632812 -9.210938 3.230469 -9.171875 2.796875 -9.085938 C 2.363281 -9.003906 1.886719 -8.875 1.371094 -8.707031 L 1.371094 -9.9375 C 1.886719 -10.078125 2.375 -10.191406 2.835938 -10.261719 C 3.285156 -10.332031 3.71875 -10.371094 4.136719 -10.371094 C 5.171875 -10.371094 5.996094 -10.132812 6.613281 -9.660156 C 7.226562 -9.183594 7.535156 -8.542969 7.535156 -7.730469 C 7.535156 -7.171875 7.367188 -6.695312 7.046875 -6.304688 C 6.722656 -5.914062 6.261719 -5.632812 5.675781 -5.492188 Z M 5.675781 -5.492188 "/>
</g>
<g id="glyph-0-17">
<path d="M 2.683594 -1.160156 L 7.492188 -1.160156 L 7.492188 0 L 1.019531 0 L 1.019531 -1.160156 C 1.539062 -1.691406 2.25 -2.417969 3.160156 -3.339844 C 4.054688 -4.25 4.628906 -4.835938 4.863281 -5.101562 C 5.3125 -5.589844 5.621094 -6.011719 5.789062 -6.359375 C 5.953125 -6.695312 6.054688 -7.046875 6.054688 -7.378906 C 6.054688 -7.910156 5.855469 -8.359375 5.480469 -8.695312 C 5.101562 -9.03125 4.613281 -9.210938 3.996094 -9.210938 C 3.566406 -9.210938 3.101562 -9.128906 2.628906 -8.988281 C 2.152344 -8.835938 1.636719 -8.609375 1.089844 -8.304688 L 1.089844 -9.703125 C 1.648438 -9.925781 2.167969 -10.09375 2.640625 -10.203125 C 3.117188 -10.316406 3.566406 -10.371094 3.96875 -10.371094 C 5.019531 -10.371094 5.855469 -10.105469 6.484375 -9.574219 C 7.113281 -9.042969 7.4375 -8.34375 7.4375 -7.464844 C 7.4375 -7.046875 7.351562 -6.640625 7.199219 -6.277344 C 7.046875 -5.898438 6.765625 -5.453125 6.347656 -4.949219 C 6.234375 -4.808594 5.871094 -4.429688 5.257812 -3.800781 C 4.640625 -3.171875 3.789062 -2.292969 2.683594 -1.160156 Z M 2.683594 -1.160156 "/>
</g>
<g id="glyph-0-18">
<path d="M 4.613281 -5.648438 C 3.996094 -5.648438 3.507812 -5.421875 3.144531 -5.003906 C 2.78125 -4.585938 2.601562 -3.996094 2.601562 -3.269531 C 2.601562 -2.53125 2.78125 -1.941406 3.144531 -1.523438 C 3.507812 -1.105469 3.996094 -0.894531 4.613281 -0.894531 C 5.226562 -0.894531 5.71875 -1.105469 6.082031 -1.523438 C 6.445312 -1.941406 6.625 -2.53125 6.625 -3.269531 C 6.625 -3.996094 6.445312 -4.585938 6.082031 -5.003906 C 5.71875 -5.421875 5.226562 -5.648438 4.613281 -5.648438 Z M 7.351562 -9.96875 L 7.351562 -8.707031 C 7.003906 -8.875 6.652344 -9.003906 6.304688 -9.085938 C 5.941406 -9.171875 5.589844 -9.210938 5.257812 -9.210938 C 4.332031 -9.210938 3.632812 -8.90625 3.160156 -8.289062 C 2.683594 -7.675781 2.40625 -6.738281 2.347656 -5.507812 C 2.613281 -5.898438 2.949219 -6.207031 3.355469 -6.417969 C 3.761719 -6.625 4.207031 -6.738281 4.695312 -6.738281 C 5.71875 -6.738281 6.527344 -6.417969 7.113281 -5.800781 C 7.703125 -5.1875 8.011719 -4.332031 8.011719 -3.269531 C 8.011719 -2.222656 7.6875 -1.382812 7.074219 -0.753906 C 6.457031 -0.125 5.632812 0.183594 4.613281 0.183594 C 3.4375 0.183594 2.53125 -0.265625 1.914062 -1.160156 C 1.285156 -2.054688 0.980469 -3.367188 0.980469 -5.089844 C 0.980469 -6.695312 1.355469 -7.980469 2.125 -8.933594 C 2.878906 -9.882812 3.914062 -10.371094 5.199219 -10.371094 C 5.535156 -10.371094 5.886719 -10.332031 6.25 -10.273438 C 6.597656 -10.203125 6.960938 -10.105469 7.351562 -9.96875 Z M 7.351562 -9.96875 "/>
</g>
<g id="glyph-0-19">
<path d="M 9.003906 -9.40625 L 9.003906 -7.953125 C 8.527344 -8.375 8.039062 -8.695312 7.507812 -8.917969 C 6.976562 -9.128906 6.429688 -9.238281 5.84375 -9.238281 C 4.667969 -9.238281 3.773438 -8.875 3.160156 -8.164062 C 2.542969 -7.449219 2.238281 -6.429688 2.238281 -5.089844 C 2.238281 -3.746094 2.542969 -2.710938 3.160156 -2 C 3.773438 -1.285156 4.667969 -0.9375 5.84375 -0.9375 C 6.429688 -0.9375 6.976562 -1.035156 7.507812 -1.257812 C 8.039062 -1.46875 8.527344 -1.789062 9.003906 -2.222656 L 9.003906 -0.78125 C 8.511719 -0.449219 7.996094 -0.210938 7.464844 -0.0546875 C 6.933594 0.0976562 6.359375 0.183594 5.757812 0.183594 C 4.222656 0.183594 3.003906 -0.28125 2.109375 -1.214844 C 1.214844 -2.152344 0.78125 -3.4375 0.78125 -5.089844 C 0.78125 -6.722656 1.214844 -8.011719 2.109375 -8.960938 C 3.003906 -9.898438 4.222656 -10.371094 5.757812 -10.371094 C 6.375 -10.371094 6.949219 -10.289062 7.480469 -10.132812 C 8.011719 -9.96875 8.527344 -9.730469 9.003906 -9.40625 Z M 9.003906 -9.40625 "/>
</g>
<g id="glyph-0-20">
<path d="M 2.753906 -4.863281 L 2.753906 -1.132812 L 4.960938 -1.132812 C 5.703125 -1.132812 6.25 -1.285156 6.613281 -1.59375 C 6.960938 -1.902344 7.144531 -2.363281 7.144531 -3.003906 C 7.144531 -3.632812 6.960938 -4.097656 6.613281 -4.402344 C 6.25 -4.710938 5.703125 -4.863281 4.960938 -4.863281 Z M 2.753906 -9.058594 L 2.753906 -5.984375 L 4.792969 -5.984375 C 5.464844 -5.984375 5.953125 -6.109375 6.289062 -6.359375 C 6.625 -6.613281 6.792969 -6.988281 6.792969 -7.519531 C 6.792969 -8.023438 6.625 -8.414062 6.289062 -8.667969 C 5.953125 -8.917969 5.464844 -9.058594 4.792969 -9.058594 Z M 1.371094 -10.191406 L 4.894531 -10.191406 C 5.941406 -10.191406 6.75 -9.96875 7.324219 -9.535156 C 7.882812 -9.085938 8.175781 -8.472656 8.175781 -7.675781 C 8.175781 -7.046875 8.023438 -6.542969 7.730469 -6.179688 C 7.4375 -5.816406 7.015625 -5.578125 6.457031 -5.492188 C 7.128906 -5.339844 7.660156 -5.03125 8.039062 -4.570312 C 8.402344 -4.109375 8.597656 -3.535156 8.597656 -2.851562 C 8.597656 -1.929688 8.277344 -1.230469 7.660156 -0.742188 C 7.046875 -0.238281 6.164062 0 5.03125 0 L 1.371094 0 Z M 1.371094 -10.191406 "/>
</g>
<g id="glyph-0-21">
<path d="M 1.371094 -10.191406 L 2.753906 -10.191406 L 2.753906 -1.160156 L 7.714844 -1.160156 L 7.714844 0 L 1.371094 0 Z M 1.371094 -10.191406 "/>
</g>
<g id="glyph-0-22">
<path d="M 1.371094 -10.191406 L 2.753906 -10.191406 L 2.753906 -6.011719 L 7.757812 -6.011719 L 7.757812 -10.191406 L 9.140625 -10.191406 L 9.140625 0 L 7.757812 0 L 7.757812 -4.851562 L 2.753906 -4.851562 L 2.753906 0 L 1.371094 0 Z M 1.371094 -10.191406 "/>
</g>
<g id="glyph-0-23">
<path d="M 7.675781 -4.613281 L 7.675781 0 L 6.417969 0 L 6.417969 -4.570312 C 6.417969 -5.296875 6.261719 -5.828125 5.984375 -6.191406 C 5.703125 -6.554688 5.285156 -6.738281 4.726562 -6.738281 C 4.039062 -6.738281 3.507812 -6.515625 3.117188 -6.082031 C 2.726562 -5.648438 2.53125 -5.058594 2.53125 -4.320312 L 2.53125 0 L 1.273438 0 L 1.273438 -10.625 L 2.53125 -10.625 L 2.53125 -6.457031 C 2.824219 -6.90625 3.171875 -7.253906 3.59375 -7.480469 C 3.996094 -7.703125 4.472656 -7.828125 5.003906 -7.828125 C 5.871094 -7.828125 6.542969 -7.546875 6.988281 -7.003906 C 7.4375 -6.457031 7.675781 -5.660156 7.675781 -4.613281 Z M 7.675781 -4.613281 "/>
</g>
<g id="glyph-0-24">
<path d="M 7.480469 -9.855469 L 7.480469 -8.511719 C 6.949219 -8.765625 6.457031 -8.945312 5.996094 -9.070312 C 5.523438 -9.183594 5.074219 -9.253906 4.65625 -9.253906 C 3.898438 -9.253906 3.3125 -9.101562 2.90625 -8.820312 C 2.503906 -8.527344 2.304688 -8.109375 2.304688 -7.578125 C 2.304688 -7.128906 2.433594 -6.78125 2.710938 -6.554688 C 2.976562 -6.320312 3.496094 -6.136719 4.25 -5.996094 L 5.089844 -5.828125 C 6.109375 -5.632812 6.863281 -5.285156 7.351562 -4.792969 C 7.84375 -4.292969 8.09375 -3.632812 8.09375 -2.808594 C 8.09375 -1.816406 7.757812 -1.078125 7.101562 -0.574219 C 6.429688 -0.0703125 5.464844 0.183594 4.195312 0.183594 C 3.703125 0.183594 3.1875 0.125 2.640625 0.0273438 C 2.097656 -0.0703125 1.539062 -0.222656 0.964844 -0.449219 L 0.964844 -1.875 C 1.523438 -1.550781 2.070312 -1.3125 2.601562 -1.160156 C 3.132812 -0.992188 3.664062 -0.921875 4.195312 -0.921875 C 4.976562 -0.921875 5.578125 -1.078125 6.011719 -1.382812 C 6.429688 -1.691406 6.652344 -2.125 6.652344 -2.710938 C 6.652344 -3.214844 6.5 -3.605469 6.191406 -3.886719 C 5.886719 -4.164062 5.382812 -4.375 4.683594 -4.515625 L 3.84375 -4.683594 C 2.808594 -4.878906 2.070312 -5.199219 1.609375 -5.648438 C 1.144531 -6.082031 0.921875 -6.683594 0.921875 -7.464844 C 0.921875 -8.359375 1.230469 -9.070312 1.875 -9.589844 C 2.503906 -10.105469 3.382812 -10.371094 4.5 -10.371094 C 4.976562 -10.371094 5.453125 -10.332031 5.953125 -10.246094 C 6.445312 -10.164062 6.949219 -10.023438 7.480469 -9.855469 Z M 7.480469 -9.855469 "/>
</g>
<g id="glyph-1-0">
<path d="M 3.113281 -3.386719 C 2.652344 -3.386719 2.289062 -3.257812 2.027344 -3.015625 C 1.761719 -2.769531 1.632812 -2.4375 1.632812 -2.007812 C 1.632812 -1.574219 1.761719 -1.234375 2.027344 -0.988281 C 2.289062 -0.742188 2.652344 -0.625 3.113281 -0.625 C 3.5625 -0.625 3.925781 -0.742188 4.1875 -1 C 4.453125 -1.242188 4.589844 -1.574219 4.589844 -2.007812 C 4.589844 -2.4375 4.453125 -2.769531 4.199219 -3.015625 C 3.933594 -3.257812 3.570312 -3.386719 3.113281 -3.386719 Z M 2.144531 -3.796875 C 1.730469 -3.894531 1.410156 -4.089844 1.175781 -4.375 C 0.9375 -4.65625 0.832031 -5 0.832031 -5.410156 C 0.832031 -5.980469 1.027344 -6.429688 1.4375 -6.761719 C 1.839844 -7.09375 2.398438 -7.261719 3.113281 -7.261719 C 3.816406 -7.261719 4.375 -7.09375 4.785156 -6.761719 C 5.1875 -6.429688 5.390625 -5.980469 5.390625 -5.410156 C 5.390625 -5 5.273438 -4.65625 5.039062 -4.375 C 4.804688 -4.089844 4.492188 -3.894531 4.082031 -3.796875 C 4.539062 -3.6875 4.902344 -3.472656 5.167969 -3.160156 C 5.421875 -2.847656 5.558594 -2.457031 5.558594 -2.007812 C 5.558594 -1.3125 5.34375 -0.78125 4.921875 -0.421875 C 4.492188 -0.0507812 3.882812 0.128906 3.101562 0.128906 C 2.320312 0.128906 1.710938 -0.0507812 1.292969 -0.421875 C 0.871094 -0.78125 0.664062 -1.3125 0.664062 -2.007812 C 0.664062 -2.457031 0.792969 -2.847656 1.058594 -3.160156 C 1.3125 -3.472656 1.671875 -3.6875 2.144531 -3.796875 Z M 1.789062 -5.324219 C 1.789062 -4.953125 1.898438 -4.65625 2.132812 -4.453125 C 2.367188 -4.246094 2.691406 -4.148438 3.113281 -4.148438 C 3.523438 -4.148438 3.84375 -4.246094 4.082031 -4.453125 C 4.316406 -4.65625 4.433594 -4.953125 4.433594 -5.324219 C 4.433594 -5.695312 4.316406 -5.980469 4.082031 -6.183594 C 3.84375 -6.390625 3.523438 -6.496094 3.113281 -6.496094 C 2.691406 -6.496094 2.367188 -6.390625 2.132812 -6.183594 C 1.898438 -5.980469 1.789062 -5.695312 1.789062 -5.324219 Z M 1.789062 -5.324219 "/>
</g>
<g id="glyph-1-1">
<path d="M 1.078125 -0.148438 L 1.078125 -1.027344 C 1.3125 -0.910156 1.554688 -0.820312 1.808594 -0.761719 C 2.054688 -0.703125 2.300781 -0.675781 2.542969 -0.675781 C 3.171875 -0.675781 3.660156 -0.878906 3.992188 -1.3125 C 4.324219 -1.742188 4.519531 -2.386719 4.578125 -3.269531 C 4.382812 -2.996094 4.148438 -2.777344 3.875 -2.632812 C 3.589844 -2.484375 3.277344 -2.417969 2.9375 -2.417969 C 2.210938 -2.417969 1.644531 -2.632812 1.234375 -3.0625 C 0.820312 -3.492188 0.617188 -4.082031 0.617188 -4.832031 C 0.617188 -5.558594 0.832031 -6.144531 1.261719 -6.59375 C 1.691406 -7.035156 2.269531 -7.261719 2.996094 -7.261719 C 3.816406 -7.261719 4.453125 -6.9375 4.882812 -6.3125 C 5.3125 -5.675781 5.539062 -4.753906 5.539062 -3.5625 C 5.539062 -2.425781 5.265625 -1.535156 4.734375 -0.871094 C 4.199219 -0.207031 3.484375 0.128906 2.582031 0.128906 C 2.339844 0.128906 2.09375 0.0976562 1.847656 0.0585938 C 1.59375 0.0195312 1.339844 -0.0507812 1.078125 -0.148438 Z M 2.996094 -3.171875 C 3.425781 -3.171875 3.765625 -3.316406 4.023438 -3.609375 C 4.277344 -3.902344 4.402344 -4.316406 4.402344 -4.832031 C 4.402344 -5.34375 4.277344 -5.753906 4.023438 -6.046875 C 3.765625 -6.339844 3.425781 -6.496094 2.996094 -6.496094 C 2.5625 -6.496094 2.222656 -6.339844 1.96875 -6.046875 C 1.710938 -5.753906 1.585938 -5.34375 1.585938 -4.832031 C 1.585938 -4.316406 1.710938 -3.902344 1.96875 -3.609375 C 2.222656 -3.316406 2.5625 -3.171875 2.996094 -3.171875 Z M 2.996094 -3.171875 "/>
</g>
<g id="glyph-1-2">
<path d="M 1.214844 -0.8125 L 2.789062 -0.8125 L 2.789062 -6.253906 L 1.078125 -5.910156 L 1.078125 -6.789062 L 2.777344 -7.132812 L 3.746094 -7.132812 L 3.746094 -0.8125 L 5.324219 -0.8125 L 5.324219 0 L 1.214844 0 Z M 1.214844 -0.8125 "/>
</g>
<g id="glyph-1-3">
<path d="M 1.878906 -0.8125 L 5.246094 -0.8125 L 5.246094 0 L 0.714844 0 L 0.714844 -0.8125 C 1.078125 -1.183594 1.574219 -1.691406 2.210938 -2.339844 C 2.835938 -2.976562 3.238281 -3.386719 3.40625 -3.570312 C 3.71875 -3.914062 3.933594 -4.207031 4.050781 -4.453125 C 4.167969 -4.6875 4.238281 -4.933594 4.238281 -5.167969 C 4.238281 -5.539062 4.101562 -5.851562 3.835938 -6.085938 C 3.570312 -6.320312 3.230469 -6.449219 2.796875 -6.449219 C 2.496094 -6.449219 2.171875 -6.390625 1.839844 -6.292969 C 1.507812 -6.183594 1.144531 -6.027344 0.761719 -5.8125 L 0.761719 -6.789062 C 1.15625 -6.949219 1.515625 -7.066406 1.847656 -7.144531 C 2.183594 -7.222656 2.496094 -7.261719 2.777344 -7.261719 C 3.511719 -7.261719 4.101562 -7.074219 4.539062 -6.703125 C 4.980469 -6.332031 5.207031 -5.839844 5.207031 -5.226562 C 5.207031 -4.933594 5.148438 -4.648438 5.039062 -4.394531 C 4.933594 -4.128906 4.734375 -3.816406 4.441406 -3.464844 C 4.363281 -3.367188 4.109375 -3.101562 3.679688 -2.660156 C 3.25 -2.222656 2.652344 -1.605469 1.878906 -0.8125 Z M 1.878906 -0.8125 "/>
</g>
<g id="glyph-2-0">
<path d="M 2.558594 -10.625 L 3.816406 -10.625 L 2.613281 -4.429688 L 6.917969 -7.644531 L 8.554688 -7.644531 L 3.746094 -3.984375 L 7.253906 0 L 5.730469 0 L 2.472656 -3.730469 L 1.746094 0 L 0.488281 0 Z M 2.558594 -10.625 "/>
</g>
<g id="glyph-3-0">
<path d="M -10.191406 0.0273438 L -10.191406 -8.582031 L -9.03125 -8.582031 L -9.03125 -4.960938 L 0 -4.960938 L 0 -3.578125 L -9.03125 -3.578125 L -9.03125 0.0273438 Z M -10.191406 0.0273438 "/>
</g>
<g id="glyph-3-1">
<path d="M -7.644531 -1.3125 L -7.644531 -2.570312 L 0 -2.570312 L 0 -1.3125 Z M -10.625 -1.3125 L -10.625 -2.570312 L -9.03125 -2.570312 L -9.03125 -1.3125 Z M -10.625 -1.3125 "/>
</g>
<g id="glyph-3-2">
<path d="M -6.179688 -7.269531 C -6.738281 -7.578125 -7.144531 -7.953125 -7.421875 -8.386719 C -7.6875 -8.820312 -7.828125 -9.335938 -7.828125 -9.9375 C -7.828125 -10.722656 -7.546875 -11.335938 -6.988281 -11.769531 C -6.429688 -12.203125 -5.632812 -12.425781 -4.613281 -12.425781 L 0 -12.425781 L 0 -11.167969 L -4.570312 -11.167969 C -5.296875 -11.167969 -5.84375 -11.027344 -6.207031 -10.777344 C -6.554688 -10.511719 -6.738281 -10.121094 -6.738281 -9.589844 C -6.738281 -8.933594 -6.515625 -8.414062 -6.082031 -8.039062 C -5.648438 -7.660156 -5.058594 -7.480469 -4.320312 -7.480469 L 0 -7.480469 L 0 -6.21875 L -4.570312 -6.21875 C -5.296875 -6.21875 -5.84375 -6.082031 -6.207031 -5.828125 C -6.554688 -5.5625 -6.738281 -5.15625 -6.738281 -4.628906 C -6.738281 -3.984375 -6.515625 -3.464844 -6.082031 -3.089844 C -5.648438 -2.710938 -5.058594 -2.53125 -4.320312 -2.53125 L 0 -2.53125 L 0 -1.273438 L -7.644531 -1.273438 L -7.644531 -2.53125 L -6.457031 -2.53125 C -6.917969 -2.808594 -7.269531 -3.160156 -7.492188 -3.566406 C -7.714844 -3.957031 -7.828125 -4.429688 -7.828125 -4.992188 C -7.828125 -5.550781 -7.6875 -6.011719 -7.410156 -6.402344 C -7.128906 -6.792969 -6.710938 -7.074219 -6.179688 -7.269531 Z M -6.179688 -7.269531 "/>
</g>
<g id="glyph-3-3">
<path d="M -4.136719 -7.855469 L -3.523438 -7.855469 L -3.523438 -2.082031 C -2.65625 -2.140625 -1.984375 -2.390625 -1.539062 -2.867188 C -1.089844 -3.328125 -0.867188 -3.96875 -0.867188 -4.808594 C -0.867188 -5.285156 -0.921875 -5.757812 -1.035156 -6.207031 C -1.144531 -6.652344 -1.328125 -7.113281 -1.578125 -7.5625 L -0.390625 -7.5625 C -0.195312 -7.113281 -0.0429688 -6.652344 0.0429688 -6.179688 C 0.125 -5.703125 0.183594 -5.214844 0.183594 -4.738281 C 0.183594 -3.507812 -0.167969 -2.542969 -0.867188 -1.832031 C -1.566406 -1.117188 -2.53125 -0.769531 -3.746094 -0.769531 C -4.992188 -0.769531 -5.984375 -1.105469 -6.722656 -1.773438 C -7.449219 -2.445312 -7.828125 -3.367188 -7.828125 -4.515625 C -7.828125 -5.550781 -7.492188 -6.359375 -6.835938 -6.960938 C -6.164062 -7.546875 -5.269531 -7.855469 -4.136719 -7.855469 Z M -4.5 -6.597656 C -5.1875 -6.585938 -5.730469 -6.386719 -6.152344 -6.023438 C -6.554688 -5.648438 -6.765625 -5.144531 -6.765625 -4.527344 C -6.765625 -3.832031 -6.554688 -3.269531 -6.164062 -2.851562 C -5.773438 -2.433594 -5.214844 -2.179688 -4.5 -2.125 Z M -4.5 -6.597656 "/>
</g>
<g id="glyph-3-4">
</g>
<g id="glyph-3-5">
<path d="M -10.625 -5.1875 L -9.574219 -5.1875 L -9.574219 -3.984375 C -9.574219 -3.535156 -9.476562 -3.214844 -9.296875 -3.046875 C -9.113281 -2.867188 -8.792969 -2.78125 -8.316406 -2.78125 L -7.644531 -2.78125 L -7.644531 -4.851562 L -6.667969 -4.851562 L -6.667969 -2.78125 L 0 -2.78125 L 0 -1.523438 L -6.667969 -1.523438 L -6.667969 -0.320312 L -7.644531 -0.320312 L -7.644531 -1.523438 L -8.175781 -1.523438 C -9.015625 -1.523438 -9.644531 -1.71875 -10.035156 -2.109375 C -10.429688 -2.503906 -10.625 -3.132812 -10.625 -3.996094 Z M -10.625 -5.1875 "/>
</g>
<g id="glyph-3-6">
<path d="M -6.765625 -4.277344 C -6.765625 -3.605469 -6.5 -3.074219 -5.96875 -2.683594 C -5.4375 -2.292969 -4.726562 -2.097656 -3.816406 -2.097656 C -2.894531 -2.097656 -2.179688 -2.277344 -1.648438 -2.671875 C -1.117188 -3.0625 -0.867188 -3.59375 -0.867188 -4.277344 C -0.867188 -4.949219 -1.117188 -5.480469 -1.648438 -5.871094 C -2.179688 -6.261719 -2.894531 -6.457031 -3.816406 -6.457031 C -4.710938 -6.457031 -5.4375 -6.261719 -5.96875 -5.871094 C -6.5 -5.480469 -6.765625 -4.949219 -6.765625 -4.277344 Z M -7.828125 -4.277344 C -7.828125 -5.367188 -7.464844 -6.21875 -6.765625 -6.851562 C -6.054688 -7.464844 -5.074219 -7.785156 -3.816406 -7.785156 C -2.558594 -7.785156 -1.578125 -7.464844 -0.878906 -6.851562 C -0.167969 -6.21875 0.183594 -5.367188 0.183594 -4.277344 C 0.183594 -3.171875 -0.167969 -2.304688 -0.878906 -1.691406 C -1.578125 -1.078125 -2.558594 -0.769531 -3.816406 -0.769531 C -5.074219 -0.769531 -6.054688 -1.078125 -6.765625 -1.691406 C -7.464844 -2.304688 -7.828125 -3.171875 -7.828125 -4.277344 Z M -7.828125 -4.277344 "/>
</g>
<g id="glyph-3-7">
<path d="M -6.472656 -5.746094 C -6.554688 -5.605469 -6.613281 -5.453125 -6.652344 -5.285156 C -6.683594 -5.117188 -6.710938 -4.933594 -6.710938 -4.738281 C -6.710938 -4.027344 -6.472656 -3.480469 -6.011719 -3.101562 C -5.550781 -2.710938 -4.894531 -2.53125 -4.027344 -2.53125 L 0 -2.53125 L 0 -1.273438 L -7.644531 -1.273438 L -7.644531 -2.53125 L -6.457031 -2.53125 C -6.917969 -2.78125 -7.269531 -3.132812 -7.492188 -3.550781 C -7.714844 -3.96875 -7.828125 -4.488281 -7.828125 -5.101562 C -7.828125 -5.1875 -7.8125 -5.285156 -7.8125 -5.394531 C -7.800781 -5.492188 -7.785156 -5.605469 -7.757812 -5.746094 Z M -6.472656 -5.746094 "/>
</g>
<g id="glyph-3-8">
<path d="M -3.019531 -1.1875 L -7.644531 -1.1875 L -7.644531 -2.445312 L -3.0625 -2.445312 C -2.335938 -2.445312 -1.804688 -2.585938 -1.441406 -2.867188 C -1.078125 -3.144531 -0.894531 -3.566406 -0.894531 -4.136719 C -0.894531 -4.808594 -1.105469 -5.355469 -1.539062 -5.746094 C -1.972656 -6.136719 -2.558594 -6.332031 -3.3125 -6.332031 L -7.644531 -6.332031 L -7.644531 -7.589844 L 0 -7.589844 L 0 -6.332031 L -1.175781 -6.332031 C -0.699219 -6.023438 -0.363281 -5.660156 -0.140625 -5.269531 C 0.0703125 -4.863281 0.183594 -4.402344 0.183594 -3.871094 C 0.183594 -2.992188 -0.0820312 -2.320312 -0.628906 -1.875 C -1.160156 -1.410156 -1.957031 -1.1875 -3.019531 -1.1875 Z M -7.828125 -4.347656 Z M -7.828125 -4.347656 "/>
</g>
<g id="glyph-3-9">
<path d="M -4.613281 -7.675781 L 0 -7.675781 L 0 -6.417969 L -4.570312 -6.417969 C -5.296875 -6.417969 -5.828125 -6.261719 -6.191406 -5.984375 C -6.554688 -5.703125 -6.738281 -5.285156 -6.738281 -4.726562 C -6.738281 -4.039062 -6.515625 -3.507812 -6.082031 -3.117188 C -5.648438 -2.726562 -5.058594 -2.53125 -4.320312 -2.53125 L 0 -2.53125 L 0 -1.273438 L -7.644531 -1.273438 L -7.644531 -2.53125 L -6.457031 -2.53125 C -6.90625 -2.824219 -7.253906 -3.171875 -7.480469 -3.59375 C -7.703125 -3.996094 -7.828125 -4.472656 -7.828125 -5.003906 C -7.828125 -5.871094 -7.546875 -6.542969 -7.003906 -6.988281 C -6.457031 -7.4375 -5.660156 -7.675781 -4.613281 -7.675781 Z M -4.613281 -7.675781 "/>
</g>
<g id="glyph-3-10">
<path d="M -10.609375 -4.332031 C -9.546875 -3.71875 -8.511719 -3.269531 -7.492188 -2.976562 C -6.472656 -2.671875 -5.4375 -2.53125 -4.390625 -2.53125 C -3.328125 -2.53125 -2.292969 -2.671875 -1.273438 -2.976562 C -0.238281 -3.269531 0.78125 -3.71875 1.832031 -4.332031 L 1.832031 -3.242188 C 0.753906 -2.558594 -0.28125 -2.039062 -1.3125 -1.707031 C -2.347656 -1.371094 -3.367188 -1.203125 -4.390625 -1.203125 C -5.394531 -1.203125 -6.417969 -1.371094 -7.449219 -1.707031 C -8.484375 -2.039062 -9.535156 -2.542969 -10.609375 -3.242188 Z M -10.609375 -4.332031 "/>
</g>
<g id="glyph-3-11">
<path d="M -7.421875 -6.191406 L -6.234375 -6.191406 C -6.402344 -5.828125 -6.542969 -5.464844 -6.640625 -5.089844 C -6.722656 -4.695312 -6.78125 -4.304688 -6.78125 -3.898438 C -6.78125 -3.269531 -6.683594 -2.796875 -6.484375 -2.488281 C -6.289062 -2.179688 -6.011719 -2.027344 -5.632812 -2.027344 C -5.339844 -2.027344 -5.117188 -2.140625 -4.949219 -2.363281 C -4.78125 -2.585938 -4.613281 -3.035156 -4.472656 -3.703125 L -4.375 -4.136719 C -4.179688 -5.03125 -3.898438 -5.660156 -3.566406 -6.039062 C -3.214844 -6.402344 -2.726562 -6.597656 -2.109375 -6.597656 C -1.398438 -6.597656 -0.839844 -6.320312 -0.433594 -5.757812 C -0.015625 -5.199219 0.183594 -4.417969 0.183594 -3.4375 C 0.183594 -3.019531 0.140625 -2.601562 0.0703125 -2.152344 C 0 -1.707031 -0.113281 -1.242188 -0.28125 -0.753906 L -1.578125 -0.753906 C -1.328125 -1.214844 -1.144531 -1.675781 -1.035156 -2.125 C -0.910156 -2.570312 -0.851562 -3.019531 -0.851562 -3.464844 C -0.851562 -4.054688 -0.949219 -4.515625 -1.144531 -4.835938 C -1.34375 -5.144531 -1.636719 -5.3125 -2.011719 -5.3125 C -2.347656 -5.3125 -2.613281 -5.1875 -2.796875 -4.960938 C -2.976562 -4.738281 -3.160156 -4.234375 -3.328125 -3.453125 L -3.425781 -3.019531 C -3.59375 -2.238281 -3.84375 -1.664062 -4.179688 -1.328125 C -4.515625 -0.980469 -4.976562 -0.8125 -5.578125 -0.8125 C -6.289062 -0.8125 -6.851562 -1.0625 -7.242188 -1.566406 C -7.632812 -2.070312 -7.828125 -2.796875 -7.828125 -3.746094 C -7.828125 -4.207031 -7.785156 -4.640625 -7.714844 -5.058594 C -7.644531 -5.464844 -7.546875 -5.84375 -7.421875 -6.191406 Z M -7.421875 -6.191406 "/>
</g>
<g id="glyph-3-12">
<path d="M -10.609375 -1.117188 L -10.609375 -2.207031 C -9.535156 -2.878906 -8.484375 -3.398438 -7.449219 -3.730469 C -6.417969 -4.066406 -5.394531 -4.25 -4.390625 -4.25 C -3.367188 -4.25 -2.347656 -4.066406 -1.3125 -3.730469 C -0.28125 -3.398438 0.753906 -2.878906 1.832031 -2.207031 L 1.832031 -1.117188 C 0.78125 -1.71875 -0.238281 -2.167969 -1.273438 -2.472656 C -2.292969 -2.769531 -3.328125 -2.921875 -4.390625 -2.921875 C -5.4375 -2.921875 -6.472656 -2.769531 -7.492188 -2.472656 C -8.511719 -2.167969 -9.546875 -1.71875 -10.609375 -1.117188 Z M -10.609375 -1.117188 "/>
</g>
</g>
<clipPath id="clip-0">
<path clip-rule="nonzero" d="M 0.316406 0 L 430.640625 0 L 430.640625 356.917969 L 0.316406 356.917969 Z M 0.316406 0 "/>
</clipPath>
<clipPath id="clip-1">
<path clip-rule="nonzero" d="M 63.199219 289.175781 L 83.167969 289.175781 L 83.167969 309.148438 L 63.199219 309.148438 Z M 63.199219 289.175781 "/>
</clipPath>
<clipPath id="clip-2">
<path clip-rule="nonzero" d="M 112.148438 246.421875 L 132.117188 246.421875 L 132.117188 266.390625 L 112.148438 266.390625 Z M 112.148438 246.421875 "/>
</clipPath>
<clipPath id="clip-3">
<path clip-rule="nonzero" d="M 191.484375 184.238281 L 211.453125 184.238281 L 211.453125 204.210938 L 191.484375 204.210938 Z M 191.484375 184.238281 "/>
</clipPath>
<clipPath id="clip-4">
<path clip-rule="nonzero" d="M 237.285156 147.25 L 257.253906 147.25 L 257.253906 167.21875 L 237.285156 167.21875 Z M 237.285156 147.25 "/>
</clipPath>
<clipPath id="clip-5">
<path clip-rule="nonzero" d="M 286.472656 106.496094 L 306.441406 106.496094 L 306.441406 126.464844 L 286.472656 126.464844 Z M 286.472656 106.496094 "/>
</clipPath>
<clipPath id="clip-6">
<path clip-rule="nonzero" d="M 337.644531 77.167969 L 357.613281 77.167969 L 357.613281 97.136719 L 337.644531 97.136719 Z M 337.644531 77.167969 "/>
</clipPath>
<clipPath id="clip-7">
<path clip-rule="nonzero" d="M 387.363281 47.625 L 407.332031 47.625 L 407.332031 67.59375 L 387.363281 67.59375 Z M 387.363281 47.625 "/>
</clipPath>
</defs>
<g clip-path="url(#clip-0)">
<path fill-rule="nonzero" fill="rgb(100%, 100%, 100%)" fill-opacity="1" d="M 0.316406 356.917969 L 430.640625 356.917969 L 430.640625 0 L 0.316406 0 Z M 0.316406 356.917969 "/>
</g>
<path fill-rule="nonzero" fill="rgb(100%, 100%, 100%)" fill-opacity="1" d="M 56.976562 311.238281 L 413.554688 311.238281 L 413.554688 45.53125 L 56.976562 45.53125 Z M 56.976562 311.238281 "/>
<path fill="none" stroke-width="0.8" stroke-linecap="butt" stroke-linejoin="round" stroke="rgb(0%, 0%, 0%)" stroke-opacity="1" stroke-miterlimit="10" d="M 231.296682 45.74883 L 231.296682 42.24744 " transform="matrix(0.998488, 0, 0, -0.998488, 0.314857, 356.917919)"/>
<g fill="rgb(0%, 0%, 0%)" fill-opacity="1">
<use xlink:href="#glyph-0-0" x="218.779304" y="328.939985"/>
</g>
<g fill="rgb(0%, 0%, 0%)" fill-opacity="1">
<use xlink:href="#glyph-0-1" x="227.673059" y="328.939985"/>
</g>
<g fill="rgb(0%, 0%, 0%)" fill-opacity="1">
<use xlink:href="#glyph-1-0" x="236.700596" y="323.588716"/>
</g>
<path fill="none" stroke-width="0.8" stroke-linecap="butt" stroke-linejoin="round" stroke="rgb(0%, 0%, 0%)" stroke-opacity="1" stroke-miterlimit="10" d="M 411.27592 45.74883 L 411.27592 42.24744 " transform="matrix(0.998488, 0, 0, -0.998488, 0.314857, 356.917919)"/>
<g fill="rgb(0%, 0%, 0%)" fill-opacity="1">
<use xlink:href="#glyph-0-0" x="398.489589" y="328.939985"/>
</g>
<g fill="rgb(0%, 0%, 0%)" fill-opacity="1">
<use xlink:href="#glyph-0-1" x="407.383344" y="328.939985"/>
</g>
<g fill="rgb(0%, 0%, 0%)" fill-opacity="1">
<use xlink:href="#glyph-1-1" x="416.41088" y="323.588716"/>
</g>
<path fill="none" stroke-width="0.6" stroke-linecap="butt" stroke-linejoin="round" stroke="rgb(0%, 0%, 0%)" stroke-opacity="1" stroke-miterlimit="10" d="M 105.493132 45.74883 L 105.493132 43.7458 " transform="matrix(0.998488, 0, 0, -0.998488, 0.314857, 356.917919)"/>
<path fill="none" stroke-width="0.6" stroke-linecap="butt" stroke-linejoin="round" stroke="rgb(0%, 0%, 0%)" stroke-opacity="1" stroke-miterlimit="10" d="M 137.185596 45.74883 L 137.185596 43.7458 " transform="matrix(0.998488, 0, 0, -0.998488, 0.314857, 356.917919)"/>
<path fill="none" stroke-width="0.6" stroke-linecap="butt" stroke-linejoin="round" stroke="rgb(0%, 0%, 0%)" stroke-opacity="1" stroke-miterlimit="10" d="M 159.672731 45.74883 L 159.672731 43.7458 " transform="matrix(0.998488, 0, 0, -0.998488, 0.314857, 356.917919)"/>
<path fill="none" stroke-width="0.6" stroke-linecap="butt" stroke-linejoin="round" stroke="rgb(0%, 0%, 0%)" stroke-opacity="1" stroke-miterlimit="10" d="M 177.117083 45.74883 L 177.117083 43.7458 " transform="matrix(0.998488, 0, 0, -0.998488, 0.314857, 356.917919)"/>
<path fill="none" stroke-width="0.6" stroke-linecap="butt" stroke-linejoin="round" stroke="rgb(0%, 0%, 0%)" stroke-opacity="1" stroke-miterlimit="10" d="M 191.365195 45.74883 L 191.365195 43.7458 " transform="matrix(0.998488, 0, 0, -0.998488, 0.314857, 356.917919)"/>
<path fill="none" stroke-width="0.6" stroke-linecap="butt" stroke-linejoin="round" stroke="rgb(0%, 0%, 0%)" stroke-opacity="1" stroke-miterlimit="10" d="M 203.414669 45.74883 L 203.414669 43.7458 " transform="matrix(0.998488, 0, 0, -0.998488, 0.314857, 356.917919)"/>
<path fill="none" stroke-width="0.6" stroke-linecap="butt" stroke-linejoin="round" stroke="rgb(0%, 0%, 0%)" stroke-opacity="1" stroke-miterlimit="10" d="M 213.85233 45.74883 L 213.85233 43.7458 " transform="matrix(0.998488, 0, 0, -0.998488, 0.314857, 356.917919)"/>
<path fill="none" stroke-width="0.6" stroke-linecap="butt" stroke-linejoin="round" stroke="rgb(0%, 0%, 0%)" stroke-opacity="1" stroke-miterlimit="10" d="M 223.061571 45.74883 L 223.061571 43.7458 " transform="matrix(0.998488, 0, 0, -0.998488, 0.314857, 356.917919)"/>
<path fill="none" stroke-width="0.6" stroke-linecap="butt" stroke-linejoin="round" stroke="rgb(0%, 0%, 0%)" stroke-opacity="1" stroke-miterlimit="10" d="M 285.476281 45.74883 L 285.476281 43.7458 " transform="matrix(0.998488, 0, 0, -0.998488, 0.314857, 356.917919)"/>
<path fill="none" stroke-width="0.6" stroke-linecap="butt" stroke-linejoin="round" stroke="rgb(0%, 0%, 0%)" stroke-opacity="1" stroke-miterlimit="10" d="M 317.168745 45.74883 L 317.168745 43.7458 " transform="matrix(0.998488, 0, 0, -0.998488, 0.314857, 356.917919)"/>
<path fill="none" stroke-width="0.6" stroke-linecap="butt" stroke-linejoin="round" stroke="rgb(0%, 0%, 0%)" stroke-opacity="1" stroke-miterlimit="10" d="M 339.655881 45.74883 L 339.655881 43.7458 " transform="matrix(0.998488, 0, 0, -0.998488, 0.314857, 356.917919)"/>
<path fill="none" stroke-width="0.6" stroke-linecap="butt" stroke-linejoin="round" stroke="rgb(0%, 0%, 0%)" stroke-opacity="1" stroke-miterlimit="10" d="M 357.09632 45.74883 L 357.09632 43.7458 " transform="matrix(0.998488, 0, 0, -0.998488, 0.314857, 356.917919)"/>
<path fill="none" stroke-width="0.6" stroke-linecap="butt" stroke-linejoin="round" stroke="rgb(0%, 0%, 0%)" stroke-opacity="1" stroke-miterlimit="10" d="M 371.348344 45.74883 L 371.348344 43.7458 " transform="matrix(0.998488, 0, 0, -0.998488, 0.314857, 356.917919)"/>
<path fill="none" stroke-width="0.6" stroke-linecap="butt" stroke-linejoin="round" stroke="rgb(0%, 0%, 0%)" stroke-opacity="1" stroke-miterlimit="10" d="M 383.397818 45.74883 L 383.397818 43.7458 " transform="matrix(0.998488, 0, 0, -0.998488, 0.314857, 356.917919)"/>
<path fill="none" stroke-width="0.6" stroke-linecap="butt" stroke-linejoin="round" stroke="rgb(0%, 0%, 0%)" stroke-opacity="1" stroke-miterlimit="10" d="M 393.83548 45.74883 L 393.83548 43.7458 " transform="matrix(0.998488, 0, 0, -0.998488, 0.314857, 356.917919)"/>
<path fill="none" stroke-width="0.6" stroke-linecap="butt" stroke-linejoin="round" stroke="rgb(0%, 0%, 0%)" stroke-opacity="1" stroke-miterlimit="10" d="M 403.040808 45.74883 L 403.040808 43.7458 " transform="matrix(0.998488, 0, 0, -0.998488, 0.314857, 356.917919)"/>
<g fill="rgb(0%, 0%, 0%)" fill-opacity="1">
<use xlink:href="#glyph-0-2" x="184.842224" y="346.468122"/>
</g>
<g fill="rgb(0%, 0%, 0%)" fill-opacity="1">
<use xlink:href="#glyph-0-3" x="190.32318" y="346.468122"/>
</g>
<g fill="rgb(0%, 0%, 0%)" fill-opacity="1">
<use xlink:href="#glyph-0-2" x="198.875655" y="346.468122"/>
</g>
<g fill="rgb(0%, 0%, 0%)" fill-opacity="1">
<use xlink:href="#glyph-0-4" x="204.356611" y="346.468122"/>
</g>
<g fill="rgb(0%, 0%, 0%)" fill-opacity="1">
<use xlink:href="#glyph-0-5" x="212.922737" y="346.468122"/>
</g>
<g fill="rgb(0%, 0%, 0%)" fill-opacity="1">
<use xlink:href="#glyph-0-6" x="216.806502" y="346.468122"/>
</g>
<g fill="rgb(0%, 0%, 0%)" fill-opacity="1">
<use xlink:href="#glyph-0-7" x="221.249967" y="346.468122"/>
</g>
<g fill="rgb(0%, 0%, 0%)" fill-opacity="1">
<use xlink:href="#glyph-0-6" x="232.962694" y="346.468122"/>
</g>
<g fill="rgb(0%, 0%, 0%)" fill-opacity="1">
<use xlink:href="#glyph-2-0" x="237.406159" y="346.468122"/>
</g>
<g fill="rgb(0%, 0%, 0%)" fill-opacity="1">
<use xlink:href="#glyph-0-8" x="245.501319" y="346.468122"/>
</g>
<g fill="rgb(0%, 0%, 0%)" fill-opacity="1">
<use xlink:href="#glyph-0-9" x="250.295814" y="346.468122"/>
</g>
<g fill="rgb(0%, 0%, 0%)" fill-opacity="1">
<use xlink:href="#glyph-0-10" x="263.912884" y="346.468122"/>
</g>
<g fill="rgb(0%, 0%, 0%)" fill-opacity="1">
<use xlink:href="#glyph-0-11" x="272.513138" y="346.468122"/>
</g>
<g fill="rgb(0%, 0%, 0%)" fill-opacity="1">
<use xlink:href="#glyph-0-12" x="278.260292" y="346.468122"/>
</g>
<path fill="none" stroke-width="0.8" stroke-linecap="butt" stroke-linejoin="round" stroke="rgb(0%, 0%, 0%)" stroke-opacity="1" stroke-miterlimit="10" d="M 56.747533 107.009451 L 53.246143 107.009451 " transform="matrix(0.998488, 0, 0, -0.998488, 0.314857, 356.917919)"/>
<g fill="rgb(0%, 0%, 0%)" fill-opacity="1">
<use xlink:href="#glyph-0-0" x="25.024304" y="255.112553"/>
</g>
<g fill="rgb(0%, 0%, 0%)" fill-opacity="1">
<use xlink:href="#glyph-0-1" x="33.918059" y="255.112553"/>
</g>
<g fill="rgb(0%, 0%, 0%)" fill-opacity="1">
<use xlink:href="#glyph-1-2" x="42.945595" y="249.761284"/>
</g>
<path fill="none" stroke-width="0.8" stroke-linecap="butt" stroke-linejoin="round" stroke="rgb(0%, 0%, 0%)" stroke-opacity="1" stroke-miterlimit="10" d="M 56.747533 226.580919 L 53.246143 226.580919 " transform="matrix(0.998488, 0, 0, -0.998488, 0.314857, 356.917919)"/>
<g fill="rgb(0%, 0%, 0%)" fill-opacity="1">
<use xlink:href="#glyph-0-0" x="25.024304" y="135.850209"/>
</g>
<g fill="rgb(0%, 0%, 0%)" fill-opacity="1">
<use xlink:href="#glyph-0-1" x="33.918059" y="135.850209"/>
</g>
<g fill="rgb(0%, 0%, 0%)" fill-opacity="1">
<use xlink:href="#glyph-1-3" x="42.945595" y="130.49894"/>
</g>
<path fill="none" stroke-width="0.6" stroke-linecap="butt" stroke-linejoin="round" stroke="rgb(0%, 0%, 0%)" stroke-opacity="1" stroke-miterlimit="10" d="M 56.747533 59.425765 L 54.748415 59.425765 " transform="matrix(0.998488, 0, 0, -0.998488, 0.314857, 356.917919)"/>
<path fill="none" stroke-width="0.6" stroke-linecap="butt" stroke-linejoin="round" stroke="rgb(0%, 0%, 0%)" stroke-opacity="1" stroke-miterlimit="10" d="M 56.747533 71.013603 L 54.748415 71.013603 " transform="matrix(0.998488, 0, 0, -0.998488, 0.314857, 356.917919)"/>
<path fill="none" stroke-width="0.6" stroke-linecap="butt" stroke-linejoin="round" stroke="rgb(0%, 0%, 0%)" stroke-opacity="1" stroke-miterlimit="10" d="M 56.747533 80.481047 L 54.748415 80.481047 " transform="matrix(0.998488, 0, 0, -0.998488, 0.314857, 356.917919)"/>
<path fill="none" stroke-width="0.6" stroke-linecap="butt" stroke-linejoin="round" stroke="rgb(0%, 0%, 0%)" stroke-opacity="1" stroke-miterlimit="10" d="M 56.747533 88.485341 L 54.748415 88.485341 " transform="matrix(0.998488, 0, 0, -0.998488, 0.314857, 356.917919)"/>
<path fill="none" stroke-width="0.6" stroke-linecap="butt" stroke-linejoin="round" stroke="rgb(0%, 0%, 0%)" stroke-opacity="1" stroke-miterlimit="10" d="M 56.747533 95.421612 L 54.748415 95.421612 " transform="matrix(0.998488, 0, 0, -0.998488, 0.314857, 356.917919)"/>
<path fill="none" stroke-width="0.6" stroke-linecap="butt" stroke-linejoin="round" stroke="rgb(0%, 0%, 0%)" stroke-opacity="1" stroke-miterlimit="10" d="M 56.747533 101.536329 L 54.748415 101.536329 " transform="matrix(0.998488, 0, 0, -0.998488, 0.314857, 356.917919)"/>
<path fill="none" stroke-width="0.6" stroke-linecap="butt" stroke-linejoin="round" stroke="rgb(0%, 0%, 0%)" stroke-opacity="1" stroke-miterlimit="10" d="M 56.747533 143.005298 L 54.748415 143.005298 " transform="matrix(0.998488, 0, 0, -0.998488, 0.314857, 356.917919)"/>
<path fill="none" stroke-width="0.6" stroke-linecap="butt" stroke-linejoin="round" stroke="rgb(0%, 0%, 0%)" stroke-opacity="1" stroke-miterlimit="10" d="M 56.747533 164.06058 L 54.748415 164.06058 " transform="matrix(0.998488, 0, 0, -0.998488, 0.314857, 356.917919)"/>
<path fill="none" stroke-width="0.6" stroke-linecap="butt" stroke-linejoin="round" stroke="rgb(0%, 0%, 0%)" stroke-opacity="1" stroke-miterlimit="10" d="M 56.747533 178.997233 L 54.748415 178.997233 " transform="matrix(0.998488, 0, 0, -0.998488, 0.314857, 356.917919)"/>
<path fill="none" stroke-width="0.6" stroke-linecap="butt" stroke-linejoin="round" stroke="rgb(0%, 0%, 0%)" stroke-opacity="1" stroke-miterlimit="10" d="M 56.747533 190.585072 L 54.748415 190.585072 " transform="matrix(0.998488, 0, 0, -0.998488, 0.314857, 356.917919)"/>
<path fill="none" stroke-width="0.6" stroke-linecap="butt" stroke-linejoin="round" stroke="rgb(0%, 0%, 0%)" stroke-opacity="1" stroke-miterlimit="10" d="M 56.747533 200.056428 L 54.748415 200.056428 " transform="matrix(0.998488, 0, 0, -0.998488, 0.314857, 356.917919)"/>
<path fill="none" stroke-width="0.6" stroke-linecap="butt" stroke-linejoin="round" stroke="rgb(0%, 0%, 0%)" stroke-opacity="1" stroke-miterlimit="10" d="M 56.747533 208.060721 L 54.748415 208.060721 " transform="matrix(0.998488, 0, 0, -0.998488, 0.314857, 356.917919)"/>
<path fill="none" stroke-width="0.6" stroke-linecap="butt" stroke-linejoin="round" stroke="rgb(0%, 0%, 0%)" stroke-opacity="1" stroke-miterlimit="10" d="M 56.747533 214.993081 L 54.748415 214.993081 " transform="matrix(0.998488, 0, 0, -0.998488, 0.314857, 356.917919)"/>
<path fill="none" stroke-width="0.6" stroke-linecap="butt" stroke-linejoin="round" stroke="rgb(0%, 0%, 0%)" stroke-opacity="1" stroke-miterlimit="10" d="M 56.747533 221.11171 L 54.748415 221.11171 " transform="matrix(0.998488, 0, 0, -0.998488, 0.314857, 356.917919)"/>
<path fill="none" stroke-width="0.6" stroke-linecap="butt" stroke-linejoin="round" stroke="rgb(0%, 0%, 0%)" stroke-opacity="1" stroke-miterlimit="10" d="M 56.747533 262.576767 L 54.748415 262.576767 " transform="matrix(0.998488, 0, 0, -0.998488, 0.314857, 356.917919)"/>
<path fill="none" stroke-width="0.6" stroke-linecap="butt" stroke-linejoin="round" stroke="rgb(0%, 0%, 0%)" stroke-opacity="1" stroke-miterlimit="10" d="M 56.747533 283.632049 L 54.748415 283.632049 " transform="matrix(0.998488, 0, 0, -0.998488, 0.314857, 356.917919)"/>
<path fill="none" stroke-width="0.6" stroke-linecap="butt" stroke-linejoin="round" stroke="rgb(0%, 0%, 0%)" stroke-opacity="1" stroke-miterlimit="10" d="M 56.747533 298.572614 L 54.748415 298.572614 " transform="matrix(0.998488, 0, 0, -0.998488, 0.314857, 356.917919)"/>
<path fill="none" stroke-width="0.6" stroke-linecap="butt" stroke-linejoin="round" stroke="rgb(0%, 0%, 0%)" stroke-opacity="1" stroke-miterlimit="10" d="M 56.747533 310.160452 L 54.748415 310.160452 " transform="matrix(0.998488, 0, 0, -0.998488, 0.314857, 356.917919)"/>
<g fill="rgb(0%, 0%, 0%)" fill-opacity="1">
<use xlink:href="#glyph-3-0" x="18.128499" y="249.005064"/>
</g>
<g fill="rgb(0%, 0%, 0%)" fill-opacity="1">
<use xlink:href="#glyph-3-1" x="18.128499" y="240.885239"/>
<use xlink:href="#glyph-3-2" x="18.128499" y="236.999125"/>
<use xlink:href="#glyph-3-3" x="18.128499" y="223.383748"/>
<use xlink:href="#glyph-3-4" x="18.128499" y="214.78677"/>
<use xlink:href="#glyph-3-5" x="18.128499" y="210.341504"/>
<use xlink:href="#glyph-3-6" x="18.128499" y="205.420957"/>
<use xlink:href="#glyph-3-7" x="18.128499" y="196.865916"/>
<use xlink:href="#glyph-3-4" x="18.128499" y="191.120618"/>
<use xlink:href="#glyph-3-8" x="18.128499" y="186.675351"/>
<use xlink:href="#glyph-3-9" x="18.128499" y="177.812776"/>
<use xlink:href="#glyph-3-1" x="18.128499" y="168.9502"/>
<use xlink:href="#glyph-3-6" x="18.128499" y="165.064086"/>
<use xlink:href="#glyph-3-9" x="18.128499" y="156.509045"/>
<use xlink:href="#glyph-3-4" x="18.128499" y="147.646469"/>
<use xlink:href="#glyph-3-10" x="18.128499" y="143.201203"/>
<use xlink:href="#glyph-3-1" x="18.128499" y="137.74946"/>
<use xlink:href="#glyph-3-9" x="18.128499" y="133.863347"/>
<use xlink:href="#glyph-3-4" x="18.128499" y="125.000771"/>
<use xlink:href="#glyph-3-11" x="18.128499" y="120.555505"/>
<use xlink:href="#glyph-3-12" x="18.128499" y="113.272536"/>
</g>
<path fill="none" stroke-width="1" stroke-linecap="butt" stroke-linejoin="round" stroke="rgb(12.156677%, 46.665955%, 70.587158%)" stroke-opacity="0.5" stroke-dasharray="1 1.65" stroke-miterlimit="10" d="M 72.979113 69.323547 L 122.002476 93.571157 L 201.458586 141.072688 L 247.328742 168.039254 L 296.590748 192.341635 L 347.840134 216.018069 L 397.634194 244.897685 " transform="matrix(0.998488, 0, 0, -0.998488, 0.314857, 356.917919)"/>
<path fill-rule="nonzero" fill="rgb(12.156677%, 46.665955%, 70.587158%)" fill-opacity="0.5" stroke-width="1" stroke-linecap="butt" stroke-linejoin="round" stroke="rgb(12.156677%, 46.665955%, 70.587158%)" stroke-opacity="0.5" stroke-miterlimit="10" d="M -0.000489244 -4.999835 C 1.325735 -4.999835 2.59719 -4.471692 3.53611 -3.536685 C 4.47503 -2.597764 4.99926 -1.32631 4.99926 -0.0000856675 C 4.99926 1.326139 4.47503 2.597593 3.53611 3.536513 C 2.59719 4.471521 1.325735 4.999664 -0.000489244 4.999664 C -1.326714 4.999664 -2.598168 4.471521 -3.537088 3.536513 C -4.472096 2.597593 -5.000239 1.326139 -5.000239 -0.0000856675 C -5.000239 -1.32631 -4.472096 -2.597764 -3.537088 -3.536685 C -2.598168 -4.471692 -1.326714 -4.999835 -0.000489244 -4.999835 Z M -0.000489244 -4.999835 " transform="matrix(0.998488, 0, 0, -0.998488, 73.184082, 287.699133)"/>
<path fill-rule="nonzero" fill="rgb(12.156677%, 46.665955%, 70.587158%)" fill-opacity="0.5" stroke-width="1" stroke-linecap="butt" stroke-linejoin="round" stroke="rgb(12.156677%, 46.665955%, 70.587158%)" stroke-opacity="0.5" stroke-miterlimit="10" d="M -0.000737631 -4.998526 C 1.325487 -4.998526 2.596941 -4.474295 3.535861 -3.535375 C 4.474781 -2.596455 4.999012 -1.325001 4.999012 0.00122358 C 4.999012 1.327448 4.474781 2.598902 3.535861 3.53391 C 2.596941 4.47283 1.325487 5.000973 -0.000737631 5.000973 C -1.326962 5.000973 -2.598416 4.47283 -3.537336 3.53391 C -4.472344 2.598902 -5.000487 1.327448 -5.000487 0.00122358 C -5.000487 -1.325001 -4.472344 -2.596455 -3.537336 -3.535375 C -2.598416 -4.474295 -1.326962 -4.998526 -0.000737631 -4.998526 Z M -0.000737631 -4.998526 " transform="matrix(0.998488, 0, 0, -0.998488, 122.133549, 263.489503)"/>
<path fill-rule="nonzero" fill="rgb(12.156677%, 46.665955%, 70.587158%)" fill-opacity="0.5" stroke-width="1" stroke-linecap="butt" stroke-linejoin="round" stroke="rgb(12.156677%, 46.665955%, 70.587158%)" stroke-opacity="0.5" stroke-miterlimit="10" d="M -0.000208296 -4.999587 C 1.326016 -4.999587 2.597471 -4.471445 3.536391 -3.536437 C 4.471398 -2.597517 4.999541 -1.326062 4.999541 0.000162223 C 4.999541 1.326387 4.471398 2.597841 3.536391 3.536761 C 2.597471 4.471769 1.326016 4.999911 -0.000208296 4.999911 C -1.326433 4.999911 -2.597887 4.471769 -3.536807 3.536761 C -4.471815 2.597841 -4.999958 1.326387 -4.999958 0.000162223 C -4.999958 -1.326062 -4.471815 -2.597517 -3.536807 -3.536437 C -2.597887 -4.471445 -1.326433 -4.999587 -0.000208296 -4.999587 Z M -0.000208296 -4.999587 " transform="matrix(0.998488, 0, 0, -0.998488, 201.468958, 216.058756)"/>
<path fill-rule="nonzero" fill="rgb(12.156677%, 46.665955%, 70.587158%)" fill-opacity="0.5" stroke-width="1" stroke-linecap="butt" stroke-linejoin="round" stroke="rgb(12.156677%, 46.665955%, 70.587158%)" stroke-opacity="0.5" stroke-miterlimit="10" d="M -0.000488654 -5.000508 C 1.325736 -5.000508 2.59719 -4.472366 3.53611 -3.537358 C 4.47503 -2.598438 4.999261 -1.326983 4.999261 -0.000758828 C 4.999261 1.325466 4.47503 2.59692 3.53611 3.53584 C 2.59719 4.47476 1.325736 4.99899 -0.000488654 4.99899 C -1.326713 4.99899 -2.598167 4.47476 -3.537088 3.53584 C -4.472095 2.59692 -5.000238 1.325466 -5.000238 -0.000758828 C -5.000238 -1.326983 -4.472095 -2.598438 -3.537088 -3.537358 C -2.598167 -4.472366 -1.326713 -5.000508 -0.000488654 -5.000508 Z M -0.000488654 -5.000508 " transform="matrix(0.998488, 0, 0, -0.998488, 247.270019, 189.132055)"/>
<path fill-rule="nonzero" fill="rgb(12.156677%, 46.665955%, 70.587158%)" fill-opacity="0.5" stroke-width="1" stroke-linecap="butt" stroke-linejoin="round" stroke="rgb(12.156677%, 46.665955%, 70.587158%)" stroke-opacity="0.5" stroke-miterlimit="10" d="M 0.000992737 -5.001302 C 1.327217 -5.001302 2.598672 -4.473159 3.533679 -3.534239 C 4.472599 -2.599231 5.000742 -1.327777 5.000742 -0.00155228 C 5.000742 1.324672 4.472599 2.596127 3.533679 3.535047 C 2.598672 4.473967 1.327217 4.998197 0.000992737 4.998197 C -1.325232 4.998197 -2.596686 4.473967 -3.535606 3.535047 C -4.474526 2.596127 -4.998757 1.324672 -4.998757 -0.00155228 C -4.998757 -1.327777 -4.474526 -2.599231 -3.535606 -3.534239 C -2.596686 -4.473159 -1.325232 -5.001302 0.000992737 -5.001302 Z M 0.000992737 -5.001302 " transform="matrix(0.998488, 0, 0, -0.998488, 296.45604, 164.865638)"/>
<path fill-rule="nonzero" fill="rgb(12.156677%, 46.665955%, 70.587158%)" fill-opacity="0.5" stroke-width="1" stroke-linecap="butt" stroke-linejoin="round" stroke="rgb(12.156677%, 46.665955%, 70.587158%)" stroke-opacity="0.5" stroke-miterlimit="10" d="M -0.00125903 -5.001899 C 1.324966 -5.001899 2.59642 -4.473757 3.53534 -3.534837 C 4.47426 -2.599829 4.99849 -1.324462 4.99849 0.00176234 C 4.99849 1.324075 4.47426 2.599441 3.53534 3.534449 C 2.59642 4.473369 1.324966 5.001512 -0.00125903 5.001512 C -1.327484 5.001512 -2.598938 4.473369 -3.533946 3.534449 C -4.472866 2.599441 -5.001008 1.324075 -5.001008 0.00176234 C -5.001008 -1.324462 -4.472866 -2.599829 -3.533946 -3.534837 C -2.598938 -4.473757 -1.327484 -5.001899 -0.00125903 -5.001899 Z M -0.00125903 -5.001899 " transform="matrix(0.998488, 0, 0, -0.998488, 347.630163, 141.228322)"/>
<path fill-rule="nonzero" fill="rgb(12.156677%, 46.665955%, 70.587158%)" fill-opacity="0.5" stroke-width="1" stroke-linecap="butt" stroke-linejoin="round" stroke="rgb(12.156677%, 46.665955%, 70.587158%)" stroke-opacity="0.5" stroke-miterlimit="10" d="M 0.0000459395 -5.000028 C 1.326271 -5.000028 2.597725 -4.471886 3.536645 -3.536878 C 4.471653 -2.597958 4.999795 -1.326504 4.999795 -0.000279042 C 4.999795 1.325946 4.471653 2.5974 3.536645 3.53632 C 2.597725 4.471328 1.326271 4.99947 0.0000459395 4.99947 C -1.326179 4.99947 -2.597633 4.471328 -3.536553 3.53632 C -4.471561 2.5974 -4.999703 1.325946 -4.999703 -0.000279042 C -4.999703 -1.326504 -4.471561 -2.597958 -3.536553 -3.536878 C -2.597633 -4.471886 -1.326179 -5.000028 0.0000459395 -5.000028 Z M 0.0000459395 -5.000028 " transform="matrix(0.998488, 0, 0, -0.998488, 397.34761, 112.390346)"/>
<path fill="none" stroke-width="1" stroke-linecap="butt" stroke-linejoin="round" stroke="rgb(83.920288%, 15.293884%, 15.686035%)" stroke-opacity="0.5" stroke-dasharray="1 1.65" stroke-miterlimit="10" d="M 72.979113 57.841337 L 122.002476 100.663916 L 201.458586 162.937788 L 247.328742 199.986009 L 296.590748 240.801646 L 347.840134 270.174195 L 397.634194 299.761913 " transform="matrix(0.998488, 0, 0, -0.998488, 0.314857, 356.917919)"/>
<path fill-rule="nonzero" fill="rgb(83.920288%, 15.293884%, 15.686035%)" fill-opacity="0.5" d="M 73.183594 294.171875 L 68.191406 304.15625 L 78.175781 304.15625 Z M 73.183594 294.171875 "/>
<g clip-path="url(#clip-1)">
<path fill="none" stroke-width="1" stroke-linecap="butt" stroke-linejoin="miter" stroke="rgb(83.920288%, 15.293884%, 15.686035%)" stroke-opacity="0.5" stroke-miterlimit="10" d="M -0.000489244 4.998212 L -5.000239 -5.001287 L 4.99926 -5.001287 Z M -0.000489244 4.998212 " transform="matrix(0.998488, 0, 0, -0.998488, 73.184082, 299.162527)"/>
</g>
<path fill-rule="nonzero" fill="rgb(83.920288%, 15.293884%, 15.686035%)" fill-opacity="0.5" d="M 122.132812 251.414062 L 117.140625 261.398438 L 127.125 261.398438 Z M 122.132812 251.414062 "/>
<g clip-path="url(#clip-2)">
<path fill="none" stroke-width="1" stroke-linecap="butt" stroke-linejoin="miter" stroke="rgb(83.920288%, 15.293884%, 15.686035%)" stroke-opacity="0.5" stroke-miterlimit="10" d="M -0.000737631 4.999873 L -5.000487 -4.999625 L 4.999012 -4.999625 Z M -0.000737631 4.999873 " transform="matrix(0.998488, 0, 0, -0.998488, 122.133549, 256.406374)"/>
</g>
<path fill-rule="nonzero" fill="rgb(83.920288%, 15.293884%, 15.686035%)" fill-opacity="0.5" d="M 201.46875 189.230469 L 196.476562 199.21875 L 206.460938 199.21875 Z M 201.46875 189.230469 "/>
<g clip-path="url(#clip-3)">
<path fill="none" stroke-width="1" stroke-linecap="butt" stroke-linejoin="miter" stroke="rgb(83.920288%, 15.293884%, 15.686035%)" stroke-opacity="0.5" stroke-miterlimit="10" d="M -0.000208296 5.001864 L -4.999958 -5.001547 L 4.999541 -5.001547 Z M -0.000208296 5.001864 " transform="matrix(0.998488, 0, 0, -0.998488, 201.468958, 194.224768)"/>
</g>
<path fill-rule="nonzero" fill="rgb(83.920288%, 15.293884%, 15.686035%)" fill-opacity="0.5" d="M 247.269531 152.242188 L 242.277344 162.226562 L 252.261719 162.226562 Z M 247.269531 152.242188 "/>
<g clip-path="url(#clip-4)">
<path fill="none" stroke-width="1" stroke-linecap="butt" stroke-linejoin="miter" stroke="rgb(83.920288%, 15.293884%, 15.686035%)" stroke-opacity="0.5" stroke-miterlimit="10" d="M -0.000488654 5.000188 L -5.000238 -4.999311 L 4.999261 -4.999311 Z M -0.000488654 5.000188 " transform="matrix(0.998488, 0, 0, -0.998488, 247.270019, 157.234813)"/>
</g>
<path fill-rule="nonzero" fill="rgb(83.920288%, 15.293884%, 15.686035%)" fill-opacity="0.5" d="M 296.457031 111.488281 L 291.464844 121.472656 L 301.449219 121.472656 Z M 296.457031 111.488281 "/>
<g clip-path="url(#clip-5)">
<path fill="none" stroke-width="1" stroke-linecap="butt" stroke-linejoin="miter" stroke="rgb(83.920288%, 15.293884%, 15.686035%)" stroke-opacity="0.5" stroke-miterlimit="10" d="M 0.000992737 4.998685 L -4.998757 -5.000813 L 5.000742 -5.000813 Z M 0.000992737 4.998685 " transform="matrix(0.998488, 0, 0, -0.998488, 296.45604, 116.479406)"/>
</g>
<path fill-rule="nonzero" fill="rgb(83.920288%, 15.293884%, 15.686035%)" fill-opacity="0.5" d="M 347.628906 82.160156 L 342.636719 92.144531 L 352.621094 92.144531 Z M 347.628906 82.160156 "/>
<g clip-path="url(#clip-6)">
<path fill="none" stroke-width="1" stroke-linecap="butt" stroke-linejoin="miter" stroke="rgb(83.920288%, 15.293884%, 15.686035%)" stroke-opacity="0.5" stroke-miterlimit="10" d="M -0.00125903 5.000782 L -5.001008 -4.998717 L 4.99849 -4.998717 Z M -0.00125903 5.000782 " transform="matrix(0.998488, 0, 0, -0.998488, 347.630163, 87.153375)"/>
</g>
<path fill-rule="nonzero" fill="rgb(83.920288%, 15.293884%, 15.686035%)" fill-opacity="0.5" d="M 397.347656 52.617188 L 392.355469 62.601562 L 402.339844 62.601562 Z M 397.347656 52.617188 "/>
<g clip-path="url(#clip-7)">
<path fill="none" stroke-width="1" stroke-linecap="butt" stroke-linejoin="miter" stroke="rgb(83.920288%, 15.293884%, 15.686035%)" stroke-opacity="0.5" stroke-miterlimit="10" d="M 0.0000459395 4.998787 L -4.999703 -5.000711 L 4.999795 -5.000711 Z M 0.0000459395 4.998787 " transform="matrix(0.998488, 0, 0, -0.998488, 397.34761, 57.608414)"/>
</g>
<path fill="none" stroke-width="0.8" stroke-linecap="square" stroke-linejoin="miter" stroke="rgb(0%, 0%, 0%)" stroke-opacity="1" stroke-miterlimit="10" d="M 56.747533 45.74883 L 56.747533 311.858333 " transform="matrix(0.998488, 0, 0, -0.998488, 0.314857, 356.917919)"/>
<path fill="none" stroke-width="0.8" stroke-linecap="square" stroke-linejoin="miter" stroke="rgb(0%, 0%, 0%)" stroke-opacity="1" stroke-miterlimit="10" d="M 413.865774 45.74883 L 413.865774 311.858333 " transform="matrix(0.998488, 0, 0, -0.998488, 0.314857, 356.917919)"/>
<path fill="none" stroke-width="0.8" stroke-linecap="square" stroke-linejoin="miter" stroke="rgb(0%, 0%, 0%)" stroke-opacity="1" stroke-miterlimit="10" d="M 56.747533 45.74883 L 413.865774 45.74883 " transform="matrix(0.998488, 0, 0, -0.998488, 0.314857, 356.917919)"/>
<path fill="none" stroke-width="0.8" stroke-linecap="square" stroke-linejoin="miter" stroke="rgb(0%, 0%, 0%)" stroke-opacity="1" stroke-miterlimit="10" d="M 56.747533 311.858333 L 413.865774 311.858333 " transform="matrix(0.998488, 0, 0, -0.998488, 0.314857, 356.917919)"/>
<g fill="rgb(12.156677%, 46.665955%, 70.587158%)" fill-opacity="1">
<use xlink:href="#glyph-0-13" x="111.017574" y="280.963035"/>
<use xlink:href="#glyph-0-14" x="119.908107" y="280.963035"/>
<use xlink:href="#glyph-0-13" x="124.353374" y="280.963035"/>
</g>
<g fill="rgb(83.920288%, 15.293884%, 15.686035%)" fill-opacity="1">
<use xlink:href="#glyph-0-15" x="111.017574" y="249.416961"/>
<use xlink:href="#glyph-0-14" x="119.908107" y="249.416961"/>
<use xlink:href="#glyph-0-15" x="124.353374" y="249.416961"/>
</g>
<g fill="rgb(12.156677%, 46.665955%, 70.587158%)" fill-opacity="1">
<use xlink:href="#glyph-0-16" x="238.377239" y="206.605587"/>
<use xlink:href="#glyph-0-17" x="247.267773" y="206.605587"/>
</g>
<g fill="rgb(83.920288%, 15.293884%, 15.686035%)" fill-opacity="1">
<use xlink:href="#glyph-0-18" x="238.377239" y="150.2454"/>
<use xlink:href="#glyph-0-1" x="247.267773" y="150.2454"/>
</g>
<g fill="rgb(12.156677%, 46.665955%, 70.587158%)" fill-opacity="1">
<use xlink:href="#glyph-0-15" x="338.737383" y="158.701855"/>
<use xlink:href="#glyph-0-17" x="347.627917" y="158.701855"/>
</g>
<g fill="rgb(83.920288%, 15.293884%, 15.686035%)" fill-opacity="1">
<use xlink:href="#glyph-0-17" x="334.290994" y="80.163962"/>
<use xlink:href="#glyph-0-16" x="343.181527" y="80.163962"/>
<use xlink:href="#glyph-0-1" x="352.07206" y="80.163962"/>
</g>
<path fill-rule="nonzero" fill="rgb(100%, 100%, 100%)" fill-opacity="0.8" stroke-width="1" stroke-linecap="butt" stroke-linejoin="miter" stroke="rgb(79.998779%, 79.998779%, 79.998779%)" stroke-opacity="0.8" stroke-miterlimit="10" d="M 136.57921 325.511795 L 334.034097 325.511795 C 335.9002 325.511795 336.835208 326.446803 336.835208 328.312907 L 336.835208 347.459051 C 336.835208 349.325155 335.9002 350.260163 334.034097 350.260163 L 136.57921 350.260163 C 134.713106 350.260163 133.782011 349.325155 133.782011 347.459051 L 133.782011 328.312907 C 133.782011 326.446803 134.713106 325.511795 136.57921 325.511795 Z M 136.57921 325.511795 " transform="matrix(0.998488, 0, 0, -0.998488, 0.314857, 356.917919)"/>
<path fill="none" stroke-width="1" stroke-linecap="butt" stroke-linejoin="round" stroke="rgb(12.156677%, 46.665955%, 70.587158%)" stroke-opacity="0.5" stroke-dasharray="1 1.65" stroke-miterlimit="10" d="M 139.380321 338.918791 L 167.3797 338.918791 " transform="matrix(0.998488, 0, 0, -0.998488, 0.314857, 356.917919)"/>
<path fill-rule="nonzero" fill="rgb(12.156677%, 46.665955%, 70.587158%)" fill-opacity="0.5" stroke-width="1" stroke-linecap="butt" stroke-linejoin="round" stroke="rgb(12.156677%, 46.665955%, 70.587158%)" stroke-opacity="0.5" stroke-miterlimit="10" d="M 153.381967 333.919042 C 154.708191 333.919042 155.979646 334.443272 156.914653 335.382192 C 157.853573 336.321112 158.381716 337.592567 158.381716 338.918791 C 158.381716 340.245016 157.853573 341.51647 156.914653 342.45539 C 155.979646 343.390398 154.708191 343.91854 153.381967 343.91854 C 152.055742 343.91854 150.784288 343.390398 149.845368 342.45539 C 148.906448 341.51647 148.382217 340.245016 148.382217 338.918791 C 148.382217 337.592567 148.906448 336.321112 149.845368 335.382192 C 150.784288 334.443272 152.055742 333.919042 153.381967 333.919042 Z M 153.381967 333.919042 " transform="matrix(0.998488, 0, 0, -0.998488, 0.314857, 356.917919)"/>
<g fill="rgb(0%, 0%, 0%)" fill-opacity="1">
<use xlink:href="#glyph-0-19" x="178.625079" y="23.405173"/>
<use xlink:href="#glyph-0-20" x="188.382299" y="23.405173"/>
<use xlink:href="#glyph-0-21" x="197.971774" y="23.405173"/>
</g>
<path fill="none" stroke-width="1" stroke-linecap="butt" stroke-linejoin="round" stroke="rgb(83.920288%, 15.293884%, 15.686035%)" stroke-opacity="0.5" stroke-dasharray="1 1.65" stroke-miterlimit="10" d="M 233.769172 338.918791 L 261.76855 338.918791 " transform="matrix(0.998488, 0, 0, -0.998488, 0.314857, 356.917919)"/>
<path fill-rule="nonzero" fill="rgb(83.920288%, 15.293884%, 15.686035%)" fill-opacity="0.5" stroke-width="1" stroke-linecap="butt" stroke-linejoin="miter" stroke="rgb(83.920288%, 15.293884%, 15.686035%)" stroke-opacity="0.5" stroke-miterlimit="10" d="M 247.766905 343.91854 L 242.767156 333.919042 L 252.766654 333.919042 Z M 247.766905 343.91854 " transform="matrix(0.998488, 0, 0, -0.998488, 0.314857, 356.917919)"/>
<g fill="rgb(0%, 0%, 0%)" fill-opacity="1">
<use xlink:href="#glyph-0-22" x="272.869824" y="23.405173"/>
<use xlink:href="#glyph-0-4" x="283.381901" y="23.405173"/>
<use xlink:href="#glyph-0-12" x="291.950922" y="23.405173"/>
<use xlink:href="#glyph-0-23" x="299.23389" y="23.405173"/>
<use xlink:href="#glyph-0-24" x="308.096466" y="23.405173"/>
<use xlink:href="#glyph-0-10" x="316.97302" y="23.405173"/>
<use xlink:href="#glyph-0-2" x="325.569998" y="23.405173"/>
</g>
</svg>
