<?xml version="1.0" encoding="utf-8" standalone="no"?>
<!DOCTYPE svg PUBLIC "-//W3C//DTD SVG 1.1//EN"
  "http://www.w3.org/Graphics/SVG/1.1/DTD/svg11.dtd">
<svg xmlns:xlink="http://www.w3.org/1999/xlink" width="445.090469pt" height="387.583175pt" viewBox="0 0 445.090469 387.583175" xmlns="http://www.w3.org/2000/svg" version="1.1">
 <metadata>
  <rdf:RDF xmlns:dc="http://purl.org/dc/elements/1.1/" xmlns:cc="http://creativecommons.org/ns#" xmlns:rdf="http://www.w3.org/1999/02/22-rdf-syntax-ns#">
   <cc:Work>
    <dc:type rdf:resource="http://purl.org/dc/dcmitype/StillImage"/>
    <dc:date>2026-06-02T22:15:54.078870</dc:date>
    <dc:format>image/svg+xml</dc:format>
    <dc:creator>
     <cc:Agent>
      <dc:title>Matplotlib v3.10.9, https://matplotlib.org/</dc:title>
     </cc:Agent>
    </dc:creator>
   </cc:Work>
  </rdf:RDF>
 </metadata>
 <defs>
  <style type="text/css">*{stroke-linejoin: round; stroke-linecap: butt}</style>
 </defs>
 <g id="figure_1">
  <g id="patch_1">
   <path d="M 0 387.583175 
L 445.090469 387.583175 
L 445.090469 0 
L 0 0 
z
" style="fill: #ffffff"/>
  </g>
  <g id="axes_1">
   <g id="patch_2">
    <path d="M 56.50625 288.432 
L 413.62625 288.432 
L 413.62625 22.32 
L 56.50625 22.32 
z
" style="fill: #ffffff"/>
   </g>
   <g id="FillBetweenPolyCollection_1"/>
   <g id="FillBetweenPolyCollection_2"/>
   <g id="FillBetweenPolyCollection_3"/>
   <g id="FillBetweenPolyCollection_4"/>
   <g id="matplotlib.axis_1">
    <g id="xtick_1">
     <g id="line2d_1">
      <defs>
       <path id="mb082b8e189" d="M 0 0 
L 0 3.5 
" style="stroke: #000000; stroke-width: 0.8"/>
      </defs>
      <g>
       <use xlink:href="#mb082b8e189" x="94.382614" y="288.432" style="stroke: #000000; stroke-width: 0.8"/>
      </g>
     </g>
     <g id="text_1">
      <!-- 10 -->
      <g transform="translate(88.020114 303.030437) scale(0.1 -0.1)">
       <defs>
        <path id="DejaVuSans-31" d="M 794 531 
L 1825 531 
L 1825 4091 
L 703 3866 
L 703 4441 
L 1819 4666 
L 2450 4666 
L 2450 531 
L 3481 531 
L 3481 0 
L 794 0 
L 794 531 
z
" transform="scale(0.015625)"/>
        <path id="DejaVuSans-30" d="M 2034 4250 
Q 1547 4250 1301 3770 
Q 1056 3291 1056 2328 
Q 1056 1369 1301 889 
Q 1547 409 2034 409 
Q 2525 409 2770 889 
Q 3016 1369 3016 2328 
Q 3016 3291 2770 3770 
Q 2525 4250 2034 4250 
z
M 2034 4750 
Q 2819 4750 3233 4129 
Q 3647 3509 3647 2328 
Q 3647 1150 3233 529 
Q 2819 -91 2034 -91 
Q 1250 -91 836 529 
Q 422 1150 422 2328 
Q 422 3509 836 4129 
Q 1250 4750 2034 4750 
z
" transform="scale(0.015625)"/>
       </defs>
       <use xlink:href="#DejaVuSans-31"/>
       <use xlink:href="#DejaVuSans-30" transform="translate(63.623047 0)"/>
      </g>
     </g>
    </g>
    <g id="xtick_2">
     <g id="line2d_2">
      <g>
       <use xlink:href="#mb082b8e189" x="137.669886" y="288.432" style="stroke: #000000; stroke-width: 0.8"/>
      </g>
     </g>
     <g id="text_2">
      <!-- 20 -->
      <g transform="translate(131.307386 303.030437) scale(0.1 -0.1)">
       <defs>
        <path id="DejaVuSans-32" d="M 1228 531 
L 3431 531 
L 3431 0 
L 469 0 
L 469 531 
Q 828 903 1448 1529 
Q 2069 2156 2228 2338 
Q 2531 2678 2651 2914 
Q 2772 3150 2772 3378 
Q 2772 3750 2511 3984 
Q 2250 4219 1831 4219 
Q 1534 4219 1204 4116 
Q 875 4013 500 3803 
L 500 4441 
Q 881 4594 1212 4672 
Q 1544 4750 1819 4750 
Q 2544 4750 2975 4387 
Q 3406 4025 3406 3419 
Q 3406 3131 3298 2873 
Q 3191 2616 2906 2266 
Q 2828 2175 2409 1742 
Q 1991 1309 1228 531 
z
" transform="scale(0.015625)"/>
       </defs>
       <use xlink:href="#DejaVuSans-32"/>
       <use xlink:href="#DejaVuSans-30" transform="translate(63.623047 0)"/>
      </g>
     </g>
    </g>
    <g id="xtick_3">
     <g id="line2d_3">
      <g>
       <use xlink:href="#mb082b8e189" x="180.957159" y="288.432" style="stroke: #000000; stroke-width: 0.8"/>
      </g>
     </g>
     <g id="text_3">
      <!-- 30 -->
      <g transform="translate(174.594659 303.030437) scale(0.1 -0.1)">
       <defs>
        <path id="DejaVuSans-33" d="M 2597 2516 
Q 3050 2419 3304 2112 
Q 3559 1806 3559 1356 
Q 3559 666 3084 287 
Q 2609 -91 1734 -91 
Q 1441 -91 1130 -33 
Q 819 25 488 141 
L 488 750 
Q 750 597 1062 519 
Q 1375 441 1716 441 
Q 2309 441 2620 675 
Q 2931 909 2931 1356 
Q 2931 1769 2642 2001 
Q 2353 2234 1838 2234 
L 1294 2234 
L 1294 2753 
L 1863 2753 
Q 2328 2753 2575 2939 
Q 2822 3125 2822 3475 
Q 2822 3834 2567 4026 
Q 2313 4219 1838 4219 
Q 1578 4219 1281 4162 
Q 984 4106 628 3988 
L 628 4550 
Q 988 4650 1302 4700 
Q 1616 4750 1894 4750 
Q 2613 4750 3031 4423 
Q 3450 4097 3450 3541 
Q 3450 3153 3228 2886 
Q 3006 2619 2597 2516 
z
" transform="scale(0.015625)"/>
       </defs>
       <use xlink:href="#DejaVuSans-33"/>
       <use xlink:href="#DejaVuSans-30" transform="translate(63.623047 0)"/>
      </g>
     </g>
    </g>
    <g id="xtick_4">
     <g id="line2d_4">
      <g>
       <use xlink:href="#mb082b8e189" x="224.244432" y="288.432" style="stroke: #000000; stroke-width: 0.8"/>
      </g>
     </g>
     <g id="text_4">
      <!-- 40 -->
      <g transform="translate(217.881932 303.030437) scale(0.1 -0.1)">
       <defs>
        <path id="DejaVuSans-34" d="M 2419 4116 
L 825 1625 
L 2419 1625 
L 2419 4116 
z
M 2253 4666 
L 3047 4666 
L 3047 1625 
L 3713 1625 
L 3713 1100 
L 3047 1100 
L 3047 0 
L 2419 0 
L 2419 1100 
L 313 1100 
L 313 1709 
L 2253 4666 
z
" transform="scale(0.015625)"/>
       </defs>
       <use xlink:href="#DejaVuSans-34"/>
       <use xlink:href="#DejaVuSans-30" transform="translate(63.623047 0)"/>
      </g>
     </g>
    </g>
    <g id="xtick_5">
     <g id="line2d_5">
      <g>
       <use xlink:href="#mb082b8e189" x="267.531705" y="288.432" style="stroke: #000000; stroke-width: 0.8"/>
      </g>
     </g>
     <g id="text_5">
      <!-- 50 -->
      <g transform="translate(261.169205 303.030437) scale(0.1 -0.1)">
       <defs>
        <path id="DejaVuSans-35" d="M 691 4666 
L 3169 4666 
L 3169 4134 
L 1269 4134 
L 1269 2991 
Q 1406 3038 1543 3061 
Q 1681 3084 1819 3084 
Q 2600 3084 3056 2656 
Q 3513 2228 3513 1497 
Q 3513 744 3044 326 
Q 2575 -91 1722 -91 
Q 1428 -91 1123 -41 
Q 819 9 494 109 
L 494 744 
Q 775 591 1075 516 
Q 1375 441 1709 441 
Q 2250 441 2565 725 
Q 2881 1009 2881 1497 
Q 2881 1984 2565 2268 
Q 2250 2553 1709 2553 
Q 1456 2553 1204 2497 
Q 953 2441 691 2322 
L 691 4666 
z
" transform="scale(0.015625)"/>
       </defs>
       <use xlink:href="#DejaVuSans-35"/>
       <use xlink:href="#DejaVuSans-30" transform="translate(63.623047 0)"/>
      </g>
     </g>
    </g>
    <g id="xtick_6">
     <g id="line2d_6">
      <g>
       <use xlink:href="#mb082b8e189" x="310.818977" y="288.432" style="stroke: #000000; stroke-width: 0.8"/>
      </g>
     </g>
     <g id="text_6">
      <!-- 60 -->
      <g transform="translate(304.456477 303.030437) scale(0.1 -0.1)">
       <defs>
        <path id="DejaVuSans-36" d="M 2113 2584 
Q 1688 2584 1439 2293 
Q 1191 2003 1191 1497 
Q 1191 994 1439 701 
Q 1688 409 2113 409 
Q 2538 409 2786 701 
Q 3034 994 3034 1497 
Q 3034 2003 2786 2293 
Q 2538 2584 2113 2584 
z
M 3366 4563 
L 3366 3988 
Q 3128 4100 2886 4159 
Q 2644 4219 2406 4219 
Q 1781 4219 1451 3797 
Q 1122 3375 1075 2522 
Q 1259 2794 1537 2939 
Q 1816 3084 2150 3084 
Q 2853 3084 3261 2657 
Q 3669 2231 3669 1497 
Q 3669 778 3244 343 
Q 2819 -91 2113 -91 
Q 1303 -91 875 529 
Q 447 1150 447 2328 
Q 447 3434 972 4092 
Q 1497 4750 2381 4750 
Q 2619 4750 2861 4703 
Q 3103 4656 3366 4563 
z
" transform="scale(0.015625)"/>
       </defs>
       <use xlink:href="#DejaVuSans-36"/>
       <use xlink:href="#DejaVuSans-30" transform="translate(63.623047 0)"/>
      </g>
     </g>
    </g>
    <g id="xtick_7">
     <g id="line2d_7">
      <g>
       <use xlink:href="#mb082b8e189" x="354.10625" y="288.432" style="stroke: #000000; stroke-width: 0.8"/>
      </g>
     </g>
     <g id="text_7">
      <!-- 70 -->
      <g transform="translate(347.74375 303.030437) scale(0.1 -0.1)">
       <defs>
        <path id="DejaVuSans-37" d="M 525 4666 
L 3525 4666 
L 3525 4397 
L 1831 0 
L 1172 0 
L 2766 4134 
L 525 4134 
L 525 4666 
z
" transform="scale(0.015625)"/>
       </defs>
       <use xlink:href="#DejaVuSans-37"/>
       <use xlink:href="#DejaVuSans-30" transform="translate(63.623047 0)"/>
      </g>
     </g>
    </g>
    <g id="xtick_8">
     <g id="line2d_8">
      <g>
       <use xlink:href="#mb082b8e189" x="397.393523" y="288.432" style="stroke: #000000; stroke-width: 0.8"/>
      </g>
     </g>
     <g id="text_8">
      <!-- 80 -->
      <g transform="translate(391.031023 303.030437) scale(0.1 -0.1)">
       <defs>
        <path id="DejaVuSans-38" d="M 2034 2216 
Q 1584 2216 1326 1975 
Q 1069 1734 1069 1313 
Q 1069 891 1326 650 
Q 1584 409 2034 409 
Q 2484 409 2743 651 
Q 3003 894 3003 1313 
Q 3003 1734 2745 1975 
Q 2488 2216 2034 2216 
z
M 1403 2484 
Q 997 2584 770 2862 
Q 544 3141 544 3541 
Q 544 4100 942 4425 
Q 1341 4750 2034 4750 
Q 2731 4750 3128 4425 
Q 3525 4100 3525 3541 
Q 3525 3141 3298 2862 
Q 3072 2584 2669 2484 
Q 3125 2378 3379 2068 
Q 3634 1759 3634 1313 
Q 3634 634 3220 271 
Q 2806 -91 2034 -91 
Q 1263 -91 848 271 
Q 434 634 434 1313 
Q 434 1759 690 2068 
Q 947 2378 1403 2484 
z
M 1172 3481 
Q 1172 3119 1398 2916 
Q 1625 2713 2034 2713 
Q 2441 2713 2670 2916 
Q 2900 3119 2900 3481 
Q 2900 3844 2670 4047 
Q 2441 4250 2034 4250 
Q 1625 4250 1398 4047 
Q 1172 3844 1172 3481 
z
" transform="scale(0.015625)"/>
       </defs>
       <use xlink:href="#DejaVuSans-38"/>
       <use xlink:href="#DejaVuSans-30" transform="translate(63.623047 0)"/>
      </g>
     </g>
    </g>
    <g id="text_9">
     <!-- Minimizer length $k$ -->
     <g transform="translate(188.76625 316.710125) scale(0.1 -0.1)">
      <defs>
       <path id="DejaVuSans-4d" d="M 628 4666 
L 1569 4666 
L 2759 1491 
L 3956 4666 
L 4897 4666 
L 4897 0 
L 4281 0 
L 4281 4097 
L 3078 897 
L 2444 897 
L 1241 4097 
L 1241 0 
L 628 0 
L 628 4666 
z
" transform="scale(0.015625)"/>
       <path id="DejaVuSans-69" d="M 603 3500 
L 1178 3500 
L 1178 0 
L 603 0 
L 603 3500 
z
M 603 4863 
L 1178 4863 
L 1178 4134 
L 603 4134 
L 603 4863 
z
" transform="scale(0.015625)"/>
       <path id="DejaVuSans-6e" d="M 3513 2113 
L 3513 0 
L 2938 0 
L 2938 2094 
Q 2938 2591 2744 2837 
Q 2550 3084 2163 3084 
Q 1697 3084 1428 2787 
Q 1159 2491 1159 1978 
L 1159 0 
L 581 0 
L 581 3500 
L 1159 3500 
L 1159 2956 
Q 1366 3272 1645 3428 
Q 1925 3584 2291 3584 
Q 2894 3584 3203 3211 
Q 3513 2838 3513 2113 
z
" transform="scale(0.015625)"/>
       <path id="DejaVuSans-6d" d="M 3328 2828 
Q 3544 3216 3844 3400 
Q 4144 3584 4550 3584 
Q 5097 3584 5394 3201 
Q 5691 2819 5691 2113 
L 5691 0 
L 5113 0 
L 5113 2094 
Q 5113 2597 4934 2840 
Q 4756 3084 4391 3084 
Q 3944 3084 3684 2787 
Q 3425 2491 3425 1978 
L 3425 0 
L 2847 0 
L 2847 2094 
Q 2847 2600 2669 2842 
Q 2491 3084 2119 3084 
Q 1678 3084 1418 2786 
Q 1159 2488 1159 1978 
L 1159 0 
L 581 0 
L 581 3500 
L 1159 3500 
L 1159 2956 
Q 1356 3278 1631 3431 
Q 1906 3584 2284 3584 
Q 2666 3584 2933 3390 
Q 3200 3197 3328 2828 
z
" transform="scale(0.015625)"/>
       <path id="DejaVuSans-7a" d="M 353 3500 
L 3084 3500 
L 3084 2975 
L 922 459 
L 3084 459 
L 3084 0 
L 275 0 
L 275 525 
L 2438 3041 
L 353 3041 
L 353 3500 
z
" transform="scale(0.015625)"/>
       <path id="DejaVuSans-65" d="M 3597 1894 
L 3597 1613 
L 953 1613 
Q 991 1019 1311 708 
Q 1631 397 2203 397 
Q 2534 397 2845 478 
Q 3156 559 3463 722 
L 3463 178 
Q 3153 47 2828 -22 
Q 2503 -91 2169 -91 
Q 1331 -91 842 396 
Q 353 884 353 1716 
Q 353 2575 817 3079 
Q 1281 3584 2069 3584 
Q 2775 3584 3186 3129 
Q 3597 2675 3597 1894 
z
M 3022 2063 
Q 3016 2534 2758 2815 
Q 2500 3097 2075 3097 
Q 1594 3097 1305 2825 
Q 1016 2553 972 2059 
L 3022 2063 
z
" transform="scale(0.015625)"/>
       <path id="DejaVuSans-72" d="M 2631 2963 
Q 2534 3019 2420 3045 
Q 2306 3072 2169 3072 
Q 1681 3072 1420 2755 
Q 1159 2438 1159 1844 
L 1159 0 
L 581 0 
L 581 3500 
L 1159 3500 
L 1159 2956 
Q 1341 3275 1631 3429 
Q 1922 3584 2338 3584 
Q 2397 3584 2469 3576 
Q 2541 3569 2628 3553 
L 2631 2963 
z
" transform="scale(0.015625)"/>
       <path id="DejaVuSans-20" transform="scale(0.015625)"/>
       <path id="DejaVuSans-6c" d="M 603 4863 
L 1178 4863 
L 1178 0 
L 603 0 
L 603 4863 
z
" transform="scale(0.015625)"/>
       <path id="DejaVuSans-67" d="M 2906 1791 
Q 2906 2416 2648 2759 
Q 2391 3103 1925 3103 
Q 1463 3103 1205 2759 
Q 947 2416 947 1791 
Q 947 1169 1205 825 
Q 1463 481 1925 481 
Q 2391 481 2648 825 
Q 2906 1169 2906 1791 
z
M 3481 434 
Q 3481 -459 3084 -895 
Q 2688 -1331 1869 -1331 
Q 1566 -1331 1297 -1286 
Q 1028 -1241 775 -1147 
L 775 -588 
Q 1028 -725 1275 -790 
Q 1522 -856 1778 -856 
Q 2344 -856 2625 -561 
Q 2906 -266 2906 331 
L 2906 616 
Q 2728 306 2450 153 
Q 2172 0 1784 0 
Q 1141 0 747 490 
Q 353 981 353 1791 
Q 353 2603 747 3093 
Q 1141 3584 1784 3584 
Q 2172 3584 2450 3431 
Q 2728 3278 2906 2969 
L 2906 3500 
L 3481 3500 
L 3481 434 
z
" transform="scale(0.015625)"/>
       <path id="DejaVuSans-74" d="M 1172 4494 
L 1172 3500 
L 2356 3500 
L 2356 3053 
L 1172 3053 
L 1172 1153 
Q 1172 725 1289 603 
Q 1406 481 1766 481 
L 2356 481 
L 2356 0 
L 1766 0 
Q 1100 0 847 248 
Q 594 497 594 1153 
L 594 3053 
L 172 3053 
L 172 3500 
L 594 3500 
L 594 4494 
L 1172 4494 
z
" transform="scale(0.015625)"/>
       <path id="DejaVuSans-68" d="M 3513 2113 
L 3513 0 
L 2938 0 
L 2938 2094 
Q 2938 2591 2744 2837 
Q 2550 3084 2163 3084 
Q 1697 3084 1428 2787 
Q 1159 2491 1159 1978 
L 1159 0 
L 581 0 
L 581 4863 
L 1159 4863 
L 1159 2956 
Q 1366 3272 1645 3428 
Q 1925 3584 2291 3584 
Q 2894 3584 3203 3211 
Q 3513 2838 3513 2113 
z
" transform="scale(0.015625)"/>
       <path id="DejaVuSans-Oblique-6b" d="M 1172 4863 
L 1747 4863 
L 1197 2028 
L 3169 3500 
L 3916 3500 
L 1716 1825 
L 3322 0 
L 2625 0 
L 1131 1709 
L 800 0 
L 225 0 
L 1172 4863 
z
" transform="scale(0.015625)"/>
      </defs>
      <use xlink:href="#DejaVuSans-4d" transform="translate(0 0.015625)"/>
      <use xlink:href="#DejaVuSans-69" transform="translate(86.279297 0.015625)"/>
      <use xlink:href="#DejaVuSans-6e" transform="translate(114.0625 0.015625)"/>
      <use xlink:href="#DejaVuSans-69" transform="translate(177.441406 0.015625)"/>
      <use xlink:href="#DejaVuSans-6d" transform="translate(205.224609 0.015625)"/>
      <use xlink:href="#DejaVuSans-69" transform="translate(302.636719 0.015625)"/>
      <use xlink:href="#DejaVuSans-7a" transform="translate(330.419922 0.015625)"/>
      <use xlink:href="#DejaVuSans-65" transform="translate(382.910156 0.015625)"/>
      <use xlink:href="#DejaVuSans-72" transform="translate(444.433594 0.015625)"/>
      <use xlink:href="#DejaVuSans-20" transform="translate(485.546875 0.015625)"/>
      <use xlink:href="#DejaVuSans-6c" transform="translate(517.333984 0.015625)"/>
      <use xlink:href="#DejaVuSans-65" transform="translate(545.117188 0.015625)"/>
      <use xlink:href="#DejaVuSans-6e" transform="translate(606.640625 0.015625)"/>
      <use xlink:href="#DejaVuSans-67" transform="translate(670.019531 0.015625)"/>
      <use xlink:href="#DejaVuSans-74" transform="translate(733.496094 0.015625)"/>
      <use xlink:href="#DejaVuSans-68" transform="translate(772.705078 0.015625)"/>
      <use xlink:href="#DejaVuSans-20" transform="translate(836.083984 0.015625)"/>
      <use xlink:href="#DejaVuSans-Oblique-6b" transform="translate(867.871094 0.015625)"/>
     </g>
    </g>
   </g>
   <g id="matplotlib.axis_2">
    <g id="ytick_1">
     <g id="line2d_9">
      <defs>
       <path id="m10fd936074" d="M 0 0 
L -3.5 0 
" style="stroke: #000000; stroke-width: 0.8"/>
      </defs>
      <g>
       <use xlink:href="#m10fd936074" x="56.50625" y="40.646311" style="stroke: #000000; stroke-width: 0.8"/>
      </g>
     </g>
     <g id="text_10">
      <!-- 0.125 -->
      <g transform="translate(20.878125 44.44553) scale(0.1 -0.1)">
       <defs>
        <path id="DejaVuSans-2e" d="M 684 794 
L 1344 794 
L 1344 0 
L 684 0 
L 684 794 
z
" transform="scale(0.015625)"/>
       </defs>
       <use xlink:href="#DejaVuSans-30"/>
       <use xlink:href="#DejaVuSans-2e" transform="translate(63.623047 0)"/>
       <use xlink:href="#DejaVuSans-31" transform="translate(95.410156 0)"/>
       <use xlink:href="#DejaVuSans-32" transform="translate(159.033203 0)"/>
       <use xlink:href="#DejaVuSans-35" transform="translate(222.65625 0)"/>
      </g>
     </g>
    </g>
    <g id="ytick_2">
     <g id="line2d_10">
      <g>
       <use xlink:href="#m10fd936074" x="56.50625" y="276.336" style="stroke: #000000; stroke-width: 0.8"/>
      </g>
     </g>
     <g id="text_11">
      <!-- 0.067 -->
      <g transform="translate(20.878125 280.135219) scale(0.1 -0.1)">
       <use xlink:href="#DejaVuSans-30"/>
       <use xlink:href="#DejaVuSans-2e" transform="translate(63.623047 0)"/>
       <use xlink:href="#DejaVuSans-30" transform="translate(95.410156 0)"/>
       <use xlink:href="#DejaVuSans-36" transform="translate(159.033203 0)"/>
       <use xlink:href="#DejaVuSans-37" transform="translate(222.65625 0)"/>
      </g>
     </g>
    </g>
    <g id="text_12">
     <!-- Density -->
     <g transform="translate(14.798437 174.384594) rotate(-90) scale(0.1 -0.1)">
      <defs>
       <path id="DejaVuSans-44" d="M 1259 4147 
L 1259 519 
L 2022 519 
Q 2988 519 3436 956 
Q 3884 1394 3884 2338 
Q 3884 3275 3436 3711 
Q 2988 4147 2022 4147 
L 1259 4147 
z
M 628 4666 
L 1925 4666 
Q 3281 4666 3915 4102 
Q 4550 3538 4550 2338 
Q 4550 1131 3912 565 
Q 3275 0 1925 0 
L 628 0 
L 628 4666 
z
" transform="scale(0.015625)"/>
       <path id="DejaVuSans-73" d="M 2834 3397 
L 2834 2853 
Q 2591 2978 2328 3040 
Q 2066 3103 1784 3103 
Q 1356 3103 1142 2972 
Q 928 2841 928 2578 
Q 928 2378 1081 2264 
Q 1234 2150 1697 2047 
L 1894 2003 
Q 2506 1872 2764 1633 
Q 3022 1394 3022 966 
Q 3022 478 2636 193 
Q 2250 -91 1575 -91 
Q 1294 -91 989 -36 
Q 684 19 347 128 
L 347 722 
Q 666 556 975 473 
Q 1284 391 1588 391 
Q 1994 391 2212 530 
Q 2431 669 2431 922 
Q 2431 1156 2273 1281 
Q 2116 1406 1581 1522 
L 1381 1569 
Q 847 1681 609 1914 
Q 372 2147 372 2553 
Q 372 3047 722 3315 
Q 1072 3584 1716 3584 
Q 2034 3584 2315 3537 
Q 2597 3491 2834 3397 
z
" transform="scale(0.015625)"/>
       <path id="DejaVuSans-79" d="M 2059 -325 
Q 1816 -950 1584 -1140 
Q 1353 -1331 966 -1331 
L 506 -1331 
L 506 -850 
L 844 -850 
Q 1081 -850 1212 -737 
Q 1344 -625 1503 -206 
L 1606 56 
L 191 3500 
L 800 3500 
L 1894 763 
L 2988 3500 
L 3597 3500 
L 2059 -325 
z
" transform="scale(0.015625)"/>
      </defs>
      <use xlink:href="#DejaVuSans-44"/>
      <use xlink:href="#DejaVuSans-65" transform="translate(77.001953 0)"/>
      <use xlink:href="#DejaVuSans-6e" transform="translate(138.525391 0)"/>
      <use xlink:href="#DejaVuSans-73" transform="translate(201.904297 0)"/>
      <use xlink:href="#DejaVuSans-69" transform="translate(254.003906 0)"/>
      <use xlink:href="#DejaVuSans-74" transform="translate(281.787109 0)"/>
      <use xlink:href="#DejaVuSans-79" transform="translate(320.996094 0)"/>
     </g>
    </g>
   </g>
   <g id="line2d_11">
    <path d="M 56.50625 276.336 
L 413.62625 276.336 
" clip-path="url(#p725056fbf8)" style="fill: none; stroke: #000000; stroke-width: 0.5; stroke-linecap: square"/>
   </g>
   <g id="line2d_12">
    <path d="M 56.50625 40.646311 
L 413.62625 40.646311 
" clip-path="url(#p725056fbf8)" style="fill: none; stroke: #000000; stroke-width: 0.5; stroke-linecap: square"/>
   </g>
   <g id="line2d_13">
    <path d="M 72.738977 141.656178 
L 77.067705 154.689709 
L 81.396432 154.689709 
L 85.725159 154.689709 
L 90.053886 154.689709 
L 94.382614 154.689709 
L 98.711341 154.689709 
L 103.040068 154.689709 
L 107.368795 154.689709 
L 111.697523 154.689709 
L 116.02625 154.689709 
L 120.354977 154.689709 
L 124.683705 166.908644 
L 129.012432 178.387038 
L 133.341159 189.190233 
L 137.669886 194.356978 
L 141.998614 194.356978 
L 146.327341 194.356978 
L 150.656068 194.356978 
L 154.984795 194.356978 
L 159.313523 194.356978 
L 163.64225 194.356978 
L 167.970977 194.356978 
L 172.299705 194.356978 
L 176.628432 194.356978 
L 180.957159 194.356978 
L 185.285886 194.356978 
L 189.614614 201.832269 
L 193.943341 208.996089 
L 198.272068 214.515754 
L 202.600795 214.515754 
L 206.929523 214.515754 
L 211.25825 214.515754 
L 215.586977 214.515754 
L 219.915705 214.515754 
L 224.244432 214.515754 
L 228.573159 214.515754 
L 232.901886 214.515754 
L 237.230614 214.515754 
L 241.559341 214.515754 
L 245.888068 214.515754 
L 250.216795 214.515754 
L 254.545523 219.857365 
L 258.87425 225.029401 
L 263.202977 226.717118 
L 267.531705 226.717118 
L 271.860432 226.717118 
L 276.189159 226.717118 
L 280.517886 226.717118 
L 284.846614 226.717118 
L 289.175341 226.717118 
L 293.504068 226.717118 
L 297.832795 226.717118 
L 302.161523 226.717118 
L 306.49025 226.717118 
L 310.818977 226.717118 
L 315.147705 226.717118 
L 319.476432 230.859696 
L 323.805159 234.896055 
L 328.133886 234.896055 
L 332.462614 234.896055 
L 336.791341 234.896055 
L 341.120068 234.896055 
L 345.448795 234.896055 
L 349.777523 234.896055 
L 354.10625 234.896055 
L 358.434977 234.896055 
L 362.763705 234.896055 
L 367.092432 234.896055 
L 371.421159 234.896055 
L 375.749886 234.896055 
L 380.078614 234.896055 
L 384.407341 238.274311 
L 388.736068 240.760198 
L 393.064795 240.760198 
L 397.393523 240.760198 
" clip-path="url(#p725056fbf8)" style="fill: none; stroke: #000000; stroke-width: 2; stroke-linecap: square"/>
   </g>
   <g id="line2d_14">
    <path d="M 72.738977 141.656178 
L 77.067705 160.896152 
L 81.396432 178.387038 
L 85.725159 194.356978 
L 90.053886 208.996089 
L 94.382614 222.464071 
L 98.711341 234.896055 
L 103.040068 246.407151 
L 107.368795 257.096025 
L 111.697523 267.047736 
L 116.02625 276.336 
L 120.354977 154.689709 
L 124.683705 166.908644 
L 129.012432 178.387038 
L 133.341159 189.190233 
L 137.669886 199.376102 
L 141.998614 208.996089 
L 146.327341 218.096077 
L 150.656068 226.717118 
L 154.984795 234.896055 
L 159.313523 242.666044 
L 163.64225 250.05701 
L 167.970977 257.096025 
L 172.299705 263.807644 
L 176.628432 270.21419 
L 180.957159 276.336 
L 185.285886 194.356978 
L 189.614614 201.832269 
L 193.943341 208.996089 
L 198.272068 215.867508 
L 202.600795 222.464071 
L 206.929523 228.801945 
L 211.25825 234.896055 
L 215.586977 240.760198 
L 219.915705 246.407151 
L 224.244432 251.84876 
L 228.573159 257.096025 
L 232.901886 262.159177 
L 237.230614 267.047736 
L 241.559341 271.770582 
L 245.888068 276.336 
L 250.216795 214.515754 
L 254.545523 219.857365 
L 258.87425 225.029401 
L 263.202977 230.039811 
L 267.531705 234.896055 
L 271.860432 239.605139 
L 276.189159 244.173654 
L 280.517886 248.607801 
L 284.846614 252.913422 
L 289.175341 257.096025 
L 293.504068 261.160809 
L 297.832795 265.112681 
L 302.161523 268.956284 
L 306.49025 272.696005 
L 310.818977 276.336 
L 315.147705 226.717118 
L 319.476432 230.859696 
L 323.805159 234.896055 
L 328.133886 238.830227 
L 332.462614 242.666044 
L 336.791341 246.407151 
L 341.120068 250.05701 
L 345.448795 253.618922 
L 349.777523 257.096025 
L 354.10625 260.491315 
L 358.434977 263.807644 
L 362.763705 267.047736 
L 367.092432 270.21419 
L 371.421159 273.309487 
L 375.749886 276.336 
L 380.078614 234.896055 
L 384.407341 238.274311 
L 388.736068 241.579917 
L 393.064795 244.815191 
L 397.393523 247.982353 
" clip-path="url(#p725056fbf8)" style="fill: none; stroke-dasharray: 7.4,3.2; stroke-dashoffset: 0; stroke: #000000; stroke-width: 2"/>
   </g>
   <g id="line2d_15">
    <path d="M 72.738977 36.595086 
L 77.067705 41.318154 
L 81.396432 40.545281 
L 85.725159 41.510127 
L 90.053886 37.827516 
L 94.382614 39.802685 
L 98.711341 39.838038 
L 103.040068 39.55008 
L 107.368795 40.11082 
L 111.697523 41.358623 
L 116.02625 42.525621 
L 120.354977 38.479021 
L 124.683705 40.818079 
L 129.012432 41.580942 
L 133.341159 157.168176 
L 137.669886 155.022174 
L 141.998614 156.594556 
L 146.327341 152.508436 
L 150.656068 153.757476 
L 154.984795 157.795445 
L 163.64225 153.624454 
L 172.299705 154.101656 
L 180.957159 153.447079 
L 189.614614 152.873321 
L 198.272068 196.64351 
L 206.929523 194.008982 
L 215.586977 193.274303 
L 224.244432 191.448109 
L 232.901886 194.71554 
L 241.559341 191.999908 
L 250.216795 193.28652 
L 254.545523 193.565991 
L 258.87425 193.481611 
L 263.202977 216.118333 
L 267.531705 215.063871 
L 271.860432 214.696694 
L 276.189159 214.006068 
L 284.846614 215.899688 
L 293.504068 213.265018 
L 302.161523 213.217932 
L 310.818977 213.696479 
L 319.476432 213.285491 
L 328.133886 227.592857 
L 336.791341 226.6969 
L 345.448795 227.377939 
L 354.10625 226.118005 
L 362.763705 227.163004 
L 371.421159 226.59048 
L 380.078614 226.664972 
L 388.736068 226.982111 
L 397.393523 234.74051 
" clip-path="url(#p725056fbf8)" style="fill: none; stroke: #2ca02c; stroke-width: 1.5; stroke-linecap: square"/>
    <defs>
     <path id="m1cf01f90e2" d="M 0 1.5 
C 0.397805 1.5 0.77937 1.341951 1.06066 1.06066 
C 1.341951 0.77937 1.5 0.397805 1.5 0 
C 1.5 -0.397805 1.341951 -0.77937 1.06066 -1.06066 
C 0.77937 -1.341951 0.397805 -1.5 0 -1.5 
C -0.397805 -1.5 -0.77937 -1.341951 -1.06066 -1.06066 
C -1.341951 -0.77937 -1.5 -0.397805 -1.5 0 
C -1.5 0.397805 -1.341951 0.77937 -1.06066 1.06066 
C -0.77937 1.341951 -0.397805 1.5 0 1.5 
z
" style="stroke: #ffffff; stroke-width: 0.75"/>
    </defs>
    <g clip-path="url(#p725056fbf8)">
     <use xlink:href="#m1cf01f90e2" x="72.738977" y="36.595086" style="fill: #2ca02c; stroke: #ffffff; stroke-width: 0.75"/>
     <use xlink:href="#m1cf01f90e2" x="77.067705" y="41.318154" style="fill: #2ca02c; stroke: #ffffff; stroke-width: 0.75"/>
     <use xlink:href="#m1cf01f90e2" x="81.396432" y="40.545281" style="fill: #2ca02c; stroke: #ffffff; stroke-width: 0.75"/>
     <use xlink:href="#m1cf01f90e2" x="85.725159" y="41.510127" style="fill: #2ca02c; stroke: #ffffff; stroke-width: 0.75"/>
     <use xlink:href="#m1cf01f90e2" x="90.053886" y="37.827516" style="fill: #2ca02c; stroke: #ffffff; stroke-width: 0.75"/>
     <use xlink:href="#m1cf01f90e2" x="94.382614" y="39.802685" style="fill: #2ca02c; stroke: #ffffff; stroke-width: 0.75"/>
     <use xlink:href="#m1cf01f90e2" x="98.711341" y="39.838038" style="fill: #2ca02c; stroke: #ffffff; stroke-width: 0.75"/>
     <use xlink:href="#m1cf01f90e2" x="103.040068" y="39.55008" style="fill: #2ca02c; stroke: #ffffff; stroke-width: 0.75"/>
     <use xlink:href="#m1cf01f90e2" x="107.368795" y="40.11082" style="fill: #2ca02c; stroke: #ffffff; stroke-width: 0.75"/>
     <use xlink:href="#m1cf01f90e2" x="111.697523" y="41.358623" style="fill: #2ca02c; stroke: #ffffff; stroke-width: 0.75"/>
     <use xlink:href="#m1cf01f90e2" x="116.02625" y="42.525621" style="fill: #2ca02c; stroke: #ffffff; stroke-width: 0.75"/>
     <use xlink:href="#m1cf01f90e2" x="120.354977" y="38.479021" style="fill: #2ca02c; stroke: #ffffff; stroke-width: 0.75"/>
     <use xlink:href="#m1cf01f90e2" x="124.683705" y="40.818079" style="fill: #2ca02c; stroke: #ffffff; stroke-width: 0.75"/>
     <use xlink:href="#m1cf01f90e2" x="129.012432" y="41.580942" style="fill: #2ca02c; stroke: #ffffff; stroke-width: 0.75"/>
     <use xlink:href="#m1cf01f90e2" x="133.341159" y="157.168176" style="fill: #2ca02c; stroke: #ffffff; stroke-width: 0.75"/>
     <use xlink:href="#m1cf01f90e2" x="137.669886" y="155.022174" style="fill: #2ca02c; stroke: #ffffff; stroke-width: 0.75"/>
     <use xlink:href="#m1cf01f90e2" x="141.998614" y="156.594556" style="fill: #2ca02c; stroke: #ffffff; stroke-width: 0.75"/>
     <use xlink:href="#m1cf01f90e2" x="146.327341" y="152.508436" style="fill: #2ca02c; stroke: #ffffff; stroke-width: 0.75"/>
     <use xlink:href="#m1cf01f90e2" x="150.656068" y="153.757476" style="fill: #2ca02c; stroke: #ffffff; stroke-width: 0.75"/>
     <use xlink:href="#m1cf01f90e2" x="154.984795" y="157.795445" style="fill: #2ca02c; stroke: #ffffff; stroke-width: 0.75"/>
     <use xlink:href="#m1cf01f90e2" x="163.64225" y="153.624454" style="fill: #2ca02c; stroke: #ffffff; stroke-width: 0.75"/>
     <use xlink:href="#m1cf01f90e2" x="172.299705" y="154.101656" style="fill: #2ca02c; stroke: #ffffff; stroke-width: 0.75"/>
     <use xlink:href="#m1cf01f90e2" x="180.957159" y="153.447079" style="fill: #2ca02c; stroke: #ffffff; stroke-width: 0.75"/>
     <use xlink:href="#m1cf01f90e2" x="189.614614" y="152.873321" style="fill: #2ca02c; stroke: #ffffff; stroke-width: 0.75"/>
     <use xlink:href="#m1cf01f90e2" x="198.272068" y="196.64351" style="fill: #2ca02c; stroke: #ffffff; stroke-width: 0.75"/>
     <use xlink:href="#m1cf01f90e2" x="206.929523" y="194.008982" style="fill: #2ca02c; stroke: #ffffff; stroke-width: 0.75"/>
     <use xlink:href="#m1cf01f90e2" x="215.586977" y="193.274303" style="fill: #2ca02c; stroke: #ffffff; stroke-width: 0.75"/>
     <use xlink:href="#m1cf01f90e2" x="224.244432" y="191.448109" style="fill: #2ca02c; stroke: #ffffff; stroke-width: 0.75"/>
     <use xlink:href="#m1cf01f90e2" x="232.901886" y="194.71554" style="fill: #2ca02c; stroke: #ffffff; stroke-width: 0.75"/>
     <use xlink:href="#m1cf01f90e2" x="241.559341" y="191.999908" style="fill: #2ca02c; stroke: #ffffff; stroke-width: 0.75"/>
     <use xlink:href="#m1cf01f90e2" x="250.216795" y="193.28652" style="fill: #2ca02c; stroke: #ffffff; stroke-width: 0.75"/>
     <use xlink:href="#m1cf01f90e2" x="254.545523" y="193.565991" style="fill: #2ca02c; stroke: #ffffff; stroke-width: 0.75"/>
     <use xlink:href="#m1cf01f90e2" x="258.87425" y="193.481611" style="fill: #2ca02c; stroke: #ffffff; stroke-width: 0.75"/>
     <use xlink:href="#m1cf01f90e2" x="263.202977" y="216.118333" style="fill: #2ca02c; stroke: #ffffff; stroke-width: 0.75"/>
     <use xlink:href="#m1cf01f90e2" x="267.531705" y="215.063871" style="fill: #2ca02c; stroke: #ffffff; stroke-width: 0.75"/>
     <use xlink:href="#m1cf01f90e2" x="271.860432" y="214.696694" style="fill: #2ca02c; stroke: #ffffff; stroke-width: 0.75"/>
     <use xlink:href="#m1cf01f90e2" x="276.189159" y="214.006068" style="fill: #2ca02c; stroke: #ffffff; stroke-width: 0.75"/>
     <use xlink:href="#m1cf01f90e2" x="284.846614" y="215.899688" style="fill: #2ca02c; stroke: #ffffff; stroke-width: 0.75"/>
     <use xlink:href="#m1cf01f90e2" x="293.504068" y="213.265018" style="fill: #2ca02c; stroke: #ffffff; stroke-width: 0.75"/>
     <use xlink:href="#m1cf01f90e2" x="302.161523" y="213.217932" style="fill: #2ca02c; stroke: #ffffff; stroke-width: 0.75"/>
     <use xlink:href="#m1cf01f90e2" x="310.818977" y="213.696479" style="fill: #2ca02c; stroke: #ffffff; stroke-width: 0.75"/>
     <use xlink:href="#m1cf01f90e2" x="319.476432" y="213.285491" style="fill: #2ca02c; stroke: #ffffff; stroke-width: 0.75"/>
     <use xlink:href="#m1cf01f90e2" x="328.133886" y="227.592857" style="fill: #2ca02c; stroke: #ffffff; stroke-width: 0.75"/>
     <use xlink:href="#m1cf01f90e2" x="336.791341" y="226.6969" style="fill: #2ca02c; stroke: #ffffff; stroke-width: 0.75"/>
     <use xlink:href="#m1cf01f90e2" x="345.448795" y="227.377939" style="fill: #2ca02c; stroke: #ffffff; stroke-width: 0.75"/>
     <use xlink:href="#m1cf01f90e2" x="354.10625" y="226.118005" style="fill: #2ca02c; stroke: #ffffff; stroke-width: 0.75"/>
     <use xlink:href="#m1cf01f90e2" x="362.763705" y="227.163004" style="fill: #2ca02c; stroke: #ffffff; stroke-width: 0.75"/>
     <use xlink:href="#m1cf01f90e2" x="371.421159" y="226.59048" style="fill: #2ca02c; stroke: #ffffff; stroke-width: 0.75"/>
     <use xlink:href="#m1cf01f90e2" x="380.078614" y="226.664972" style="fill: #2ca02c; stroke: #ffffff; stroke-width: 0.75"/>
     <use xlink:href="#m1cf01f90e2" x="388.736068" y="226.982111" style="fill: #2ca02c; stroke: #ffffff; stroke-width: 0.75"/>
     <use xlink:href="#m1cf01f90e2" x="397.393523" y="234.74051" style="fill: #2ca02c; stroke: #ffffff; stroke-width: 0.75"/>
    </g>
   </g>
   <g id="line2d_16">
    <path d="M 72.738977 82.219354 
L 77.067705 83.103775 
L 81.396432 107.629249 
L 85.725159 116.030654 
L 90.053886 122.896539 
L 94.382614 126.771981 
L 98.711341 137.39658 
L 103.040068 136.503386 
L 107.368795 143.854724 
L 111.697523 142.880748 
L 116.02625 145.463296 
L 120.354977 142.872689 
L 124.683705 140.888272 
L 129.012432 136.721326 
L 133.341159 132.392629 
L 137.669886 130.771803 
L 141.998614 127.817161 
L 146.327341 124.539115 
L 150.656068 124.090299 
L 154.984795 120.610056 
L 163.64225 118.944343 
L 172.299705 109.032777 
L 180.957159 100.373876 
L 189.614614 86.540595 
L 198.272068 80.791349 
L 206.929523 72.5356 
L 215.586977 66.74542 
L 224.244432 60.267776 
L 232.901886 53.951578 
L 241.559341 53.699176 
L 250.216795 50.0104 
L 254.545523 47.013753 
L 258.87425 45.876762 
L 263.202977 46.599483 
L 267.531705 50.637431 
L 271.860432 47.559811 
L 276.189159 50.950965 
L 284.846614 44.997701 
L 293.504068 46.038908 
L 302.161523 44.088141 
L 310.818977 45.412406 
L 319.476432 45.685432 
L 328.133886 41.429741 
L 336.791341 43.886237 
L 345.448795 45.978901 
L 354.10625 41.520772 
L 362.763705 45.756704 
L 371.421159 43.846057 
L 380.078614 40.641256 
L 388.736068 43.381117 
L 397.393523 42.198256 
" clip-path="url(#p725056fbf8)" style="fill: none; stroke: #ff7f0e; stroke-width: 1.5; stroke-linecap: square"/>
    <defs>
     <path id="mb546010d6a" d="M 0 1.5 
C 0.397805 1.5 0.77937 1.341951 1.06066 1.06066 
C 1.341951 0.77937 1.5 0.397805 1.5 0 
C 1.5 -0.397805 1.341951 -0.77937 1.06066 -1.06066 
C 0.77937 -1.341951 0.397805 -1.5 0 -1.5 
C -0.397805 -1.5 -0.77937 -1.341951 -1.06066 -1.06066 
C -1.341951 -0.77937 -1.5 -0.397805 -1.5 0 
C -1.5 0.397805 -1.341951 0.77937 -1.06066 1.06066 
C -0.77937 1.341951 -0.397805 1.5 0 1.5 
z
" style="stroke: #ffffff; stroke-width: 0.75"/>
    </defs>
    <g clip-path="url(#p725056fbf8)">
     <use xlink:href="#mb546010d6a" x="72.738977" y="82.219354" style="fill: #ff7f0e; stroke: #ffffff; stroke-width: 0.75"/>
     <use xlink:href="#mb546010d6a" x="77.067705" y="83.103775" style="fill: #ff7f0e; stroke: #ffffff; stroke-width: 0.75"/>
     <use xlink:href="#mb546010d6a" x="81.396432" y="107.629249" style="fill: #ff7f0e; stroke: #ffffff; stroke-width: 0.75"/>
     <use xlink:href="#mb546010d6a" x="85.725159" y="116.030654" style="fill: #ff7f0e; stroke: #ffffff; stroke-width: 0.75"/>
     <use xlink:href="#mb546010d6a" x="90.053886" y="122.896539" style="fill: #ff7f0e; stroke: #ffffff; stroke-width: 0.75"/>
     <use xlink:href="#mb546010d6a" x="94.382614" y="126.771981" style="fill: #ff7f0e; stroke: #ffffff; stroke-width: 0.75"/>
     <use xlink:href="#mb546010d6a" x="98.711341" y="137.39658" style="fill: #ff7f0e; stroke: #ffffff; stroke-width: 0.75"/>
     <use xlink:href="#mb546010d6a" x="103.040068" y="136.503386" style="fill: #ff7f0e; stroke: #ffffff; stroke-width: 0.75"/>
     <use xlink:href="#mb546010d6a" x="107.368795" y="143.854724" style="fill: #ff7f0e; stroke: #ffffff; stroke-width: 0.75"/>
     <use xlink:href="#mb546010d6a" x="111.697523" y="142.880748" style="fill: #ff7f0e; stroke: #ffffff; stroke-width: 0.75"/>
     <use xlink:href="#mb546010d6a" x="116.02625" y="145.463296" style="fill: #ff7f0e; stroke: #ffffff; stroke-width: 0.75"/>
     <use xlink:href="#mb546010d6a" x="120.354977" y="142.872689" style="fill: #ff7f0e; stroke: #ffffff; stroke-width: 0.75"/>
     <use xlink:href="#mb546010d6a" x="124.683705" y="140.888272" style="fill: #ff7f0e; stroke: #ffffff; stroke-width: 0.75"/>
     <use xlink:href="#mb546010d6a" x="129.012432" y="136.721326" style="fill: #ff7f0e; stroke: #ffffff; stroke-width: 0.75"/>
     <use xlink:href="#mb546010d6a" x="133.341159" y="132.392629" style="fill: #ff7f0e; stroke: #ffffff; stroke-width: 0.75"/>
     <use xlink:href="#mb546010d6a" x="137.669886" y="130.771803" style="fill: #ff7f0e; stroke: #ffffff; stroke-width: 0.75"/>
     <use xlink:href="#mb546010d6a" x="141.998614" y="127.817161" style="fill: #ff7f0e; stroke: #ffffff; stroke-width: 0.75"/>
     <use xlink:href="#mb546010d6a" x="146.327341" y="124.539115" style="fill: #ff7f0e; stroke: #ffffff; stroke-width: 0.75"/>
     <use xlink:href="#mb546010d6a" x="150.656068" y="124.090299" style="fill: #ff7f0e; stroke: #ffffff; stroke-width: 0.75"/>
     <use xlink:href="#mb546010d6a" x="154.984795" y="120.610056" style="fill: #ff7f0e; stroke: #ffffff; stroke-width: 0.75"/>
     <use xlink:href="#mb546010d6a" x="163.64225" y="118.944343" style="fill: #ff7f0e; stroke: #ffffff; stroke-width: 0.75"/>
     <use xlink:href="#mb546010d6a" x="172.299705" y="109.032777" style="fill: #ff7f0e; stroke: #ffffff; stroke-width: 0.75"/>
     <use xlink:href="#mb546010d6a" x="180.957159" y="100.373876" style="fill: #ff7f0e; stroke: #ffffff; stroke-width: 0.75"/>
     <use xlink:href="#mb546010d6a" x="189.614614" y="86.540595" style="fill: #ff7f0e; stroke: #ffffff; stroke-width: 0.75"/>
     <use xlink:href="#mb546010d6a" x="198.272068" y="80.791349" style="fill: #ff7f0e; stroke: #ffffff; stroke-width: 0.75"/>
     <use xlink:href="#mb546010d6a" x="206.929523" y="72.5356" style="fill: #ff7f0e; stroke: #ffffff; stroke-width: 0.75"/>
     <use xlink:href="#mb546010d6a" x="215.586977" y="66.74542" style="fill: #ff7f0e; stroke: #ffffff; stroke-width: 0.75"/>
     <use xlink:href="#mb546010d6a" x="224.244432" y="60.267776" style="fill: #ff7f0e; stroke: #ffffff; stroke-width: 0.75"/>
     <use xlink:href="#mb546010d6a" x="232.901886" y="53.951578" style="fill: #ff7f0e; stroke: #ffffff; stroke-width: 0.75"/>
     <use xlink:href="#mb546010d6a" x="241.559341" y="53.699176" style="fill: #ff7f0e; stroke: #ffffff; stroke-width: 0.75"/>
     <use xlink:href="#mb546010d6a" x="250.216795" y="50.0104" style="fill: #ff7f0e; stroke: #ffffff; stroke-width: 0.75"/>
     <use xlink:href="#mb546010d6a" x="254.545523" y="47.013753" style="fill: #ff7f0e; stroke: #ffffff; stroke-width: 0.75"/>
     <use xlink:href="#mb546010d6a" x="258.87425" y="45.876762" style="fill: #ff7f0e; stroke: #ffffff; stroke-width: 0.75"/>
     <use xlink:href="#mb546010d6a" x="263.202977" y="46.599483" style="fill: #ff7f0e; stroke: #ffffff; stroke-width: 0.75"/>
     <use xlink:href="#mb546010d6a" x="267.531705" y="50.637431" style="fill: #ff7f0e; stroke: #ffffff; stroke-width: 0.75"/>
     <use xlink:href="#mb546010d6a" x="271.860432" y="47.559811" style="fill: #ff7f0e; stroke: #ffffff; stroke-width: 0.75"/>
     <use xlink:href="#mb546010d6a" x="276.189159" y="50.950965" style="fill: #ff7f0e; stroke: #ffffff; stroke-width: 0.75"/>
     <use xlink:href="#mb546010d6a" x="284.846614" y="44.997701" style="fill: #ff7f0e; stroke: #ffffff; stroke-width: 0.75"/>
     <use xlink:href="#mb546010d6a" x="293.504068" y="46.038908" style="fill: #ff7f0e; stroke: #ffffff; stroke-width: 0.75"/>
     <use xlink:href="#mb546010d6a" x="302.161523" y="44.088141" style="fill: #ff7f0e; stroke: #ffffff; stroke-width: 0.75"/>
     <use xlink:href="#mb546010d6a" x="310.818977" y="45.412406" style="fill: #ff7f0e; stroke: #ffffff; stroke-width: 0.75"/>
     <use xlink:href="#mb546010d6a" x="319.476432" y="45.685432" style="fill: #ff7f0e; stroke: #ffffff; stroke-width: 0.75"/>
     <use xlink:href="#mb546010d6a" x="328.133886" y="41.429741" style="fill: #ff7f0e; stroke: #ffffff; stroke-width: 0.75"/>
     <use xlink:href="#mb546010d6a" x="336.791341" y="43.886237" style="fill: #ff7f0e; stroke: #ffffff; stroke-width: 0.75"/>
     <use xlink:href="#mb546010d6a" x="345.448795" y="45.978901" style="fill: #ff7f0e; stroke: #ffffff; stroke-width: 0.75"/>
     <use xlink:href="#mb546010d6a" x="354.10625" y="41.520772" style="fill: #ff7f0e; stroke: #ffffff; stroke-width: 0.75"/>
     <use xlink:href="#mb546010d6a" x="362.763705" y="45.756704" style="fill: #ff7f0e; stroke: #ffffff; stroke-width: 0.75"/>
     <use xlink:href="#mb546010d6a" x="371.421159" y="43.846057" style="fill: #ff7f0e; stroke: #ffffff; stroke-width: 0.75"/>
     <use xlink:href="#mb546010d6a" x="380.078614" y="40.641256" style="fill: #ff7f0e; stroke: #ffffff; stroke-width: 0.75"/>
     <use xlink:href="#mb546010d6a" x="388.736068" y="43.381117" style="fill: #ff7f0e; stroke: #ffffff; stroke-width: 0.75"/>
     <use xlink:href="#mb546010d6a" x="397.393523" y="42.198256" style="fill: #ff7f0e; stroke: #ffffff; stroke-width: 0.75"/>
    </g>
   </g>
   <g id="line2d_17">
    <path d="M 72.738977 36.595086 
L 77.067705 41.318154 
L 81.396432 40.545281 
L 85.725159 41.510127 
L 90.053886 37.827516 
L 94.382614 39.802685 
L 98.711341 39.838038 
L 103.040068 39.55008 
L 107.368795 40.11082 
L 111.697523 41.358623 
L 116.02625 42.525621 
L 120.354977 38.479021 
L 124.683705 40.818079 
L 129.012432 41.580942 
L 133.341159 37.81713 
L 137.669886 43.025879 
L 141.998614 38.898246 
L 146.327341 40.711991 
L 150.656068 42.525771 
L 154.984795 39.12555 
L 163.64225 43.642422 
L 172.299705 43.349433 
L 180.957159 39.539777 
L 189.614614 41.42949 
L 198.272068 38.913177 
L 206.929523 34.416 
L 215.586977 41.156671 
L 224.244432 40.904023 
L 232.901886 39.721562 
L 241.559341 40.641258 
L 250.216795 39.660884 
L 254.545523 38.281261 
L 258.87425 37.50804 
L 263.202977 39.079687 
L 267.531705 43.724001 
L 271.860432 36.967197 
L 276.189159 40.075234 
L 284.846614 39.054339 
L 293.504068 40.540178 
L 302.161523 41.985643 
L 310.818977 39.104785 
L 319.476432 43.259376 
L 328.133886 41.308436 
L 336.791341 43.56275 
L 345.448795 38.821605 
L 354.10625 38.407084 
L 362.763705 47.131607 
L 371.421159 40.48961 
L 380.078614 39.023659 
L 388.736068 40.105416 
L 397.393523 39.286464 
" clip-path="url(#p725056fbf8)" style="fill: none; stroke: #1f77b4; stroke-width: 1.5; stroke-linecap: square"/>
    <defs>
     <path id="mc0c4665c6e" d="M 0 1.5 
C 0.397805 1.5 0.77937 1.341951 1.06066 1.06066 
C 1.341951 0.77937 1.5 0.397805 1.5 0 
C 1.5 -0.397805 1.341951 -0.77937 1.06066 -1.06066 
C 0.77937 -1.341951 0.397805 -1.5 0 -1.5 
C -0.397805 -1.5 -0.77937 -1.341951 -1.06066 -1.06066 
C -1.341951 -0.77937 -1.5 -0.397805 -1.5 0 
C -1.5 0.397805 -1.341951 0.77937 -1.06066 1.06066 
C -0.77937 1.341951 -0.397805 1.5 0 1.5 
z
" style="stroke: #ffffff; stroke-width: 0.75"/>
    </defs>
    <g clip-path="url(#p725056fbf8)">
     <use xlink:href="#mc0c4665c6e" x="72.738977" y="36.595086" style="fill: #1f77b4; stroke: #ffffff; stroke-width: 0.75"/>
     <use xlink:href="#mc0c4665c6e" x="77.067705" y="41.318154" style="fill: #1f77b4; stroke: #ffffff; stroke-width: 0.75"/>
     <use xlink:href="#mc0c4665c6e" x="81.396432" y="40.545281" style="fill: #1f77b4; stroke: #ffffff; stroke-width: 0.75"/>
     <use xlink:href="#mc0c4665c6e" x="85.725159" y="41.510127" style="fill: #1f77b4; stroke: #ffffff; stroke-width: 0.75"/>
     <use xlink:href="#mc0c4665c6e" x="90.053886" y="37.827516" style="fill: #1f77b4; stroke: #ffffff; stroke-width: 0.75"/>
     <use xlink:href="#mc0c4665c6e" x="94.382614" y="39.802685" style="fill: #1f77b4; stroke: #ffffff; stroke-width: 0.75"/>
     <use xlink:href="#mc0c4665c6e" x="98.711341" y="39.838038" style="fill: #1f77b4; stroke: #ffffff; stroke-width: 0.75"/>
     <use xlink:href="#mc0c4665c6e" x="103.040068" y="39.55008" style="fill: #1f77b4; stroke: #ffffff; stroke-width: 0.75"/>
     <use xlink:href="#mc0c4665c6e" x="107.368795" y="40.11082" style="fill: #1f77b4; stroke: #ffffff; stroke-width: 0.75"/>
     <use xlink:href="#mc0c4665c6e" x="111.697523" y="41.358623" style="fill: #1f77b4; stroke: #ffffff; stroke-width: 0.75"/>
     <use xlink:href="#mc0c4665c6e" x="116.02625" y="42.525621" style="fill: #1f77b4; stroke: #ffffff; stroke-width: 0.75"/>
     <use xlink:href="#mc0c4665c6e" x="120.354977" y="38.479021" style="fill: #1f77b4; stroke: #ffffff; stroke-width: 0.75"/>
     <use xlink:href="#mc0c4665c6e" x="124.683705" y="40.818079" style="fill: #1f77b4; stroke: #ffffff; stroke-width: 0.75"/>
     <use xlink:href="#mc0c4665c6e" x="129.012432" y="41.580942" style="fill: #1f77b4; stroke: #ffffff; stroke-width: 0.75"/>
     <use xlink:href="#mc0c4665c6e" x="133.341159" y="37.81713" style="fill: #1f77b4; stroke: #ffffff; stroke-width: 0.75"/>
     <use xlink:href="#mc0c4665c6e" x="137.669886" y="43.025879" style="fill: #1f77b4; stroke: #ffffff; stroke-width: 0.75"/>
     <use xlink:href="#mc0c4665c6e" x="141.998614" y="38.898246" style="fill: #1f77b4; stroke: #ffffff; stroke-width: 0.75"/>
     <use xlink:href="#mc0c4665c6e" x="146.327341" y="40.711991" style="fill: #1f77b4; stroke: #ffffff; stroke-width: 0.75"/>
     <use xlink:href="#mc0c4665c6e" x="150.656068" y="42.525771" style="fill: #1f77b4; stroke: #ffffff; stroke-width: 0.75"/>
     <use xlink:href="#mc0c4665c6e" x="154.984795" y="39.12555" style="fill: #1f77b4; stroke: #ffffff; stroke-width: 0.75"/>
     <use xlink:href="#mc0c4665c6e" x="163.64225" y="43.642422" style="fill: #1f77b4; stroke: #ffffff; stroke-width: 0.75"/>
     <use xlink:href="#mc0c4665c6e" x="172.299705" y="43.349433" style="fill: #1f77b4; stroke: #ffffff; stroke-width: 0.75"/>
     <use xlink:href="#mc0c4665c6e" x="180.957159" y="39.539777" style="fill: #1f77b4; stroke: #ffffff; stroke-width: 0.75"/>
     <use xlink:href="#mc0c4665c6e" x="189.614614" y="41.42949" style="fill: #1f77b4; stroke: #ffffff; stroke-width: 0.75"/>
     <use xlink:href="#mc0c4665c6e" x="198.272068" y="38.913177" style="fill: #1f77b4; stroke: #ffffff; stroke-width: 0.75"/>
     <use xlink:href="#mc0c4665c6e" x="206.929523" y="34.416" style="fill: #1f77b4; stroke: #ffffff; stroke-width: 0.75"/>
     <use xlink:href="#mc0c4665c6e" x="215.586977" y="41.156671" style="fill: #1f77b4; stroke: #ffffff; stroke-width: 0.75"/>
     <use xlink:href="#mc0c4665c6e" x="224.244432" y="40.904023" style="fill: #1f77b4; stroke: #ffffff; stroke-width: 0.75"/>
     <use xlink:href="#mc0c4665c6e" x="232.901886" y="39.721562" style="fill: #1f77b4; stroke: #ffffff; stroke-width: 0.75"/>
     <use xlink:href="#mc0c4665c6e" x="241.559341" y="40.641258" style="fill: #1f77b4; stroke: #ffffff; stroke-width: 0.75"/>
     <use xlink:href="#mc0c4665c6e" x="250.216795" y="39.660884" style="fill: #1f77b4; stroke: #ffffff; stroke-width: 0.75"/>
     <use xlink:href="#mc0c4665c6e" x="254.545523" y="38.281261" style="fill: #1f77b4; stroke: #ffffff; stroke-width: 0.75"/>
     <use xlink:href="#mc0c4665c6e" x="258.87425" y="37.50804" style="fill: #1f77b4; stroke: #ffffff; stroke-width: 0.75"/>
     <use xlink:href="#mc0c4665c6e" x="263.202977" y="39.079687" style="fill: #1f77b4; stroke: #ffffff; stroke-width: 0.75"/>
     <use xlink:href="#mc0c4665c6e" x="267.531705" y="43.724001" style="fill: #1f77b4; stroke: #ffffff; stroke-width: 0.75"/>
     <use xlink:href="#mc0c4665c6e" x="271.860432" y="36.967197" style="fill: #1f77b4; stroke: #ffffff; stroke-width: 0.75"/>
     <use xlink:href="#mc0c4665c6e" x="276.189159" y="40.075234" style="fill: #1f77b4; stroke: #ffffff; stroke-width: 0.75"/>
     <use xlink:href="#mc0c4665c6e" x="284.846614" y="39.054339" style="fill: #1f77b4; stroke: #ffffff; stroke-width: 0.75"/>
     <use xlink:href="#mc0c4665c6e" x="293.504068" y="40.540178" style="fill: #1f77b4; stroke: #ffffff; stroke-width: 0.75"/>
     <use xlink:href="#mc0c4665c6e" x="302.161523" y="41.985643" style="fill: #1f77b4; stroke: #ffffff; stroke-width: 0.75"/>
     <use xlink:href="#mc0c4665c6e" x="310.818977" y="39.104785" style="fill: #1f77b4; stroke: #ffffff; stroke-width: 0.75"/>
     <use xlink:href="#mc0c4665c6e" x="319.476432" y="43.259376" style="fill: #1f77b4; stroke: #ffffff; stroke-width: 0.75"/>
     <use xlink:href="#mc0c4665c6e" x="328.133886" y="41.308436" style="fill: #1f77b4; stroke: #ffffff; stroke-width: 0.75"/>
     <use xlink:href="#mc0c4665c6e" x="336.791341" y="43.56275" style="fill: #1f77b4; stroke: #ffffff; stroke-width: 0.75"/>
     <use xlink:href="#mc0c4665c6e" x="345.448795" y="38.821605" style="fill: #1f77b4; stroke: #ffffff; stroke-width: 0.75"/>
     <use xlink:href="#mc0c4665c6e" x="354.10625" y="38.407084" style="fill: #1f77b4; stroke: #ffffff; stroke-width: 0.75"/>
     <use xlink:href="#mc0c4665c6e" x="362.763705" y="47.131607" style="fill: #1f77b4; stroke: #ffffff; stroke-width: 0.75"/>
     <use xlink:href="#mc0c4665c6e" x="371.421159" y="40.48961" style="fill: #1f77b4; stroke: #ffffff; stroke-width: 0.75"/>
     <use xlink:href="#mc0c4665c6e" x="380.078614" y="39.023659" style="fill: #1f77b4; stroke: #ffffff; stroke-width: 0.75"/>
     <use xlink:href="#mc0c4665c6e" x="388.736068" y="40.105416" style="fill: #1f77b4; stroke: #ffffff; stroke-width: 0.75"/>
     <use xlink:href="#mc0c4665c6e" x="397.393523" y="39.286464" style="fill: #1f77b4; stroke: #ffffff; stroke-width: 0.75"/>
    </g>
   </g>
   <g id="line2d_18">
    <path d="M 72.738977 54.093145 
L 77.067705 63.463725 
L 81.396432 75.78457 
L 85.725159 89.196798 
L 90.053886 99.214616 
L 94.382614 110.323791 
L 98.711341 114.724524 
L 103.040068 121.307704 
L 107.368795 123.76874 
L 111.697523 126.351071 
L 116.02625 126.91269 
L 120.354977 128.646375 
L 124.683705 129.49094 
L 129.012432 129.850525 
L 133.341159 157.168176 
L 137.669886 158.174722 
L 141.998614 160.232148 
L 146.327341 163.097976 
L 150.656068 167.499765 
L 154.984795 170.325305 
L 163.64225 175.08732 
L 172.299705 178.677331 
L 180.957159 181.944115 
L 189.614614 184.038788 
L 198.272068 196.64351 
L 206.929523 197.32373 
L 215.586977 200.87412 
L 224.244432 203.252317 
L 232.901886 205.630609 
L 241.559341 207.240884 
L 250.216795 208.770367 
L 254.545523 209.090421 
L 258.87425 209.653054 
L 263.202977 216.118333 
L 267.531705 216.155465 
L 271.860432 216.435176 
L 276.189159 217.200056 
L 284.846614 219.255464 
L 293.504068 220.461886 
L 302.161523 221.749222 
L 310.818977 222.672708 
L 319.476432 223.434494 
L 328.133886 227.592857 
L 336.791341 227.748233 
L 345.448795 228.83366 
L 354.10625 229.676505 
L 362.763705 230.681138 
L 371.421159 231.321858 
L 380.078614 232.043484 
L 388.736068 232.603375 
L 397.393523 235.185367 
" clip-path="url(#p725056fbf8)" style="fill: none; stroke: #9467bd; stroke-width: 1.5; stroke-linecap: square"/>
    <defs>
     <path id="ma4002bef22" d="M 0 1.5 
C 0.397805 1.5 0.77937 1.341951 1.06066 1.06066 
C 1.341951 0.77937 1.5 0.397805 1.5 0 
C 1.5 -0.397805 1.341951 -0.77937 1.06066 -1.06066 
C 0.77937 -1.341951 0.397805 -1.5 0 -1.5 
C -0.397805 -1.5 -0.77937 -1.341951 -1.06066 -1.06066 
C -1.341951 -0.77937 -1.5 -0.397805 -1.5 0 
C -1.5 0.397805 -1.341951 0.77937 -1.06066 1.06066 
C -0.77937 1.341951 -0.397805 1.5 0 1.5 
z
" style="stroke: #ffffff; stroke-width: 0.75"/>
    </defs>
    <g clip-path="url(#p725056fbf8)">
     <use xlink:href="#ma4002bef22" x="72.738977" y="54.093145" style="fill: #9467bd; stroke: #ffffff; stroke-width: 0.75"/>
     <use xlink:href="#ma4002bef22" x="77.067705" y="63.463725" style="fill: #9467bd; stroke: #ffffff; stroke-width: 0.75"/>
     <use xlink:href="#ma4002bef22" x="81.396432" y="75.78457" style="fill: #9467bd; stroke: #ffffff; stroke-width: 0.75"/>
     <use xlink:href="#ma4002bef22" x="85.725159" y="89.196798" style="fill: #9467bd; stroke: #ffffff; stroke-width: 0.75"/>
     <use xlink:href="#ma4002bef22" x="90.053886" y="99.214616" style="fill: #9467bd; stroke: #ffffff; stroke-width: 0.75"/>
     <use xlink:href="#ma4002bef22" x="94.382614" y="110.323791" style="fill: #9467bd; stroke: #ffffff; stroke-width: 0.75"/>
     <use xlink:href="#ma4002bef22" x="98.711341" y="114.724524" style="fill: #9467bd; stroke: #ffffff; stroke-width: 0.75"/>
     <use xlink:href="#ma4002bef22" x="103.040068" y="121.307704" style="fill: #9467bd; stroke: #ffffff; stroke-width: 0.75"/>
     <use xlink:href="#ma4002bef22" x="107.368795" y="123.76874" style="fill: #9467bd; stroke: #ffffff; stroke-width: 0.75"/>
     <use xlink:href="#ma4002bef22" x="111.697523" y="126.351071" style="fill: #9467bd; stroke: #ffffff; stroke-width: 0.75"/>
     <use xlink:href="#ma4002bef22" x="116.02625" y="126.91269" style="fill: #9467bd; stroke: #ffffff; stroke-width: 0.75"/>
     <use xlink:href="#ma4002bef22" x="120.354977" y="128.646375" style="fill: #9467bd; stroke: #ffffff; stroke-width: 0.75"/>
     <use xlink:href="#ma4002bef22" x="124.683705" y="129.49094" style="fill: #9467bd; stroke: #ffffff; stroke-width: 0.75"/>
     <use xlink:href="#ma4002bef22" x="129.012432" y="129.850525" style="fill: #9467bd; stroke: #ffffff; stroke-width: 0.75"/>
     <use xlink:href="#ma4002bef22" x="133.341159" y="157.168176" style="fill: #9467bd; stroke: #ffffff; stroke-width: 0.75"/>
     <use xlink:href="#ma4002bef22" x="137.669886" y="158.174722" style="fill: #9467bd; stroke: #ffffff; stroke-width: 0.75"/>
     <use xlink:href="#ma4002bef22" x="141.998614" y="160.232148" style="fill: #9467bd; stroke: #ffffff; stroke-width: 0.75"/>
     <use xlink:href="#ma4002bef22" x="146.327341" y="163.097976" style="fill: #9467bd; stroke: #ffffff; stroke-width: 0.75"/>
     <use xlink:href="#ma4002bef22" x="150.656068" y="167.499765" style="fill: #9467bd; stroke: #ffffff; stroke-width: 0.75"/>
     <use xlink:href="#ma4002bef22" x="154.984795" y="170.325305" style="fill: #9467bd; stroke: #ffffff; stroke-width: 0.75"/>
     <use xlink:href="#ma4002bef22" x="163.64225" y="175.08732" style="fill: #9467bd; stroke: #ffffff; stroke-width: 0.75"/>
     <use xlink:href="#ma4002bef22" x="172.299705" y="178.677331" style="fill: #9467bd; stroke: #ffffff; stroke-width: 0.75"/>
     <use xlink:href="#ma4002bef22" x="180.957159" y="181.944115" style="fill: #9467bd; stroke: #ffffff; stroke-width: 0.75"/>
     <use xlink:href="#ma4002bef22" x="189.614614" y="184.038788" style="fill: #9467bd; stroke: #ffffff; stroke-width: 0.75"/>
     <use xlink:href="#ma4002bef22" x="198.272068" y="196.64351" style="fill: #9467bd; stroke: #ffffff; stroke-width: 0.75"/>
     <use xlink:href="#ma4002bef22" x="206.929523" y="197.32373" style="fill: #9467bd; stroke: #ffffff; stroke-width: 0.75"/>
     <use xlink:href="#ma4002bef22" x="215.586977" y="200.87412" style="fill: #9467bd; stroke: #ffffff; stroke-width: 0.75"/>
     <use xlink:href="#ma4002bef22" x="224.244432" y="203.252317" style="fill: #9467bd; stroke: #ffffff; stroke-width: 0.75"/>
     <use xlink:href="#ma4002bef22" x="232.901886" y="205.630609" style="fill: #9467bd; stroke: #ffffff; stroke-width: 0.75"/>
     <use xlink:href="#ma4002bef22" x="241.559341" y="207.240884" style="fill: #9467bd; stroke: #ffffff; stroke-width: 0.75"/>
     <use xlink:href="#ma4002bef22" x="250.216795" y="208.770367" style="fill: #9467bd; stroke: #ffffff; stroke-width: 0.75"/>
     <use xlink:href="#ma4002bef22" x="254.545523" y="209.090421" style="fill: #9467bd; stroke: #ffffff; stroke-width: 0.75"/>
     <use xlink:href="#ma4002bef22" x="258.87425" y="209.653054" style="fill: #9467bd; stroke: #ffffff; stroke-width: 0.75"/>
     <use xlink:href="#ma4002bef22" x="263.202977" y="216.118333" style="fill: #9467bd; stroke: #ffffff; stroke-width: 0.75"/>
     <use xlink:href="#ma4002bef22" x="267.531705" y="216.155465" style="fill: #9467bd; stroke: #ffffff; stroke-width: 0.75"/>
     <use xlink:href="#ma4002bef22" x="271.860432" y="216.435176" style="fill: #9467bd; stroke: #ffffff; stroke-width: 0.75"/>
     <use xlink:href="#ma4002bef22" x="276.189159" y="217.200056" style="fill: #9467bd; stroke: #ffffff; stroke-width: 0.75"/>
     <use xlink:href="#ma4002bef22" x="284.846614" y="219.255464" style="fill: #9467bd; stroke: #ffffff; stroke-width: 0.75"/>
     <use xlink:href="#ma4002bef22" x="293.504068" y="220.461886" style="fill: #9467bd; stroke: #ffffff; stroke-width: 0.75"/>
     <use xlink:href="#ma4002bef22" x="302.161523" y="221.749222" style="fill: #9467bd; stroke: #ffffff; stroke-width: 0.75"/>
     <use xlink:href="#ma4002bef22" x="310.818977" y="222.672708" style="fill: #9467bd; stroke: #ffffff; stroke-width: 0.75"/>
     <use xlink:href="#ma4002bef22" x="319.476432" y="223.434494" style="fill: #9467bd; stroke: #ffffff; stroke-width: 0.75"/>
     <use xlink:href="#ma4002bef22" x="328.133886" y="227.592857" style="fill: #9467bd; stroke: #ffffff; stroke-width: 0.75"/>
     <use xlink:href="#ma4002bef22" x="336.791341" y="227.748233" style="fill: #9467bd; stroke: #ffffff; stroke-width: 0.75"/>
     <use xlink:href="#ma4002bef22" x="345.448795" y="228.83366" style="fill: #9467bd; stroke: #ffffff; stroke-width: 0.75"/>
     <use xlink:href="#ma4002bef22" x="354.10625" y="229.676505" style="fill: #9467bd; stroke: #ffffff; stroke-width: 0.75"/>
     <use xlink:href="#ma4002bef22" x="362.763705" y="230.681138" style="fill: #9467bd; stroke: #ffffff; stroke-width: 0.75"/>
     <use xlink:href="#ma4002bef22" x="371.421159" y="231.321858" style="fill: #9467bd; stroke: #ffffff; stroke-width: 0.75"/>
     <use xlink:href="#ma4002bef22" x="380.078614" y="232.043484" style="fill: #9467bd; stroke: #ffffff; stroke-width: 0.75"/>
     <use xlink:href="#ma4002bef22" x="388.736068" y="232.603375" style="fill: #9467bd; stroke: #ffffff; stroke-width: 0.75"/>
     <use xlink:href="#ma4002bef22" x="397.393523" y="235.185367" style="fill: #9467bd; stroke: #ffffff; stroke-width: 0.75"/>
    </g>
   </g>
   <g id="line2d_19"/>
   <g id="line2d_20"/>
   <g id="line2d_21"/>
   <g id="line2d_22"/>
   <g id="patch_3">
    <path d="M 56.50625 288.432 
L 56.50625 22.32 
" style="fill: none; stroke: #000000; stroke-width: 0.8; stroke-linejoin: miter; stroke-linecap: square"/>
   </g>
   <g id="patch_4">
    <path d="M 413.62625 288.432 
L 413.62625 22.32 
" style="fill: none; stroke: #000000; stroke-width: 0.8; stroke-linejoin: miter; stroke-linecap: square"/>
   </g>
   <g id="patch_5">
    <path d="M 56.50625 288.432 
L 413.62625 288.432 
" style="fill: none; stroke: #000000; stroke-width: 0.8; stroke-linejoin: miter; stroke-linecap: square"/>
   </g>
   <g id="patch_6">
    <path d="M 56.50625 22.32 
L 413.62625 22.32 
" style="fill: none; stroke: #000000; stroke-width: 0.8; stroke-linejoin: miter; stroke-linecap: square"/>
   </g>
   <g id="text_13">
    <!-- Minimizer density on a random sequence ($w=15$) -->
    <g transform="translate(84.52625 16.32) scale(0.12 -0.12)">
     <defs>
      <path id="DejaVuSans-64" d="M 2906 2969 
L 2906 4863 
L 3481 4863 
L 3481 0 
L 2906 0 
L 2906 525 
Q 2725 213 2448 61 
Q 2172 -91 1784 -91 
Q 1150 -91 751 415 
Q 353 922 353 1747 
Q 353 2572 751 3078 
Q 1150 3584 1784 3584 
Q 2172 3584 2448 3432 
Q 2725 3281 2906 2969 
z
M 947 1747 
Q 947 1113 1208 752 
Q 1469 391 1925 391 
Q 2381 391 2643 752 
Q 2906 1113 2906 1747 
Q 2906 2381 2643 2742 
Q 2381 3103 1925 3103 
Q 1469 3103 1208 2742 
Q 947 2381 947 1747 
z
" transform="scale(0.015625)"/>
      <path id="DejaVuSans-6f" d="M 1959 3097 
Q 1497 3097 1228 2736 
Q 959 2375 959 1747 
Q 959 1119 1226 758 
Q 1494 397 1959 397 
Q 2419 397 2687 759 
Q 2956 1122 2956 1747 
Q 2956 2369 2687 2733 
Q 2419 3097 1959 3097 
z
M 1959 3584 
Q 2709 3584 3137 3096 
Q 3566 2609 3566 1747 
Q 3566 888 3137 398 
Q 2709 -91 1959 -91 
Q 1206 -91 779 398 
Q 353 888 353 1747 
Q 353 2609 779 3096 
Q 1206 3584 1959 3584 
z
" transform="scale(0.015625)"/>
      <path id="DejaVuSans-61" d="M 2194 1759 
Q 1497 1759 1228 1600 
Q 959 1441 959 1056 
Q 959 750 1161 570 
Q 1363 391 1709 391 
Q 2188 391 2477 730 
Q 2766 1069 2766 1631 
L 2766 1759 
L 2194 1759 
z
M 3341 1997 
L 3341 0 
L 2766 0 
L 2766 531 
Q 2569 213 2275 61 
Q 1981 -91 1556 -91 
Q 1019 -91 701 211 
Q 384 513 384 1019 
Q 384 1609 779 1909 
Q 1175 2209 1959 2209 
L 2766 2209 
L 2766 2266 
Q 2766 2663 2505 2880 
Q 2244 3097 1772 3097 
Q 1472 3097 1187 3025 
Q 903 2953 641 2809 
L 641 3341 
Q 956 3463 1253 3523 
Q 1550 3584 1831 3584 
Q 2591 3584 2966 3190 
Q 3341 2797 3341 1997 
z
" transform="scale(0.015625)"/>
      <path id="DejaVuSans-71" d="M 947 1747 
Q 947 1113 1208 752 
Q 1469 391 1925 391 
Q 2381 391 2643 752 
Q 2906 1113 2906 1747 
Q 2906 2381 2643 2742 
Q 2381 3103 1925 3103 
Q 1469 3103 1208 2742 
Q 947 2381 947 1747 
z
M 2906 525 
Q 2725 213 2448 61 
Q 2172 -91 1784 -91 
Q 1150 -91 751 415 
Q 353 922 353 1747 
Q 353 2572 751 3078 
Q 1150 3584 1784 3584 
Q 2172 3584 2448 3432 
Q 2725 3281 2906 2969 
L 2906 3500 
L 3481 3500 
L 3481 -1331 
L 2906 -1331 
L 2906 525 
z
" transform="scale(0.015625)"/>
      <path id="DejaVuSans-75" d="M 544 1381 
L 544 3500 
L 1119 3500 
L 1119 1403 
Q 1119 906 1312 657 
Q 1506 409 1894 409 
Q 2359 409 2629 706 
Q 2900 1003 2900 1516 
L 2900 3500 
L 3475 3500 
L 3475 0 
L 2900 0 
L 2900 538 
Q 2691 219 2414 64 
Q 2138 -91 1772 -91 
Q 1169 -91 856 284 
Q 544 659 544 1381 
z
M 1991 3584 
L 1991 3584 
z
" transform="scale(0.015625)"/>
      <path id="DejaVuSans-63" d="M 3122 3366 
L 3122 2828 
Q 2878 2963 2633 3030 
Q 2388 3097 2138 3097 
Q 1578 3097 1268 2742 
Q 959 2388 959 1747 
Q 959 1106 1268 751 
Q 1578 397 2138 397 
Q 2388 397 2633 464 
Q 2878 531 3122 666 
L 3122 134 
Q 2881 22 2623 -34 
Q 2366 -91 2075 -91 
Q 1284 -91 818 406 
Q 353 903 353 1747 
Q 353 2603 823 3093 
Q 1294 3584 2113 3584 
Q 2378 3584 2631 3529 
Q 2884 3475 3122 3366 
z
" transform="scale(0.015625)"/>
      <path id="DejaVuSans-28" d="M 1984 4856 
Q 1566 4138 1362 3434 
Q 1159 2731 1159 2009 
Q 1159 1288 1364 580 
Q 1569 -128 1984 -844 
L 1484 -844 
Q 1016 -109 783 600 
Q 550 1309 550 2009 
Q 550 2706 781 3412 
Q 1013 4119 1484 4856 
L 1984 4856 
z
" transform="scale(0.015625)"/>
      <path id="DejaVuSans-Oblique-77" d="M 544 3500 
L 1113 3500 
L 1259 684 
L 2566 3500 
L 3231 3500 
L 3425 684 
L 4666 3500 
L 5241 3500 
L 3641 0 
L 2969 0 
L 2797 2900 
L 1459 0 
L 781 0 
L 544 3500 
z
" transform="scale(0.015625)"/>
      <path id="DejaVuSans-3d" d="M 678 2906 
L 4684 2906 
L 4684 2381 
L 678 2381 
L 678 2906 
z
M 678 1631 
L 4684 1631 
L 4684 1100 
L 678 1100 
L 678 1631 
z
" transform="scale(0.015625)"/>
      <path id="DejaVuSans-29" d="M 513 4856 
L 1013 4856 
Q 1481 4119 1714 3412 
Q 1947 2706 1947 2009 
Q 1947 1309 1714 600 
Q 1481 -109 1013 -844 
L 513 -844 
Q 928 -128 1133 580 
Q 1338 1288 1338 2009 
Q 1338 2731 1133 3434 
Q 928 4138 513 4856 
z
" transform="scale(0.015625)"/>
     </defs>
     <use xlink:href="#DejaVuSans-4d" transform="translate(0 0.015625)"/>
     <use xlink:href="#DejaVuSans-69" transform="translate(86.279297 0.015625)"/>
     <use xlink:href="#DejaVuSans-6e" transform="translate(114.0625 0.015625)"/>
     <use xlink:href="#DejaVuSans-69" transform="translate(177.441406 0.015625)"/>
     <use xlink:href="#DejaVuSans-6d" transform="translate(205.224609 0.015625)"/>
     <use xlink:href="#DejaVuSans-69" transform="translate(302.636719 0.015625)"/>
     <use xlink:href="#DejaVuSans-7a" transform="translate(330.419922 0.015625)"/>
     <use xlink:href="#DejaVuSans-65" transform="translate(382.910156 0.015625)"/>
     <use xlink:href="#DejaVuSans-72" transform="translate(444.433594 0.015625)"/>
     <use xlink:href="#DejaVuSans-20" transform="translate(485.546875 0.015625)"/>
     <use xlink:href="#DejaVuSans-64" transform="translate(517.333984 0.015625)"/>
     <use xlink:href="#DejaVuSans-65" transform="translate(580.810547 0.015625)"/>
     <use xlink:href="#DejaVuSans-6e" transform="translate(642.333984 0.015625)"/>
     <use xlink:href="#DejaVuSans-73" transform="translate(705.712891 0.015625)"/>
     <use xlink:href="#DejaVuSans-69" transform="translate(757.8125 0.015625)"/>
     <use xlink:href="#DejaVuSans-74" transform="translate(785.595703 0.015625)"/>
     <use xlink:href="#DejaVuSans-79" transform="translate(824.804688 0.015625)"/>
     <use xlink:href="#DejaVuSans-20" transform="translate(883.984375 0.015625)"/>
     <use xlink:href="#DejaVuSans-6f" transform="translate(915.771484 0.015625)"/>
     <use xlink:href="#DejaVuSans-6e" transform="translate(976.953125 0.015625)"/>
     <use xlink:href="#DejaVuSans-20" transform="translate(1040.332031 0.015625)"/>
     <use xlink:href="#DejaVuSans-61" transform="translate(1072.119141 0.015625)"/>
     <use xlink:href="#DejaVuSans-20" transform="translate(1133.398438 0.015625)"/>
     <use xlink:href="#DejaVuSans-72" transform="translate(1165.185547 0.015625)"/>
     <use xlink:href="#DejaVuSans-61" transform="translate(1206.298828 0.015625)"/>
     <use xlink:href="#DejaVuSans-6e" transform="translate(1267.578125 0.015625)"/>
     <use xlink:href="#DejaVuSans-64" transform="translate(1330.957031 0.015625)"/>
     <use xlink:href="#DejaVuSans-6f" transform="translate(1394.433594 0.015625)"/>
     <use xlink:href="#DejaVuSans-6d" transform="translate(1455.615234 0.015625)"/>
     <use xlink:href="#DejaVuSans-20" transform="translate(1553.027344 0.015625)"/>
     <use xlink:href="#DejaVuSans-73" transform="translate(1584.814453 0.015625)"/>
     <use xlink:href="#DejaVuSans-65" transform="translate(1636.914062 0.015625)"/>
     <use xlink:href="#DejaVuSans-71" transform="translate(1698.4375 0.015625)"/>
     <use xlink:href="#DejaVuSans-75" transform="translate(1761.914062 0.015625)"/>
     <use xlink:href="#DejaVuSans-65" transform="translate(1825.292969 0.015625)"/>
     <use xlink:href="#DejaVuSans-6e" transform="translate(1886.816406 0.015625)"/>
     <use xlink:href="#DejaVuSans-63" transform="translate(1950.195312 0.015625)"/>
     <use xlink:href="#DejaVuSans-65" transform="translate(2005.175781 0.015625)"/>
     <use xlink:href="#DejaVuSans-20" transform="translate(2066.699219 0.015625)"/>
     <use xlink:href="#DejaVuSans-28" transform="translate(2098.486328 0.015625)"/>
     <use xlink:href="#DejaVuSans-Oblique-77" transform="translate(2137.5 0.015625)"/>
     <use xlink:href="#DejaVuSans-3d" transform="translate(2238.769531 0.015625)"/>
     <use xlink:href="#DejaVuSans-31" transform="translate(2342.041016 0.015625)"/>
     <use xlink:href="#DejaVuSans-35" transform="translate(2405.664062 0.015625)"/>
     <use xlink:href="#DejaVuSans-29" transform="translate(2469.287109 0.015625)"/>
    </g>
   </g>
   <g id="legend_1">
    <g id="patch_7">
     <path d="M 34.242031 380.383175 
L 435.890469 380.383175 
Q 437.890469 380.383175 437.890469 378.383175 
L 437.890469 335.3488 
Q 437.890469 333.3488 435.890469 333.3488 
L 34.242031 333.3488 
Q 32.242031 333.3488 32.242031 335.3488 
L 32.242031 378.383175 
Q 32.242031 380.383175 34.242031 380.383175 
z
" style="fill: #ffffff; opacity: 0.8; stroke: #cccccc; stroke-linejoin: miter"/>
    </g>
    <g id="line2d_23">
     <path d="M 36.242031 341.447237 
L 46.242031 341.447237 
L 56.242031 341.447237 
" style="fill: none; stroke: #1f77b4; stroke-width: 1.5; stroke-linecap: square"/>
     <g>
      <use xlink:href="#mc0c4665c6e" x="46.242031" y="341.447237" style="fill: #1f77b4; stroke: #ffffff; stroke-width: 0.75"/>
     </g>
    </g>
    <g id="text_14">
     <!-- Random minimizers -->
     <g transform="translate(64.242031 344.947237) scale(0.1 -0.1)">
      <defs>
       <path id="DejaVuSans-52" d="M 2841 2188 
Q 3044 2119 3236 1894 
Q 3428 1669 3622 1275 
L 4263 0 
L 3584 0 
L 2988 1197 
Q 2756 1666 2539 1819 
Q 2322 1972 1947 1972 
L 1259 1972 
L 1259 0 
L 628 0 
L 628 4666 
L 2053 4666 
Q 2853 4666 3247 4331 
Q 3641 3997 3641 3322 
Q 3641 2881 3436 2590 
Q 3231 2300 2841 2188 
z
M 1259 4147 
L 1259 2491 
L 2053 2491 
Q 2509 2491 2742 2702 
Q 2975 2913 2975 3322 
Q 2975 3731 2742 3939 
Q 2509 4147 2053 4147 
L 1259 4147 
z
" transform="scale(0.015625)"/>
      </defs>
      <use xlink:href="#DejaVuSans-52"/>
      <use xlink:href="#DejaVuSans-61" transform="translate(67.232422 0)"/>
      <use xlink:href="#DejaVuSans-6e" transform="translate(128.511719 0)"/>
      <use xlink:href="#DejaVuSans-64" transform="translate(191.890625 0)"/>
      <use xlink:href="#DejaVuSans-6f" transform="translate(255.367188 0)"/>
      <use xlink:href="#DejaVuSans-6d" transform="translate(316.548828 0)"/>
      <use xlink:href="#DejaVuSans-20" transform="translate(413.960938 0)"/>
      <use xlink:href="#DejaVuSans-6d" transform="translate(445.748047 0)"/>
      <use xlink:href="#DejaVuSans-69" transform="translate(543.160156 0)"/>
      <use xlink:href="#DejaVuSans-6e" transform="translate(570.943359 0)"/>
      <use xlink:href="#DejaVuSans-69" transform="translate(634.322266 0)"/>
      <use xlink:href="#DejaVuSans-6d" transform="translate(662.105469 0)"/>
      <use xlink:href="#DejaVuSans-69" transform="translate(759.517578 0)"/>
      <use xlink:href="#DejaVuSans-7a" transform="translate(787.300781 0)"/>
      <use xlink:href="#DejaVuSans-65" transform="translate(839.791016 0)"/>
      <use xlink:href="#DejaVuSans-72" transform="translate(901.314453 0)"/>
      <use xlink:href="#DejaVuSans-73" transform="translate(942.427734 0)"/>
     </g>
    </g>
    <g id="line2d_24">
     <path d="M 36.242031 356.125362 
L 46.242031 356.125362 
L 56.242031 356.125362 
" style="fill: none; stroke: #ff7f0e; stroke-width: 1.5; stroke-linecap: square"/>
     <g>
      <use xlink:href="#mb546010d6a" x="46.242031" y="356.125362" style="fill: #ff7f0e; stroke: #ffffff; stroke-width: 0.75"/>
     </g>
    </g>
    <g id="text_15">
     <!-- Double decycling -->
     <g transform="translate(64.242031 359.625362) scale(0.1 -0.1)">
      <defs>
       <path id="DejaVuSans-62" d="M 3116 1747 
Q 3116 2381 2855 2742 
Q 2594 3103 2138 3103 
Q 1681 3103 1420 2742 
Q 1159 2381 1159 1747 
Q 1159 1113 1420 752 
Q 1681 391 2138 391 
Q 2594 391 2855 752 
Q 3116 1113 3116 1747 
z
M 1159 2969 
Q 1341 3281 1617 3432 
Q 1894 3584 2278 3584 
Q 2916 3584 3314 3078 
Q 3713 2572 3713 1747 
Q 3713 922 3314 415 
Q 2916 -91 2278 -91 
Q 1894 -91 1617 61 
Q 1341 213 1159 525 
L 1159 0 
L 581 0 
L 581 4863 
L 1159 4863 
L 1159 2969 
z
" transform="scale(0.015625)"/>
      </defs>
      <use xlink:href="#DejaVuSans-44"/>
      <use xlink:href="#DejaVuSans-6f" transform="translate(77.001953 0)"/>
      <use xlink:href="#DejaVuSans-75" transform="translate(138.183594 0)"/>
      <use xlink:href="#DejaVuSans-62" transform="translate(201.5625 0)"/>
      <use xlink:href="#DejaVuSans-6c" transform="translate(265.039062 0)"/>
      <use xlink:href="#DejaVuSans-65" transform="translate(292.822266 0)"/>
      <use xlink:href="#DejaVuSans-20" transform="translate(354.345703 0)"/>
      <use xlink:href="#DejaVuSans-64" transform="translate(386.132812 0)"/>
      <use xlink:href="#DejaVuSans-65" transform="translate(449.609375 0)"/>
      <use xlink:href="#DejaVuSans-63" transform="translate(511.132812 0)"/>
      <use xlink:href="#DejaVuSans-79" transform="translate(566.113281 0)"/>
      <use xlink:href="#DejaVuSans-63" transform="translate(625.292969 0)"/>
      <use xlink:href="#DejaVuSans-6c" transform="translate(680.273438 0)"/>
      <use xlink:href="#DejaVuSans-69" transform="translate(708.056641 0)"/>
      <use xlink:href="#DejaVuSans-6e" transform="translate(735.839844 0)"/>
      <use xlink:href="#DejaVuSans-67" transform="translate(799.21875 0)"/>
     </g>
    </g>
    <g id="line2d_25">
     <path d="M 36.242031 370.803487 
L 46.242031 370.803487 
L 56.242031 370.803487 
" style="fill: none; stroke: #2ca02c; stroke-width: 1.5; stroke-linecap: square"/>
     <g>
      <use xlink:href="#m1cf01f90e2" x="46.242031" y="370.803487" style="fill: #2ca02c; stroke: #ffffff; stroke-width: 0.75"/>
     </g>
    </g>
    <g id="text_16">
     <!-- Mod-minimizers -->
     <g transform="translate(64.242031 374.303487) scale(0.1 -0.1)">
      <defs>
       <path id="DejaVuSans-2d" d="M 313 2009 
L 1997 2009 
L 1997 1497 
L 313 1497 
L 313 2009 
z
" transform="scale(0.015625)"/>
      </defs>
      <use xlink:href="#DejaVuSans-4d"/>
      <use xlink:href="#DejaVuSans-6f" transform="translate(86.279297 0)"/>
      <use xlink:href="#DejaVuSans-64" transform="translate(147.460938 0)"/>
      <use xlink:href="#DejaVuSans-2d" transform="translate(210.9375 0)"/>
      <use xlink:href="#DejaVuSans-6d" transform="translate(247.021484 0)"/>
      <use xlink:href="#DejaVuSans-69" transform="translate(344.433594 0)"/>
      <use xlink:href="#DejaVuSans-6e" transform="translate(372.216797 0)"/>
      <use xlink:href="#DejaVuSans-69" transform="translate(435.595703 0)"/>
      <use xlink:href="#DejaVuSans-6d" transform="translate(463.378906 0)"/>
      <use xlink:href="#DejaVuSans-69" transform="translate(560.791016 0)"/>
      <use xlink:href="#DejaVuSans-7a" transform="translate(588.574219 0)"/>
      <use xlink:href="#DejaVuSans-65" transform="translate(641.064453 0)"/>
      <use xlink:href="#DejaVuSans-72" transform="translate(702.587891 0)"/>
      <use xlink:href="#DejaVuSans-73" transform="translate(743.701172 0)"/>
     </g>
    </g>
    <g id="line2d_26">
     <path d="M 183.692031 341.447237 
L 193.692031 341.447237 
L 203.692031 341.447237 
" style="fill: none; stroke: #9467bd; stroke-width: 1.5; stroke-linecap: square"/>
     <g>
      <use xlink:href="#ma4002bef22" x="193.692031" y="341.447237" style="fill: #9467bd; stroke: #ffffff; stroke-width: 0.75"/>
     </g>
    </g>
    <g id="text_17">
     <!-- Open-closed mod-minimizers -->
     <g transform="translate(211.692031 344.947237) scale(0.1 -0.1)">
      <defs>
       <path id="DejaVuSans-4f" d="M 2522 4238 
Q 1834 4238 1429 3725 
Q 1025 3213 1025 2328 
Q 1025 1447 1429 934 
Q 1834 422 2522 422 
Q 3209 422 3611 934 
Q 4013 1447 4013 2328 
Q 4013 3213 3611 3725 
Q 3209 4238 2522 4238 
z
M 2522 4750 
Q 3503 4750 4090 4092 
Q 4678 3434 4678 2328 
Q 4678 1225 4090 567 
Q 3503 -91 2522 -91 
Q 1538 -91 948 565 
Q 359 1222 359 2328 
Q 359 3434 948 4092 
Q 1538 4750 2522 4750 
z
" transform="scale(0.015625)"/>
       <path id="DejaVuSans-70" d="M 1159 525 
L 1159 -1331 
L 581 -1331 
L 581 3500 
L 1159 3500 
L 1159 2969 
Q 1341 3281 1617 3432 
Q 1894 3584 2278 3584 
Q 2916 3584 3314 3078 
Q 3713 2572 3713 1747 
Q 3713 922 3314 415 
Q 2916 -91 2278 -91 
Q 1894 -91 1617 61 
Q 1341 213 1159 525 
z
M 3116 1747 
Q 3116 2381 2855 2742 
Q 2594 3103 2138 3103 
Q 1681 3103 1420 2742 
Q 1159 2381 1159 1747 
Q 1159 1113 1420 752 
Q 1681 391 2138 391 
Q 2594 391 2855 752 
Q 3116 1113 3116 1747 
z
" transform="scale(0.015625)"/>
      </defs>
      <use xlink:href="#DejaVuSans-4f"/>
      <use xlink:href="#DejaVuSans-70" transform="translate(78.710938 0)"/>
      <use xlink:href="#DejaVuSans-65" transform="translate(142.1875 0)"/>
      <use xlink:href="#DejaVuSans-6e" transform="translate(203.710938 0)"/>
      <use xlink:href="#DejaVuSans-2d" transform="translate(267.089844 0)"/>
      <use xlink:href="#DejaVuSans-63" transform="translate(303.173828 0)"/>
      <use xlink:href="#DejaVuSans-6c" transform="translate(358.154297 0)"/>
      <use xlink:href="#DejaVuSans-6f" transform="translate(385.9375 0)"/>
      <use xlink:href="#DejaVuSans-73" transform="translate(447.119141 0)"/>
      <use xlink:href="#DejaVuSans-65" transform="translate(499.21875 0)"/>
      <use xlink:href="#DejaVuSans-64" transform="translate(560.742188 0)"/>
      <use xlink:href="#DejaVuSans-20" transform="translate(624.21875 0)"/>
      <use xlink:href="#DejaVuSans-6d" transform="translate(656.005859 0)"/>
      <use xlink:href="#DejaVuSans-6f" transform="translate(753.417969 0)"/>
      <use xlink:href="#DejaVuSans-64" transform="translate(814.599609 0)"/>
      <use xlink:href="#DejaVuSans-2d" transform="translate(878.076172 0)"/>
      <use xlink:href="#DejaVuSans-6d" transform="translate(914.160156 0)"/>
      <use xlink:href="#DejaVuSans-69" transform="translate(1011.572266 0)"/>
      <use xlink:href="#DejaVuSans-6e" transform="translate(1039.355469 0)"/>
      <use xlink:href="#DejaVuSans-69" transform="translate(1102.734375 0)"/>
      <use xlink:href="#DejaVuSans-6d" transform="translate(1130.517578 0)"/>
      <use xlink:href="#DejaVuSans-69" transform="translate(1227.929688 0)"/>
      <use xlink:href="#DejaVuSans-7a" transform="translate(1255.712891 0)"/>
      <use xlink:href="#DejaVuSans-65" transform="translate(1308.203125 0)"/>
      <use xlink:href="#DejaVuSans-72" transform="translate(1369.726562 0)"/>
      <use xlink:href="#DejaVuSans-73" transform="translate(1410.839844 0)"/>
     </g>
    </g>
    <g id="line2d_27">
     <path d="M 183.692031 356.125362 
L 193.692031 356.125362 
L 203.692031 356.125362 
" style="fill: none; stroke-dasharray: 7.4,3.2; stroke-dashoffset: 0; stroke: #000000; stroke-width: 2"/>
    </g>
    <g id="text_18">
     <!-- First lower bound for forward schemes -->
     <g transform="translate(211.692031 359.625362) scale(0.1 -0.1)">
      <defs>
       <path id="DejaVuSans-46" d="M 628 4666 
L 3309 4666 
L 3309 4134 
L 1259 4134 
L 1259 2759 
L 3109 2759 
L 3109 2228 
L 1259 2228 
L 1259 0 
L 628 0 
L 628 4666 
z
" transform="scale(0.015625)"/>
       <path id="DejaVuSans-77" d="M 269 3500 
L 844 3500 
L 1563 769 
L 2278 3500 
L 2956 3500 
L 3675 769 
L 4391 3500 
L 4966 3500 
L 4050 0 
L 3372 0 
L 2619 2869 
L 1863 0 
L 1184 0 
L 269 3500 
z
" transform="scale(0.015625)"/>
       <path id="DejaVuSans-66" d="M 2375 4863 
L 2375 4384 
L 1825 4384 
Q 1516 4384 1395 4259 
Q 1275 4134 1275 3809 
L 1275 3500 
L 2222 3500 
L 2222 3053 
L 1275 3053 
L 1275 0 
L 697 0 
L 697 3053 
L 147 3053 
L 147 3500 
L 697 3500 
L 697 3744 
Q 697 4328 969 4595 
Q 1241 4863 1831 4863 
L 2375 4863 
z
" transform="scale(0.015625)"/>
      </defs>
      <use xlink:href="#DejaVuSans-46"/>
      <use xlink:href="#DejaVuSans-69" transform="translate(50.269531 0)"/>
      <use xlink:href="#DejaVuSans-72" transform="translate(78.052734 0)"/>
      <use xlink:href="#DejaVuSans-73" transform="translate(119.166016 0)"/>
      <use xlink:href="#DejaVuSans-74" transform="translate(171.265625 0)"/>
      <use xlink:href="#DejaVuSans-20" transform="translate(210.474609 0)"/>
      <use xlink:href="#DejaVuSans-6c" transform="translate(242.261719 0)"/>
      <use xlink:href="#DejaVuSans-6f" transform="translate(270.044922 0)"/>
      <use xlink:href="#DejaVuSans-77" transform="translate(331.226562 0)"/>
      <use xlink:href="#DejaVuSans-65" transform="translate(413.013672 0)"/>
      <use xlink:href="#DejaVuSans-72" transform="translate(474.537109 0)"/>
      <use xlink:href="#DejaVuSans-20" transform="translate(515.650391 0)"/>
      <use xlink:href="#DejaVuSans-62" transform="translate(547.4375 0)"/>
      <use xlink:href="#DejaVuSans-6f" transform="translate(610.914062 0)"/>
      <use xlink:href="#DejaVuSans-75" transform="translate(672.095703 0)"/>
      <use xlink:href="#DejaVuSans-6e" transform="translate(735.474609 0)"/>
      <use xlink:href="#DejaVuSans-64" transform="translate(798.853516 0)"/>
      <use xlink:href="#DejaVuSans-20" transform="translate(862.330078 0)"/>
      <use xlink:href="#DejaVuSans-66" transform="translate(894.117188 0)"/>
      <use xlink:href="#DejaVuSans-6f" transform="translate(929.322266 0)"/>
      <use xlink:href="#DejaVuSans-72" transform="translate(990.503906 0)"/>
      <use xlink:href="#DejaVuSans-20" transform="translate(1031.617188 0)"/>
      <use xlink:href="#DejaVuSans-66" transform="translate(1063.404297 0)"/>
      <use xlink:href="#DejaVuSans-6f" transform="translate(1098.609375 0)"/>
      <use xlink:href="#DejaVuSans-72" transform="translate(1159.791016 0)"/>
      <use xlink:href="#DejaVuSans-77" transform="translate(1200.904297 0)"/>
      <use xlink:href="#DejaVuSans-61" transform="translate(1282.691406 0)"/>
      <use xlink:href="#DejaVuSans-72" transform="translate(1343.970703 0)"/>
      <use xlink:href="#DejaVuSans-64" transform="translate(1383.333984 0)"/>
      <use xlink:href="#DejaVuSans-20" transform="translate(1446.810547 0)"/>
      <use xlink:href="#DejaVuSans-73" transform="translate(1478.597656 0)"/>
      <use xlink:href="#DejaVuSans-63" transform="translate(1530.697266 0)"/>
      <use xlink:href="#DejaVuSans-68" transform="translate(1585.677734 0)"/>
      <use xlink:href="#DejaVuSans-65" transform="translate(1649.056641 0)"/>
      <use xlink:href="#DejaVuSans-6d" transform="translate(1710.580078 0)"/>
      <use xlink:href="#DejaVuSans-65" transform="translate(1807.992188 0)"/>
      <use xlink:href="#DejaVuSans-73" transform="translate(1869.515625 0)"/>
     </g>
    </g>
    <g id="line2d_28">
     <path d="M 183.692031 370.803487 
L 193.692031 370.803487 
L 203.692031 370.803487 
" style="fill: none; stroke: #000000; stroke-width: 2; stroke-linecap: square"/>
    </g>
    <g id="text_19">
     <!-- Smoothed lower bound for forward schemes -->
     <g transform="translate(211.692031 374.303487) scale(0.1 -0.1)">
      <defs>
       <path id="DejaVuSans-53" d="M 3425 4513 
L 3425 3897 
Q 3066 4069 2747 4153 
Q 2428 4238 2131 4238 
Q 1616 4238 1336 4038 
Q 1056 3838 1056 3469 
Q 1056 3159 1242 3001 
Q 1428 2844 1947 2747 
L 2328 2669 
Q 3034 2534 3370 2195 
Q 3706 1856 3706 1288 
Q 3706 609 3251 259 
Q 2797 -91 1919 -91 
Q 1588 -91 1214 -16 
Q 841 59 441 206 
L 441 856 
Q 825 641 1194 531 
Q 1563 422 1919 422 
Q 2459 422 2753 634 
Q 3047 847 3047 1241 
Q 3047 1584 2836 1778 
Q 2625 1972 2144 2069 
L 1759 2144 
Q 1053 2284 737 2584 
Q 422 2884 422 3419 
Q 422 4038 858 4394 
Q 1294 4750 2059 4750 
Q 2388 4750 2728 4690 
Q 3069 4631 3425 4513 
z
" transform="scale(0.015625)"/>
      </defs>
      <use xlink:href="#DejaVuSans-53"/>
      <use xlink:href="#DejaVuSans-6d" transform="translate(63.476562 0)"/>
      <use xlink:href="#DejaVuSans-6f" transform="translate(160.888672 0)"/>
      <use xlink:href="#DejaVuSans-6f" transform="translate(222.070312 0)"/>
      <use xlink:href="#DejaVuSans-74" transform="translate(283.251953 0)"/>
      <use xlink:href="#DejaVuSans-68" transform="translate(322.460938 0)"/>
      <use xlink:href="#DejaVuSans-65" transform="translate(385.839844 0)"/>
      <use xlink:href="#DejaVuSans-64" transform="translate(447.363281 0)"/>
      <use xlink:href="#DejaVuSans-20" transform="translate(510.839844 0)"/>
      <use xlink:href="#DejaVuSans-6c" transform="translate(542.626953 0)"/>
      <use xlink:href="#DejaVuSans-6f" transform="translate(570.410156 0)"/>
      <use xlink:href="#DejaVuSans-77" transform="translate(631.591797 0)"/>
      <use xlink:href="#DejaVuSans-65" transform="translate(713.378906 0)"/>
      <use xlink:href="#DejaVuSans-72" transform="translate(774.902344 0)"/>
      <use xlink:href="#DejaVuSans-20" transform="translate(816.015625 0)"/>
      <use xlink:href="#DejaVuSans-62" transform="translate(847.802734 0)"/>
      <use xlink:href="#DejaVuSans-6f" transform="translate(911.279297 0)"/>
      <use xlink:href="#DejaVuSans-75" transform="translate(972.460938 0)"/>
      <use xlink:href="#DejaVuSans-6e" transform="translate(1035.839844 0)"/>
      <use xlink:href="#DejaVuSans-64" transform="translate(1099.21875 0)"/>
      <use xlink:href="#DejaVuSans-20" transform="translate(1162.695312 0)"/>
      <use xlink:href="#DejaVuSans-66" transform="translate(1194.482422 0)"/>
      <use xlink:href="#DejaVuSans-6f" transform="translate(1229.6875 0)"/>
      <use xlink:href="#DejaVuSans-72" transform="translate(1290.869141 0)"/>
      <use xlink:href="#DejaVuSans-20" transform="translate(1331.982422 0)"/>
      <use xlink:href="#DejaVuSans-66" transform="translate(1363.769531 0)"/>
      <use xlink:href="#DejaVuSans-6f" transform="translate(1398.974609 0)"/>
      <use xlink:href="#DejaVuSans-72" transform="translate(1460.15625 0)"/>
      <use xlink:href="#DejaVuSans-77" transform="translate(1501.269531 0)"/>
      <use xlink:href="#DejaVuSans-61" transform="translate(1583.056641 0)"/>
      <use xlink:href="#DejaVuSans-72" transform="translate(1644.335938 0)"/>
      <use xlink:href="#DejaVuSans-64" transform="translate(1683.699219 0)"/>
      <use xlink:href="#DejaVuSans-20" transform="translate(1747.175781 0)"/>
      <use xlink:href="#DejaVuSans-73" transform="translate(1778.962891 0)"/>
      <use xlink:href="#DejaVuSans-63" transform="translate(1831.0625 0)"/>
      <use xlink:href="#DejaVuSans-68" transform="translate(1886.042969 0)"/>
      <use xlink:href="#DejaVuSans-65" transform="translate(1949.421875 0)"/>
      <use xlink:href="#DejaVuSans-6d" transform="translate(2010.945312 0)"/>
      <use xlink:href="#DejaVuSans-65" transform="translate(2108.357422 0)"/>
      <use xlink:href="#DejaVuSans-73" transform="translate(2169.880859 0)"/>
     </g>
    </g>
   </g>
  </g>
 </g>
 <defs>
  <clipPath id="p725056fbf8">
   <rect x="56.50625" y="22.32" width="357.12" height="266.112"/>
  </clipPath>
 </defs>
</svg>
