<?xml version="1.0" encoding="UTF-8" standalone="no"?>
<svg
   width="390pt"
   height="234.95999pt"
   viewBox="0 0 390 234.95999"
   version="1.1"
   id="svg194"
   xmlns:xlink="http://www.w3.org/1999/xlink"
   xmlns="http://www.w3.org/2000/svg"
   xmlns:svg="http://www.w3.org/2000/svg">
  <defs
     id="defs36">
    <g
       id="g34">
      <g
         id="glyph-0-0">
        <path
           d="M 7.519531 0.277344 C 6.214844 0.277344 5.082031 -0.0351562 4.121094 -0.667969 C 3.15625 -1.296875 2.414062 -2.246094 1.886719 -3.511719 C 1.359375 -4.773438 1.09375 -6.359375 1.09375 -8.261719 C 1.09375 -9.679688 1.285156 -10.925781 1.664062 -11.988281 C 2.042969 -13.054688 2.558594 -13.941406 3.210938 -14.648438 C 3.863281 -15.359375 4.601562 -15.890625 5.429688 -16.246094 C 6.253906 -16.601562 7.113281 -16.777344 8 -16.777344 C 9.082031 -16.777344 9.972656 -16.621094 10.683594 -16.316406 C 11.390625 -16.007812 12.066406 -15.554688 12.714844 -14.957031 L 11.457031 -13.65625 C 10.953125 -14.128906 10.425781 -14.476562 9.867188 -14.695312 C 9.3125 -14.917969 8.691406 -15.03125 8.007812 -15.03125 C 7.410156 -15.03125 6.832031 -14.914062 6.273438 -14.679688 C 5.714844 -14.449219 5.210938 -14.074219 4.769531 -13.554688 C 4.324219 -13.035156 3.972656 -12.339844 3.710938 -11.476562 C 3.449219 -10.609375 3.316406 -9.539062 3.316406 -8.265625 C 3.316406 -6.671875 3.480469 -5.371094 3.8125 -4.371094 C 4.144531 -3.371094 4.636719 -2.640625 5.292969 -2.171875 C 5.949219 -1.707031 6.753906 -1.472656 7.710938 -1.472656 C 8.28125 -1.472656 8.824219 -1.539062 9.34375 -1.675781 C 9.863281 -1.808594 10.363281 -2.007812 10.84375 -2.269531 L 10.84375 -7.300781 L 7.605469 -7.300781 L 7.347656 -9.03125 L 12.917969 -9.03125 L 12.917969 -1.160156 C 12.171875 -0.757812 11.378906 -0.417969 10.539062 -0.140625 C 9.695312 0.136719 8.691406 0.277344 7.519531 0.277344 Z M 7.519531 0.277344 "
           id="path1" />
      </g>
      <g
         id="glyph-0-1">
        <path
           d="M 10.394531 -4.214844 L 3.863281 -4.214844 L 2.546875 0 L 0.492188 0 L 5.863281 -16.503906 L 8.519531 -16.503906 L 13.898438 0 L 11.714844 0 Z M 4.402344 -5.9375 L 9.859375 -5.9375 L 7.144531 -14.757812 Z M 4.402344 -5.9375 "
           id="path2" />
      </g>
      <g
         id="glyph-0-2">
        <path
           d="M 8.582031 -16.777344 C 9.664062 -16.777344 10.566406 -16.640625 11.292969 -16.367188 C 12.023438 -16.09375 12.710938 -15.695312 13.363281 -15.167969 L 12.199219 -13.8125 C 11.683594 -14.25 11.136719 -14.566406 10.554688 -14.753906 C 9.976562 -14.941406 9.371094 -15.039062 8.734375 -15.039062 C 7.835938 -15.039062 7.003906 -14.824219 6.234375 -14.394531 C 5.464844 -13.964844 4.84375 -13.253906 4.378906 -12.269531 C 3.910156 -11.28125 3.679688 -9.945312 3.679688 -8.261719 C 3.679688 -6.617188 3.902344 -5.300781 4.347656 -4.316406 C 4.792969 -3.328125 5.394531 -2.613281 6.152344 -2.171875 C 6.914062 -1.726562 7.761719 -1.507812 8.695312 -1.507812 C 9.621094 -1.507812 10.378906 -1.648438 10.976562 -1.929688 C 11.574219 -2.210938 12.09375 -2.53125 12.53125 -2.890625 L 13.609375 -1.519531 C 13.105469 -1.035156 12.453125 -0.613281 11.644531 -0.257812 C 10.832031 0.101562 9.839844 0.277344 8.664062 0.277344 C 7.328125 0.277344 6.121094 -0.0507812 5.035156 -0.703125 C 3.953125 -1.359375 3.097656 -2.320312 2.464844 -3.589844 C 1.832031 -4.855469 1.515625 -6.414062 1.515625 -8.261719 C 1.515625 -10.113281 1.839844 -11.675781 2.488281 -12.9375 C 3.132812 -14.203125 3.992188 -15.15625 5.066406 -15.804688 C 6.140625 -16.453125 7.3125 -16.777344 8.582031 -16.777344 Z M 8.582031 -16.777344 "
           id="path3" />
      </g>
      <g
         id="glyph-0-3">
        <path
           d="M 8.191406 -14.726562 L 8.191406 0 L 6.117188 0 L 6.117188 -14.726562 L 0.957031 -14.726562 L 0.957031 -16.503906 L 13.417969 -16.503906 L 13.195312 -14.726562 Z M 8.191406 -14.726562 "
           id="path4" />
      </g>
      <g
         id="glyph-1-0">
        <path
           d="M 7.34375 0.25 C 5.375 0.25 3.832031 -0.453125 2.71875 -1.859375 C 1.601562 -3.265625 1.046875 -5.332031 1.046875 -8.0625 C 1.046875 -9.84375 1.359375 -11.351562 1.984375 -12.59375 C 2.609375 -13.84375 3.429688 -14.78125 4.453125 -15.40625 C 5.484375 -16.039062 6.601562 -16.359375 7.8125 -16.359375 C 8.820312 -16.359375 9.671875 -16.21875 10.359375 -15.9375 C 11.046875 -15.65625 11.722656 -15.207031 12.390625 -14.59375 L 11.171875 -13.328125 C 10.671875 -13.773438 10.148438 -14.109375 9.609375 -14.328125 C 9.078125 -14.546875 8.476562 -14.65625 7.8125 -14.65625 C 6.5 -14.65625 5.40625 -14.132812 4.53125 -13.09375 C 3.65625 -12.050781 3.21875 -10.375 3.21875 -8.0625 C 3.21875 -5.769531 3.570312 -4.09375 4.28125 -3.03125 C 5 -1.976562 6.070312 -1.453125 7.5 -1.453125 C 8.632812 -1.453125 9.65625 -1.707031 10.5625 -2.21875 L 10.5625 -7.109375 L 7.40625 -7.109375 L 7.171875 -8.8125 L 12.59375 -8.8125 L 12.59375 -1.140625 C 11.789062 -0.691406 10.976562 -0.347656 10.15625 -0.109375 C 9.332031 0.128906 8.394531 0.25 7.34375 0.25 Z M 7.34375 0.25 "
           id="path5" />
      </g>
      <g
         id="glyph-1-1">
        <path
           d="M 3.765625 -4.109375 L 2.484375 0 L 0.46875 0 L 5.734375 -16.109375 L 8.296875 -16.109375 L 13.53125 0 L 11.4375 0 L 10.140625 -4.109375 Z M 9.609375 -5.796875 L 6.96875 -14.375 L 4.296875 -5.796875 Z M 9.609375 -5.796875 "
           id="path6" />
      </g>
      <g
         id="glyph-1-2">
        <path
           d="M 8.375 -16.359375 C 9.363281 -16.359375 10.21875 -16.226562 10.9375 -15.96875 C 11.65625 -15.71875 12.359375 -15.328125 13.046875 -14.796875 L 11.890625 -13.46875 C 10.941406 -14.257812 9.816406 -14.65625 8.515625 -14.65625 C 7.054688 -14.65625 5.867188 -14.128906 4.953125 -13.078125 C 4.046875 -12.023438 3.59375 -10.351562 3.59375 -8.0625 C 3.59375 -5.789062 4.035156 -4.125 4.921875 -3.0625 C 5.816406 -2 7.003906 -1.46875 8.484375 -1.46875 C 9.296875 -1.46875 9.988281 -1.582031 10.5625 -1.8125 C 11.144531 -2.050781 11.695312 -2.382812 12.21875 -2.8125 L 13.28125 -1.5 C 12.082031 -0.332031 10.476562 0.25 8.46875 0.25 C 7.132812 0.25 5.9375 -0.0703125 4.875 -0.71875 C 3.820312 -1.363281 2.988281 -2.304688 2.375 -3.546875 C 1.769531 -4.796875 1.46875 -6.300781 1.46875 -8.0625 C 1.46875 -9.8125 1.773438 -11.3125 2.390625 -12.5625 C 3.003906 -13.820312 3.835938 -14.769531 4.890625 -15.40625 C 5.941406 -16.039062 7.101562 -16.359375 8.375 -16.359375 Z M 8.375 -16.359375 "
           id="path7" />
      </g>
      <g
         id="glyph-1-3">
        <path
           d="M 8 0 L 5.953125 0 L 5.953125 -14.359375 L 0.9375 -14.359375 L 0.9375 -16.109375 L 13.0625 -16.109375 L 12.859375 -14.359375 L 8 -14.359375 Z M 8 0 "
           id="path8" />
      </g>
      <g
         id="glyph-2-0">
        <path
           d="M 3.375 -5.546875 C 3.375 -4.460938 3.492188 -3.519531 3.734375 -2.71875 C 3.972656 -1.925781 4.332031 -1.207031 4.8125 -0.5625 C 5.300781 0.0820312 5.945312 0.765625 6.75 1.484375 L 6.0625 2.21875 C 5.132812 1.46875 4.375 0.726562 3.78125 0 C 3.195312 -0.726562 2.75 -1.539062 2.4375 -2.4375 C 2.132812 -3.332031 1.984375 -4.367188 1.984375 -5.546875 C 1.984375 -6.710938 2.132812 -7.742188 2.4375 -8.640625 C 2.75 -9.535156 3.195312 -10.347656 3.78125 -11.078125 C 4.375 -11.804688 5.132812 -12.546875 6.0625 -13.296875 L 6.75 -12.5625 C 5.9375 -11.84375 5.285156 -11.160156 4.796875 -10.515625 C 4.316406 -9.878906 3.957031 -9.160156 3.71875 -8.359375 C 3.488281 -7.566406 3.375 -6.628906 3.375 -5.546875 Z M 3.375 -5.546875 "
           id="path9" />
      </g>
      <g
         id="glyph-2-1">
        <path
           d="M 4.96875 0.171875 C 3.632812 0.171875 2.59375 -0.300781 1.84375 -1.25 C 1.09375 -2.207031 0.71875 -3.609375 0.71875 -5.453125 C 0.71875 -6.660156 0.925781 -7.6875 1.34375 -8.53125 C 1.769531 -9.375 2.328125 -10.007812 3.015625 -10.4375 C 3.710938 -10.863281 4.46875 -11.078125 5.28125 -11.078125 C 5.96875 -11.078125 6.539062 -10.984375 7 -10.796875 C 7.46875 -10.609375 7.929688 -10.300781 8.390625 -9.875 L 7.5625 -9.015625 C 7.226562 -9.328125 6.878906 -9.554688 6.515625 -9.703125 C 6.148438 -9.847656 5.738281 -9.921875 5.28125 -9.921875 C 4.394531 -9.921875 3.65625 -9.566406 3.0625 -8.859375 C 2.476562 -8.148438 2.1875 -7.015625 2.1875 -5.453125 C 2.1875 -3.910156 2.425781 -2.78125 2.90625 -2.0625 C 3.382812 -1.34375 4.109375 -0.984375 5.078125 -0.984375 C 5.847656 -0.984375 6.539062 -1.15625 7.15625 -1.5 L 7.15625 -4.8125 L 5.015625 -4.8125 L 4.859375 -5.96875 L 8.53125 -5.96875 L 8.53125 -0.78125 C 7.976562 -0.46875 7.425781 -0.226562 6.875 -0.0625 C 6.320312 0.0898438 5.6875 0.171875 4.96875 0.171875 Z M 4.96875 0.171875 "
           id="path10" />
      </g>
      <g
         id="glyph-2-2">
        <path
           d="M 2.546875 -2.78125 L 1.671875 0 L 0.3125 0 L 3.875 -10.90625 L 5.625 -10.90625 L 9.171875 0 L 7.734375 0 L 6.875 -2.78125 Z M 6.5 -3.921875 L 4.71875 -9.734375 L 2.90625 -3.921875 Z M 6.5 -3.921875 "
           id="path11" />
      </g>
      <g
         id="glyph-2-3">
        <path
           d="M 5.671875 -11.078125 C 6.335938 -11.078125 6.914062 -10.988281 7.40625 -10.8125 C 7.894531 -10.644531 8.367188 -10.378906 8.828125 -10.015625 L 8.0625 -9.109375 C 7.414062 -9.648438 6.648438 -9.921875 5.765625 -9.921875 C 4.785156 -9.921875 3.984375 -9.5625 3.359375 -8.84375 C 2.742188 -8.132812 2.4375 -7.003906 2.4375 -5.453125 C 2.4375 -3.921875 2.734375 -2.796875 3.328125 -2.078125 C 3.929688 -1.359375 4.738281 -1 5.75 -1 C 6.289062 -1 6.753906 -1.078125 7.140625 -1.234375 C 7.535156 -1.390625 7.914062 -1.613281 8.28125 -1.90625 L 8.984375 -1.015625 C 8.171875 -0.222656 7.085938 0.171875 5.734375 0.171875 C 4.835938 0.171875 4.03125 -0.046875 3.3125 -0.484375 C 2.59375 -0.921875 2.023438 -1.5625 1.609375 -2.40625 C 1.203125 -3.25 1 -4.265625 1 -5.453125 C 1 -6.640625 1.207031 -7.65625 1.625 -8.5 C 2.039062 -9.351562 2.601562 -9.992188 3.3125 -10.421875 C 4.03125 -10.859375 4.816406 -11.078125 5.671875 -11.078125 Z M 5.671875 -11.078125 "
           id="path12" />
      </g>
      <g
         id="glyph-2-4" />
      <g
         id="glyph-2-5">
        <path
           d="M 5.40625 0 L 4.03125 0 L 4.03125 -9.71875 L 0.640625 -9.71875 L 0.640625 -10.90625 L 8.84375 -10.90625 L 8.703125 -9.71875 L 5.40625 -9.71875 Z M 5.40625 0 "
           id="path13" />
      </g>
      <g
         id="glyph-2-6">
        <path
           d="M 6.125 -5.546875 C 6.125 -6.628906 6.003906 -7.566406 5.765625 -8.359375 C 5.523438 -9.160156 5.164062 -9.878906 4.6875 -10.515625 C 4.207031 -11.160156 3.5625 -11.84375 2.75 -12.5625 L 3.4375 -13.296875 C 4.363281 -12.546875 5.117188 -11.804688 5.703125 -11.078125 C 6.285156 -10.347656 6.734375 -9.535156 7.046875 -8.640625 C 7.359375 -7.742188 7.515625 -6.710938 7.515625 -5.546875 C 7.515625 -4.367188 7.359375 -3.332031 7.046875 -2.4375 C 6.734375 -1.539062 6.285156 -0.726562 5.703125 0 C 5.117188 0.726562 4.363281 1.46875 3.4375 2.21875 L 2.75 1.484375 C 3.550781 0.765625 4.191406 0.0820312 4.671875 -0.5625 C 5.148438 -1.207031 5.507812 -1.925781 5.75 -2.71875 C 6 -3.519531 6.125 -4.460938 6.125 -5.546875 Z M 6.125 -5.546875 "
           id="path14" />
      </g>
      <g
         id="glyph-2-7">
        <path
           d="M 7.8125 -5.859375 L 1.671875 -5.859375 L 1.671875 -7 L 7.8125 -7 Z M 7.8125 -2.84375 L 1.671875 -2.84375 L 1.671875 -3.984375 L 7.8125 -3.984375 Z M 7.8125 -2.84375 "
           id="path15" />
      </g>
      <g
         id="glyph-2-8">
        <path
           d="M 4.25 -11.078125 C 4.914062 -11.078125 5.503906 -10.953125 6.015625 -10.703125 C 6.523438 -10.453125 6.914062 -10.117188 7.1875 -9.703125 C 7.457031 -9.285156 7.59375 -8.832031 7.59375 -8.34375 C 7.59375 -7.707031 7.382812 -7.15625 6.96875 -6.6875 C 6.5625 -6.21875 6.0625 -5.925781 5.46875 -5.8125 C 6.15625 -5.757812 6.738281 -5.5 7.21875 -5.03125 C 7.707031 -4.570312 7.953125 -3.941406 7.953125 -3.140625 C 7.953125 -2.515625 7.789062 -1.945312 7.46875 -1.4375 C 7.15625 -0.9375 6.707031 -0.539062 6.125 -0.25 C 5.550781 0.0273438 4.894531 0.171875 4.15625 0.171875 C 3.519531 0.171875 2.898438 0.0507812 2.296875 -0.1875 C 1.703125 -0.425781 1.210938 -0.785156 0.828125 -1.265625 L 1.703125 -2 C 2.003906 -1.644531 2.367188 -1.375 2.796875 -1.1875 C 3.222656 -1.007812 3.664062 -0.921875 4.125 -0.921875 C 4.882812 -0.921875 5.476562 -1.117188 5.90625 -1.515625 C 6.332031 -1.910156 6.546875 -2.453125 6.546875 -3.140625 C 6.546875 -4.515625 5.796875 -5.203125 4.296875 -5.203125 L 3.390625 -5.203125 L 3.546875 -6.265625 L 4.1875 -6.265625 C 4.757812 -6.265625 5.242188 -6.425781 5.640625 -6.75 C 6.046875 -7.070312 6.25 -7.546875 6.25 -8.171875 C 6.25 -8.742188 6.054688 -9.191406 5.671875 -9.515625 C 5.285156 -9.835938 4.789062 -10 4.1875 -10 C 3.738281 -10 3.335938 -9.921875 2.984375 -9.765625 C 2.628906 -9.609375 2.265625 -9.351562 1.890625 -9 L 1.15625 -9.8125 C 2.039062 -10.65625 3.070312 -11.078125 4.25 -11.078125 Z M 4.25 -11.078125 "
           id="path16" />
      </g>
      <g
         id="glyph-2-9" />
      <g
         id="glyph-2-10">
        <path
           d="M 7.515625 -9.828125 L 3.21875 -9.828125 L 3.21875 -6.390625 C 3.519531 -6.566406 3.820312 -6.691406 4.125 -6.765625 C 4.425781 -6.835938 4.742188 -6.875 5.078125 -6.875 C 5.984375 -6.875 6.707031 -6.570312 7.25 -5.96875 C 7.800781 -5.363281 8.078125 -4.523438 8.078125 -3.453125 C 8.078125 -2.734375 7.925781 -2.097656 7.625 -1.546875 C 7.320312 -1.003906 6.890625 -0.582031 6.328125 -0.28125 C 5.773438 0.0195312 5.128906 0.171875 4.390625 0.171875 C 3.171875 0.171875 2.113281 -0.257812 1.21875 -1.125 L 2.046875 -1.9375 C 2.703125 -1.257812 3.484375 -0.921875 4.390625 -0.921875 C 5.109375 -0.921875 5.664062 -1.140625 6.0625 -1.578125 C 6.46875 -2.023438 6.671875 -2.664062 6.671875 -3.5 C 6.671875 -4.320312 6.492188 -4.914062 6.140625 -5.28125 C 5.785156 -5.644531 5.304688 -5.828125 4.703125 -5.828125 C 4.421875 -5.828125 4.160156 -5.800781 3.921875 -5.75 C 3.691406 -5.695312 3.382812 -5.597656 3 -5.453125 L 1.9375 -5.453125 L 1.9375 -10.90625 L 7.703125 -10.90625 Z M 7.515625 -9.828125 "
           id="path17" />
      </g>
      <g
         id="glyph-2-11">
        <path
           d="M 5.359375 -0.96875 C 6.085938 -0.96875 6.8125 -1.207031 7.53125 -1.6875 L 8.171875 -0.828125 C 7.816406 -0.515625 7.378906 -0.269531 6.859375 -0.09375 C 6.347656 0.0820312 5.847656 0.171875 5.359375 0.171875 C 4.128906 0.171875 3.164062 -0.210938 2.46875 -0.984375 C 1.78125 -1.765625 1.4375 -2.8125 1.4375 -4.125 C 1.4375 -4.957031 1.59375 -5.707031 1.90625 -6.375 C 2.21875 -7.039062 2.664062 -7.5625 3.25 -7.9375 C 3.84375 -8.320312 4.546875 -8.515625 5.359375 -8.515625 C 6.441406 -8.515625 7.375 -8.1875 8.15625 -7.53125 L 7.5 -6.65625 C 6.769531 -7.144531 6.050781 -7.390625 5.34375 -7.390625 C 4.59375 -7.390625 3.992188 -7.113281 3.546875 -6.5625 C 3.097656 -6.007812 2.875 -5.195312 2.875 -4.125 C 2.875 -3.0625 3.097656 -2.269531 3.546875 -1.75 C 3.992188 -1.226562 4.597656 -0.96875 5.359375 -0.96875 Z M 5.359375 -0.96875 "
           id="path18" />
      </g>
      <g
         id="glyph-2-12">
        <path
           d="M 4.84375 -2.0625 C 4.84375 -1.3125 5.300781 -0.9375 6.21875 -0.9375 C 6.65625 -0.9375 7.117188 -1.03125 7.609375 -1.21875 L 7.96875 -0.25 C 7.4375 0.0273438 6.773438 0.171875 5.984375 0.171875 C 5.234375 0.171875 4.632812 -0.03125 4.1875 -0.4375 C 3.738281 -0.851562 3.515625 -1.414062 3.515625 -2.125 L 3.515625 -10.640625 L 0.953125 -10.640625 L 0.953125 -11.703125 L 4.84375 -11.703125 Z M 4.84375 -2.0625 "
           id="path19" />
      </g>
      <g
         id="glyph-2-13">
        <path
           d="M 4.765625 -8.515625 C 5.910156 -8.515625 6.789062 -8.125 7.40625 -7.34375 C 8.03125 -6.570312 8.34375 -5.515625 8.34375 -4.171875 C 8.34375 -2.867188 8.023438 -1.816406 7.390625 -1.015625 C 6.765625 -0.222656 5.882812 0.171875 4.75 0.171875 C 3.59375 0.171875 2.703125 -0.210938 2.078125 -0.984375 C 1.460938 -1.765625 1.15625 -2.820312 1.15625 -4.15625 C 1.15625 -5.476562 1.46875 -6.535156 2.09375 -7.328125 C 2.71875 -8.117188 3.609375 -8.515625 4.765625 -8.515625 Z M 4.765625 -7.421875 C 4.035156 -7.421875 3.488281 -7.148438 3.125 -6.609375 C 2.769531 -6.078125 2.59375 -5.257812 2.59375 -4.15625 C 2.59375 -3.0625 2.769531 -2.25 3.125 -1.71875 C 3.476562 -1.1875 4.019531 -0.921875 4.75 -0.921875 C 5.476562 -0.921875 6.019531 -1.1875 6.375 -1.71875 C 6.726562 -2.25 6.90625 -3.066406 6.90625 -4.171875 C 6.90625 -5.273438 6.726562 -6.09375 6.375 -6.625 C 6.019531 -7.15625 5.484375 -7.421875 4.765625 -7.421875 Z M 4.765625 -7.421875 "
           id="path20" />
      </g>
      <g
         id="glyph-2-14">
        <path
           d="M 4.4375 -0.921875 C 5.0625 -0.921875 5.554688 -1.039062 5.921875 -1.28125 C 6.296875 -1.519531 6.484375 -1.84375 6.484375 -2.25 C 6.484375 -2.519531 6.4375 -2.742188 6.34375 -2.921875 C 6.25 -3.097656 6.054688 -3.253906 5.765625 -3.390625 C 5.484375 -3.535156 5.054688 -3.679688 4.484375 -3.828125 C 3.503906 -4.066406 2.78125 -4.359375 2.3125 -4.703125 C 1.851562 -5.046875 1.625 -5.554688 1.625 -6.234375 C 1.625 -6.929688 1.914062 -7.484375 2.5 -7.890625 C 3.082031 -8.304688 3.847656 -8.515625 4.796875 -8.515625 C 5.953125 -8.515625 6.960938 -8.207031 7.828125 -7.59375 L 7.234375 -6.671875 C 6.890625 -6.921875 6.523438 -7.109375 6.140625 -7.234375 C 5.765625 -7.367188 5.328125 -7.4375 4.828125 -7.4375 C 3.617188 -7.4375 3.015625 -7.070312 3.015625 -6.34375 C 3.015625 -6.09375 3.082031 -5.890625 3.21875 -5.734375 C 3.351562 -5.578125 3.570312 -5.4375 3.875 -5.3125 C 4.175781 -5.1875 4.625 -5.039062 5.21875 -4.875 C 6.125 -4.632812 6.800781 -4.328125 7.25 -3.953125 C 7.707031 -3.578125 7.9375 -3.03125 7.9375 -2.3125 C 7.9375 -1.476562 7.597656 -0.851562 6.921875 -0.4375 C 6.242188 -0.03125 5.414062 0.171875 4.4375 0.171875 C 3.125 0.171875 2.035156 -0.203125 1.171875 -0.953125 L 1.921875 -1.8125 C 2.253906 -1.539062 2.632812 -1.320312 3.0625 -1.15625 C 3.5 -1 3.957031 -0.921875 4.4375 -0.921875 Z M 4.4375 -0.921875 "
           id="path21" />
      </g>
      <g
         id="glyph-2-15">
        <path
           d="M 2.640625 -3.703125 C 2.671875 -2.785156 2.910156 -2.09375 3.359375 -1.625 C 3.804688 -1.164062 4.375 -0.9375 5.0625 -0.9375 C 5.476562 -0.9375 5.859375 -0.992188 6.203125 -1.109375 C 6.546875 -1.234375 6.910156 -1.421875 7.296875 -1.671875 L 7.921875 -0.796875 C 7.523438 -0.484375 7.078125 -0.242188 6.578125 -0.078125 C 6.078125 0.0859375 5.570312 0.171875 5.0625 0.171875 C 3.863281 0.171875 2.925781 -0.21875 2.25 -1 C 1.582031 -1.789062 1.25 -2.84375 1.25 -4.15625 C 1.25 -4.988281 1.394531 -5.734375 1.6875 -6.390625 C 1.988281 -7.054688 2.410156 -7.578125 2.953125 -7.953125 C 3.503906 -8.328125 4.144531 -8.515625 4.875 -8.515625 C 5.925781 -8.515625 6.753906 -8.144531 7.359375 -7.40625 C 7.972656 -6.675781 8.28125 -5.679688 8.28125 -4.421875 C 8.28125 -4.171875 8.269531 -3.929688 8.25 -3.703125 Z M 4.890625 -7.421875 C 4.242188 -7.421875 3.71875 -7.191406 3.3125 -6.734375 C 2.914062 -6.273438 2.691406 -5.601562 2.640625 -4.71875 L 6.984375 -4.71875 C 6.972656 -5.59375 6.78125 -6.257812 6.40625 -6.71875 C 6.039062 -7.1875 5.535156 -7.421875 4.890625 -7.421875 Z M 4.890625 -7.421875 "
           id="path22" />
      </g>
      <g
         id="glyph-2-16">
        <path
           d="M 7.921875 -11.703125 L 7.921875 0 L 6.75 0 L 6.609375 -1.09375 C 6.304688 -0.664062 5.953125 -0.347656 5.546875 -0.140625 C 5.148438 0.0664062 4.71875 0.171875 4.25 0.171875 C 3.195312 0.171875 2.40625 -0.210938 1.875 -0.984375 C 1.34375 -1.753906 1.078125 -2.8125 1.078125 -4.15625 C 1.078125 -4.988281 1.207031 -5.734375 1.46875 -6.390625 C 1.738281 -7.054688 2.117188 -7.578125 2.609375 -7.953125 C 3.097656 -8.328125 3.675781 -8.515625 4.34375 -8.515625 C 5.257812 -8.515625 6.003906 -8.179688 6.578125 -7.515625 L 6.578125 -11.859375 Z M 4.6875 -7.4375 C 3.988281 -7.4375 3.453125 -7.160156 3.078125 -6.609375 C 2.703125 -6.066406 2.515625 -5.25 2.515625 -4.15625 C 2.515625 -3.082031 2.6875 -2.269531 3.03125 -1.71875 C 3.375 -1.164062 3.875 -0.890625 4.53125 -0.890625 C 5.320312 -0.890625 6.003906 -1.332031 6.578125 -2.21875 L 6.578125 -6.359375 C 6.347656 -6.710938 6.066406 -6.976562 5.734375 -7.15625 C 5.410156 -7.34375 5.0625 -7.4375 4.6875 -7.4375 Z M 4.6875 -7.4375 "
           id="path23" />
      </g>
      <g
         id="glyph-2-17">
        <path
           d="M 5.609375 0.046875 C 5.273438 1.003906 4.820312 1.769531 4.25 2.34375 C 3.6875 2.914062 2.894531 3.253906 1.875 3.359375 L 1.671875 2.296875 C 2.234375 2.203125 2.679688 2.054688 3.015625 1.859375 C 3.347656 1.660156 3.609375 1.414062 3.796875 1.125 C 3.984375 0.84375 4.160156 0.46875 4.328125 0 L 3.875 0 L 0.984375 -8.34375 L 2.390625 -8.34375 L 4.78125 -1.015625 L 7.140625 -8.34375 L 8.515625 -8.34375 Z M 5.609375 0.046875 "
           id="path24" />
      </g>
      <g
         id="glyph-2-18">
        <path
           d="M 1.578125 -8.34375 L 2.71875 -8.34375 L 2.828125 -7.171875 C 3.160156 -7.585938 3.578125 -7.914062 4.078125 -8.15625 C 4.578125 -8.394531 5.082031 -8.515625 5.59375 -8.515625 C 7.15625 -8.515625 7.9375 -7.691406 7.9375 -6.046875 L 7.9375 0 L 6.59375 0 L 6.59375 -5.0625 C 6.59375 -5.6875 6.554688 -6.160156 6.484375 -6.484375 C 6.421875 -6.816406 6.289062 -7.0625 6.09375 -7.21875 C 5.894531 -7.375 5.585938 -7.453125 5.171875 -7.453125 C 4.722656 -7.453125 4.296875 -7.3125 3.890625 -7.03125 C 3.492188 -6.757812 3.164062 -6.4375 2.90625 -6.0625 L 2.90625 0 L 1.578125 0 Z M 1.578125 -8.34375 "
           id="path25" />
      </g>
      <g
         id="glyph-2-19">
        <path
           d="M 7.078125 -8.515625 C 7.546875 -8.515625 7.929688 -8.347656 8.234375 -8.015625 C 8.535156 -7.679688 8.6875 -7.078125 8.6875 -6.203125 L 8.6875 0 L 7.46875 0 L 7.46875 -5.984375 C 7.46875 -6.566406 7.429688 -6.957031 7.359375 -7.15625 C 7.285156 -7.363281 7.109375 -7.46875 6.828125 -7.46875 C 6.285156 -7.46875 5.796875 -7.132812 5.359375 -6.46875 L 5.359375 0 L 4.125 0 L 4.125 -5.984375 C 4.125 -6.566406 4.085938 -6.957031 4.015625 -7.15625 C 3.941406 -7.363281 3.765625 -7.46875 3.484375 -7.46875 C 2.941406 -7.46875 2.457031 -7.132812 2.03125 -6.46875 L 2.03125 0 L 0.8125 0 L 0.8125 -8.34375 L 1.84375 -8.34375 L 1.9375 -7.359375 C 2.1875 -7.734375 2.453125 -8.019531 2.734375 -8.21875 C 3.015625 -8.414062 3.347656 -8.515625 3.734375 -8.515625 C 4.515625 -8.515625 5.015625 -8.144531 5.234375 -7.40625 C 5.492188 -7.769531 5.765625 -8.046875 6.046875 -8.234375 C 6.328125 -8.421875 6.671875 -8.515625 7.078125 -8.515625 Z M 7.078125 -8.515625 "
           id="path26" />
      </g>
      <g
         id="glyph-2-20">
        <path
           d="M 7.21875 -8.515625 C 7.550781 -8.515625 7.941406 -8.457031 8.390625 -8.34375 L 8.203125 -5.515625 L 7.125 -5.515625 L 7.125 -7.296875 L 7.046875 -7.296875 C 5.753906 -7.296875 4.84375 -6.378906 4.3125 -4.546875 L 4.3125 -1.03125 L 6 -1.03125 L 6 0 L 1.65625 0 L 1.65625 -1.03125 L 2.96875 -1.03125 L 2.96875 -7.3125 L 1.65625 -7.3125 L 1.65625 -8.34375 L 3.96875 -8.34375 L 4.21875 -6.359375 C 4.5625 -7.078125 4.96875 -7.613281 5.4375 -7.96875 C 5.90625 -8.332031 6.5 -8.515625 7.21875 -8.515625 Z M 7.21875 -8.515625 "
           id="path27" />
      </g>
      <g
         id="glyph-2-21">
        <path
           d="M 5.3125 -8.515625 C 7.332031 -8.515625 8.34375 -7.066406 8.34375 -4.171875 C 8.34375 -2.859375 8.066406 -1.804688 7.515625 -1.015625 C 6.960938 -0.222656 6.164062 0.171875 5.125 0.171875 C 4.21875 0.171875 3.476562 -0.144531 2.90625 -0.78125 L 2.90625 3.203125 L 1.578125 3.359375 L 1.578125 -8.34375 L 2.71875 -8.34375 L 2.828125 -7.171875 C 3.140625 -7.597656 3.507812 -7.925781 3.9375 -8.15625 C 4.363281 -8.394531 4.820312 -8.515625 5.3125 -8.515625 Z M 5 -7.4375 C 4.582031 -7.4375 4.195312 -7.304688 3.84375 -7.046875 C 3.488281 -6.796875 3.175781 -6.484375 2.90625 -6.109375 L 2.90625 -1.984375 C 3.132812 -1.648438 3.410156 -1.390625 3.734375 -1.203125 C 4.066406 -1.023438 4.429688 -0.9375 4.828125 -0.9375 C 5.523438 -0.9375 6.046875 -1.203125 6.390625 -1.734375 C 6.734375 -2.265625 6.90625 -3.078125 6.90625 -4.171875 C 6.90625 -5.273438 6.75 -6.09375 6.4375 -6.625 C 6.132812 -7.164062 5.65625 -7.4375 5 -7.4375 Z M 5 -7.4375 "
           id="path28" />
      </g>
      <g
         id="glyph-2-22">
        <path
           d="M 7.5625 -1.8125 C 7.5625 -1.488281 7.613281 -1.25 7.71875 -1.09375 C 7.820312 -0.945312 8 -0.835938 8.25 -0.765625 L 7.921875 0.1875 C 7.097656 0.0820312 6.585938 -0.3125 6.390625 -1 C 6.097656 -0.613281 5.726562 -0.320312 5.28125 -0.125 C 4.832031 0.0703125 4.332031 0.171875 3.78125 0.171875 C 2.945312 0.171875 2.289062 -0.0546875 1.8125 -0.515625 C 1.332031 -0.984375 1.09375 -1.609375 1.09375 -2.390625 C 1.09375 -3.242188 1.425781 -3.898438 2.09375 -4.359375 C 2.769531 -4.828125 3.734375 -5.0625 4.984375 -5.0625 L 6.21875 -5.0625 L 6.21875 -5.75 C 6.21875 -6.332031 6.046875 -6.753906 5.703125 -7.015625 C 5.367188 -7.273438 4.878906 -7.40625 4.234375 -7.40625 C 3.609375 -7.40625 2.890625 -7.265625 2.078125 -6.984375 L 1.703125 -8 C 2.691406 -8.34375 3.609375 -8.515625 4.453125 -8.515625 C 5.460938 -8.515625 6.234375 -8.273438 6.765625 -7.796875 C 7.296875 -7.328125 7.5625 -6.671875 7.5625 -5.828125 Z M 4.109375 -0.828125 C 4.523438 -0.828125 4.921875 -0.929688 5.296875 -1.140625 C 5.671875 -1.347656 5.976562 -1.640625 6.21875 -2.015625 L 6.21875 -4.140625 L 5.015625 -4.140625 C 4.128906 -4.140625 3.488281 -3.992188 3.09375 -3.703125 C 2.707031 -3.410156 2.515625 -2.976562 2.515625 -2.40625 C 2.515625 -1.351562 3.046875 -0.828125 4.109375 -0.828125 Z M 4.109375 -0.828125 "
           id="path29" />
      </g>
      <g
         id="glyph-2-23">
        <path
           d="M 8.21875 -0.421875 C 7.925781 -0.234375 7.578125 -0.0859375 7.171875 0.015625 C 6.765625 0.117188 6.363281 0.171875 5.96875 0.171875 C 5.09375 0.171875 4.40625 -0.0546875 3.90625 -0.515625 C 3.414062 -0.972656 3.171875 -1.578125 3.171875 -2.328125 L 3.171875 -7.296875 L 1.25 -7.296875 L 1.25 -8.34375 L 3.171875 -8.34375 L 3.171875 -10.21875 L 4.5 -10.390625 L 4.5 -8.34375 L 7.390625 -8.34375 L 7.21875 -7.296875 L 4.5 -7.296875 L 4.5 -2.34375 C 4.5 -1.863281 4.625 -1.507812 4.875 -1.28125 C 5.125 -1.050781 5.53125 -0.9375 6.09375 -0.9375 C 6.664062 -0.9375 7.195312 -1.066406 7.6875 -1.328125 Z M 8.21875 -0.421875 "
           id="path30" />
      </g>
      <g
         id="glyph-2-24">
        <path
           d="M 2.90625 -2.421875 C 2.90625 -1.878906 3.019531 -1.484375 3.25 -1.234375 C 3.476562 -0.992188 3.835938 -0.875 4.328125 -0.875 C 4.765625 -0.875 5.1875 -1 5.59375 -1.25 C 6.007812 -1.5 6.335938 -1.816406 6.578125 -2.203125 L 6.578125 -8.34375 L 7.921875 -8.34375 L 7.921875 0 L 6.78125 0 L 6.65625 -1.125 C 6.332031 -0.707031 5.929688 -0.382812 5.453125 -0.15625 C 4.972656 0.0585938 4.484375 0.171875 3.984375 0.171875 C 3.191406 0.171875 2.59375 -0.0351562 2.1875 -0.453125 C 1.78125 -0.878906 1.578125 -1.488281 1.578125 -2.28125 L 1.578125 -8.34375 L 2.90625 -8.34375 Z M 2.90625 -2.421875 "
           id="path31" />
      </g>
      <g
         id="glyph-2-25">
        <path
           d="M 1.984375 -5.53125 L 7.515625 -5.53125 L 7.515625 -4.390625 L 1.984375 -4.390625 Z M 1.984375 -5.53125 "
           id="path32" />
      </g>
      <g
         id="glyph-3-0">
        <path
           d="M 3 0 L 1.671875 0 L 4.59375 -11.703125 L 5.96875 -11.859375 Z M 5.96875 -4.578125 L 9 0 L 7.25 0 L 4.296875 -4.5625 L 8.953125 -8.34375 L 10.65625 -8.34375 Z M 5.96875 -4.578125 "
           id="path33" />
      </g>
      <g
         id="glyph-3-1">
        <path
           d="M 5.890625 0 L 6.328125 -6.109375 L 3.625 0 L 1.78125 0 L 2.375 -8.34375 L 3.71875 -8.34375 L 2.90625 -0.828125 L 5.859375 -7.28125 L 7.4375 -7.28125 L 7.0625 -0.828125 L 10.03125 -8.34375 L 11.3125 -8.34375 L 7.765625 0 Z M 5.890625 0 "
           id="path34" />
      </g>
    </g>
    <clipPath
       id="clip-0">
      <path
         clip-rule="nonzero"
         d="M 0 0 L 390 0 L 390 234.714844 L 0 234.714844 Z M 0 0 "
         id="path35" />
    </clipPath>
    <clipPath
       id="clip-1">
      <path
         clip-rule="nonzero"
         d="M 168 196 L 215 196 L 215 234.714844 L 168 234.714844 Z M 168 196 "
         id="path36" />
    </clipPath>
  </defs>
  <g
     clip-path="url(#clip-0)"
     id="g37">
    <path
       fill-rule="nonzero"
       fill="rgb(100%, 100%, 100%)"
       fill-opacity="1"
       d="M 0 0 L 390 0 L 390 234.75 L 0 234.75 Z M 0 0 "
       id="path37" />
  </g>
  <path
     fill-rule="nonzero"
     fill="rgb(100%, 59.999084%, 59.999084%)"
     fill-opacity="1"
     d="M 14.753906 57.902344 L 57.910156 57.902344 L 57.910156 65.097656 L 14.753906 65.097656 Z M 14.753906 57.902344 "
     id="path38" />
  <path
     fill-rule="nonzero"
     fill="rgb(100%, 59.999084%, 59.999084%)"
     fill-opacity="1"
     d="M 14.753906 79.484375 L 57.910156 79.484375 L 57.910156 86.675781 L 14.753906 86.675781 Z M 14.753906 79.484375 "
     id="path39" />
  <path
     fill-rule="nonzero"
     fill="rgb(100%, 59.999084%, 59.999084%)"
     fill-opacity="1"
     d="M 57.910156 101.0625 L 101.070312 101.0625 L 101.070312 108.253906 L 57.910156 108.253906 Z M 57.910156 101.0625 "
     id="path40" />
  <path
     fill-rule="nonzero"
     fill="rgb(100%, 59.999084%, 59.999084%)"
     fill-opacity="1"
     d="M 57.910156 122.640625 L 101.070312 122.640625 L 101.070312 129.832031 L 57.910156 129.832031 Z M 57.910156 122.640625 "
     id="path41" />
  <path
     fill-rule="nonzero"
     fill="rgb(100%, 59.999084%, 59.999084%)"
     fill-opacity="1"
     d="M 115.453125 144.21875 L 158.613281 144.21875 L 158.613281 151.414062 L 115.453125 151.414062 Z M 115.453125 144.21875 "
     id="path42" />
  <path
     fill-rule="nonzero"
     fill="rgb(100%, 59.999084%, 59.999084%)"
     fill-opacity="1"
     d="M 115.453125 165.800781 L 158.613281 165.800781 L 158.613281 172.992188 L 115.453125 172.992188 Z M 115.453125 165.800781 "
     id="path43" />
  <g
     fill="rgb(0%, 0%, 0%)"
     fill-opacity="1"
     id="g43">
    <use
       xlink:href="#glyph-0-0"
       x="0.00677472"
       y="33.087843"
       id="use43" />
  </g>
  <g
     fill="rgb(0%, 0%, 0%)"
     fill-opacity="1"
     id="g44">
    <use
       xlink:href="#glyph-0-1"
       x="14.392797"
       y="33.087843"
       id="use44" />
  </g>
  <g
     fill="rgb(0%, 0%, 0%)"
     fill-opacity="1"
     id="g45">
    <use
       xlink:href="#glyph-0-2"
       x="28.77882"
       y="33.087843"
       id="use45" />
  </g>
  <g
     fill="rgb(0%, 0%, 0%)"
     fill-opacity="1"
     id="g46">
    <use
       xlink:href="#glyph-0-3"
       x="43.164843"
       y="33.087843"
       id="use46" />
  </g>
  <g
     fill="rgb(0%, 0%, 0%)"
     fill-opacity="1"
     id="g47">
    <use
       xlink:href="#glyph-0-1"
       x="57.550866"
       y="33.087843"
       id="use47" />
  </g>
  <g
     fill="rgb(0%, 0%, 0%)"
     fill-opacity="1"
     id="g48">
    <use
       xlink:href="#glyph-0-3"
       x="71.936889"
       y="33.087843"
       id="use48" />
  </g>
  <g
     fill="rgb(0%, 0%, 0%)"
     fill-opacity="1"
     id="g49">
    <use
       xlink:href="#glyph-0-0"
       x="86.322911"
       y="33.087843"
       id="use49" />
  </g>
  <g
     fill="rgb(0%, 0%, 0%)"
     fill-opacity="1"
     id="g50">
    <use
       xlink:href="#glyph-0-0"
       x="100.708934"
       y="33.087843"
       id="use50" />
  </g>
  <g
     fill="rgb(0%, 0%, 0%)"
     fill-opacity="1"
     id="g51">
    <use
       xlink:href="#glyph-0-1"
       x="115.094957"
       y="33.087843"
       id="use51" />
  </g>
  <g
     fill="rgb(0%, 0%, 0%)"
     fill-opacity="1"
     id="g52">
    <use
       xlink:href="#glyph-0-1"
       x="129.48098"
       y="33.087843"
       id="use52" />
  </g>
  <g
     fill="rgb(0%, 0%, 0%)"
     fill-opacity="1"
     id="g53">
    <use
       xlink:href="#glyph-0-2"
       x="143.867002"
       y="33.087843"
       id="use53" />
  </g>
  <g
     fill="rgb(0%, 0%, 0%)"
     fill-opacity="1"
     id="g54">
    <use
       xlink:href="#glyph-0-3"
       x="158.253025"
       y="33.087843"
       id="use54" />
  </g>
  <g
     fill="rgb(0%, 0%, 0%)"
     fill-opacity="1"
     id="g55">
    <use
       xlink:href="#glyph-0-3"
       x="172.639048"
       y="33.087843"
       id="use55" />
  </g>
  <g
     fill="rgb(0%, 0%, 0%)"
     fill-opacity="1"
     id="g62">
    <use
       xlink:href="#glyph-1-0"
       x="1.265552"
       y="61.859889"
       id="use56" />
    <use
       xlink:href="#glyph-1-1"
       x="15.291924"
       y="61.859889"
       id="use57" />
    <use
       xlink:href="#glyph-1-2"
       x="29.318296"
       y="61.859889"
       id="use58" />
    <use
       xlink:href="#glyph-1-3"
       x="43.344668"
       y="61.859889"
       id="use59" />
    <use
       xlink:href="#glyph-1-1"
       x="57.37104"
       y="61.859889"
       id="use60" />
    <use
       xlink:href="#glyph-1-3"
       x="71.397413"
       y="61.859889"
       id="use61" />
    <use
       xlink:href="#glyph-1-0"
       x="85.423785"
       y="61.859889"
       id="use62" />
  </g>
  <path
     fill-rule="nonzero"
     fill="rgb(100%, 59.999084%, 59.999084%)"
     fill-opacity="1"
     d="M 115.453125 187.378906 L 158.613281 187.378906 L 158.613281 194.570312 L 115.453125 194.570312 Z M 115.453125 187.378906 "
     id="path62" />
  <path
     fill-rule="nonzero"
     fill="rgb(100%, 59.999084%, 59.999084%)"
     fill-opacity="1"
     d="M 21.945312 0.359375 L 14.753906 14.746094 L 7.558594 0.359375 Z M 21.945312 0.359375 "
     id="path63" />
  <path
     fill-rule="nonzero"
     fill="rgb(100%, 59.999084%, 59.999084%)"
     fill-opacity="1"
     d="M 65.101562 0.359375 L 57.910156 14.746094 L 50.71875 0.359375 Z M 65.101562 0.359375 "
     id="path64" />
  <path
     fill-rule="nonzero"
     fill="rgb(100%, 59.999084%, 59.999084%)"
     fill-opacity="1"
     d="M 122.648438 0.359375 L 115.453125 14.746094 L 108.261719 0.359375 Z M 122.648438 0.359375 "
     id="path65" />
  <g
     fill="rgb(0%, 0%, 0%)"
     fill-opacity="1"
     id="g65">
    <use
       xlink:href="#glyph-2-0"
       x="108.90222"
       y="59.701985"
       id="use65" />
  </g>
  <g
     fill="rgb(0%, 0%, 0%)"
     fill-opacity="1"
     id="g66">
    <use
       xlink:href="#glyph-2-1"
       x="118.396993"
       y="59.701985"
       id="use66" />
  </g>
  <g
     fill="rgb(0%, 0%, 0%)"
     fill-opacity="1"
     id="g67">
    <use
       xlink:href="#glyph-2-2"
       x="127.891766"
       y="59.701985"
       id="use67" />
  </g>
  <g
     fill="rgb(0%, 0%, 0%)"
     fill-opacity="1"
     id="g68">
    <use
       xlink:href="#glyph-2-3"
       x="137.386538"
       y="59.701985"
       id="use68" />
  </g>
  <g
     fill="rgb(0%, 0%, 0%)"
     fill-opacity="1"
     id="g69">
    <use
       xlink:href="#glyph-2-4"
       x="146.881311"
       y="59.701985"
       id="use69" />
  </g>
  <g
     fill="rgb(0%, 0%, 0%)"
     fill-opacity="1"
     id="g70">
    <use
       xlink:href="#glyph-2-2"
       x="156.376084"
       y="59.701985"
       id="use70" />
  </g>
  <g
     fill="rgb(0%, 0%, 0%)"
     fill-opacity="1"
     id="g71">
    <use
       xlink:href="#glyph-2-3"
       x="165.870857"
       y="59.701985"
       id="use71" />
  </g>
  <g
     fill="rgb(0%, 0%, 0%)"
     fill-opacity="1"
     id="g72">
    <use
       xlink:href="#glyph-2-5"
       x="175.36563"
       y="59.701985"
       id="use72" />
  </g>
  <g
     fill="rgb(0%, 0%, 0%)"
     fill-opacity="1"
     id="g73">
    <use
       xlink:href="#glyph-2-4"
       x="184.860402"
       y="59.701985"
       id="use73" />
  </g>
  <g
     fill="rgb(0%, 0%, 0%)"
     fill-opacity="1"
     id="g74">
    <use
       xlink:href="#glyph-2-3"
       x="194.355175"
       y="59.701985"
       id="use74" />
  </g>
  <g
     fill="rgb(0%, 0%, 0%)"
     fill-opacity="1"
     id="g75">
    <use
       xlink:href="#glyph-2-5"
       x="203.849948"
       y="59.701985"
       id="use75" />
  </g>
  <g
     fill="rgb(0%, 0%, 0%)"
     fill-opacity="1"
     id="g76">
    <use
       xlink:href="#glyph-2-2"
       x="213.344721"
       y="59.701985"
       id="use76" />
  </g>
  <g
     fill="rgb(0%, 0%, 0%)"
     fill-opacity="1"
     id="g77">
    <use
       xlink:href="#glyph-2-4"
       x="222.839493"
       y="59.701985"
       id="use77" />
  </g>
  <g
     fill="rgb(0%, 0%, 0%)"
     fill-opacity="1"
     id="g78">
    <use
       xlink:href="#glyph-2-5"
       x="232.334266"
       y="59.701985"
       id="use78" />
  </g>
  <g
     fill="rgb(0%, 0%, 0%)"
     fill-opacity="1"
     id="g79">
    <use
       xlink:href="#glyph-2-2"
       x="241.829039"
       y="59.701985"
       id="use79" />
  </g>
  <g
     fill="rgb(0%, 0%, 0%)"
     fill-opacity="1"
     id="g80">
    <use
       xlink:href="#glyph-2-5"
       x="251.323812"
       y="59.701985"
       id="use80" />
  </g>
  <g
     fill="rgb(0%, 0%, 0%)"
     fill-opacity="1"
     id="g81">
    <use
       xlink:href="#glyph-2-4"
       x="260.818585"
       y="59.701985"
       id="use81" />
  </g>
  <g
     fill="rgb(0%, 0%, 0%)"
     fill-opacity="1"
     id="g82">
    <use
       xlink:href="#glyph-2-2"
       x="270.313357"
       y="59.701985"
       id="use82" />
  </g>
  <g
     fill="rgb(0%, 0%, 0%)"
     fill-opacity="1"
     id="g83">
    <use
       xlink:href="#glyph-2-5"
       x="279.80813"
       y="59.701985"
       id="use83" />
  </g>
  <g
     fill="rgb(0%, 0%, 0%)"
     fill-opacity="1"
     id="g84">
    <use
       xlink:href="#glyph-2-1"
       x="289.302903"
       y="59.701985"
       id="use84" />
  </g>
  <g
     fill="rgb(0%, 0%, 0%)"
     fill-opacity="1"
     id="g85">
    <use
       xlink:href="#glyph-2-6"
       x="298.797676"
       y="59.701985"
       id="use85" />
  </g>
  <g
     fill="rgb(0%, 0%, 0%)"
     fill-opacity="1"
     id="g86">
    <use
       xlink:href="#glyph-3-0"
       x="196.937939"
       y="41.719457"
       id="use86" />
  </g>
  <g
     fill="rgb(0%, 0%, 0%)"
     fill-opacity="1"
     id="g87">
    <use
       xlink:href="#glyph-2-7"
       x="206.434959"
       y="41.719457"
       id="use87" />
  </g>
  <g
     fill="rgb(0%, 0%, 0%)"
     fill-opacity="1"
     id="g88">
    <use
       xlink:href="#glyph-2-8"
       x="215.929731"
       y="41.719457"
       id="use88" />
  </g>
  <g
     fill="rgb(0%, 0%, 0%)"
     fill-opacity="1"
     id="g89">
    <use
       xlink:href="#glyph-2-9"
       x="225.424504"
       y="41.719457"
       id="use89" />
  </g>
  <g
     fill="rgb(0%, 0%, 0%)"
     fill-opacity="1"
     id="g90">
    <use
       xlink:href="#glyph-3-1"
       x="234.926031"
       y="41.719457"
       id="use90" />
  </g>
  <g
     fill="rgb(0%, 0%, 0%)"
     fill-opacity="1"
     id="g91">
    <use
       xlink:href="#glyph-2-7"
       x="244.42305"
       y="41.719457"
       id="use91" />
  </g>
  <g
     fill="rgb(0%, 0%, 0%)"
     fill-opacity="1"
     id="g92">
    <use
       xlink:href="#glyph-2-10"
       x="253.917823"
       y="41.719457"
       id="use92" />
  </g>
  <g
     fill="rgb(0%, 0%, 0%)"
     fill-opacity="1"
     id="g99">
    <use
       xlink:href="#glyph-1-1"
       x="15.651574"
       y="83.438923"
       id="use93" />
    <use
       xlink:href="#glyph-1-2"
       x="29.677947"
       y="83.438923"
       id="use94" />
    <use
       xlink:href="#glyph-1-3"
       x="43.704319"
       y="83.438923"
       id="use95" />
    <use
       xlink:href="#glyph-1-1"
       x="57.730691"
       y="83.438923"
       id="use96" />
    <use
       xlink:href="#glyph-1-3"
       x="71.757063"
       y="83.438923"
       id="use97" />
    <use
       xlink:href="#glyph-1-0"
       x="85.783435"
       y="83.438923"
       id="use98" />
    <use
       xlink:href="#glyph-1-0"
       x="99.809808"
       y="83.438923"
       id="use99" />
  </g>
  <g
     fill="rgb(0%, 0%, 0%)"
     fill-opacity="1"
     id="g106">
    <use
       xlink:href="#glyph-1-2"
       x="30.037597"
       y="105.017957"
       id="use100" />
    <use
       xlink:href="#glyph-1-3"
       x="44.063969"
       y="105.017957"
       id="use101" />
    <use
       xlink:href="#glyph-1-1"
       x="58.090342"
       y="105.017957"
       id="use102" />
    <use
       xlink:href="#glyph-1-3"
       x="72.116714"
       y="105.017957"
       id="use103" />
    <use
       xlink:href="#glyph-1-0"
       x="86.143086"
       y="105.017957"
       id="use104" />
    <use
       xlink:href="#glyph-1-0"
       x="100.169458"
       y="105.017957"
       id="use105" />
    <use
       xlink:href="#glyph-1-1"
       x="114.19583"
       y="105.017957"
       id="use106" />
  </g>
  <g
     fill="rgb(0%, 0%, 0%)"
     fill-opacity="1"
     id="g113">
    <use
       xlink:href="#glyph-1-3"
       x="44.42362"
       y="126.596991"
       id="use107" />
    <use
       xlink:href="#glyph-1-1"
       x="58.449992"
       y="126.596991"
       id="use108" />
    <use
       xlink:href="#glyph-1-3"
       x="72.476364"
       y="126.596991"
       id="use109" />
    <use
       xlink:href="#glyph-1-0"
       x="86.502737"
       y="126.596991"
       id="use110" />
    <use
       xlink:href="#glyph-1-0"
       x="100.529109"
       y="126.596991"
       id="use111" />
    <use
       xlink:href="#glyph-1-1"
       x="114.555481"
       y="126.596991"
       id="use112" />
    <use
       xlink:href="#glyph-1-1"
       x="128.581853"
       y="126.596991"
       id="use113" />
  </g>
  <g
     fill="rgb(0%, 0%, 0%)"
     fill-opacity="1"
     id="g120">
    <use
       xlink:href="#glyph-1-1"
       x="58.809643"
       y="148.176025"
       id="use114" />
    <use
       xlink:href="#glyph-1-3"
       x="72.836015"
       y="148.176025"
       id="use115" />
    <use
       xlink:href="#glyph-1-0"
       x="86.862387"
       y="148.176025"
       id="use116" />
    <use
       xlink:href="#glyph-1-0"
       x="100.888759"
       y="148.176025"
       id="use117" />
    <use
       xlink:href="#glyph-1-1"
       x="114.915132"
       y="148.176025"
       id="use118" />
    <use
       xlink:href="#glyph-1-1"
       x="128.941504"
       y="148.176025"
       id="use119" />
    <use
       xlink:href="#glyph-1-2"
       x="142.967876"
       y="148.176025"
       id="use120" />
  </g>
  <g
     fill="rgb(0%, 0%, 0%)"
     fill-opacity="1"
     id="g127">
    <use
       xlink:href="#glyph-1-3"
       x="73.195666"
       y="169.755059"
       id="use121" />
    <use
       xlink:href="#glyph-1-0"
       x="87.222038"
       y="169.755059"
       id="use122" />
    <use
       xlink:href="#glyph-1-0"
       x="101.24841"
       y="169.755059"
       id="use123" />
    <use
       xlink:href="#glyph-1-1"
       x="115.274782"
       y="169.755059"
       id="use124" />
    <use
       xlink:href="#glyph-1-1"
       x="129.301154"
       y="169.755059"
       id="use125" />
    <use
       xlink:href="#glyph-1-2"
       x="143.327526"
       y="169.755059"
       id="use126" />
    <use
       xlink:href="#glyph-1-3"
       x="157.353899"
       y="169.755059"
       id="use127" />
  </g>
  <g
     fill="rgb(0%, 0%, 0%)"
     fill-opacity="1"
     id="g134">
    <use
       xlink:href="#glyph-1-0"
       x="87.581688"
       y="190.614792"
       id="use128" />
    <use
       xlink:href="#glyph-1-0"
       x="101.60806"
       y="190.614792"
       id="use129" />
    <use
       xlink:href="#glyph-1-1"
       x="115.634433"
       y="190.614792"
       id="use130" />
    <use
       xlink:href="#glyph-1-1"
       x="129.660805"
       y="190.614792"
       id="use131" />
    <use
       xlink:href="#glyph-1-2"
       x="143.687177"
       y="190.614792"
       id="use132" />
    <use
       xlink:href="#glyph-1-3"
       x="157.713549"
       y="190.614792"
       id="use133" />
    <use
       xlink:href="#glyph-1-3"
       x="171.739921"
       y="190.614792"
       id="use134" />
  </g>
  <path
     fill="none"
     stroke-width="2"
     stroke-linecap="butt"
     stroke-linejoin="miter"
     stroke="rgb(42.349243%, 55.688477%, 74.899292%)"
     stroke-opacity="1"
     stroke-miterlimit="10"
     d="M -639.999368 265.00102 L -791.757999 265.00102 "
     transform="matrix(0.719301, 0, 0, 0.719301, 690.535867, -115.088191)"
     id="path134" />
  <path
     fill-rule="nonzero"
     fill="rgb(42.349243%, 55.688477%, 74.899292%)"
     fill-opacity="1"
     stroke-width="2"
     stroke-linecap="butt"
     stroke-linejoin="miter"
     stroke="rgb(42.349243%, 55.688477%, 74.899292%)"
     stroke-opacity="1"
     stroke-miterlimit="10"
     d="M -797.758832 265.00102 L -789.759531 260.998654 L -791.757999 265.00102 L -789.759531 268.997955 Z M -797.758832 265.00102 "
     transform="matrix(0.719301, 0, 0, 0.719301, 690.535867, -115.088191)"
     id="path135" />
  <path
     fill="none"
     stroke-width="2"
     stroke-linecap="butt"
     stroke-linejoin="miter"
     stroke="rgb(42.349243%, 55.688477%, 74.899292%)"
     stroke-opacity="1"
     stroke-miterlimit="10"
     d="M -619.797467 275.400654 L -619.797467 355.002658 L -731.760527 355.002658 "
     transform="matrix(0.719301, 0, 0, 0.719301, 690.535867, -115.088191)"
     id="path136" />
  <path
     fill-rule="nonzero"
     fill="rgb(42.349243%, 55.688477%, 74.899292%)"
     fill-opacity="1"
     stroke-width="2"
     stroke-linecap="butt"
     stroke-linejoin="miter"
     stroke="rgb(42.349243%, 55.688477%, 74.899292%)"
     stroke-opacity="1"
     stroke-miterlimit="10"
     d="M -737.76136 355.002658 L -729.762059 351.000293 L -731.760527 355.002658 L -729.762059 358.999594 Z M -737.76136 355.002658 "
     transform="matrix(0.719301, 0, 0, 0.719301, 690.535867, -115.088191)"
     id="path137" />
  <path
     fill-rule="nonzero"
     fill="rgb(85.488892%, 90.979004%, 98.81897%)"
     fill-opacity="1"
     stroke-width="2"
     stroke-linecap="butt"
     stroke-linejoin="miter"
     stroke="rgb(42.349243%, 55.688477%, 74.899292%)"
     stroke-opacity="1"
     stroke-miterlimit="4"
     d="M -639.999368 254.99782 L -440.000553 254.99782 L -440.000553 274.998788 L -639.999368 274.998788 Z M -639.999368 254.99782 "
     transform="matrix(0.719301, 0, 0, 0.719301, 690.535867, -115.088191)"
     id="path138" />
  <g
     fill="rgb(0%, 0%, 0%)"
     fill-opacity="1"
     id="g138">
    <use
       xlink:href="#glyph-2-11"
       x="230.90244"
       y="81.281019"
       id="use138" />
  </g>
  <g
     fill="rgb(0%, 0%, 0%)"
     fill-opacity="1"
     id="g139">
    <use
       xlink:href="#glyph-2-12"
       x="240.397213"
       y="81.281019"
       id="use139" />
  </g>
  <g
     fill="rgb(0%, 0%, 0%)"
     fill-opacity="1"
     id="g140">
    <use
       xlink:href="#glyph-2-13"
       x="249.891986"
       y="81.281019"
       id="use140" />
  </g>
  <g
     fill="rgb(0%, 0%, 0%)"
     fill-opacity="1"
     id="g141">
    <use
       xlink:href="#glyph-2-14"
       x="259.386758"
       y="81.281019"
       id="use141" />
  </g>
  <g
     fill="rgb(0%, 0%, 0%)"
     fill-opacity="1"
     id="g142">
    <use
       xlink:href="#glyph-2-15"
       x="268.881531"
       y="81.281019"
       id="use142" />
  </g>
  <g
     fill="rgb(0%, 0%, 0%)"
     fill-opacity="1"
     id="g143">
    <use
       xlink:href="#glyph-2-16"
       x="278.376304"
       y="81.281019"
       id="use143" />
  </g>
  <g
     fill="rgb(0%, 0%, 0%)"
     fill-opacity="1"
     id="g144">
    <use
       xlink:href="#glyph-2-4"
       x="287.871077"
       y="81.281019"
       id="use144" />
  </g>
  <g
     fill="rgb(0%, 0%, 0%)"
     fill-opacity="1"
     id="g145">
    <use
       xlink:href="#glyph-2-14"
       x="297.36585"
       y="81.281019"
       id="use145" />
  </g>
  <g
     fill="rgb(0%, 0%, 0%)"
     fill-opacity="1"
     id="g146">
    <use
       xlink:href="#glyph-2-17"
       x="306.860622"
       y="81.281019"
       id="use146" />
  </g>
  <g
     fill="rgb(0%, 0%, 0%)"
     fill-opacity="1"
     id="g147">
    <use
       xlink:href="#glyph-2-18"
       x="316.355395"
       y="81.281019"
       id="use147" />
  </g>
  <g
     fill="rgb(0%, 0%, 0%)"
     fill-opacity="1"
     id="g148">
    <use
       xlink:href="#glyph-2-11"
       x="325.850168"
       y="81.281019"
       id="use148" />
  </g>
  <g
     fill="rgb(0%, 0%, 0%)"
     fill-opacity="1"
     id="g149">
    <use
       xlink:href="#glyph-2-19"
       x="335.344941"
       y="81.281019"
       id="use149" />
  </g>
  <g
     fill="rgb(0%, 0%, 0%)"
     fill-opacity="1"
     id="g150">
    <use
       xlink:href="#glyph-2-15"
       x="344.839714"
       y="81.281019"
       id="use150" />
  </g>
  <g
     fill="rgb(0%, 0%, 0%)"
     fill-opacity="1"
     id="g151">
    <use
       xlink:href="#glyph-2-20"
       x="354.334486"
       y="81.281019"
       id="use151" />
  </g>
  <g
     fill="rgb(0%, 0%, 0%)"
     fill-opacity="1"
     id="g152">
    <use
       xlink:href="#glyph-2-14"
       x="363.829259"
       y="81.281019"
       id="use152" />
  </g>
  <path
     fill="none"
     stroke-width="2"
     stroke-linecap="butt"
     stroke-linejoin="miter"
     stroke="rgb(83.918762%, 71.369934%, 33.729553%)"
     stroke-opacity="1"
     stroke-miterlimit="10"
     d="M -599.997432 294.999756 L -771.762462 294.999756 "
     transform="matrix(0.719301, 0, 0, 0.719301, 690.535867, -115.088191)"
     id="path152" />
  <path
     fill-rule="nonzero"
     fill="rgb(83.918762%, 71.369934%, 33.729553%)"
     fill-opacity="1"
     stroke-width="2"
     stroke-linecap="butt"
     stroke-linejoin="miter"
     stroke="rgb(83.918762%, 71.369934%, 33.729553%)"
     stroke-opacity="1"
     stroke-miterlimit="10"
     d="M -777.757865 294.999756 L -769.758564 290.99739 L -771.762462 294.999756 L -769.758564 299.002121 Z M -777.757865 294.999756 "
     transform="matrix(0.719301, 0, 0, 0.719301, 690.535867, -115.088191)"
     id="path153" />
  <path
     fill-rule="nonzero"
     fill="rgb(100%, 94.898987%, 79.998779%)"
     fill-opacity="1"
     stroke-width="2"
     stroke-linecap="butt"
     stroke-linejoin="miter"
     stroke="rgb(83.918762%, 71.369934%, 33.729553%)"
     stroke-opacity="1"
     stroke-miterlimit="4"
     d="M -599.997432 285.001987 L -419.999585 285.001987 L -419.999585 304.997524 L -599.997432 304.997524 Z M -599.997432 285.001987 "
     transform="matrix(0.719301, 0, 0, 0.719301, 690.535867, -115.088191)"
     id="path154" />
  <g
     fill="rgb(0%, 0%, 0%)"
     fill-opacity="1"
     id="g154">
    <use
       xlink:href="#glyph-2-13"
       x="261.967258"
       y="102.860054"
       id="use154" />
  </g>
  <g
     fill="rgb(0%, 0%, 0%)"
     fill-opacity="1"
     id="g155">
    <use
       xlink:href="#glyph-2-21"
       x="271.462031"
       y="102.860054"
       id="use155" />
  </g>
  <g
     fill="rgb(0%, 0%, 0%)"
     fill-opacity="1"
     id="g156">
    <use
       xlink:href="#glyph-2-15"
       x="280.956804"
       y="102.860054"
       id="use156" />
  </g>
  <g
     fill="rgb(0%, 0%, 0%)"
     fill-opacity="1"
     id="g157">
    <use
       xlink:href="#glyph-2-18"
       x="290.451576"
       y="102.860054"
       id="use157" />
  </g>
  <g
     fill="rgb(0%, 0%, 0%)"
     fill-opacity="1"
     id="g158">
    <use
       xlink:href="#glyph-2-4"
       x="299.946349"
       y="102.860054"
       id="use158" />
  </g>
  <g
     fill="rgb(0%, 0%, 0%)"
     fill-opacity="1"
     id="g159">
    <use
       xlink:href="#glyph-2-14"
       x="309.441122"
       y="102.860054"
       id="use159" />
  </g>
  <g
     fill="rgb(0%, 0%, 0%)"
     fill-opacity="1"
     id="g160">
    <use
       xlink:href="#glyph-2-17"
       x="318.935895"
       y="102.860054"
       id="use160" />
  </g>
  <g
     fill="rgb(0%, 0%, 0%)"
     fill-opacity="1"
     id="g161">
    <use
       xlink:href="#glyph-2-18"
       x="328.430667"
       y="102.860054"
       id="use161" />
  </g>
  <g
     fill="rgb(0%, 0%, 0%)"
     fill-opacity="1"
     id="g162">
    <use
       xlink:href="#glyph-2-11"
       x="337.92544"
       y="102.860054"
       id="use162" />
  </g>
  <g
     fill="rgb(0%, 0%, 0%)"
     fill-opacity="1"
     id="g163">
    <use
       xlink:href="#glyph-2-19"
       x="347.420213"
       y="102.860054"
       id="use163" />
  </g>
  <g
     fill="rgb(0%, 0%, 0%)"
     fill-opacity="1"
     id="g164">
    <use
       xlink:href="#glyph-2-15"
       x="356.914986"
       y="102.860054"
       id="use164" />
  </g>
  <g
     fill="rgb(0%, 0%, 0%)"
     fill-opacity="1"
     id="g165">
    <use
       xlink:href="#glyph-2-20"
       x="366.409759"
       y="102.860054"
       id="use165" />
  </g>
  <g
     fill="rgb(0%, 0%, 0%)"
     fill-opacity="1"
     id="g166">
    <use
       xlink:href="#glyph-2-14"
       x="375.904531"
       y="102.860054"
       id="use166" />
  </g>
  <path
     fill="none"
     stroke-width="2"
     stroke-linecap="butt"
     stroke-linejoin="miter"
     stroke="rgb(83.918762%, 71.369934%, 33.729553%)"
     stroke-opacity="1"
     stroke-miterlimit="10"
     d="M -581.821153 304.997524 L -581.79943 414.000897 L -691.758592 414.000897 "
     transform="matrix(0.719301, 0, 0, 0.719301, 690.535867, -115.088191)"
     id="path166" />
  <path
     fill-rule="nonzero"
     fill="rgb(83.918762%, 71.369934%, 33.729553%)"
     fill-opacity="1"
     stroke-width="2"
     stroke-linecap="butt"
     stroke-linejoin="miter"
     stroke="rgb(83.918762%, 71.369934%, 33.729553%)"
     stroke-opacity="1"
     stroke-miterlimit="10"
     d="M -697.759425 414.000897 L -689.760124 409.998531 L -691.758592 414.000897 L -689.760124 417.997832 Z M -697.759425 414.000897 "
     transform="matrix(0.719301, 0, 0, 0.719301, 690.535867, -115.088191)"
     id="path167" />
  <path
     fill-rule="nonzero"
     fill="rgb(100%, 59.999084%, 59.999084%)"
     fill-opacity="1"
     d="M 115.453125 223.34375 L 158.613281 223.34375 L 158.613281 230.535156 L 115.453125 230.535156 Z M 115.453125 223.34375 "
     id="path168" />
  <g
     fill="rgb(0%, 0%, 0%)"
     fill-opacity="1"
     id="g176">
    <use
       xlink:href="#glyph-1-1"
       x="59.169293"
       y="227.29915"
       id="use168" />
    <use
       xlink:href="#glyph-1-3"
       x="73.195666"
       y="227.29915"
       id="use169" />
    <use
       xlink:href="#glyph-1-0"
       x="87.222038"
       y="227.29915"
       id="use170" />
    <use
       xlink:href="#glyph-1-0"
       x="101.24841"
       y="227.29915"
       id="use171" />
    <use
       xlink:href="#glyph-1-1"
       x="115.274782"
       y="227.29915"
       id="use172" />
    <use
       xlink:href="#glyph-1-1"
       x="129.301154"
       y="227.29915"
       id="use173" />
    <use
       xlink:href="#glyph-1-2"
       x="143.327526"
       y="227.29915"
       id="use174" />
    <use
       xlink:href="#glyph-1-3"
       x="157.353899"
       y="227.29915"
       id="use175" />
    <use
       xlink:href="#glyph-1-3"
       x="171.380271"
       y="227.29915"
       id="use176" />
  </g>
  <path
     fill="none"
     stroke-width="2"
     stroke-linecap="butt"
     stroke-linejoin="miter"
     stroke="rgb(58.81958%, 45.098877%, 65.098572%)"
     stroke-opacity="1"
     stroke-miterlimit="10"
     d="M -639.999368 464.999834 L -691.758592 464.999834 "
     transform="matrix(0.719301, 0, 0, 0.719301, 690.535867, -115.088191)"
     id="path176" />
  <path
     fill-rule="nonzero"
     fill="rgb(58.81958%, 45.098877%, 65.098572%)"
     fill-opacity="1"
     d="M 188.636719 219.386719 L 194.390625 216.507812 L 192.953125 219.386719 L 194.390625 222.265625 Z M 188.636719 219.386719 "
     id="path177" />
  <g
     clip-path="url(#clip-1)"
     id="g178">
    <path
       fill="none"
       stroke-width="2"
       stroke-linecap="butt"
       stroke-linejoin="miter"
       stroke="rgb(58.81958%, 45.098877%, 65.098572%)"
       stroke-opacity="1"
       stroke-miterlimit="10"
       d="M -697.759425 464.999834 L -689.760124 460.997468 L -691.758592 464.999834 L -689.760124 469.0022 Z M -697.759425 464.999834 "
       transform="matrix(0.719301, 0, 0, 0.719301, 690.535867, -115.088191)"
       id="path178" />
  </g>
  <path
     fill-rule="nonzero"
     fill="rgb(88.238525%, 83.529663%, 90.589905%)"
     fill-opacity="1"
     stroke-width="2"
     stroke-linecap="butt"
     stroke-linejoin="miter"
     stroke="rgb(58.81958%, 45.098877%, 65.098572%)"
     stroke-opacity="1"
     stroke-miterlimit="4"
     d="M -639.999368 455.002066 L -419.999585 455.002066 L -419.999585 474.997603 L -639.999368 474.997603 Z M -639.999368 455.002066 "
     transform="matrix(0.719301, 0, 0, 0.719301, 690.535867, -115.088191)"
     id="path179" />
  <g
     fill="rgb(0%, 0%, 0%)"
     fill-opacity="1"
     id="g179">
    <use
       xlink:href="#glyph-2-12"
       x="233.341317"
       y="225.141247"
       id="use179" />
  </g>
  <g
     fill="rgb(0%, 0%, 0%)"
     fill-opacity="1"
     id="g180">
    <use
       xlink:href="#glyph-2-22"
       x="242.83609"
       y="225.141247"
       id="use180" />
  </g>
  <g
     fill="rgb(0%, 0%, 0%)"
     fill-opacity="1"
     id="g181">
    <use
       xlink:href="#glyph-2-14"
       x="252.330862"
       y="225.141247"
       id="use181" />
  </g>
  <g
     fill="rgb(0%, 0%, 0%)"
     fill-opacity="1"
     id="g182">
    <use
       xlink:href="#glyph-2-23"
       x="261.825635"
       y="225.141247"
       id="use182" />
  </g>
  <g
     fill="rgb(0%, 0%, 0%)"
     fill-opacity="1"
     id="g183">
    <use
       xlink:href="#glyph-2-4"
       x="271.320408"
       y="225.141247"
       id="use183" />
  </g>
  <g
     fill="rgb(0%, 0%, 0%)"
     fill-opacity="1"
     id="g184">
    <use
       xlink:href="#glyph-2-14"
       x="280.815181"
       y="225.141247"
       id="use184" />
  </g>
  <g
     fill="rgb(0%, 0%, 0%)"
     fill-opacity="1"
     id="g185">
    <use
       xlink:href="#glyph-2-24"
       x="290.309954"
       y="225.141247"
       id="use185" />
  </g>
  <g
     fill="rgb(0%, 0%, 0%)"
     fill-opacity="1"
     id="g186">
    <use
       xlink:href="#glyph-2-21"
       x="299.804726"
       y="225.141247"
       id="use186" />
  </g>
  <g
     fill="rgb(0%, 0%, 0%)"
     fill-opacity="1"
     id="g187">
    <use
       xlink:href="#glyph-2-15"
       x="309.299499"
       y="225.141247"
       id="use187" />
  </g>
  <g
     fill="rgb(0%, 0%, 0%)"
     fill-opacity="1"
     id="g188">
    <use
       xlink:href="#glyph-2-20"
       x="318.794272"
       y="225.141247"
       id="use188" />
  </g>
  <g
     fill="rgb(0%, 0%, 0%)"
     fill-opacity="1"
     id="g189">
    <use
       xlink:href="#glyph-2-25"
       x="328.289045"
       y="225.141247"
       id="use189" />
  </g>
  <g
     fill="rgb(0%, 0%, 0%)"
     fill-opacity="1"
     id="g190">
    <use
       xlink:href="#glyph-3-0"
       x="337.786094"
       y="225.141247"
       id="use190" />
  </g>
  <g
     fill="rgb(0%, 0%, 0%)"
     fill-opacity="1"
     id="g191">
    <use
       xlink:href="#glyph-2-25"
       x="347.283113"
       y="225.141247"
       id="use191" />
  </g>
  <g
     fill="rgb(0%, 0%, 0%)"
     fill-opacity="1"
     id="g192">
    <use
       xlink:href="#glyph-2-19"
       x="356.777886"
       y="225.141247"
       id="use192" />
  </g>
  <g
     fill="rgb(0%, 0%, 0%)"
     fill-opacity="1"
     id="g193">
    <use
       xlink:href="#glyph-2-15"
       x="366.272658"
       y="225.141247"
       id="use193" />
  </g>
  <g
     fill="rgb(0%, 0%, 0%)"
     fill-opacity="1"
     id="g194">
    <use
       xlink:href="#glyph-2-20"
       x="375.767431"
       y="225.141247"
       id="use194" />
  </g>
</svg>
