<?xml version="1.0" encoding="UTF-8"?>
<svg xmlns="http://www.w3.org/2000/svg" xmlns:xlink="http://www.w3.org/1999/xlink" width="426.038125pt" height="326.35575pt" viewBox="0 0 426.038125 326.35575">
<defs>
<g>
<g id="glyph-0-0">
<path d="M 3.171875 -6.625 C 2.664062 -6.625 2.285156 -6.375 2.027344 -5.875 C 1.765625 -5.378906 1.644531 -4.628906 1.644531 -3.632812 C 1.644531 -2.632812 1.765625 -1.886719 2.027344 -1.386719 C 2.285156 -0.886719 2.664062 -0.636719 3.171875 -0.636719 C 3.683594 -0.636719 4.0625 -0.886719 4.320312 -1.386719 C 4.570312 -1.886719 4.699219 -2.632812 4.699219 -3.632812 C 4.699219 -4.628906 4.570312 -5.378906 4.320312 -5.875 C 4.0625 -6.375 3.683594 -6.625 3.171875 -6.625 Z M 3.171875 -7.402344 C 3.980469 -7.402344 4.601562 -7.074219 5.039062 -6.433594 C 5.46875 -5.785156 5.6875 -4.847656 5.6875 -3.632812 C 5.6875 -2.40625 5.46875 -1.464844 5.039062 -0.828125 C 4.601562 -0.191406 3.980469 0.128906 3.164062 0.128906 C 2.34375 0.128906 1.726562 -0.191406 1.296875 -0.828125 C 0.867188 -1.464844 0.660156 -2.40625 0.660156 -3.632812 C 0.660156 -4.847656 0.867188 -5.785156 1.296875 -6.433594 C 1.726562 -7.074219 2.355469 -7.402344 3.171875 -7.402344 Z M 3.171875 -7.402344 "/>
</g>
<g id="glyph-0-1">
<path d="M 1.066406 -1.238281 L 2.09375 -1.238281 L 2.09375 0 L 1.066406 0 Z M 1.066406 -1.238281 "/>
</g>
<g id="glyph-0-2">
<path d="M 1.078125 -7.273438 L 4.9375 -7.273438 L 4.9375 -6.445312 L 1.976562 -6.445312 L 1.976562 -4.660156 C 2.113281 -4.710938 2.265625 -4.75 2.40625 -4.769531 C 2.542969 -4.789062 2.695312 -4.808594 2.832031 -4.808594 C 3.640625 -4.808594 4.28125 -4.578125 4.757812 -4.140625 C 5.238281 -3.691406 5.476562 -3.09375 5.476562 -2.335938 C 5.476562 -1.546875 5.226562 -0.9375 4.738281 -0.507812 C 4.25 -0.078125 3.5625 0.128906 2.683594 0.128906 C 2.375 0.128906 2.066406 0.101562 1.746094 0.0585938 C 1.425781 0.0117188 1.109375 -0.0585938 0.769531 -0.167969 L 0.769531 -1.15625 C 1.058594 -0.996094 1.355469 -0.878906 1.675781 -0.796875 C 1.984375 -0.71875 2.316406 -0.6875 2.664062 -0.6875 C 3.222656 -0.6875 3.671875 -0.828125 4 -1.128906 C 4.320312 -1.425781 4.488281 -1.824219 4.488281 -2.335938 C 4.488281 -2.832031 4.320312 -3.234375 4 -3.53125 C 3.671875 -3.832031 3.222656 -3.980469 2.664062 -3.980469 C 2.40625 -3.980469 2.136719 -3.949219 1.875 -3.890625 C 1.617188 -3.832031 1.347656 -3.742188 1.078125 -3.621094 Z M 1.078125 -7.273438 "/>
</g>
<g id="glyph-0-3">
<path d="M 1.238281 -0.828125 L 2.84375 -0.828125 L 2.84375 -6.375 L 1.097656 -6.027344 L 1.097656 -6.925781 L 2.832031 -7.273438 L 3.820312 -7.273438 L 3.820312 -0.828125 L 5.429688 -0.828125 L 5.429688 0 L 1.238281 0 Z M 1.238281 -0.828125 "/>
</g>
<g id="glyph-0-4">
<path d="M 1.914062 -0.828125 L 5.347656 -0.828125 L 5.347656 0 L 0.726562 0 L 0.726562 -0.828125 C 1.097656 -1.207031 1.605469 -1.726562 2.253906 -2.382812 C 2.894531 -3.03125 3.300781 -3.453125 3.472656 -3.640625 C 3.792969 -3.992188 4.011719 -4.289062 4.128906 -4.539062 C 4.25 -4.777344 4.320312 -5.027344 4.320312 -5.269531 C 4.320312 -5.648438 4.179688 -5.964844 3.910156 -6.207031 C 3.640625 -6.445312 3.292969 -6.574219 2.855469 -6.574219 C 2.542969 -6.574219 2.214844 -6.515625 1.875 -6.414062 C 1.535156 -6.304688 1.167969 -6.144531 0.777344 -5.925781 L 0.777344 -6.925781 C 1.175781 -7.085938 1.546875 -7.203125 1.886719 -7.285156 C 2.226562 -7.363281 2.542969 -7.402344 2.832031 -7.402344 C 3.582031 -7.402344 4.179688 -7.214844 4.628906 -6.835938 C 5.078125 -6.457031 5.308594 -5.957031 5.308594 -5.328125 C 5.308594 -5.027344 5.25 -4.738281 5.136719 -4.480469 C 5.027344 -4.210938 4.828125 -3.890625 4.53125 -3.53125 C 4.449219 -3.433594 4.191406 -3.164062 3.75 -2.714844 C 3.3125 -2.265625 2.703125 -1.636719 1.914062 -0.828125 Z M 1.914062 -0.828125 "/>
</g>
<g id="glyph-0-5">
<path d="M 4.050781 -3.921875 C 4.519531 -3.820312 4.890625 -3.613281 5.148438 -3.292969 C 5.40625 -2.972656 5.546875 -2.574219 5.546875 -2.113281 C 5.546875 -1.398438 5.296875 -0.839844 4.808594 -0.449219 C 4.308594 -0.0585938 3.613281 0.128906 2.703125 0.128906 C 2.394531 0.128906 2.074219 0.101562 1.757812 0.0390625 C 1.4375 -0.0117188 1.097656 -0.101562 0.757812 -0.21875 L 0.757812 -1.167969 C 1.027344 -1.007812 1.328125 -0.886719 1.65625 -0.808594 C 1.976562 -0.726562 2.316406 -0.6875 2.675781 -0.6875 C 3.292969 -0.6875 3.761719 -0.808594 4.082031 -1.046875 C 4.398438 -1.285156 4.570312 -1.644531 4.570312 -2.113281 C 4.570312 -2.535156 4.421875 -2.875 4.121094 -3.113281 C 3.820312 -3.351562 3.402344 -3.480469 2.863281 -3.480469 L 2.015625 -3.480469 L 2.015625 -4.289062 L 2.902344 -4.289062 C 3.382812 -4.289062 3.75 -4.378906 4.011719 -4.578125 C 4.269531 -4.769531 4.398438 -5.046875 4.398438 -5.417969 C 4.398438 -5.785156 4.261719 -6.078125 4 -6.277344 C 3.730469 -6.476562 3.351562 -6.574219 2.863281 -6.574219 C 2.59375 -6.574219 2.304688 -6.546875 1.996094 -6.484375 C 1.6875 -6.425781 1.347656 -6.335938 0.976562 -6.214844 L 0.976562 -7.09375 C 1.347656 -7.195312 1.695312 -7.273438 2.027344 -7.324219 C 2.34375 -7.375 2.652344 -7.402344 2.953125 -7.402344 C 3.691406 -7.402344 4.28125 -7.234375 4.71875 -6.894531 C 5.160156 -6.554688 5.378906 -6.097656 5.378906 -5.515625 C 5.378906 -5.117188 5.257812 -4.777344 5.027344 -4.5 C 4.800781 -4.21875 4.46875 -4.019531 4.050781 -3.921875 Z M 4.050781 -3.921875 "/>
</g>
<g id="glyph-0-6">
<path d="M 0.976562 -7.273438 L 5.578125 -7.273438 L 5.578125 -6.445312 L 1.964844 -6.445312 L 1.964844 -4.289062 L 5.429688 -4.289062 L 5.429688 -3.460938 L 1.964844 -3.460938 L 1.964844 -0.828125 L 5.667969 -0.828125 L 5.667969 0 L 0.976562 0 Z M 0.976562 -7.273438 "/>
</g>
<g id="glyph-0-7">
<path d="M 4.101562 -4.621094 C 4 -4.679688 3.890625 -4.71875 3.773438 -4.75 C 3.652344 -4.769531 3.523438 -4.789062 3.382812 -4.789062 C 2.875 -4.789062 2.484375 -4.621094 2.214844 -4.289062 C 1.9375 -3.960938 1.804688 -3.492188 1.804688 -2.875 L 1.804688 0 L 0.90625 0 L 0.90625 -5.457031 L 1.804688 -5.457031 L 1.804688 -4.609375 C 1.984375 -4.9375 2.234375 -5.1875 2.535156 -5.347656 C 2.832031 -5.507812 3.203125 -5.585938 3.640625 -5.585938 C 3.703125 -5.585938 3.773438 -5.578125 3.851562 -5.578125 C 3.921875 -5.566406 4 -5.558594 4.101562 -5.539062 Z M 4.101562 -4.621094 "/>
</g>
<g id="glyph-0-8">
<path d="M 3.054688 -4.828125 C 2.574219 -4.828125 2.195312 -4.640625 1.914062 -4.261719 C 1.636719 -3.882812 1.496094 -3.371094 1.496094 -2.722656 C 1.496094 -2.066406 1.625 -1.554688 1.90625 -1.175781 C 2.183594 -0.796875 2.5625 -0.617188 3.054688 -0.617188 C 3.53125 -0.617188 3.910156 -0.796875 4.191406 -1.175781 C 4.46875 -1.554688 4.609375 -2.066406 4.609375 -2.722656 C 4.609375 -3.363281 4.46875 -3.882812 4.191406 -4.261719 C 3.910156 -4.640625 3.53125 -4.828125 3.054688 -4.828125 Z M 3.054688 -5.585938 C 3.832031 -5.585938 4.441406 -5.328125 4.890625 -4.828125 C 5.328125 -4.320312 5.558594 -3.621094 5.558594 -2.722656 C 5.558594 -1.824219 5.328125 -1.128906 4.890625 -0.628906 C 4.441406 -0.121094 3.832031 0.128906 3.054688 0.128906 C 2.265625 0.128906 1.644531 -0.121094 1.207031 -0.628906 C 0.769531 -1.128906 0.546875 -1.824219 0.546875 -2.722656 C 0.546875 -3.621094 0.769531 -4.320312 1.207031 -4.828125 C 1.644531 -5.328125 2.265625 -5.585938 3.054688 -5.585938 Z M 3.054688 -5.585938 "/>
</g>
<g id="glyph-0-9">
</g>
<g id="glyph-0-10">
<path d="M 3.421875 -2.742188 C 2.695312 -2.742188 2.195312 -2.652344 1.914062 -2.496094 C 1.636719 -2.324219 1.496094 -2.046875 1.496094 -1.644531 C 1.496094 -1.328125 1.597656 -1.066406 1.804688 -0.886719 C 2.015625 -0.699219 2.304688 -0.609375 2.664062 -0.609375 C 3.164062 -0.609375 3.5625 -0.777344 3.859375 -1.136719 C 4.160156 -1.488281 4.308594 -1.957031 4.308594 -2.542969 L 4.308594 -2.742188 Z M 5.207031 -3.113281 L 5.207031 0 L 4.308594 0 L 4.308594 -0.828125 C 4.101562 -0.488281 3.839844 -0.25 3.542969 -0.101562 C 3.242188 0.0507812 2.863281 0.128906 2.425781 0.128906 C 1.867188 0.128906 1.417969 -0.0195312 1.085938 -0.328125 C 0.757812 -0.636719 0.597656 -1.058594 0.597656 -1.585938 C 0.597656 -2.195312 0.796875 -2.652344 1.21875 -2.972656 C 1.625 -3.28125 2.234375 -3.441406 3.054688 -3.441406 L 4.308594 -3.441406 L 4.308594 -3.53125 C 4.308594 -3.941406 4.171875 -4.261719 3.902344 -4.488281 C 3.632812 -4.710938 3.253906 -4.828125 2.765625 -4.828125 C 2.445312 -4.828125 2.144531 -4.789062 1.847656 -4.710938 C 1.546875 -4.628906 1.265625 -4.519531 0.996094 -4.378906 L 0.996094 -5.207031 C 1.316406 -5.328125 1.636719 -5.429688 1.945312 -5.488281 C 2.253906 -5.546875 2.554688 -5.585938 2.855469 -5.585938 C 3.640625 -5.585938 4.230469 -5.378906 4.621094 -4.96875 C 5.007812 -4.558594 5.207031 -3.941406 5.207031 -3.113281 Z M 5.207031 -3.113281 "/>
</g>
<g id="glyph-0-11">
<path d="M 1.824219 -7.003906 L 1.824219 -5.457031 L 3.671875 -5.457031 L 3.671875 -4.757812 L 1.824219 -4.757812 L 1.824219 -1.796875 C 1.824219 -1.347656 1.886719 -1.058594 2.003906 -0.9375 C 2.125 -0.808594 2.375 -0.75 2.753906 -0.75 L 3.671875 -0.75 L 3.671875 0 L 2.753906 0 C 2.054688 0 1.578125 -0.128906 1.316406 -0.390625 C 1.058594 -0.648438 0.929688 -1.117188 0.929688 -1.796875 L 0.929688 -4.757812 L 0.269531 -4.757812 L 0.269531 -5.457031 L 0.929688 -5.457031 L 0.929688 -7.003906 Z M 1.824219 -7.003906 "/>
</g>
<g id="glyph-0-12">
<path d="M 5.605469 -2.953125 L 5.605469 -2.515625 L 1.488281 -2.515625 C 1.527344 -1.894531 1.707031 -1.417969 2.046875 -1.097656 C 2.375 -0.777344 2.832031 -0.617188 3.433594 -0.617188 C 3.773438 -0.617188 4.109375 -0.660156 4.429688 -0.738281 C 4.75 -0.816406 5.078125 -0.949219 5.398438 -1.128906 L 5.398438 -0.28125 C 5.078125 -0.140625 4.75 -0.03125 4.410156 0.03125 C 4.070312 0.0898438 3.722656 0.128906 3.382812 0.128906 C 2.503906 0.128906 1.816406 -0.121094 1.308594 -0.617188 C 0.796875 -1.117188 0.546875 -1.804688 0.546875 -2.675781 C 0.546875 -3.5625 0.789062 -4.269531 1.265625 -4.800781 C 1.746094 -5.316406 2.40625 -5.585938 3.222656 -5.585938 C 3.960938 -5.585938 4.539062 -5.347656 4.96875 -4.878906 C 5.386719 -4.398438 5.605469 -3.761719 5.605469 -2.953125 Z M 4.710938 -3.210938 C 4.699219 -3.703125 4.558594 -4.089844 4.300781 -4.390625 C 4.03125 -4.679688 3.671875 -4.828125 3.234375 -4.828125 C 2.734375 -4.828125 2.335938 -4.679688 2.035156 -4.398438 C 1.734375 -4.121094 1.554688 -3.722656 1.515625 -3.210938 Z M 4.710938 -3.210938 "/>
</g>
<g id="glyph-0-13">
<path d="M 3.773438 -6.414062 L 1.285156 -2.535156 L 3.773438 -2.535156 Z M 3.511719 -7.273438 L 4.75 -7.273438 L 4.75 -2.535156 L 5.785156 -2.535156 L 5.785156 -1.714844 L 4.75 -1.714844 L 4.75 0 L 3.773438 0 L 3.773438 -1.714844 L 0.488281 -1.714844 L 0.488281 -2.664062 Z M 3.511719 -7.273438 "/>
</g>
<g id="glyph-0-14">
<path d="M 3.292969 -4.03125 C 2.855469 -4.03125 2.503906 -3.871094 2.246094 -3.570312 C 1.984375 -3.273438 1.855469 -2.855469 1.855469 -2.335938 C 1.855469 -1.804688 1.984375 -1.386719 2.246094 -1.085938 C 2.503906 -0.789062 2.855469 -0.636719 3.292969 -0.636719 C 3.730469 -0.636719 4.082031 -0.789062 4.339844 -1.085938 C 4.601562 -1.386719 4.730469 -1.804688 4.730469 -2.335938 C 4.730469 -2.855469 4.601562 -3.273438 4.339844 -3.570312 C 4.082031 -3.871094 3.730469 -4.03125 3.292969 -4.03125 Z M 5.25 -7.113281 L 5.25 -6.214844 C 5 -6.335938 4.75 -6.425781 4.5 -6.484375 C 4.242188 -6.546875 3.992188 -6.574219 3.75 -6.574219 C 3.09375 -6.574219 2.59375 -6.355469 2.253906 -5.917969 C 1.914062 -5.476562 1.714844 -4.808594 1.675781 -3.929688 C 1.867188 -4.210938 2.105469 -4.429688 2.394531 -4.578125 C 2.683594 -4.730469 3.003906 -4.808594 3.351562 -4.808594 C 4.082031 -4.808594 4.660156 -4.578125 5.078125 -4.140625 C 5.496094 -3.703125 5.71875 -3.09375 5.71875 -2.335938 C 5.71875 -1.585938 5.488281 -0.988281 5.046875 -0.539062 C 4.609375 -0.0898438 4.019531 0.128906 3.292969 0.128906 C 2.453125 0.128906 1.804688 -0.191406 1.367188 -0.828125 C 0.917969 -1.464844 0.699219 -2.40625 0.699219 -3.632812 C 0.699219 -4.777344 0.96875 -5.695312 1.515625 -6.375 C 2.054688 -7.054688 2.792969 -7.402344 3.710938 -7.402344 C 3.949219 -7.402344 4.199219 -7.375 4.460938 -7.332031 C 4.710938 -7.285156 4.96875 -7.214844 5.25 -7.113281 Z M 5.25 -7.113281 "/>
</g>
<g id="glyph-0-15">
<path d="M 3.171875 -3.453125 C 2.703125 -3.453125 2.335938 -3.324219 2.066406 -3.074219 C 1.796875 -2.824219 1.667969 -2.484375 1.667969 -2.046875 C 1.667969 -1.605469 1.796875 -1.257812 2.066406 -1.007812 C 2.335938 -0.757812 2.703125 -0.636719 3.171875 -0.636719 C 3.632812 -0.636719 4 -0.757812 4.269531 -1.019531 C 4.539062 -1.265625 4.679688 -1.605469 4.679688 -2.046875 C 4.679688 -2.484375 4.539062 -2.824219 4.28125 -3.074219 C 4.011719 -3.324219 3.640625 -3.453125 3.171875 -3.453125 Z M 2.183594 -3.871094 C 1.765625 -3.972656 1.4375 -4.171875 1.199219 -4.460938 C 0.957031 -4.75 0.847656 -5.097656 0.847656 -5.515625 C 0.847656 -6.097656 1.046875 -6.554688 1.464844 -6.894531 C 1.875 -7.234375 2.445312 -7.402344 3.171875 -7.402344 C 3.890625 -7.402344 4.460938 -7.234375 4.878906 -6.894531 C 5.289062 -6.554688 5.496094 -6.097656 5.496094 -5.515625 C 5.496094 -5.097656 5.378906 -4.75 5.136719 -4.460938 C 4.898438 -4.171875 4.578125 -3.972656 4.160156 -3.871094 C 4.628906 -3.761719 5 -3.542969 5.269531 -3.222656 C 5.527344 -2.902344 5.667969 -2.503906 5.667969 -2.046875 C 5.667969 -1.335938 5.449219 -0.796875 5.019531 -0.429688 C 4.578125 -0.0507812 3.960938 0.128906 3.164062 0.128906 C 2.363281 0.128906 1.746094 -0.0507812 1.316406 -0.429688 C 0.886719 -0.796875 0.679688 -1.335938 0.679688 -2.046875 C 0.679688 -2.503906 0.808594 -2.902344 1.078125 -3.222656 C 1.335938 -3.542969 1.707031 -3.761719 2.183594 -3.871094 Z M 1.824219 -5.429688 C 1.824219 -5.046875 1.9375 -4.75 2.175781 -4.539062 C 2.414062 -4.332031 2.742188 -4.230469 3.171875 -4.230469 C 3.59375 -4.230469 3.921875 -4.332031 4.160156 -4.539062 C 4.398438 -4.75 4.519531 -5.046875 4.519531 -5.429688 C 4.519531 -5.808594 4.398438 -6.097656 4.160156 -6.304688 C 3.921875 -6.515625 3.59375 -6.625 3.171875 -6.625 C 2.742188 -6.625 2.414062 -6.515625 2.175781 -6.304688 C 1.9375 -6.097656 1.824219 -5.808594 1.824219 -5.429688 Z M 1.824219 -5.429688 "/>
</g>
<g id="glyph-0-16">
<path d="M 5.476562 -3.292969 L 5.476562 0 L 4.578125 0 L 4.578125 -3.261719 C 4.578125 -3.78125 4.46875 -4.160156 4.269531 -4.421875 C 4.070312 -4.679688 3.773438 -4.808594 3.371094 -4.808594 C 2.882812 -4.808594 2.503906 -4.648438 2.226562 -4.339844 C 1.945312 -4.03125 1.804688 -3.613281 1.804688 -3.082031 L 1.804688 0 L 0.90625 0 L 0.90625 -7.582031 L 1.804688 -7.582031 L 1.804688 -4.609375 C 2.015625 -4.929688 2.265625 -5.179688 2.5625 -5.339844 C 2.855469 -5.496094 3.191406 -5.585938 3.570312 -5.585938 C 4.191406 -5.585938 4.667969 -5.386719 4.988281 -5 C 5.308594 -4.609375 5.476562 -4.039062 5.476562 -3.292969 Z M 5.476562 -3.292969 "/>
</g>
<g id="glyph-0-17">
<path d="M 4.421875 -5.296875 L 4.421875 -4.449219 C 4.160156 -4.570312 3.902344 -4.667969 3.632812 -4.738281 C 3.351562 -4.800781 3.074219 -4.839844 2.785156 -4.839844 C 2.335938 -4.839844 1.996094 -4.769531 1.777344 -4.628906 C 1.554688 -4.488281 1.445312 -4.289062 1.445312 -4.019531 C 1.445312 -3.8125 1.527344 -3.652344 1.6875 -3.53125 C 1.847656 -3.414062 2.164062 -3.292969 2.644531 -3.191406 L 2.953125 -3.121094 C 3.59375 -2.984375 4.039062 -2.785156 4.308594 -2.542969 C 4.570312 -2.292969 4.710938 -1.945312 4.710938 -1.507812 C 4.710938 -0.996094 4.511719 -0.597656 4.109375 -0.308594 C 3.710938 -0.0117188 3.152344 0.128906 2.453125 0.128906 C 2.15625 0.128906 1.855469 0.101562 1.535156 0.0507812 C 1.21875 0 0.886719 -0.078125 0.539062 -0.199219 L 0.539062 -1.128906 C 0.867188 -0.949219 1.199219 -0.816406 1.515625 -0.738281 C 1.835938 -0.648438 2.15625 -0.609375 2.472656 -0.609375 C 2.894531 -0.609375 3.222656 -0.679688 3.453125 -0.816406 C 3.671875 -0.957031 3.792969 -1.167969 3.792969 -1.4375 C 3.792969 -1.675781 3.703125 -1.867188 3.542969 -1.996094 C 3.382812 -2.125 3.023438 -2.253906 2.464844 -2.375 L 2.15625 -2.445312 C 1.597656 -2.5625 1.1875 -2.742188 0.949219 -2.984375 C 0.699219 -3.222656 0.578125 -3.550781 0.578125 -3.980469 C 0.578125 -4.488281 0.757812 -4.890625 1.117188 -5.167969 C 1.476562 -5.449219 1.996094 -5.585938 2.675781 -5.585938 C 3.003906 -5.585938 3.3125 -5.558594 3.613281 -5.507812 C 3.902344 -5.457031 4.171875 -5.386719 4.421875 -5.296875 Z M 4.421875 -5.296875 "/>
</g>
<g id="glyph-0-18">
<path d="M 3.703125 -7.582031 L 3.703125 -6.835938 L 2.84375 -6.835938 C 2.523438 -6.835938 2.292969 -6.765625 2.175781 -6.636719 C 2.046875 -6.503906 1.984375 -6.277344 1.984375 -5.9375 L 1.984375 -5.457031 L 3.460938 -5.457031 L 3.460938 -4.757812 L 1.984375 -4.757812 L 1.984375 0 L 1.085938 0 L 1.085938 -4.757812 L 0.230469 -4.757812 L 0.230469 -5.457031 L 1.085938 -5.457031 L 1.085938 -5.835938 C 1.085938 -6.433594 1.226562 -6.882812 1.507812 -7.164062 C 1.785156 -7.441406 2.234375 -7.582031 2.855469 -7.582031 Z M 3.703125 -7.582031 "/>
</g>
<g id="glyph-0-19">
<path d="M 0.847656 -2.15625 L 0.847656 -5.457031 L 1.746094 -5.457031 L 1.746094 -2.183594 C 1.746094 -1.667969 1.847656 -1.285156 2.046875 -1.027344 C 2.246094 -0.769531 2.542969 -0.636719 2.953125 -0.636719 C 3.433594 -0.636719 3.820312 -0.789062 4.101562 -1.097656 C 4.378906 -1.40625 4.519531 -1.824219 4.519531 -2.363281 L 4.519531 -5.457031 L 5.417969 -5.457031 L 5.417969 0 L 4.519531 0 L 4.519531 -0.839844 C 4.300781 -0.5 4.039062 -0.257812 3.761719 -0.101562 C 3.472656 0.0507812 3.144531 0.128906 2.765625 0.128906 C 2.136719 0.128906 1.65625 -0.0585938 1.335938 -0.449219 C 1.007812 -0.828125 0.847656 -1.398438 0.847656 -2.15625 Z M 3.101562 -5.585938 Z M 3.101562 -5.585938 "/>
</g>
<g id="glyph-0-20">
<path d="M 5.476562 -3.292969 L 5.476562 0 L 4.578125 0 L 4.578125 -3.261719 C 4.578125 -3.78125 4.46875 -4.160156 4.269531 -4.421875 C 4.070312 -4.679688 3.773438 -4.808594 3.371094 -4.808594 C 2.882812 -4.808594 2.503906 -4.648438 2.226562 -4.339844 C 1.945312 -4.03125 1.804688 -3.613281 1.804688 -3.082031 L 1.804688 0 L 0.90625 0 L 0.90625 -5.457031 L 1.804688 -5.457031 L 1.804688 -4.609375 C 2.015625 -4.929688 2.265625 -5.179688 2.5625 -5.339844 C 2.855469 -5.496094 3.191406 -5.585938 3.570312 -5.585938 C 4.191406 -5.585938 4.667969 -5.386719 4.988281 -5 C 5.308594 -4.609375 5.476562 -4.039062 5.476562 -3.292969 Z M 5.476562 -3.292969 "/>
</g>
<g id="glyph-0-21">
<path d="M 4.867188 -5.25 L 4.867188 -4.410156 C 4.609375 -4.550781 4.359375 -4.648438 4.101562 -4.71875 C 3.839844 -4.789062 3.59375 -4.828125 3.332031 -4.828125 C 2.753906 -4.828125 2.292969 -4.640625 1.976562 -4.269531 C 1.65625 -3.902344 1.496094 -3.382812 1.496094 -2.722656 C 1.496094 -2.054688 1.65625 -1.535156 1.976562 -1.167969 C 2.292969 -0.796875 2.753906 -0.617188 3.332031 -0.617188 C 3.59375 -0.617188 3.839844 -0.648438 4.101562 -0.71875 C 4.359375 -0.789062 4.609375 -0.898438 4.867188 -1.039062 L 4.867188 -0.210938 C 4.609375 -0.0898438 4.351562 0 4.089844 0.0507812 C 3.820312 0.101562 3.53125 0.128906 3.234375 0.128906 C 2.414062 0.128906 1.757812 -0.121094 1.277344 -0.636719 C 0.789062 -1.148438 0.546875 -1.847656 0.546875 -2.722656 C 0.546875 -3.613281 0.789062 -4.308594 1.277344 -4.820312 C 1.765625 -5.328125 2.433594 -5.585938 3.292969 -5.585938 C 3.570312 -5.585938 3.839844 -5.558594 4.101562 -5.496094 C 4.359375 -5.4375 4.621094 -5.359375 4.867188 -5.25 Z M 4.867188 -5.25 "/>
</g>
<g id="glyph-0-22">
<path d="M 0.9375 -5.457031 L 1.835938 -5.457031 L 1.835938 0 L 0.9375 0 Z M 0.9375 -7.582031 L 1.835938 -7.582031 L 1.835938 -6.445312 L 0.9375 -6.445312 Z M 0.9375 -7.582031 "/>
</g>
<g id="glyph-1-0">
<path d="M -6.714844 -6.425781 L -5.675781 -6.425781 C -5.976562 -6.085938 -6.207031 -5.738281 -6.367188 -5.359375 C -6.515625 -4.980469 -6.59375 -4.589844 -6.59375 -4.171875 C -6.59375 -3.332031 -6.335938 -2.695312 -5.828125 -2.253906 C -5.316406 -1.816406 -4.589844 -1.597656 -3.632812 -1.597656 C -2.675781 -1.597656 -1.9375 -1.816406 -1.425781 -2.253906 C -0.917969 -2.695312 -0.667969 -3.332031 -0.667969 -4.171875 C -0.667969 -4.589844 -0.738281 -4.980469 -0.898438 -5.359375 C -1.046875 -5.738281 -1.277344 -6.085938 -1.585938 -6.425781 L -0.558594 -6.425781 C -0.320312 -6.078125 -0.148438 -5.707031 -0.0390625 -5.328125 C 0.0703125 -4.949219 0.128906 -4.539062 0.128906 -4.109375 C 0.128906 -3.011719 -0.199219 -2.144531 -0.867188 -1.507812 C -1.535156 -0.867188 -2.453125 -0.558594 -3.632812 -0.558594 C -4.800781 -0.558594 -5.71875 -0.867188 -6.394531 -1.507812 C -7.0625 -2.144531 -7.402344 -3.011719 -7.402344 -4.109375 C -7.402344 -4.550781 -7.34375 -4.957031 -7.234375 -5.339844 C -7.113281 -5.71875 -6.945312 -6.085938 -6.714844 -6.425781 Z M -6.714844 -6.425781 "/>
</g>
<g id="glyph-1-1">
<path d="M -4.828125 -3.054688 C -4.828125 -2.574219 -4.640625 -2.195312 -4.261719 -1.914062 C -3.882812 -1.636719 -3.371094 -1.496094 -2.722656 -1.496094 C -2.066406 -1.496094 -1.554688 -1.625 -1.175781 -1.90625 C -0.796875 -2.183594 -0.617188 -2.5625 -0.617188 -3.054688 C -0.617188 -3.53125 -0.796875 -3.910156 -1.175781 -4.191406 C -1.554688 -4.46875 -2.066406 -4.609375 -2.722656 -4.609375 C -3.363281 -4.609375 -3.882812 -4.46875 -4.261719 -4.191406 C -4.640625 -3.910156 -4.828125 -3.53125 -4.828125 -3.054688 Z M -5.585938 -3.054688 C -5.585938 -3.832031 -5.328125 -4.441406 -4.828125 -4.890625 C -4.320312 -5.328125 -3.621094 -5.558594 -2.722656 -5.558594 C -1.824219 -5.558594 -1.128906 -5.328125 -0.628906 -4.890625 C -0.121094 -4.441406 0.128906 -3.832031 0.128906 -3.054688 C 0.128906 -2.265625 -0.121094 -1.644531 -0.628906 -1.207031 C -1.128906 -0.769531 -1.824219 -0.546875 -2.722656 -0.546875 C -3.621094 -0.546875 -4.320312 -0.769531 -4.828125 -1.207031 C -5.328125 -1.644531 -5.585938 -2.265625 -5.585938 -3.054688 Z M -5.585938 -3.054688 "/>
</g>
<g id="glyph-1-2">
<path d="M -3.292969 -5.476562 L 0 -5.476562 L 0 -4.578125 L -3.261719 -4.578125 C -3.78125 -4.578125 -4.160156 -4.46875 -4.421875 -4.269531 C -4.679688 -4.070312 -4.808594 -3.773438 -4.808594 -3.371094 C -4.808594 -2.882812 -4.648438 -2.503906 -4.339844 -2.226562 C -4.03125 -1.945312 -3.613281 -1.804688 -3.082031 -1.804688 L 0 -1.804688 L 0 -0.90625 L -5.457031 -0.90625 L -5.457031 -1.804688 L -4.609375 -1.804688 C -4.929688 -2.015625 -5.179688 -2.265625 -5.339844 -2.5625 C -5.496094 -2.855469 -5.585938 -3.191406 -5.585938 -3.570312 C -5.585938 -4.191406 -5.386719 -4.667969 -5 -4.988281 C -4.609375 -5.308594 -4.039062 -5.476562 -3.292969 -5.476562 Z M -3.292969 -5.476562 "/>
</g>
<g id="glyph-1-3">
<path d="M -5.296875 -4.421875 L -4.449219 -4.421875 C -4.570312 -4.160156 -4.667969 -3.902344 -4.738281 -3.632812 C -4.800781 -3.351562 -4.839844 -3.074219 -4.839844 -2.785156 C -4.839844 -2.335938 -4.769531 -1.996094 -4.628906 -1.777344 C -4.488281 -1.554688 -4.289062 -1.445312 -4.019531 -1.445312 C -3.8125 -1.445312 -3.652344 -1.527344 -3.53125 -1.6875 C -3.414062 -1.847656 -3.292969 -2.164062 -3.191406 -2.644531 L -3.121094 -2.953125 C -2.984375 -3.59375 -2.785156 -4.039062 -2.542969 -4.308594 C -2.292969 -4.570312 -1.945312 -4.710938 -1.507812 -4.710938 C -0.996094 -4.710938 -0.597656 -4.511719 -0.308594 -4.109375 C -0.0117188 -3.710938 0.128906 -3.152344 0.128906 -2.453125 C 0.128906 -2.15625 0.101562 -1.855469 0.0507812 -1.535156 C 0 -1.21875 -0.078125 -0.886719 -0.199219 -0.539062 L -1.128906 -0.539062 C -0.949219 -0.867188 -0.816406 -1.199219 -0.738281 -1.515625 C -0.648438 -1.835938 -0.609375 -2.15625 -0.609375 -2.472656 C -0.609375 -2.894531 -0.679688 -3.222656 -0.816406 -3.453125 C -0.957031 -3.671875 -1.167969 -3.792969 -1.4375 -3.792969 C -1.675781 -3.792969 -1.867188 -3.703125 -1.996094 -3.542969 C -2.125 -3.382812 -2.253906 -3.023438 -2.375 -2.464844 L -2.445312 -2.15625 C -2.5625 -1.597656 -2.742188 -1.1875 -2.984375 -0.949219 C -3.222656 -0.699219 -3.550781 -0.578125 -3.980469 -0.578125 C -4.488281 -0.578125 -4.890625 -0.757812 -5.167969 -1.117188 C -5.449219 -1.476562 -5.585938 -1.996094 -5.585938 -2.675781 C -5.585938 -3.003906 -5.558594 -3.3125 -5.507812 -3.613281 C -5.457031 -3.902344 -5.386719 -4.171875 -5.296875 -4.421875 Z M -5.296875 -4.421875 "/>
</g>
<g id="glyph-1-4">
<path d="M -2.953125 -5.605469 L -2.515625 -5.605469 L -2.515625 -1.488281 C -1.894531 -1.527344 -1.417969 -1.707031 -1.097656 -2.046875 C -0.777344 -2.375 -0.617188 -2.832031 -0.617188 -3.433594 C -0.617188 -3.773438 -0.660156 -4.109375 -0.738281 -4.429688 C -0.816406 -4.75 -0.949219 -5.078125 -1.128906 -5.398438 L -0.28125 -5.398438 C -0.140625 -5.078125 -0.03125 -4.75 0.03125 -4.410156 C 0.0898438 -4.070312 0.128906 -3.722656 0.128906 -3.382812 C 0.128906 -2.503906 -0.121094 -1.816406 -0.617188 -1.308594 C -1.117188 -0.796875 -1.804688 -0.546875 -2.675781 -0.546875 C -3.5625 -0.546875 -4.269531 -0.789062 -4.800781 -1.265625 C -5.316406 -1.746094 -5.585938 -2.40625 -5.585938 -3.222656 C -5.585938 -3.960938 -5.347656 -4.539062 -4.878906 -4.96875 C -4.398438 -5.386719 -3.761719 -5.605469 -2.953125 -5.605469 Z M -3.210938 -4.710938 C -3.703125 -4.699219 -4.089844 -4.558594 -4.390625 -4.300781 C -4.679688 -4.03125 -4.828125 -3.671875 -4.828125 -3.234375 C -4.828125 -2.734375 -4.679688 -2.335938 -4.398438 -2.035156 C -4.121094 -1.734375 -3.722656 -1.554688 -3.210938 -1.515625 Z M -3.210938 -4.710938 "/>
</g>
<g id="glyph-1-5">
<path d="M -4.621094 -4.101562 C -4.679688 -4 -4.71875 -3.890625 -4.75 -3.773438 C -4.769531 -3.652344 -4.789062 -3.523438 -4.789062 -3.382812 C -4.789062 -2.875 -4.621094 -2.484375 -4.289062 -2.214844 C -3.960938 -1.9375 -3.492188 -1.804688 -2.875 -1.804688 L 0 -1.804688 L 0 -0.90625 L -5.457031 -0.90625 L -5.457031 -1.804688 L -4.609375 -1.804688 C -4.9375 -1.984375 -5.1875 -2.234375 -5.347656 -2.535156 C -5.507812 -2.832031 -5.585938 -3.203125 -5.585938 -3.640625 C -5.585938 -3.703125 -5.578125 -3.773438 -5.578125 -3.851562 C -5.566406 -3.921875 -5.558594 -4 -5.539062 -4.101562 Z M -4.621094 -4.101562 "/>
</g>
<g id="glyph-1-6">
<path d="M -5.457031 -0.300781 L -5.457031 -1.246094 L -0.878906 -2.953125 L -5.457031 -4.660156 L -5.457031 -5.605469 L 0 -3.5625 L 0 -2.34375 Z M -5.457031 -0.300781 "/>
</g>
<g id="glyph-1-7">
<path d="M -2.742188 -3.421875 C -2.742188 -2.695312 -2.652344 -2.195312 -2.496094 -1.914062 C -2.324219 -1.636719 -2.046875 -1.496094 -1.644531 -1.496094 C -1.328125 -1.496094 -1.066406 -1.597656 -0.886719 -1.804688 C -0.699219 -2.015625 -0.609375 -2.304688 -0.609375 -2.664062 C -0.609375 -3.164062 -0.777344 -3.5625 -1.136719 -3.859375 C -1.488281 -4.160156 -1.957031 -4.308594 -2.542969 -4.308594 L -2.742188 -4.308594 Z M -3.113281 -5.207031 L 0 -5.207031 L 0 -4.308594 L -0.828125 -4.308594 C -0.488281 -4.101562 -0.25 -3.839844 -0.101562 -3.542969 C 0.0507812 -3.242188 0.128906 -2.863281 0.128906 -2.425781 C 0.128906 -1.867188 -0.0195312 -1.417969 -0.328125 -1.085938 C -0.636719 -0.757812 -1.058594 -0.597656 -1.585938 -0.597656 C -2.195312 -0.597656 -2.652344 -0.796875 -2.972656 -1.21875 C -3.28125 -1.625 -3.441406 -2.234375 -3.441406 -3.054688 L -3.441406 -4.308594 L -3.53125 -4.308594 C -3.941406 -4.308594 -4.261719 -4.171875 -4.488281 -3.902344 C -4.710938 -3.632812 -4.828125 -3.253906 -4.828125 -2.765625 C -4.828125 -2.445312 -4.789062 -2.144531 -4.710938 -1.847656 C -4.628906 -1.546875 -4.519531 -1.265625 -4.378906 -0.996094 L -5.207031 -0.996094 C -5.328125 -1.316406 -5.429688 -1.636719 -5.488281 -1.945312 C -5.546875 -2.253906 -5.585938 -2.554688 -5.585938 -2.855469 C -5.585938 -3.640625 -5.378906 -4.230469 -4.96875 -4.621094 C -4.558594 -5.007812 -3.941406 -5.207031 -3.113281 -5.207031 Z M -3.113281 -5.207031 "/>
</g>
<g id="glyph-1-8">
<path d="M -7.003906 -1.824219 L -5.457031 -1.824219 L -5.457031 -3.671875 L -4.757812 -3.671875 L -4.757812 -1.824219 L -1.796875 -1.824219 C -1.347656 -1.824219 -1.058594 -1.886719 -0.9375 -2.003906 C -0.808594 -2.125 -0.75 -2.375 -0.75 -2.753906 L -0.75 -3.671875 L 0 -3.671875 L 0 -2.753906 C 0 -2.054688 -0.128906 -1.578125 -0.390625 -1.316406 C -0.648438 -1.058594 -1.117188 -0.929688 -1.796875 -0.929688 L -4.757812 -0.929688 L -4.757812 -0.269531 L -5.457031 -0.269531 L -5.457031 -0.929688 L -7.003906 -0.929688 Z M -7.003906 -1.824219 "/>
</g>
<g id="glyph-1-9">
<path d="M -5.457031 -0.9375 L -5.457031 -1.835938 L 0 -1.835938 L 0 -0.9375 Z M -7.582031 -0.9375 L -7.582031 -1.835938 L -6.445312 -1.835938 L -6.445312 -0.9375 Z M -7.582031 -0.9375 "/>
</g>
<g id="glyph-1-10">
</g>
<g id="glyph-1-11">
<path d="M -7.574219 -3.09375 C -6.816406 -2.652344 -6.078125 -2.335938 -5.347656 -2.125 C -4.621094 -1.90625 -3.882812 -1.804688 -3.132812 -1.804688 C -2.375 -1.804688 -1.636719 -1.90625 -0.90625 -2.125 C -0.167969 -2.335938 0.558594 -2.652344 1.308594 -3.09375 L 1.308594 -2.316406 C 0.539062 -1.824219 -0.199219 -1.457031 -0.9375 -1.21875 C -1.675781 -0.976562 -2.40625 -0.859375 -3.132812 -0.859375 C -3.851562 -0.859375 -4.578125 -0.976562 -5.316406 -1.21875 C -6.054688 -1.457031 -6.804688 -1.816406 -7.574219 -2.316406 Z M -7.574219 -3.09375 "/>
</g>
<g id="glyph-1-12">
<path d="M -7.273438 -0.976562 L -7.273438 -1.964844 L -0.507812 -1.964844 C 0.359375 -1.964844 0.988281 -1.796875 1.386719 -1.464844 C 1.785156 -1.128906 1.984375 -0.597656 1.984375 0.128906 L 1.984375 0.507812 L 1.15625 0.507812 L 1.15625 0.199219 C 1.15625 -0.21875 1.027344 -0.527344 0.789062 -0.707031 C 0.546875 -0.886719 0.109375 -0.976562 -0.507812 -0.976562 Z M -7.273438 -0.976562 "/>
</g>
<g id="glyph-1-13">
<path d="M -5.25 -4.867188 L -4.410156 -4.867188 C -4.550781 -4.609375 -4.648438 -4.359375 -4.71875 -4.101562 C -4.789062 -3.839844 -4.828125 -3.59375 -4.828125 -3.332031 C -4.828125 -2.753906 -4.640625 -2.292969 -4.269531 -1.976562 C -3.902344 -1.65625 -3.382812 -1.496094 -2.722656 -1.496094 C -2.054688 -1.496094 -1.535156 -1.65625 -1.167969 -1.976562 C -0.796875 -2.292969 -0.617188 -2.753906 -0.617188 -3.332031 C -0.617188 -3.59375 -0.648438 -3.839844 -0.71875 -4.101562 C -0.789062 -4.359375 -0.898438 -4.609375 -1.039062 -4.867188 L -0.210938 -4.867188 C -0.0898438 -4.609375 0 -4.351562 0.0507812 -4.089844 C 0.101562 -3.820312 0.128906 -3.53125 0.128906 -3.234375 C 0.128906 -2.414062 -0.121094 -1.757812 -0.636719 -1.277344 C -1.148438 -0.789062 -1.847656 -0.546875 -2.722656 -0.546875 C -3.613281 -0.546875 -4.308594 -0.789062 -4.820312 -1.277344 C -5.328125 -1.765625 -5.585938 -2.433594 -5.585938 -3.292969 C -5.585938 -3.570312 -5.558594 -3.839844 -5.496094 -4.101562 C -5.4375 -4.359375 -5.359375 -4.621094 -5.25 -4.867188 Z M -5.25 -4.867188 "/>
</g>
<g id="glyph-1-14">
<path d="M -4.628906 -4.53125 L -7.582031 -4.53125 L -7.582031 -5.429688 L 0 -5.429688 L 0 -4.53125 L -0.816406 -4.53125 C -0.488281 -4.339844 -0.25 -4.101562 -0.101562 -3.8125 C 0.0507812 -3.523438 0.128906 -3.183594 0.128906 -2.785156 C 0.128906 -2.125 -0.128906 -1.585938 -0.648438 -1.167969 C -1.167969 -0.75 -1.867188 -0.546875 -2.722656 -0.546875 C -3.582031 -0.546875 -4.269531 -0.75 -4.800781 -1.167969 C -5.316406 -1.585938 -5.585938 -2.125 -5.585938 -2.785156 C -5.585938 -3.183594 -5.507812 -3.523438 -5.347656 -3.8125 C -5.1875 -4.101562 -4.949219 -4.339844 -4.628906 -4.53125 Z M -2.722656 -1.476562 C -2.066406 -1.476562 -1.546875 -1.605469 -1.167969 -1.875 C -0.789062 -2.144531 -0.609375 -2.515625 -0.609375 -2.992188 C -0.609375 -3.472656 -0.789062 -3.839844 -1.167969 -4.121094 C -1.546875 -4.390625 -2.066406 -4.53125 -2.722656 -4.53125 C -3.382812 -4.53125 -3.890625 -4.390625 -4.269531 -4.121094 C -4.648438 -3.839844 -4.839844 -3.472656 -4.839844 -2.992188 C -4.839844 -2.515625 -4.648438 -2.144531 -4.269531 -1.875 C -3.890625 -1.605469 -3.382812 -1.476562 -2.722656 -1.476562 Z M -2.722656 -1.476562 "/>
</g>
<g id="glyph-1-15">
<path d="M -4.410156 -5.1875 C -4.808594 -5.40625 -5.097656 -5.675781 -5.296875 -5.988281 C -5.488281 -6.296875 -5.585938 -6.664062 -5.585938 -7.09375 C -5.585938 -7.652344 -5.386719 -8.089844 -4.988281 -8.402344 C -4.589844 -8.710938 -4.019531 -8.871094 -3.292969 -8.871094 L 0 -8.871094 L 0 -7.972656 L -3.261719 -7.972656 C -3.78125 -7.972656 -4.171875 -7.871094 -4.429688 -7.691406 C -4.679688 -7.503906 -4.808594 -7.222656 -4.808594 -6.84375 C -4.808594 -6.375 -4.648438 -6.007812 -4.339844 -5.738281 C -4.03125 -5.46875 -3.613281 -5.339844 -3.082031 -5.339844 L 0 -5.339844 L 0 -4.441406 L -3.261719 -4.441406 C -3.78125 -4.441406 -4.171875 -4.339844 -4.429688 -4.160156 C -4.679688 -3.972656 -4.808594 -3.683594 -4.808594 -3.300781 C -4.808594 -2.84375 -4.648438 -2.472656 -4.339844 -2.203125 C -4.03125 -1.9375 -3.613281 -1.804688 -3.082031 -1.804688 L 0 -1.804688 L 0 -0.90625 L -5.457031 -0.90625 L -5.457031 -1.804688 L -4.609375 -1.804688 C -4.9375 -2.003906 -5.1875 -2.253906 -5.347656 -2.542969 C -5.507812 -2.824219 -5.585938 -3.164062 -5.585938 -3.5625 C -5.585938 -3.960938 -5.488281 -4.289062 -5.289062 -4.570312 C -5.089844 -4.847656 -4.789062 -5.046875 -4.410156 -5.1875 Z M -4.410156 -5.1875 "/>
</g>
<g id="glyph-1-16">
<path d="M -7.582031 -0.9375 L -7.582031 -1.835938 L 0 -1.835938 L 0 -0.9375 Z M -7.582031 -0.9375 "/>
</g>
<g id="glyph-1-17">
<path d="M 0.5 -3.210938 C 1.136719 -2.953125 1.566406 -2.703125 1.765625 -2.464844 C 1.964844 -2.226562 2.066406 -1.90625 2.066406 -1.507812 L 2.066406 -0.789062 L 1.316406 -0.789062 L 1.316406 -1.316406 C 1.316406 -1.554688 1.257812 -1.746094 1.136719 -1.886719 C 1.019531 -2.027344 0.75 -2.175781 0.308594 -2.34375 L -0.0898438 -2.503906 L -5.457031 -0.300781 L -5.457031 -1.246094 L -1.1875 -2.953125 L -5.457031 -4.660156 L -5.457031 -5.605469 Z M 0.5 -3.210938 "/>
</g>
<g id="glyph-1-18">
<path d="M -7.574219 -0.796875 L -7.574219 -1.578125 C -6.804688 -2.054688 -6.054688 -2.425781 -5.316406 -2.664062 C -4.578125 -2.902344 -3.851562 -3.03125 -3.132812 -3.03125 C -2.40625 -3.03125 -1.675781 -2.902344 -0.9375 -2.664062 C -0.199219 -2.425781 0.539062 -2.054688 1.308594 -1.578125 L 1.308594 -0.796875 C 0.558594 -1.226562 -0.167969 -1.546875 -0.90625 -1.765625 C -1.636719 -1.976562 -2.375 -2.085938 -3.132812 -2.085938 C -3.882812 -2.085938 -4.621094 -1.976562 -5.347656 -1.765625 C -6.078125 -1.546875 -6.816406 -1.226562 -7.574219 -0.796875 Z M -7.574219 -0.796875 "/>
</g>
<g id="glyph-2-0">
<path d="M 7.710938 -8.058594 L 7.710938 -6.8125 C 7.304688 -7.171875 6.882812 -7.445312 6.429688 -7.640625 C 5.972656 -7.816406 5.507812 -7.914062 5.003906 -7.914062 C 4 -7.914062 3.234375 -7.601562 2.707031 -6.992188 C 2.179688 -6.382812 1.914062 -5.507812 1.914062 -4.359375 C 1.914062 -3.207031 2.179688 -2.324219 2.707031 -1.710938 C 3.234375 -1.101562 4 -0.800781 5.003906 -0.800781 C 5.507812 -0.800781 5.972656 -0.886719 6.429688 -1.078125 C 6.882812 -1.257812 7.304688 -1.53125 7.710938 -1.902344 L 7.710938 -0.671875 C 7.292969 -0.382812 6.847656 -0.179688 6.394531 -0.046875 C 5.9375 0.0820312 5.449219 0.15625 4.933594 0.15625 C 3.617188 0.15625 2.574219 -0.238281 1.808594 -1.042969 C 1.042969 -1.84375 0.671875 -2.945312 0.671875 -4.359375 C 0.671875 -5.757812 1.042969 -6.859375 1.808594 -7.675781 C 2.574219 -8.476562 3.617188 -8.882812 4.933594 -8.882812 C 5.460938 -8.882812 5.949219 -8.8125 6.40625 -8.679688 C 6.859375 -8.535156 7.304688 -8.332031 7.710938 -8.058594 Z M 7.710938 -8.058594 "/>
</g>
<g id="glyph-2-1">
<path d="M 3.664062 -5.792969 C 3.089844 -5.792969 2.632812 -5.566406 2.296875 -5.113281 C 1.964844 -4.65625 1.796875 -4.046875 1.796875 -3.269531 C 1.796875 -2.476562 1.953125 -1.867188 2.285156 -1.414062 C 2.621094 -0.957031 3.078125 -0.742188 3.664062 -0.742188 C 4.238281 -0.742188 4.695312 -0.957031 5.027344 -1.414062 C 5.363281 -1.867188 5.53125 -2.476562 5.53125 -3.269531 C 5.53125 -4.035156 5.363281 -4.65625 5.027344 -5.113281 C 4.695312 -5.566406 4.238281 -5.792969 3.664062 -5.792969 Z M 3.664062 -6.703125 C 4.597656 -6.703125 5.328125 -6.394531 5.867188 -5.792969 C 6.394531 -5.183594 6.667969 -4.347656 6.667969 -3.269531 C 6.667969 -2.191406 6.394531 -1.351562 5.867188 -0.753906 C 5.328125 -0.144531 4.597656 0.15625 3.664062 0.15625 C 2.71875 0.15625 1.976562 -0.144531 1.449219 -0.753906 C 0.921875 -1.351562 0.660156 -2.191406 0.660156 -3.269531 C 0.660156 -4.347656 0.921875 -5.183594 1.449219 -5.792969 C 1.976562 -6.394531 2.71875 -6.703125 3.664062 -6.703125 Z M 3.664062 -6.703125 "/>
</g>
<g id="glyph-2-2">
<path d="M 6.574219 -3.949219 L 6.574219 0 L 5.496094 0 L 5.496094 -3.914062 C 5.496094 -4.539062 5.363281 -4.992188 5.125 -5.304688 C 4.886719 -5.617188 4.527344 -5.769531 4.046875 -5.769531 C 3.460938 -5.769531 3.003906 -5.578125 2.671875 -5.207031 C 2.335938 -4.835938 2.167969 -4.335938 2.167969 -3.699219 L 2.167969 0 L 1.089844 0 L 1.089844 -6.550781 L 2.167969 -6.550781 L 2.167969 -5.53125 C 2.417969 -5.914062 2.71875 -6.214844 3.078125 -6.40625 C 3.425781 -6.597656 3.832031 -6.703125 4.285156 -6.703125 C 5.027344 -6.703125 5.601562 -6.464844 5.988281 -6 C 6.371094 -5.53125 6.574219 -4.847656 6.574219 -3.949219 Z M 6.574219 -3.949219 "/>
</g>
<g id="glyph-2-3">
<path d="M 5.304688 -6.359375 L 5.304688 -5.339844 C 4.992188 -5.484375 4.679688 -5.601562 4.359375 -5.6875 C 4.023438 -5.757812 3.6875 -5.808594 3.339844 -5.808594 C 2.800781 -5.808594 2.394531 -5.722656 2.132812 -5.554688 C 1.867188 -5.386719 1.734375 -5.148438 1.734375 -4.824219 C 1.734375 -4.574219 1.832031 -4.382812 2.023438 -4.238281 C 2.214844 -4.09375 2.597656 -3.949219 3.171875 -3.832031 L 3.542969 -3.746094 C 4.308594 -3.578125 4.847656 -3.339844 5.171875 -3.054688 C 5.484375 -2.753906 5.652344 -2.335938 5.652344 -1.808594 C 5.652344 -1.199219 5.410156 -0.71875 4.933594 -0.371094 C 4.453125 -0.0117188 3.785156 0.15625 2.945312 0.15625 C 2.585938 0.15625 2.226562 0.121094 1.84375 0.0585938 C 1.460938 0 1.066406 -0.0976562 0.648438 -0.238281 L 0.648438 -1.351562 C 1.042969 -1.136719 1.4375 -0.980469 1.820312 -0.886719 C 2.203125 -0.777344 2.585938 -0.730469 2.96875 -0.730469 C 3.472656 -0.730469 3.867188 -0.8125 4.144531 -0.980469 C 4.40625 -1.148438 4.550781 -1.402344 4.550781 -1.722656 C 4.550781 -2.011719 4.441406 -2.238281 4.25 -2.394531 C 4.058594 -2.550781 3.628906 -2.707031 2.957031 -2.847656 L 2.585938 -2.933594 C 1.914062 -3.078125 1.425781 -3.292969 1.136719 -3.578125 C 0.839844 -3.867188 0.695312 -4.261719 0.695312 -4.777344 C 0.695312 -5.386719 0.910156 -5.867188 1.339844 -6.203125 C 1.773438 -6.539062 2.394531 -6.703125 3.207031 -6.703125 C 3.605469 -6.703125 3.976562 -6.667969 4.335938 -6.609375 C 4.679688 -6.550781 5.003906 -6.464844 5.304688 -6.359375 Z M 5.304688 -6.359375 "/>
</g>
<g id="glyph-2-4">
<path d="M 6.730469 -3.542969 L 6.730469 -3.015625 L 1.785156 -3.015625 C 1.832031 -2.273438 2.046875 -1.699219 2.453125 -1.316406 C 2.847656 -0.933594 3.398438 -0.742188 4.117188 -0.742188 C 4.527344 -0.742188 4.933594 -0.789062 5.316406 -0.886719 C 5.699219 -0.980469 6.09375 -1.136719 6.476562 -1.351562 L 6.476562 -0.335938 C 6.09375 -0.167969 5.699219 -0.0351562 5.292969 0.0351562 C 4.886719 0.109375 4.464844 0.15625 4.058594 0.15625 C 3.003906 0.15625 2.179688 -0.144531 1.570312 -0.742188 C 0.957031 -1.339844 0.660156 -2.167969 0.660156 -3.207031 C 0.660156 -4.273438 0.945312 -5.125 1.519531 -5.757812 C 2.09375 -6.382812 2.886719 -6.703125 3.867188 -6.703125 C 4.753906 -6.703125 5.449219 -6.417969 5.960938 -5.855469 C 6.464844 -5.28125 6.730469 -4.515625 6.730469 -3.542969 Z M 5.652344 -3.855469 C 5.640625 -4.441406 5.472656 -4.910156 5.160156 -5.269531 C 4.835938 -5.617188 4.40625 -5.792969 3.878906 -5.792969 C 3.28125 -5.792969 2.800781 -5.617188 2.441406 -5.28125 C 2.082031 -4.945312 1.867188 -4.464844 1.820312 -3.855469 Z M 5.652344 -3.855469 "/>
</g>
<g id="glyph-2-5">
<path d="M 4.921875 -5.542969 C 4.800781 -5.617188 4.667969 -5.664062 4.527344 -5.699219 C 4.382812 -5.722656 4.226562 -5.746094 4.058594 -5.746094 C 3.449219 -5.746094 2.980469 -5.542969 2.65625 -5.148438 C 2.324219 -4.753906 2.167969 -4.191406 2.167969 -3.449219 L 2.167969 0 L 1.089844 0 L 1.089844 -6.550781 L 2.167969 -6.550781 L 2.167969 -5.53125 C 2.382812 -5.925781 2.683594 -6.226562 3.042969 -6.417969 C 3.398438 -6.609375 3.84375 -6.703125 4.371094 -6.703125 C 4.441406 -6.703125 4.527344 -6.691406 4.621094 -6.691406 C 4.707031 -6.679688 4.800781 -6.667969 4.921875 -6.644531 Z M 4.921875 -5.542969 "/>
</g>
<g id="glyph-2-6">
<path d="M 0.359375 -6.550781 L 1.496094 -6.550781 L 3.542969 -1.054688 L 5.589844 -6.550781 L 6.730469 -6.550781 L 4.273438 0 L 2.8125 0 Z M 0.359375 -6.550781 "/>
</g>
<g id="glyph-2-7">
<path d="M 4.105469 -3.292969 C 3.234375 -3.292969 2.632812 -3.183594 2.296875 -2.992188 C 1.964844 -2.789062 1.796875 -2.453125 1.796875 -1.976562 C 1.796875 -1.59375 1.914062 -1.28125 2.167969 -1.066406 C 2.417969 -0.839844 2.765625 -0.730469 3.195312 -0.730469 C 3.796875 -0.730469 4.273438 -0.933594 4.632812 -1.363281 C 4.992188 -1.785156 5.171875 -2.347656 5.171875 -3.054688 L 5.171875 -3.292969 Z M 6.25 -3.734375 L 6.25 0 L 5.171875 0 L 5.171875 -0.992188 C 4.921875 -0.585938 4.609375 -0.300781 4.25 -0.121094 C 3.890625 0.0585938 3.4375 0.15625 2.910156 0.15625 C 2.238281 0.15625 1.699219 -0.0234375 1.304688 -0.394531 C 0.910156 -0.765625 0.71875 -1.269531 0.71875 -1.902344 C 0.71875 -2.632812 0.957031 -3.183594 1.460938 -3.566406 C 1.953125 -3.9375 2.683594 -4.128906 3.664062 -4.128906 L 5.171875 -4.128906 L 5.171875 -4.238281 C 5.171875 -4.730469 5.003906 -5.113281 4.679688 -5.386719 C 4.359375 -5.652344 3.902344 -5.792969 3.316406 -5.792969 C 2.933594 -5.792969 2.574219 -5.746094 2.214844 -5.652344 C 1.855469 -5.554688 1.519531 -5.421875 1.199219 -5.257812 L 1.199219 -6.25 C 1.582031 -6.394531 1.964844 -6.511719 2.335938 -6.585938 C 2.707031 -6.65625 3.066406 -6.703125 3.425781 -6.703125 C 4.371094 -6.703125 5.078125 -6.453125 5.542969 -5.960938 C 6.011719 -5.472656 6.25 -4.730469 6.25 -3.734375 Z M 6.25 -3.734375 "/>
</g>
<g id="glyph-2-8">
<path d="M 2.191406 -8.40625 L 2.191406 -6.550781 L 4.40625 -6.550781 L 4.40625 -5.710938 L 2.191406 -5.710938 L 2.191406 -2.15625 C 2.191406 -1.617188 2.261719 -1.269531 2.40625 -1.125 C 2.550781 -0.96875 2.847656 -0.898438 3.304688 -0.898438 L 4.40625 -0.898438 L 4.40625 0 L 3.304688 0 C 2.464844 0 1.890625 -0.15625 1.582031 -0.46875 C 1.269531 -0.777344 1.113281 -1.339844 1.113281 -2.15625 L 1.113281 -5.710938 L 0.324219 -5.710938 L 0.324219 -6.550781 L 1.113281 -6.550781 L 1.113281 -8.40625 Z M 2.191406 -8.40625 "/>
</g>
<g id="glyph-2-9">
<path d="M 1.125 -6.550781 L 2.203125 -6.550781 L 2.203125 0 L 1.125 0 Z M 1.125 -9.097656 L 2.203125 -9.097656 L 2.203125 -7.734375 L 1.125 -7.734375 Z M 1.125 -9.097656 "/>
</g>
<g id="glyph-2-10">
</g>
<g id="glyph-2-11">
<path d="M 4.441406 -9.097656 L 4.441406 -8.203125 L 3.414062 -8.203125 C 3.027344 -8.203125 2.753906 -8.117188 2.609375 -7.960938 C 2.453125 -7.804688 2.382812 -7.53125 2.382812 -7.125 L 2.382812 -6.550781 L 4.15625 -6.550781 L 4.15625 -5.710938 L 2.382812 -5.710938 L 2.382812 0 L 1.304688 0 L 1.304688 -5.710938 L 0.273438 -5.710938 L 0.273438 -6.550781 L 1.304688 -6.550781 L 1.304688 -7.003906 C 1.304688 -7.722656 1.472656 -8.261719 1.808594 -8.597656 C 2.144531 -8.933594 2.683594 -9.097656 3.425781 -9.097656 Z M 4.441406 -9.097656 "/>
</g>
<g id="glyph-2-12">
<path d="M 6.226562 -5.292969 C 6.488281 -5.769531 6.8125 -6.117188 7.183594 -6.359375 C 7.554688 -6.585938 7.996094 -6.703125 8.511719 -6.703125 C 9.183594 -6.703125 9.710938 -6.464844 10.082031 -5.988281 C 10.453125 -5.507812 10.644531 -4.824219 10.644531 -3.949219 L 10.644531 0 L 9.566406 0 L 9.566406 -3.914062 C 9.566406 -4.539062 9.445312 -5.003906 9.230469 -5.316406 C 9.003906 -5.617188 8.667969 -5.769531 8.214844 -5.769531 C 7.652344 -5.769531 7.207031 -5.578125 6.882812 -5.207031 C 6.5625 -4.835938 6.40625 -4.335938 6.40625 -3.699219 L 6.40625 0 L 5.328125 0 L 5.328125 -3.914062 C 5.328125 -4.539062 5.207031 -5.003906 4.992188 -5.316406 C 4.765625 -5.617188 4.417969 -5.769531 3.964844 -5.769531 C 3.414062 -5.769531 2.96875 -5.578125 2.644531 -5.207031 C 2.324219 -4.835938 2.167969 -4.335938 2.167969 -3.699219 L 2.167969 0 L 1.089844 0 L 1.089844 -6.550781 L 2.167969 -6.550781 L 2.167969 -5.53125 C 2.40625 -5.925781 2.707031 -6.226562 3.054688 -6.417969 C 3.386719 -6.609375 3.796875 -6.703125 4.273438 -6.703125 C 4.753906 -6.703125 5.148438 -6.585938 5.484375 -6.34375 C 5.820312 -6.105469 6.058594 -5.746094 6.226562 -5.292969 Z M 6.226562 -5.292969 "/>
</g>
<g id="glyph-2-13">
<path d="M 1.019531 -2.585938 L 1.019531 -6.550781 L 2.09375 -6.550781 L 2.09375 -2.621094 C 2.09375 -2 2.214844 -1.542969 2.453125 -1.234375 C 2.695312 -0.921875 3.054688 -0.765625 3.542969 -0.765625 C 4.117188 -0.765625 4.585938 -0.945312 4.921875 -1.316406 C 5.257812 -1.6875 5.421875 -2.191406 5.421875 -2.835938 L 5.421875 -6.550781 L 6.5 -6.550781 L 6.5 0 L 5.421875 0 L 5.421875 -1.003906 C 5.160156 -0.597656 4.847656 -0.3125 4.515625 -0.121094 C 4.167969 0.0585938 3.773438 0.15625 3.316406 0.15625 C 2.5625 0.15625 1.988281 -0.0703125 1.605469 -0.539062 C 1.210938 -0.992188 1.019531 -1.675781 1.019531 -2.585938 Z M 3.722656 -6.703125 Z M 3.722656 -6.703125 "/>
</g>
<g id="glyph-2-14">
<path d="M 1.125 -9.097656 L 2.203125 -9.097656 L 2.203125 0 L 1.125 0 Z M 1.125 -9.097656 "/>
</g>
<g id="glyph-2-15">
<path d="M 0.660156 -6.550781 L 5.769531 -6.550781 L 5.769531 -5.566406 L 1.722656 -0.863281 L 5.769531 -0.863281 L 5.769531 0 L 0.515625 0 L 0.515625 -0.980469 L 4.5625 -5.6875 L 0.660156 -5.6875 Z M 0.660156 -6.550781 "/>
</g>
<g id="glyph-2-16">
<path d="M 5.4375 -5.554688 L 5.4375 -9.097656 L 6.511719 -9.097656 L 6.511719 0 L 5.4375 0 L 5.4375 -0.980469 C 5.207031 -0.585938 4.921875 -0.300781 4.574219 -0.121094 C 4.226562 0.0585938 3.820312 0.15625 3.339844 0.15625 C 2.550781 0.15625 1.902344 -0.15625 1.402344 -0.777344 C 0.898438 -1.402344 0.660156 -2.238281 0.660156 -3.269531 C 0.660156 -4.296875 0.898438 -5.125 1.402344 -5.757812 C 1.902344 -6.382812 2.550781 -6.703125 3.339844 -6.703125 C 3.820312 -6.703125 4.226562 -6.609375 4.574219 -6.417969 C 4.921875 -6.226562 5.207031 -5.9375 5.4375 -5.554688 Z M 1.773438 -3.269531 C 1.773438 -2.476562 1.925781 -1.855469 2.25 -1.402344 C 2.574219 -0.945312 3.015625 -0.730469 3.59375 -0.730469 C 4.167969 -0.730469 4.609375 -0.945312 4.945312 -1.402344 C 5.269531 -1.855469 5.4375 -2.476562 5.4375 -3.269531 C 5.4375 -4.058594 5.269531 -4.667969 4.945312 -5.125 C 4.609375 -5.578125 4.167969 -5.808594 3.59375 -5.808594 C 3.015625 -5.808594 2.574219 -5.578125 2.25 -5.125 C 1.925781 -4.667969 1.773438 -4.058594 1.773438 -3.269531 Z M 1.773438 -3.269531 "/>
</g>
<g id="glyph-2-17">
<path d="M 6.574219 -6.550781 L 4.203125 -3.363281 L 6.691406 0 L 5.421875 0 L 3.519531 -2.574219 L 1.617188 0 L 0.347656 0 L 2.886719 -3.425781 L 0.5625 -6.550781 L 1.832031 -6.550781 L 3.566406 -4.214844 L 5.304688 -6.550781 Z M 6.574219 -6.550781 "/>
</g>
<g id="glyph-2-18">
<path d="M 3.710938 -9.085938 C 3.183594 -8.175781 2.800781 -7.292969 2.550781 -6.417969 C 2.285156 -5.542969 2.167969 -4.65625 2.167969 -3.757812 C 2.167969 -2.847656 2.285156 -1.964844 2.550781 -1.089844 C 2.800781 -0.203125 3.183594 0.671875 3.710938 1.570312 L 2.777344 1.570312 C 2.191406 0.648438 1.75 -0.238281 1.460938 -1.125 C 1.171875 -2.011719 1.03125 -2.886719 1.03125 -3.757812 C 1.03125 -4.621094 1.171875 -5.496094 1.460938 -6.382812 C 1.75 -7.269531 2.179688 -8.164062 2.777344 -9.085938 Z M 3.710938 -9.085938 "/>
</g>
<g id="glyph-2-19">
<path d="M 1.269531 -5.4375 L 8.765625 -5.4375 L 8.765625 -4.453125 L 1.269531 -4.453125 Z M 1.269531 -3.054688 L 8.765625 -3.054688 L 8.765625 -2.058594 L 1.269531 -2.058594 Z M 1.269531 -3.054688 "/>
</g>
<g id="glyph-2-20">
<path d="M 2.296875 -0.992188 L 6.417969 -0.992188 L 6.417969 0 L 0.875 0 L 0.875 -0.992188 C 1.316406 -1.449219 1.925781 -2.070312 2.707031 -2.863281 C 3.472656 -3.640625 3.964844 -4.144531 4.167969 -4.371094 C 4.550781 -4.789062 4.8125 -5.148438 4.957031 -5.449219 C 5.101562 -5.734375 5.183594 -6.035156 5.183594 -6.320312 C 5.183594 -6.777344 5.015625 -7.160156 4.695312 -7.445312 C 4.371094 -7.734375 3.949219 -7.890625 3.425781 -7.890625 C 3.054688 -7.890625 2.65625 -7.816406 2.25 -7.699219 C 1.84375 -7.566406 1.402344 -7.375 0.933594 -7.113281 L 0.933594 -8.308594 C 1.414062 -8.5 1.855469 -8.644531 2.261719 -8.742188 C 2.671875 -8.835938 3.054688 -8.882812 3.398438 -8.882812 C 4.296875 -8.882812 5.015625 -8.65625 5.554688 -8.203125 C 6.09375 -7.746094 6.371094 -7.148438 6.371094 -6.394531 C 6.371094 -6.035156 6.296875 -5.6875 6.167969 -5.375 C 6.035156 -5.050781 5.792969 -4.667969 5.4375 -4.238281 C 5.339844 -4.117188 5.027344 -3.796875 4.5 -3.257812 C 3.976562 -2.71875 3.246094 -1.964844 2.296875 -0.992188 Z M 2.296875 -0.992188 "/>
</g>
<g id="glyph-2-21">
<path d="M 1.484375 -0.992188 L 3.414062 -0.992188 L 3.414062 -7.652344 L 1.316406 -7.230469 L 1.316406 -8.308594 L 3.398438 -8.726562 L 4.585938 -8.726562 L 4.585938 -0.992188 L 6.511719 -0.992188 L 6.511719 0 L 1.484375 0 Z M 1.484375 -0.992188 "/>
</g>
<g id="glyph-2-22">
<path d="M 1.402344 -1.484375 L 2.632812 -1.484375 L 2.632812 -0.480469 L 1.675781 1.375 L 0.921875 1.375 L 1.402344 -0.480469 Z M 1.402344 -1.484375 "/>
</g>
<g id="glyph-2-23">
<path d="M 1.292969 -8.726562 L 5.925781 -8.726562 L 5.925781 -7.734375 L 2.371094 -7.734375 L 2.371094 -5.589844 C 2.539062 -5.652344 2.71875 -5.699219 2.886719 -5.722656 C 3.054688 -5.746094 3.234375 -5.769531 3.398438 -5.769531 C 4.371094 -5.769531 5.136719 -5.496094 5.710938 -4.96875 C 6.285156 -4.429688 6.574219 -3.710938 6.574219 -2.800781 C 6.574219 -1.855469 6.273438 -1.125 5.6875 -0.609375 C 5.101562 -0.0976562 4.273438 0.15625 3.222656 0.15625 C 2.847656 0.15625 2.476562 0.121094 2.09375 0.0703125 C 1.710938 0.0117188 1.328125 -0.0703125 0.921875 -0.203125 L 0.921875 -1.390625 C 1.269531 -1.199219 1.628906 -1.054688 2.011719 -0.957031 C 2.382812 -0.863281 2.777344 -0.824219 3.195312 -0.824219 C 3.867188 -0.824219 4.40625 -0.992188 4.800781 -1.351562 C 5.183594 -1.710938 5.386719 -2.191406 5.386719 -2.800781 C 5.386719 -3.398438 5.183594 -3.878906 4.800781 -4.238281 C 4.40625 -4.597656 3.867188 -4.777344 3.195312 -4.777344 C 2.886719 -4.777344 2.5625 -4.742188 2.25 -4.667969 C 1.941406 -4.597656 1.617188 -4.488281 1.292969 -4.347656 Z M 1.292969 -8.726562 "/>
</g>
<g id="glyph-2-24">
<path d="M 0.957031 -9.085938 L 1.890625 -9.085938 C 2.464844 -8.164062 2.910156 -7.269531 3.195312 -6.382812 C 3.484375 -5.496094 3.640625 -4.621094 3.640625 -3.757812 C 3.640625 -2.886719 3.484375 -2.011719 3.195312 -1.125 C 2.910156 -0.238281 2.464844 0.648438 1.890625 1.570312 L 0.957031 1.570312 C 1.472656 0.671875 1.855469 -0.203125 2.121094 -1.089844 C 2.371094 -1.964844 2.503906 -2.847656 2.503906 -3.757812 C 2.503906 -4.65625 2.371094 -5.542969 2.121094 -6.417969 C 1.855469 -7.292969 1.472656 -8.175781 0.957031 -9.085938 Z M 0.957031 -9.085938 "/>
</g>
<g id="glyph-3-0">
<path d="M 10.75 -3.949219 L 9.984375 0 L 8.90625 0 L 9.664062 -3.914062 C 9.6875 -4.082031 9.710938 -4.226562 9.734375 -4.347656 C 9.746094 -4.464844 9.757812 -4.5625 9.757812 -4.65625 C 9.757812 -5.003906 9.648438 -5.28125 9.457031 -5.472656 C 9.265625 -5.664062 8.992188 -5.769531 8.644531 -5.769531 C 8.117188 -5.769531 7.652344 -5.566406 7.242188 -5.183594 C 6.835938 -4.789062 6.574219 -4.273438 6.453125 -3.652344 L 5.734375 0 L 4.65625 0 L 5.421875 -3.914062 C 5.449219 -4.058594 5.472656 -4.191406 5.496094 -4.308594 C 5.507812 -4.429688 5.519531 -4.550781 5.519531 -4.644531 C 5.519531 -5.003906 5.410156 -5.28125 5.21875 -5.472656 C 5.027344 -5.664062 4.753906 -5.769531 4.417969 -5.769531 C 3.890625 -5.769531 3.414062 -5.566406 3.003906 -5.183594 C 2.597656 -4.789062 2.335938 -4.273438 2.214844 -3.652344 L 1.496094 0 L 0.417969 0 L 1.699219 -6.550781 L 2.777344 -6.550781 L 2.574219 -5.53125 C 2.863281 -5.914062 3.195312 -6.203125 3.59375 -6.40625 C 3.988281 -6.597656 4.40625 -6.703125 4.859375 -6.703125 C 5.328125 -6.703125 5.710938 -6.574219 6.023438 -6.332031 C 6.332031 -6.082031 6.511719 -5.734375 6.585938 -5.292969 C 6.910156 -5.746094 7.292969 -6.105469 7.722656 -6.34375 C 8.152344 -6.585938 8.609375 -6.703125 9.085938 -6.703125 C 9.636719 -6.703125 10.070312 -6.539062 10.378906 -6.214844 C 10.691406 -5.890625 10.847656 -5.4375 10.847656 -4.847656 C 10.847656 -4.71875 10.835938 -4.574219 10.824219 -4.417969 C 10.800781 -4.261719 10.777344 -4.105469 10.75 -3.949219 Z M 10.75 -3.949219 "/>
</g>
<g id="glyph-3-1">
<path d="M 1.019531 -6.550781 L 2.082031 -6.550781 L 2.359375 -1.28125 L 4.800781 -6.550781 L 6.046875 -6.550781 L 6.40625 -1.28125 L 8.726562 -6.550781 L 9.804688 -6.550781 L 6.8125 0 L 5.554688 0 L 5.230469 -5.421875 L 2.730469 0 L 1.460938 0 Z M 1.019531 -6.550781 "/>
</g>
</g>
<clipPath id="clip-0">
<path clip-rule="nonzero" d="M 0 0.046875 L 425.078125 0.046875 L 425.078125 325.667969 L 0 325.667969 Z M 0 0.046875 "/>
</clipPath>
<clipPath id="clip-1">
<path clip-rule="nonzero" d="M 43.679688 22.695312 L 45 22.695312 L 45 288.207031 L 43.679688 288.207031 Z M 43.679688 22.695312 "/>
</clipPath>
<clipPath id="clip-2">
<path clip-rule="nonzero" d="M 91 22.695312 L 93 22.695312 L 93 288.207031 L 91 288.207031 Z M 91 22.695312 "/>
</clipPath>
<clipPath id="clip-3">
<path clip-rule="nonzero" d="M 140 22.695312 L 142 22.695312 L 142 288.207031 L 140 288.207031 Z M 140 22.695312 "/>
</clipPath>
<clipPath id="clip-4">
<path clip-rule="nonzero" d="M 188 22.695312 L 190 22.695312 L 190 288.207031 L 188 288.207031 Z M 188 22.695312 "/>
</clipPath>
<clipPath id="clip-5">
<path clip-rule="nonzero" d="M 237 22.695312 L 239 22.695312 L 239 288.207031 L 237 288.207031 Z M 237 22.695312 "/>
</clipPath>
<clipPath id="clip-6">
<path clip-rule="nonzero" d="M 285 22.695312 L 287 22.695312 L 287 288.207031 L 285 288.207031 Z M 285 22.695312 "/>
</clipPath>
<clipPath id="clip-7">
<path clip-rule="nonzero" d="M 334 22.695312 L 336 22.695312 L 336 288.207031 L 334 288.207031 Z M 334 22.695312 "/>
</clipPath>
<clipPath id="clip-8">
<path clip-rule="nonzero" d="M 382 22.695312 L 385 22.695312 L 385 288.207031 L 382 288.207031 Z M 382 22.695312 "/>
</clipPath>
<clipPath id="clip-9">
<path clip-rule="nonzero" d="M 43.679688 287 L 399.996094 287 L 399.996094 288.207031 L 43.679688 288.207031 Z M 43.679688 287 "/>
</clipPath>
<clipPath id="clip-10">
<path clip-rule="nonzero" d="M 43.679688 234 L 399.996094 234 L 399.996094 236 L 43.679688 236 Z M 43.679688 234 "/>
</clipPath>
<clipPath id="clip-11">
<path clip-rule="nonzero" d="M 43.679688 181 L 399.996094 181 L 399.996094 183 L 43.679688 183 Z M 43.679688 181 "/>
</clipPath>
<clipPath id="clip-12">
<path clip-rule="nonzero" d="M 43.679688 128 L 399.996094 128 L 399.996094 130 L 43.679688 130 Z M 43.679688 128 "/>
</clipPath>
<clipPath id="clip-13">
<path clip-rule="nonzero" d="M 43.679688 75 L 399.996094 75 L 399.996094 77 L 43.679688 77 Z M 43.679688 75 "/>
</clipPath>
<clipPath id="clip-14">
<path clip-rule="nonzero" d="M 43.679688 22.695312 L 399.996094 22.695312 L 399.996094 24 L 43.679688 24 Z M 43.679688 22.695312 "/>
</clipPath>
</defs>
<g clip-path="url(#clip-0)">
<path fill-rule="nonzero" fill="rgb(100%, 100%, 100%)" fill-opacity="1" d="M 0 325.667969 L 425.078125 325.667969 L 425.078125 0.046875 L 0 0.046875 Z M 0 325.667969 "/>
</g>
<path fill-rule="nonzero" fill="rgb(100%, 100%, 100%)" fill-opacity="1" d="M 43.679688 288.207031 L 399.996094 288.207031 L 399.996094 22.695312 L 43.679688 22.695312 Z M 43.679688 288.207031 "/>
<g clip-path="url(#clip-1)">
<path fill="none" stroke-width="0.8" stroke-linecap="square" stroke-linejoin="round" stroke="rgb(69.018555%, 69.018555%, 69.018555%)" stroke-opacity="1" stroke-miterlimit="10" d="M 43.778304 37.544313 L 43.778304 303.655483 " transform="matrix(0.997747, 0, 0, -0.997747, -0.000000000000007216, 325.66677)"/>
</g>
<path fill="none" stroke-width="0.8" stroke-linecap="butt" stroke-linejoin="round" stroke="rgb(0%, 0%, 0%)" stroke-opacity="1" stroke-miterlimit="10" d="M 43.778304 37.544313 L 43.778304 34.044241 " transform="matrix(0.997747, 0, 0, -0.997747, -0.000000000000007216, 325.66677)"/>
<g fill="rgb(0%, 0%, 0%)" fill-opacity="1">
<use xlink:href="#glyph-0-0" x="29.39925" y="302.768468"/>
<use xlink:href="#glyph-0-1" x="35.744923" y="302.768468"/>
<use xlink:href="#glyph-0-0" x="38.91776" y="302.768468"/>
<use xlink:href="#glyph-0-0" x="45.263433" y="302.768468"/>
<use xlink:href="#glyph-0-0" x="51.609106" y="302.768468"/>
</g>
<g clip-path="url(#clip-2)">
<path fill="none" stroke-width="0.8" stroke-linecap="square" stroke-linejoin="round" stroke="rgb(69.018555%, 69.018555%, 69.018555%)" stroke-opacity="1" stroke-miterlimit="10" d="M 92.430869 37.544313 L 92.430869 303.655483 " transform="matrix(0.997747, 0, 0, -0.997747, -0.000000000000007216, 325.66677)"/>
</g>
<path fill="none" stroke-width="0.8" stroke-linecap="butt" stroke-linejoin="round" stroke="rgb(0%, 0%, 0%)" stroke-opacity="1" stroke-miterlimit="10" d="M 92.430869 37.544313 L 92.430869 34.044241 " transform="matrix(0.997747, 0, 0, -0.997747, -0.000000000000007216, 325.66677)"/>
<g fill="rgb(0%, 0%, 0%)" fill-opacity="1">
<use xlink:href="#glyph-0-0" x="77.943601" y="302.768468"/>
<use xlink:href="#glyph-0-1" x="84.289274" y="302.768468"/>
<use xlink:href="#glyph-0-0" x="87.462111" y="302.768468"/>
<use xlink:href="#glyph-0-0" x="93.807784" y="302.768468"/>
<use xlink:href="#glyph-0-2" x="100.153457" y="302.768468"/>
</g>
<g clip-path="url(#clip-3)">
<path fill="none" stroke-width="0.8" stroke-linecap="square" stroke-linejoin="round" stroke="rgb(69.018555%, 69.018555%, 69.018555%)" stroke-opacity="1" stroke-miterlimit="10" d="M 141.08735 37.544313 L 141.08735 303.655483 " transform="matrix(0.997747, 0, 0, -0.997747, -0.000000000000007216, 325.66677)"/>
</g>
<path fill="none" stroke-width="0.8" stroke-linecap="butt" stroke-linejoin="round" stroke="rgb(0%, 0%, 0%)" stroke-opacity="1" stroke-miterlimit="10" d="M 141.08735 37.544313 L 141.08735 34.044241 " transform="matrix(0.997747, 0, 0, -0.997747, -0.000000000000007216, 325.66677)"/>
<g fill="rgb(0%, 0%, 0%)" fill-opacity="1">
<use xlink:href="#glyph-0-0" x="126.487952" y="302.768468"/>
<use xlink:href="#glyph-0-1" x="132.833626" y="302.768468"/>
<use xlink:href="#glyph-0-0" x="136.006462" y="302.768468"/>
<use xlink:href="#glyph-0-3" x="142.352136" y="302.768468"/>
<use xlink:href="#glyph-0-0" x="148.697809" y="302.768468"/>
</g>
<g clip-path="url(#clip-4)">
<path fill="none" stroke-width="0.8" stroke-linecap="square" stroke-linejoin="round" stroke="rgb(69.018555%, 69.018555%, 69.018555%)" stroke-opacity="1" stroke-miterlimit="10" d="M 189.739915 37.544313 L 189.739915 303.655483 " transform="matrix(0.997747, 0, 0, -0.997747, -0.000000000000007216, 325.66677)"/>
</g>
<path fill="none" stroke-width="0.8" stroke-linecap="butt" stroke-linejoin="round" stroke="rgb(0%, 0%, 0%)" stroke-opacity="1" stroke-miterlimit="10" d="M 189.739915 37.544313 L 189.739915 34.044241 " transform="matrix(0.997747, 0, 0, -0.997747, -0.000000000000007216, 325.66677)"/>
<g fill="rgb(0%, 0%, 0%)" fill-opacity="1">
<use xlink:href="#glyph-0-0" x="175.032304" y="302.768468"/>
<use xlink:href="#glyph-0-1" x="181.377977" y="302.768468"/>
<use xlink:href="#glyph-0-0" x="184.550814" y="302.768468"/>
<use xlink:href="#glyph-0-3" x="190.896487" y="302.768468"/>
<use xlink:href="#glyph-0-2" x="197.24216" y="302.768468"/>
</g>
<g clip-path="url(#clip-5)">
<path fill="none" stroke-width="0.8" stroke-linecap="square" stroke-linejoin="round" stroke="rgb(69.018555%, 69.018555%, 69.018555%)" stroke-opacity="1" stroke-miterlimit="10" d="M 238.39248 37.544313 L 238.39248 303.655483 " transform="matrix(0.997747, 0, 0, -0.997747, -0.000000000000007216, 325.66677)"/>
</g>
<path fill="none" stroke-width="0.8" stroke-linecap="butt" stroke-linejoin="round" stroke="rgb(0%, 0%, 0%)" stroke-opacity="1" stroke-miterlimit="10" d="M 238.39248 37.544313 L 238.39248 34.044241 " transform="matrix(0.997747, 0, 0, -0.997747, -0.000000000000007216, 325.66677)"/>
<g fill="rgb(0%, 0%, 0%)" fill-opacity="1">
<use xlink:href="#glyph-0-0" x="223.576655" y="302.768468"/>
<use xlink:href="#glyph-0-1" x="229.922328" y="302.768468"/>
<use xlink:href="#glyph-0-0" x="233.095165" y="302.768468"/>
<use xlink:href="#glyph-0-4" x="239.440838" y="302.768468"/>
<use xlink:href="#glyph-0-0" x="245.786512" y="302.768468"/>
</g>
<g clip-path="url(#clip-6)">
<path fill="none" stroke-width="0.8" stroke-linecap="square" stroke-linejoin="round" stroke="rgb(69.018555%, 69.018555%, 69.018555%)" stroke-opacity="1" stroke-miterlimit="10" d="M 287.04896 37.544313 L 287.04896 303.655483 " transform="matrix(0.997747, 0, 0, -0.997747, -0.000000000000007216, 325.66677)"/>
</g>
<path fill="none" stroke-width="0.8" stroke-linecap="butt" stroke-linejoin="round" stroke="rgb(0%, 0%, 0%)" stroke-opacity="1" stroke-miterlimit="10" d="M 287.04896 37.544313 L 287.04896 34.044241 " transform="matrix(0.997747, 0, 0, -0.997747, -0.000000000000007216, 325.66677)"/>
<g fill="rgb(0%, 0%, 0%)" fill-opacity="1">
<use xlink:href="#glyph-0-0" x="272.121007" y="302.768468"/>
<use xlink:href="#glyph-0-1" x="278.46668" y="302.768468"/>
<use xlink:href="#glyph-0-0" x="281.639516" y="302.768468"/>
<use xlink:href="#glyph-0-4" x="287.98519" y="302.768468"/>
<use xlink:href="#glyph-0-2" x="294.330863" y="302.768468"/>
</g>
<g clip-path="url(#clip-7)">
<path fill="none" stroke-width="0.8" stroke-linecap="square" stroke-linejoin="round" stroke="rgb(69.018555%, 69.018555%, 69.018555%)" stroke-opacity="1" stroke-miterlimit="10" d="M 335.701525 37.544313 L 335.701525 303.655483 " transform="matrix(0.997747, 0, 0, -0.997747, -0.000000000000007216, 325.66677)"/>
</g>
<path fill="none" stroke-width="0.8" stroke-linecap="butt" stroke-linejoin="round" stroke="rgb(0%, 0%, 0%)" stroke-opacity="1" stroke-miterlimit="10" d="M 335.701525 37.544313 L 335.701525 34.044241 " transform="matrix(0.997747, 0, 0, -0.997747, -0.000000000000007216, 325.66677)"/>
<g fill="rgb(0%, 0%, 0%)" fill-opacity="1">
<use xlink:href="#glyph-0-0" x="320.665358" y="302.768468"/>
<use xlink:href="#glyph-0-1" x="327.011031" y="302.768468"/>
<use xlink:href="#glyph-0-0" x="330.183868" y="302.768468"/>
<use xlink:href="#glyph-0-5" x="336.529541" y="302.768468"/>
<use xlink:href="#glyph-0-0" x="342.875214" y="302.768468"/>
</g>
<g clip-path="url(#clip-8)">
<path fill="none" stroke-width="0.8" stroke-linecap="square" stroke-linejoin="round" stroke="rgb(69.018555%, 69.018555%, 69.018555%)" stroke-opacity="1" stroke-miterlimit="10" d="M 384.354091 37.544313 L 384.354091 303.655483 " transform="matrix(0.997747, 0, 0, -0.997747, -0.000000000000007216, 325.66677)"/>
</g>
<path fill="none" stroke-width="0.8" stroke-linecap="butt" stroke-linejoin="round" stroke="rgb(0%, 0%, 0%)" stroke-opacity="1" stroke-miterlimit="10" d="M 384.354091 37.544313 L 384.354091 34.044241 " transform="matrix(0.997747, 0, 0, -0.997747, -0.000000000000007216, 325.66677)"/>
<g fill="rgb(0%, 0%, 0%)" fill-opacity="1">
<use xlink:href="#glyph-0-0" x="369.209709" y="302.768468"/>
<use xlink:href="#glyph-0-1" x="375.555383" y="302.768468"/>
<use xlink:href="#glyph-0-0" x="378.728219" y="302.768468"/>
<use xlink:href="#glyph-0-5" x="385.073892" y="302.768468"/>
<use xlink:href="#glyph-0-2" x="391.419566" y="302.768468"/>
</g>
<g fill="rgb(0%, 0%, 0%)" fill-opacity="1">
<use xlink:href="#glyph-0-6" x="197.945906" y="316.409546"/>
<use xlink:href="#glyph-0-7" x="204.251669" y="316.409546"/>
</g>
<g fill="rgb(0%, 0%, 0%)" fill-opacity="1">
<use xlink:href="#glyph-0-7" x="208.180923" y="316.409546"/>
</g>
<g fill="rgb(0%, 0%, 0%)" fill-opacity="1">
<use xlink:href="#glyph-0-8" x="212.063408" y="316.409546"/>
<use xlink:href="#glyph-0-7" x="218.169621" y="316.409546"/>
<use xlink:href="#glyph-0-9" x="222.270363" y="316.409546"/>
<use xlink:href="#glyph-0-7" x="225.4432" y="316.409546"/>
<use xlink:href="#glyph-0-10" x="229.543941" y="316.409546"/>
<use xlink:href="#glyph-0-11" x="235.660133" y="316.409546"/>
<use xlink:href="#glyph-0-12" x="239.571302" y="316.409546"/>
</g>
<g clip-path="url(#clip-9)">
<path fill="none" stroke-width="0.8" stroke-linecap="square" stroke-linejoin="round" stroke="rgb(69.018555%, 69.018555%, 69.018555%)" stroke-opacity="1" stroke-miterlimit="10" d="M 43.778304 37.544313 L 400.899173 37.544313 " transform="matrix(0.997747, 0, 0, -0.997747, -0.000000000000007216, 325.66677)"/>
</g>
<path fill="none" stroke-width="0.8" stroke-linecap="butt" stroke-linejoin="round" stroke="rgb(0%, 0%, 0%)" stroke-opacity="1" stroke-miterlimit="10" d="M 43.778304 37.544313 L 40.278232 37.544313 " transform="matrix(0.997747, 0, 0, -0.997747, -0.000000000000007216, 325.66677)"/>
<g fill="rgb(0%, 0%, 0%)" fill-opacity="1">
<use xlink:href="#glyph-0-0" x="20.824858" y="291.995915"/>
<use xlink:href="#glyph-0-1" x="27.170532" y="291.995915"/>
<use xlink:href="#glyph-0-0" x="30.343368" y="291.995915"/>
</g>
<g clip-path="url(#clip-10)">
<path fill="none" stroke-width="0.8" stroke-linecap="square" stroke-linejoin="round" stroke="rgb(69.018555%, 69.018555%, 69.018555%)" stroke-opacity="1" stroke-miterlimit="10" d="M 43.778304 90.765764 L 400.899173 90.765764 " transform="matrix(0.997747, 0, 0, -0.997747, -0.000000000000007216, 325.66677)"/>
</g>
<path fill="none" stroke-width="0.8" stroke-linecap="butt" stroke-linejoin="round" stroke="rgb(0%, 0%, 0%)" stroke-opacity="1" stroke-miterlimit="10" d="M 43.778304 90.765764 L 40.278232 90.765764 " transform="matrix(0.997747, 0, 0, -0.997747, -0.000000000000007216, 325.66677)"/>
<g fill="rgb(0%, 0%, 0%)" fill-opacity="1">
<use xlink:href="#glyph-0-0" x="20.824858" y="238.893405"/>
<use xlink:href="#glyph-0-1" x="27.170532" y="238.893405"/>
<use xlink:href="#glyph-0-4" x="30.343368" y="238.893405"/>
</g>
<g clip-path="url(#clip-11)">
<path fill="none" stroke-width="0.8" stroke-linecap="square" stroke-linejoin="round" stroke="rgb(69.018555%, 69.018555%, 69.018555%)" stroke-opacity="1" stroke-miterlimit="10" d="M 43.778304 143.987215 L 400.899173 143.987215 " transform="matrix(0.997747, 0, 0, -0.997747, -0.000000000000007216, 325.66677)"/>
</g>
<path fill="none" stroke-width="0.8" stroke-linecap="butt" stroke-linejoin="round" stroke="rgb(0%, 0%, 0%)" stroke-opacity="1" stroke-miterlimit="10" d="M 43.778304 143.987215 L 40.278232 143.987215 " transform="matrix(0.997747, 0, 0, -0.997747, -0.000000000000007216, 325.66677)"/>
<g fill="rgb(0%, 0%, 0%)" fill-opacity="1">
<use xlink:href="#glyph-0-0" x="20.824858" y="185.790896"/>
<use xlink:href="#glyph-0-1" x="27.170532" y="185.790896"/>
<use xlink:href="#glyph-0-13" x="30.343368" y="185.790896"/>
</g>
<g clip-path="url(#clip-12)">
<path fill="none" stroke-width="0.8" stroke-linecap="square" stroke-linejoin="round" stroke="rgb(69.018555%, 69.018555%, 69.018555%)" stroke-opacity="1" stroke-miterlimit="10" d="M 43.778304 197.212581 L 400.899173 197.212581 " transform="matrix(0.997747, 0, 0, -0.997747, -0.000000000000007216, 325.66677)"/>
</g>
<path fill="none" stroke-width="0.8" stroke-linecap="butt" stroke-linejoin="round" stroke="rgb(0%, 0%, 0%)" stroke-opacity="1" stroke-miterlimit="10" d="M 43.778304 197.212581 L 40.278232 197.212581 " transform="matrix(0.997747, 0, 0, -0.997747, -0.000000000000007216, 325.66677)"/>
<g fill="rgb(0%, 0%, 0%)" fill-opacity="1">
<use xlink:href="#glyph-0-0" x="20.824858" y="132.688387"/>
<use xlink:href="#glyph-0-1" x="27.170532" y="132.688387"/>
<use xlink:href="#glyph-0-14" x="30.343368" y="132.688387"/>
</g>
<g clip-path="url(#clip-13)">
<path fill="none" stroke-width="0.8" stroke-linecap="square" stroke-linejoin="round" stroke="rgb(69.018555%, 69.018555%, 69.018555%)" stroke-opacity="1" stroke-miterlimit="10" d="M 43.778304 250.434032 L 400.899173 250.434032 " transform="matrix(0.997747, 0, 0, -0.997747, -0.000000000000007216, 325.66677)"/>
</g>
<path fill="none" stroke-width="0.8" stroke-linecap="butt" stroke-linejoin="round" stroke="rgb(0%, 0%, 0%)" stroke-opacity="1" stroke-miterlimit="10" d="M 43.778304 250.434032 L 40.278232 250.434032 " transform="matrix(0.997747, 0, 0, -0.997747, -0.000000000000007216, 325.66677)"/>
<g fill="rgb(0%, 0%, 0%)" fill-opacity="1">
<use xlink:href="#glyph-0-0" x="20.824858" y="79.585877"/>
<use xlink:href="#glyph-0-1" x="27.170532" y="79.585877"/>
<use xlink:href="#glyph-0-15" x="30.343368" y="79.585877"/>
</g>
<g clip-path="url(#clip-14)">
<path fill="none" stroke-width="0.8" stroke-linecap="square" stroke-linejoin="round" stroke="rgb(69.018555%, 69.018555%, 69.018555%)" stroke-opacity="1" stroke-miterlimit="10" d="M 43.778304 303.655483 L 400.899173 303.655483 " transform="matrix(0.997747, 0, 0, -0.997747, -0.000000000000007216, 325.66677)"/>
</g>
<path fill="none" stroke-width="0.8" stroke-linecap="butt" stroke-linejoin="round" stroke="rgb(0%, 0%, 0%)" stroke-opacity="1" stroke-miterlimit="10" d="M 43.778304 303.655483 L 40.278232 303.655483 " transform="matrix(0.997747, 0, 0, -0.997747, -0.000000000000007216, 325.66677)"/>
<g fill="rgb(0%, 0%, 0%)" fill-opacity="1">
<use xlink:href="#glyph-0-3" x="20.824858" y="26.483368"/>
<use xlink:href="#glyph-0-1" x="27.170532" y="26.483368"/>
<use xlink:href="#glyph-0-0" x="30.343368" y="26.483368"/>
</g>
<g fill="rgb(0%, 0%, 0%)" fill-opacity="1">
<use xlink:href="#glyph-1-0" x="14.760425" y="236.791114"/>
<use xlink:href="#glyph-1-1" x="14.760425" y="229.826838"/>
<use xlink:href="#glyph-1-2" x="14.760425" y="223.720624"/>
<use xlink:href="#glyph-1-3" x="14.760425" y="217.394906"/>
<use xlink:href="#glyph-1-4" x="14.760425" y="212.196642"/>
<use xlink:href="#glyph-1-5" x="14.760425" y="206.060496"/>
<use xlink:href="#glyph-1-6" x="14.760425" y="201.959754"/>
<use xlink:href="#glyph-1-7" x="14.760425" y="196.053089"/>
<use xlink:href="#glyph-1-8" x="14.760425" y="189.936898"/>
<use xlink:href="#glyph-1-9" x="14.760425" y="186.025728"/>
<use xlink:href="#glyph-1-1" x="14.760425" y="183.251991"/>
<use xlink:href="#glyph-1-2" x="14.760425" y="177.145777"/>
<use xlink:href="#glyph-1-10" x="14.760425" y="170.820059"/>
<use xlink:href="#glyph-1-11" x="14.760425" y="167.647222"/>
<use xlink:href="#glyph-1-12" x="14.760425" y="163.756007"/>
<use xlink:href="#glyph-1-7" x="14.760425" y="160.812653"/>
<use xlink:href="#glyph-1-13" x="14.760425" y="154.696461"/>
<use xlink:href="#glyph-1-13" x="14.760425" y="149.208851"/>
<use xlink:href="#glyph-1-7" x="14.760425" y="143.72124"/>
<use xlink:href="#glyph-1-5" x="14.760425" y="137.605049"/>
</g>
<g fill="rgb(0%, 0%, 0%)" fill-opacity="1">
<use xlink:href="#glyph-1-14" x="14.760425" y="133.675795"/>
<use xlink:href="#glyph-1-10" x="14.760425" y="127.340099"/>
<use xlink:href="#glyph-1-3" x="14.760425" y="124.167263"/>
<use xlink:href="#glyph-1-9" x="14.760425" y="118.968999"/>
<use xlink:href="#glyph-1-15" x="14.760425" y="116.195261"/>
<use xlink:href="#glyph-1-9" x="14.760425" y="106.477202"/>
<use xlink:href="#glyph-1-16" x="14.760425" y="103.703464"/>
<use xlink:href="#glyph-1-7" x="14.760425" y="100.929726"/>
<use xlink:href="#glyph-1-5" x="14.760425" y="94.813535"/>
<use xlink:href="#glyph-1-9" x="14.760425" y="90.712793"/>
<use xlink:href="#glyph-1-8" x="14.760425" y="87.939056"/>
<use xlink:href="#glyph-1-17" x="14.760425" y="84.027886"/>
<use xlink:href="#glyph-1-18" x="14.760425" y="78.121222"/>
</g>
<path fill="none" stroke-width="3" stroke-linecap="square" stroke-linejoin="round" stroke="rgb(30.587769%, 47.450256%, 65.489197%)" stroke-opacity="1" stroke-miterlimit="10" d="M 53.507251 293.300125 L 68.106544 278.579465 L 92.430869 257.195356 L 141.08735 221.337237 L 189.739915 193.176145 L 238.39248 171.106899 L 287.04896 152.161879 L 335.701525 137.112353 L 384.354091 124.18871 " transform="matrix(0.997747, 0, 0, -0.997747, -0.000000000000007216, 325.66677)"/>
<path fill="none" stroke-width="3" stroke-linecap="square" stroke-linejoin="round" stroke="rgb(46.273804%, 71.763611%, 69.802856%)" stroke-opacity="1" stroke-miterlimit="10" d="M 53.507251 291.088111 L 68.106544 274.331614 L 92.430869 249.811536 L 141.08735 210.47292 L 189.739915 181.027685 L 238.39248 158.355519 L 287.04896 138.807578 L 335.701525 124.619367 L 384.354091 112.690151 " transform="matrix(0.997747, 0, 0, -0.997747, -0.000000000000007216, 325.66677)"/>
<path fill="none" stroke-width="3" stroke-linecap="square" stroke-linejoin="round" stroke="rgb(69.018555%, 47.842407%, 63.136292%)" stroke-opacity="1" stroke-miterlimit="10" d="M 53.507251 289.111001 L 68.106544 269.934992 L 92.430869 242.41597 L 141.08735 200.391617 L 189.739915 169.662239 L 238.39248 146.919602 L 287.04896 129.051226 L 335.701525 114.878675 L 384.354091 103.450588 " transform="matrix(0.997747, 0, 0, -0.997747, -0.000000000000007216, 325.66677)"/>
<path fill="none" stroke-width="3" stroke-linecap="square" stroke-linejoin="round" stroke="rgb(88.233948%, 34.117126%, 34.901428%)" stroke-opacity="1" stroke-miterlimit="10" d="M 53.507251 287.525398 L 68.106544 265.557944 L 92.430869 235.885635 L 141.08735 191.081582 L 189.739915 159.83933 L 238.39248 137.820981 L 287.04896 120.770854 L 335.701525 106.848868 L 384.354091 96.49351 " transform="matrix(0.997747, 0, 0, -0.997747, -0.000000000000007216, 325.66677)"/>
<path fill="none" stroke-width="0.8" stroke-linecap="square" stroke-linejoin="miter" stroke="rgb(0%, 0%, 0%)" stroke-opacity="1" stroke-miterlimit="10" d="M 43.778304 37.544313 L 43.778304 303.655483 " transform="matrix(0.997747, 0, 0, -0.997747, -0.000000000000007216, 325.66677)"/>
<path fill="none" stroke-width="0.8" stroke-linecap="square" stroke-linejoin="miter" stroke="rgb(0%, 0%, 0%)" stroke-opacity="1" stroke-miterlimit="10" d="M 400.899173 37.544313 L 400.899173 303.655483 " transform="matrix(0.997747, 0, 0, -0.997747, -0.000000000000007216, 325.66677)"/>
<path fill="none" stroke-width="0.8" stroke-linecap="square" stroke-linejoin="miter" stroke="rgb(0%, 0%, 0%)" stroke-opacity="1" stroke-miterlimit="10" d="M 43.778304 37.544313 L 400.899173 37.544313 " transform="matrix(0.997747, 0, 0, -0.997747, -0.000000000000007216, 325.66677)"/>
<path fill="none" stroke-width="0.8" stroke-linecap="square" stroke-linejoin="miter" stroke="rgb(0%, 0%, 0%)" stroke-opacity="1" stroke-miterlimit="10" d="M 43.778304 303.655483 L 400.899173 303.655483 " transform="matrix(0.997747, 0, 0, -0.997747, -0.000000000000007216, 325.66677)"/>
<g fill="rgb(0%, 0%, 0%)" fill-opacity="1">
<use xlink:href="#glyph-2-0" x="25.779921" y="15.835533"/>
</g>
<g fill="rgb(0%, 0%, 0%)" fill-opacity="1">
<use xlink:href="#glyph-2-1" x="34.139953" y="15.835533"/>
</g>
<g fill="rgb(0%, 0%, 0%)" fill-opacity="1">
<use xlink:href="#glyph-2-2" x="41.465211" y="15.835533"/>
</g>
<g fill="rgb(0%, 0%, 0%)" fill-opacity="1">
<use xlink:href="#glyph-2-3" x="49.053548" y="15.835533"/>
</g>
<g fill="rgb(0%, 0%, 0%)" fill-opacity="1">
<use xlink:href="#glyph-2-4" x="55.291417" y="15.835533"/>
</g>
<g fill="rgb(0%, 0%, 0%)" fill-opacity="1">
<use xlink:href="#glyph-2-5" x="62.657599" y="15.835533"/>
</g>
<g fill="rgb(0%, 0%, 0%)" fill-opacity="1">
<use xlink:href="#glyph-2-6" x="67.580079" y="15.835533"/>
</g>
<g fill="rgb(0%, 0%, 0%)" fill-opacity="1">
<use xlink:href="#glyph-2-7" x="74.665645" y="15.835533"/>
</g>
<g fill="rgb(0%, 0%, 0%)" fill-opacity="1">
<use xlink:href="#glyph-2-8" x="82.002595" y="15.835533"/>
</g>
<g fill="rgb(0%, 0%, 0%)" fill-opacity="1">
<use xlink:href="#glyph-2-9" x="86.697075" y="15.835533"/>
</g>
<g fill="rgb(0%, 0%, 0%)" fill-opacity="1">
<use xlink:href="#glyph-2-1" x="90.023549" y="15.835533"/>
</g>
<g fill="rgb(0%, 0%, 0%)" fill-opacity="1">
<use xlink:href="#glyph-2-2" x="97.348807" y="15.835533"/>
</g>
<g fill="rgb(0%, 0%, 0%)" fill-opacity="1">
<use xlink:href="#glyph-2-10" x="104.937144" y="15.835533"/>
</g>
<g fill="rgb(0%, 0%, 0%)" fill-opacity="1">
<use xlink:href="#glyph-2-1" x="108.743004" y="15.835533"/>
</g>
<g fill="rgb(0%, 0%, 0%)" fill-opacity="1">
<use xlink:href="#glyph-2-11" x="116.068263" y="15.835533"/>
</g>
<g fill="rgb(0%, 0%, 0%)" fill-opacity="1">
<use xlink:href="#glyph-2-10" x="120.283356" y="15.835533"/>
</g>
<g fill="rgb(0%, 0%, 0%)" fill-opacity="1">
<use xlink:href="#glyph-2-12" x="124.089216" y="15.835533"/>
</g>
<g fill="rgb(0%, 0%, 0%)" fill-opacity="1">
<use xlink:href="#glyph-2-13" x="135.752337" y="15.835533"/>
</g>
<g fill="rgb(0%, 0%, 0%)" fill-opacity="1">
<use xlink:href="#glyph-2-14" x="143.340674" y="15.835533"/>
</g>
<g fill="rgb(0%, 0%, 0%)" fill-opacity="1">
<use xlink:href="#glyph-2-8" x="146.667148" y="15.835533"/>
</g>
<g fill="rgb(0%, 0%, 0%)" fill-opacity="1">
<use xlink:href="#glyph-2-9" x="151.361627" y="15.835533"/>
</g>
<g fill="rgb(0%, 0%, 0%)" fill-opacity="1">
<use xlink:href="#glyph-2-12" x="154.688101" y="15.835533"/>
</g>
<g fill="rgb(0%, 0%, 0%)" fill-opacity="1">
<use xlink:href="#glyph-2-9" x="166.351222" y="15.835533"/>
</g>
<g fill="rgb(0%, 0%, 0%)" fill-opacity="1">
<use xlink:href="#glyph-2-2" x="169.677696" y="15.835533"/>
</g>
<g fill="rgb(0%, 0%, 0%)" fill-opacity="1">
<use xlink:href="#glyph-2-9" x="177.266033" y="15.835533"/>
</g>
<g fill="rgb(0%, 0%, 0%)" fill-opacity="1">
<use xlink:href="#glyph-2-12" x="180.592507" y="15.835533"/>
</g>
<g fill="rgb(0%, 0%, 0%)" fill-opacity="1">
<use xlink:href="#glyph-2-9" x="192.255628" y="15.835533"/>
</g>
<g fill="rgb(0%, 0%, 0%)" fill-opacity="1">
<use xlink:href="#glyph-2-15" x="195.582102" y="15.835533"/>
</g>
<g fill="rgb(0%, 0%, 0%)" fill-opacity="1">
<use xlink:href="#glyph-2-4" x="201.866741" y="15.835533"/>
</g>
<g fill="rgb(0%, 0%, 0%)" fill-opacity="1">
<use xlink:href="#glyph-2-5" x="209.232923" y="15.835533"/>
</g>
<g fill="rgb(0%, 0%, 0%)" fill-opacity="1">
<use xlink:href="#glyph-2-3" x="214.155403" y="15.835533"/>
</g>
<g fill="rgb(0%, 0%, 0%)" fill-opacity="1">
<use xlink:href="#glyph-2-10" x="220.393273" y="15.835533"/>
</g>
<g fill="rgb(0%, 0%, 0%)" fill-opacity="1">
<use xlink:href="#glyph-2-1" x="224.199134" y="15.835533"/>
</g>
<g fill="rgb(0%, 0%, 0%)" fill-opacity="1">
<use xlink:href="#glyph-2-2" x="231.524392" y="15.835533"/>
</g>
<g fill="rgb(0%, 0%, 0%)" fill-opacity="1">
<use xlink:href="#glyph-2-10" x="239.112728" y="15.835533"/>
</g>
<g fill="rgb(0%, 0%, 0%)" fill-opacity="1">
<use xlink:href="#glyph-2-5" x="242.918589" y="15.835533"/>
</g>
<g fill="rgb(0%, 0%, 0%)" fill-opacity="1">
<use xlink:href="#glyph-2-7" x="247.841069" y="15.835533"/>
</g>
<g fill="rgb(0%, 0%, 0%)" fill-opacity="1">
<use xlink:href="#glyph-2-2" x="255.17802" y="15.835533"/>
</g>
<g fill="rgb(0%, 0%, 0%)" fill-opacity="1">
<use xlink:href="#glyph-2-16" x="262.766356" y="15.835533"/>
</g>
<g fill="rgb(0%, 0%, 0%)" fill-opacity="1">
<use xlink:href="#glyph-2-1" x="270.366385" y="15.835533"/>
</g>
<g fill="rgb(0%, 0%, 0%)" fill-opacity="1">
<use xlink:href="#glyph-2-12" x="277.691644" y="15.835533"/>
</g>
<g fill="rgb(0%, 0%, 0%)" fill-opacity="1">
<use xlink:href="#glyph-2-10" x="289.354765" y="15.835533"/>
</g>
<g fill="rgb(0%, 0%, 0%)" fill-opacity="1">
<use xlink:href="#glyph-2-8" x="293.160625" y="15.835533"/>
</g>
<g fill="rgb(0%, 0%, 0%)" fill-opacity="1">
<use xlink:href="#glyph-2-4" x="297.855105" y="15.835533"/>
</g>
<g fill="rgb(0%, 0%, 0%)" fill-opacity="1">
<use xlink:href="#glyph-2-17" x="305.221286" y="15.835533"/>
</g>
<g fill="rgb(0%, 0%, 0%)" fill-opacity="1">
<use xlink:href="#glyph-2-8" x="312.306852" y="15.835533"/>
</g>
<g fill="rgb(0%, 0%, 0%)" fill-opacity="1">
<use xlink:href="#glyph-2-18" x="320.807191" y="15.835533"/>
</g>
<g fill="rgb(0%, 0%, 0%)" fill-opacity="1">
<use xlink:href="#glyph-3-0" x="325.478286" y="15.835533"/>
</g>
<g fill="rgb(0%, 0%, 0%)" fill-opacity="1">
<use xlink:href="#glyph-2-19" x="339.474031" y="15.835533"/>
</g>
<g fill="rgb(0%, 0%, 0%)" fill-opacity="1">
<use xlink:href="#glyph-2-20" x="351.838693" y="15.835533"/>
</g>
<g fill="rgb(0%, 0%, 0%)" fill-opacity="1">
<use xlink:href="#glyph-2-21" x="359.456261" y="15.835533"/>
</g>
<g fill="rgb(0%, 0%, 0%)" fill-opacity="1">
<use xlink:href="#glyph-2-22" x="367.073828" y="15.835533"/>
</g>
<g fill="rgb(0%, 0%, 0%)" fill-opacity="1">
<use xlink:href="#glyph-3-1" x="373.212313" y="15.835533"/>
</g>
<g fill="rgb(0%, 0%, 0%)" fill-opacity="1">
<use xlink:href="#glyph-2-19" x="385.337282" y="15.835533"/>
</g>
<g fill="rgb(0%, 0%, 0%)" fill-opacity="1">
<use xlink:href="#glyph-2-21" x="397.701944" y="15.835533"/>
</g>
<g fill="rgb(0%, 0%, 0%)" fill-opacity="1">
<use xlink:href="#glyph-2-23" x="405.319511" y="15.835533"/>
</g>
<g fill="rgb(0%, 0%, 0%)" fill-opacity="1">
<use xlink:href="#glyph-2-24" x="412.937079" y="15.835533"/>
</g>
<path fill-rule="nonzero" fill="rgb(100%, 100%, 100%)" fill-opacity="0.8" stroke-width="1" stroke-linecap="butt" stroke-linejoin="miter" stroke="rgb(79.998779%, 79.998779%, 79.998779%)" stroke-opacity="0.8" stroke-miterlimit="10" d="M 279.038729 236.970109 L 393.899029 236.970109 C 395.230153 236.970109 395.89963 237.635671 395.89963 238.966794 L 395.89963 296.655339 C 395.89963 297.990378 395.230153 298.655939 393.899029 298.655939 L 279.038729 298.655939 C 277.70369 298.655939 277.038128 297.990378 277.038128 296.655339 L 277.038128 238.966794 C 277.038128 237.635671 277.70369 236.970109 279.038729 236.970109 Z M 279.038729 236.970109 " transform="matrix(0.997747, 0, 0, -0.997747, -0.000000000000007216, 325.66677)"/>
<path fill="none" stroke-width="3" stroke-linecap="square" stroke-linejoin="round" stroke="rgb(30.587769%, 47.450256%, 65.489197%)" stroke-opacity="1" stroke-miterlimit="10" d="M 281.039329 290.563491 L 301.037503 290.563491 " transform="matrix(0.997747, 0, 0, -0.997747, -0.000000000000007216, 325.66677)"/>
<g fill="rgb(0%, 0%, 0%)" fill-opacity="1">
<use xlink:href="#glyph-0-3" x="308.342599" y="39.251416"/>
<use xlink:href="#glyph-0-9" x="314.688272" y="39.251416"/>
<use xlink:href="#glyph-0-16" x="317.861108" y="39.251416"/>
<use xlink:href="#glyph-0-10" x="324.186827" y="39.251416"/>
<use xlink:href="#glyph-0-17" x="330.303018" y="39.251416"/>
<use xlink:href="#glyph-0-16" x="335.501282" y="39.251416"/>
<use xlink:href="#glyph-0-9" x="341.827" y="39.251416"/>
<use xlink:href="#glyph-0-18" x="344.999837" y="39.251416"/>
<use xlink:href="#glyph-0-19" x="348.511908" y="39.251416"/>
<use xlink:href="#glyph-0-20" x="354.837626" y="39.251416"/>
<use xlink:href="#glyph-0-21" x="361.163344" y="39.251416"/>
<use xlink:href="#glyph-0-11" x="366.650955" y="39.251416"/>
<use xlink:href="#glyph-0-22" x="370.562124" y="39.251416"/>
<use xlink:href="#glyph-0-8" x="373.335862" y="39.251416"/>
<use xlink:href="#glyph-0-20" x="379.442076" y="39.251416"/>
</g>
<path fill="none" stroke-width="3" stroke-linecap="square" stroke-linejoin="round" stroke="rgb(46.273804%, 71.763611%, 69.802856%)" stroke-opacity="1" stroke-miterlimit="10" d="M 281.039329 275.889812 L 301.037503 275.889812 " transform="matrix(0.997747, 0, 0, -0.997747, -0.000000000000007216, 325.66677)"/>
<g fill="rgb(0%, 0%, 0%)" fill-opacity="1">
<use xlink:href="#glyph-0-4" x="308.342599" y="53.890241"/>
<use xlink:href="#glyph-0-9" x="314.688272" y="53.890241"/>
<use xlink:href="#glyph-0-16" x="317.861108" y="53.890241"/>
<use xlink:href="#glyph-0-10" x="324.186827" y="53.890241"/>
<use xlink:href="#glyph-0-17" x="330.303018" y="53.890241"/>
<use xlink:href="#glyph-0-16" x="335.501282" y="53.890241"/>
<use xlink:href="#glyph-0-9" x="341.827" y="53.890241"/>
<use xlink:href="#glyph-0-18" x="344.999837" y="53.890241"/>
<use xlink:href="#glyph-0-19" x="348.511908" y="53.890241"/>
<use xlink:href="#glyph-0-20" x="354.837626" y="53.890241"/>
<use xlink:href="#glyph-0-21" x="361.163344" y="53.890241"/>
<use xlink:href="#glyph-0-11" x="366.650955" y="53.890241"/>
<use xlink:href="#glyph-0-22" x="370.562124" y="53.890241"/>
<use xlink:href="#glyph-0-8" x="373.335862" y="53.890241"/>
<use xlink:href="#glyph-0-20" x="379.442076" y="53.890241"/>
<use xlink:href="#glyph-0-17" x="385.767794" y="53.890241"/>
</g>
<path fill="none" stroke-width="3" stroke-linecap="square" stroke-linejoin="round" stroke="rgb(69.018555%, 47.842407%, 63.136292%)" stroke-opacity="1" stroke-miterlimit="10" d="M 281.039329 261.220048 L 301.037503 261.220048 " transform="matrix(0.997747, 0, 0, -0.997747, -0.000000000000007216, 325.66677)"/>
<g fill="rgb(0%, 0%, 0%)" fill-opacity="1">
<use xlink:href="#glyph-0-5" x="308.342599" y="68.529066"/>
<use xlink:href="#glyph-0-9" x="314.688272" y="68.529066"/>
<use xlink:href="#glyph-0-16" x="317.861108" y="68.529066"/>
<use xlink:href="#glyph-0-10" x="324.186827" y="68.529066"/>
<use xlink:href="#glyph-0-17" x="330.303018" y="68.529066"/>
<use xlink:href="#glyph-0-16" x="335.501282" y="68.529066"/>
<use xlink:href="#glyph-0-9" x="341.827" y="68.529066"/>
<use xlink:href="#glyph-0-18" x="344.999837" y="68.529066"/>
<use xlink:href="#glyph-0-19" x="348.511908" y="68.529066"/>
<use xlink:href="#glyph-0-20" x="354.837626" y="68.529066"/>
<use xlink:href="#glyph-0-21" x="361.163344" y="68.529066"/>
<use xlink:href="#glyph-0-11" x="366.650955" y="68.529066"/>
<use xlink:href="#glyph-0-22" x="370.562124" y="68.529066"/>
<use xlink:href="#glyph-0-8" x="373.335862" y="68.529066"/>
<use xlink:href="#glyph-0-20" x="379.442076" y="68.529066"/>
<use xlink:href="#glyph-0-17" x="385.767794" y="68.529066"/>
</g>
<path fill="none" stroke-width="3" stroke-linecap="square" stroke-linejoin="round" stroke="rgb(88.233948%, 34.117126%, 34.901428%)" stroke-opacity="1" stroke-miterlimit="10" d="M 281.039329 246.546368 L 301.037503 246.546368 " transform="matrix(0.997747, 0, 0, -0.997747, -0.000000000000007216, 325.66677)"/>
<g fill="rgb(0%, 0%, 0%)" fill-opacity="1">
<use xlink:href="#glyph-0-13" x="308.342599" y="83.16789"/>
<use xlink:href="#glyph-0-9" x="314.688272" y="83.16789"/>
<use xlink:href="#glyph-0-16" x="317.861108" y="83.16789"/>
<use xlink:href="#glyph-0-10" x="324.186827" y="83.16789"/>
<use xlink:href="#glyph-0-17" x="330.303018" y="83.16789"/>
<use xlink:href="#glyph-0-16" x="335.501282" y="83.16789"/>
<use xlink:href="#glyph-0-9" x="341.827" y="83.16789"/>
<use xlink:href="#glyph-0-18" x="344.999837" y="83.16789"/>
<use xlink:href="#glyph-0-19" x="348.511908" y="83.16789"/>
<use xlink:href="#glyph-0-20" x="354.837626" y="83.16789"/>
<use xlink:href="#glyph-0-21" x="361.163344" y="83.16789"/>
<use xlink:href="#glyph-0-11" x="366.650955" y="83.16789"/>
<use xlink:href="#glyph-0-22" x="370.562124" y="83.16789"/>
<use xlink:href="#glyph-0-8" x="373.335862" y="83.16789"/>
<use xlink:href="#glyph-0-20" x="379.442076" y="83.16789"/>
<use xlink:href="#glyph-0-17" x="385.767794" y="83.16789"/>
</g>
</svg>
